<svg xmlns="http://www.w3.org/2000/svg" viewBox="0 0 1883.6 1643.99" id="Constructionsite"><polygon fill="#6929c2" points="1314.61 218.91 1313.91 216.82 1622.8 114.28 1623.24 114.55 1790.06 215.96 1788.91 217.84 1622.53 116.69 1314.61 218.91" class="color3879f9 svgShape"></polygon><rect width="5.87" height="872.31" x="1595.7" y="240.24" fill="#dec7ff" class="colorc7dbff svgShape"></rect><rect width="5.87" height="872.31" x="1644.68" y="240.24" fill="#dec7ff" class="colorc7dbff svgShape"></rect><rect width="4.4" height="68.11" x="1620.33" y="244.21" fill="#dec7ff" transform="rotate(-45 1622.535 278.274)" class="colorc7dbff svgShape"></rect><rect width="68.11" height="4.4" x="1588.48" y="276.07" fill="#dec7ff" transform="rotate(-45 1622.523 278.269)" class="colorc7dbff svgShape"></rect><rect width="4.4" height="68.11" x="1620.33" y="294.57" fill="#dec7ff" transform="rotate(-45 1622.523 328.63)" class="colorc7dbff svgShape"></rect><rect width="68.11" height="4.4" x="1588.48" y="326.43" fill="#dec7ff" transform="rotate(-45 1622.523 328.63)" class="colorc7dbff svgShape"></rect><rect width="47.94" height="3.1" x="1306" y="233.4" fill="#dec7ff" transform="rotate(-45 1329.978 234.945)" class="colorc7dbff svgShape"></rect><rect width="3.1" height="47.94" x="1328.42" y="210.98" fill="#dec7ff" transform="rotate(-45 1329.978 234.945)" class="colorc7dbff svgShape"></rect><rect width="47.94" height="3.1" x="1341.45" y="233.4" fill="#dec7ff" transform="rotate(-45 1365.43 234.95)" class="colorc7dbff svgShape"></rect><rect width="3.1" height="47.94" x="1363.88" y="210.98" fill="#dec7ff" transform="rotate(-45 1365.43 234.95)" class="colorc7dbff svgShape"></rect><rect width="47.94" height="3.1" x="1376.45" y="233.4" fill="#dec7ff" transform="rotate(-45 1400.43 234.953)" class="colorc7dbff svgShape"></rect><rect width="3.1" height="47.94" x="1398.87" y="210.98" fill="#dec7ff" transform="rotate(-45 1400.419 234.948)" class="colorc7dbff svgShape"></rect><rect width="47.94" height="3.1" x="1411.9" y="233.4" fill="#dec7ff" transform="rotate(-45 1435.876 234.94)" class="colorc7dbff svgShape"></rect><rect width="3.1" height="47.94" x="1434.33" y="210.98" fill="#dec7ff" transform="rotate(-45 1435.876 234.94)" class="colorc7dbff svgShape"></rect><rect width="47.94" height="3.1" x="1445.43" y="233.4" fill="#dec7ff" transform="rotate(-45 1469.406 234.942)" class="colorc7dbff svgShape"></rect><rect width="3.1" height="47.94" x="1467.86" y="210.98" fill="#dec7ff" transform="rotate(-45 1469.406 234.942)" class="colorc7dbff svgShape"></rect><rect width="47.94" height="3.1" x="1480.89" y="233.4" fill="#dec7ff" transform="rotate(-45 1504.858 234.947)" class="colorc7dbff svgShape"></rect><rect width="3.1" height="47.94" x="1503.31" y="210.98" fill="#dec7ff" transform="rotate(-45 1504.858 234.947)" class="colorc7dbff svgShape"></rect><rect width="47.94" height="3.1" x="1515.52" y="233.4" fill="#dec7ff" transform="rotate(-45 1539.49 234.952)" class="colorc7dbff svgShape"></rect><rect width="3.1" height="47.94" x="1537.94" y="210.98" fill="#dec7ff" transform="rotate(-45 1539.49 234.952)" class="colorc7dbff svgShape"></rect><rect width="47.94" height="3.1" x="1550.97" y="233.4" fill="#dec7ff" transform="rotate(-45 1574.948 234.945)" class="colorc7dbff svgShape"></rect><rect width="3.1" height="47.94" x="1573.39" y="210.98" fill="#dec7ff" transform="rotate(-45 1574.948 234.945)" class="colorc7dbff svgShape"></rect><rect width="47.94" height="3.1" x="1643.21" y="233.4" fill="#dec7ff" transform="rotate(-45 1667.18 234.951)" class="colorc7dbff svgShape"></rect><rect width="3.1" height="47.94" x="1665.63" y="210.98" fill="#dec7ff" transform="rotate(-45 1667.18 234.951)" class="colorc7dbff svgShape"></rect><rect width="47.94" height="3.1" x="1678.66" y="233.4" fill="#dec7ff" transform="rotate(-45 1702.637 234.945)" class="colorc7dbff svgShape"></rect><rect width="3.1" height="47.94" x="1701.08" y="210.98" fill="#dec7ff" transform="rotate(-45 1702.637 234.945)" class="colorc7dbff svgShape"></rect><rect width="47.94" height="3.1" x="1714.21" y="233.4" fill="#dec7ff" transform="rotate(-45 1738.189 234.949)" class="colorc7dbff svgShape"></rect><rect width="3.1" height="47.94" x="1736.63" y="210.98" fill="#dec7ff" transform="rotate(-45 1738.177 234.944)" class="colorc7dbff svgShape"></rect><rect width="47.94" height="3.1" x="1749.66" y="233.4" fill="#dec7ff" transform="rotate(-45 1773.629 234.949)" class="colorc7dbff svgShape"></rect><rect width="3.1" height="47.94" x="1772.08" y="210.98" fill="#dec7ff" transform="rotate(-45 1773.629 234.949)" class="colorc7dbff svgShape"></rect><rect width="4.4" height="68.11" x="1620.33" y="344.38" fill="#dec7ff" transform="rotate(-45 1622.524 378.438)" class="colorc7dbff svgShape"></rect><rect width="68.11" height="4.4" x="1588.48" y="376.24" fill="#dec7ff" transform="rotate(-45 1622.524 378.438)" class="colorc7dbff svgShape"></rect><rect width="4.4" height="68.11" x="1620.33" y="394.75" fill="#dec7ff" transform="rotate(-45 1622.524 428.798)" class="colorc7dbff svgShape"></rect><rect width="68.11" height="4.4" x="1588.48" y="426.6" fill="#dec7ff" transform="rotate(-45 1622.524 428.798)" class="colorc7dbff svgShape"></rect><rect width="4.4" height="68.11" x="1620.33" y="442.9" fill="#dec7ff" transform="rotate(-45 1622.531 476.955)" class="colorc7dbff svgShape"></rect><rect width="68.11" height="4.4" x="1588.48" y="474.76" fill="#dec7ff" transform="rotate(-45 1622.531 476.955)" class="colorc7dbff svgShape"></rect><rect width="4.4" height="68.11" x="1620.33" y="493.27" fill="#dec7ff" transform="rotate(-45 1622.531 527.316)" class="colorc7dbff svgShape"></rect><rect width="68.11" height="4.4" x="1588.48" y="525.12" fill="#dec7ff" transform="rotate(-45 1622.531 527.316)" class="colorc7dbff svgShape"></rect><rect width="4.4" height="68.11" x="1620.33" y="541.98" fill="#dec7ff" transform="rotate(-45 1622.532 576.035)" class="colorc7dbff svgShape"></rect><rect width="68.11" height="4.4" x="1588.48" y="573.83" fill="#dec7ff" transform="rotate(-45 1622.52 576.03)" class="colorc7dbff svgShape"></rect><rect width="4.4" height="68.11" x="1620.33" y="592.34" fill="#dec7ff" transform="rotate(-45 1622.531 626.395)" class="colorc7dbff svgShape"></rect><rect width="68.11" height="4.4" x="1588.48" y="624.19" fill="#dec7ff" transform="rotate(-45 1622.531 626.395)" class="colorc7dbff svgShape"></rect><rect width="4.4" height="68.11" x="1620.33" y="642.7" fill="#dec7ff" transform="rotate(-45 1622.531 676.756)" class="colorc7dbff svgShape"></rect><rect width="68.11" height="4.4" x="1588.48" y="674.55" fill="#dec7ff" transform="rotate(-45 1622.531 676.756)" class="colorc7dbff svgShape"></rect><rect width="4.4" height="68.11" x="1620.33" y="693.06" fill="#dec7ff" transform="rotate(-45 1622.531 727.116)" class="colorc7dbff svgShape"></rect><rect width="68.11" height="4.4" x="1588.48" y="724.91" fill="#dec7ff" transform="rotate(-45 1622.531 727.116)" class="colorc7dbff svgShape"></rect><rect width="4.4" height="68.11" x="1620.33" y="743.83" fill="#dec7ff" transform="rotate(-45 1622.53 777.886)" class="colorc7dbff svgShape"></rect><rect width="68.11" height="4.4" x="1588.48" y="775.68" fill="#dec7ff" transform="rotate(-45 1622.53 777.886)" class="colorc7dbff svgShape"></rect><rect width="4.4" height="68.11" x="1620.33" y="794.19" fill="#dec7ff" transform="rotate(-45 1622.53 828.246)" class="colorc7dbff svgShape"></rect><rect width="68.11" height="4.4" x="1588.48" y="826.04" fill="#dec7ff" transform="rotate(-45 1622.53 828.246)" class="colorc7dbff svgShape"></rect><rect width="4.4" height="68.11" x="1620.33" y="842.35" fill="#dec7ff" transform="rotate(-45 1622.526 876.398)" class="colorc7dbff svgShape"></rect><rect width="68.11" height="4.4" x="1588.48" y="874.2" fill="#dec7ff" transform="rotate(-45 1622.526 876.398)" class="colorc7dbff svgShape"></rect><rect width="4.4" height="68.11" x="1620.33" y="892.71" fill="#dec7ff" transform="rotate(-45 1622.526 926.758)" class="colorc7dbff svgShape"></rect><rect width="68.11" height="4.4" x="1588.48" y="924.56" fill="#dec7ff" transform="rotate(-45 1622.526 926.758)" class="colorc7dbff svgShape"></rect><rect width="4.4" height="68.11" x="1620.33" y="941.42" fill="#dec7ff" transform="rotate(-45 1622.526 975.478)" class="colorc7dbff svgShape"></rect><rect width="68.11" height="4.4" x="1588.48" y="973.27" fill="#dec7ff" transform="rotate(-45 1622.526 975.478)" class="colorc7dbff svgShape"></rect><rect width="4.4" height="68.11" x="1620.33" y="991.78" fill="#dec7ff" transform="rotate(-45 1622.526 1025.838)" class="colorc7dbff svgShape"></rect><rect width="68.11" height="4.4" x="1588.48" y="1023.63" fill="#dec7ff" transform="rotate(-45 1622.526 1025.838)" class="colorc7dbff svgShape"></rect><rect width="4.4" height="68.11" x="1620.33" y="1042.14" fill="#dec7ff" transform="rotate(-45 1622.526 1076.198)" class="colorc7dbff svgShape"></rect><rect width="68.11" height="4.4" x="1588.48" y="1073.99" fill="#dec7ff" transform="rotate(-45 1622.526 1076.198)" class="colorc7dbff svgShape"></rect><rect width="4.4" height="68.11" x="1620.33" y="1092.5" fill="#dec7ff" transform="rotate(-45 1622.526 1126.558)" class="colorc7dbff svgShape"></rect><rect width="68.11" height="4.4" x="1588.48" y="1124.36" fill="#dec7ff" transform="rotate(-45 1622.526 1126.558)" class="colorc7dbff svgShape"></rect><path fill="#dec7ff" d="M1597.53 254.19H1273l38.11-38.53h286.39zm-314-4.41h309.55V220.06H1313zM1795.35 253.69H1601.52l22.15-37.53h171.68zm-187.87-3.41H1792V219.56H1625.62z" class="colorc7dbff svgShape"></path><rect width="4.4" height="33.39" x="1309.86" y="217.86" fill="#dec7ff" class="colorc7dbff svgShape"></rect><path fill="#dec7ff" d="M1651.92,225.57H1594l21.53-101.28h14.85Zm-52.47-4.41h47l-19.66-92.46h-7.71Z" class="colorc7dbff svgShape"></path><polygon fill="#dec7ff" points="1599.76 218.53 1597.14 214.99 1636.81 185.76 1608.73 160.1 1628.03 133.19 1631.61 135.76 1614.59 159.49 1643.74 186.12 1599.76 218.53" class="colorc7dbff svgShape"></polygon><polygon fill="#6929c2" points="1827.6 219.7 1784.67 197.68 1784.67 263.73 1827.6 263.73 1827.6 219.7" class="color3879f9 svgShape"></polygon><rect width="60.18" height="39.63" x="1592.76" y="214.56" fill="#6929c2" class="color3879f9 svgShape"></rect><rect width="31.92" height="31.92" x="1606.71" y="99.53" fill="#6929c2" class="color3879f9 svgShape"></rect><circle cx="1279.04" cy="256.39" r="11.37" fill="#6929c2" transform="rotate(-45 1279.038 256.385)" class="color3879f9 svgShape"></circle><rect width="253.31" height="33.57" x="1163.06" y="296.38" fill="#bc8bff" class="color8bb8ff svgShape"></rect><path fill="#6929c2" d="M1305.46,330.87a1.11,1.11,0,0,1-1.11-1.1v-33l-26.95-38.61a1.1,1.1,0,0,1,1.81-1.26l27.15,38.89a1.12,1.12,0,0,1,.2.63v33.39A1.1,1.1,0,0,1,1305.46,330.87Z" class="color3879f9 svgShape"></path><path fill="#6929c2" d="M1249,330.87a1.1,1.1,0,0,0,1.1-1.1v-33l27-38.61a1.1,1.1,0,0,0-1.8-1.26l-27.15,38.89a1.12,1.12,0,0,0-.2.63v33.39A1.1,1.1,0,0,0,1249,330.87Z" class="color3879f9 svgShape"></path><polygon fill="#333333" points="1740.77 630.51 1741.68 627.78 1338.2 493.85 1337.63 494.19 1119.73 626.66 1121.23 629.11 1338.56 497 1740.77 630.51" class="color333333 svgShape"></polygon><rect width="7.67" height="734.74" x="1365.94" y="658.38" fill="#7613ff" transform="rotate(180 1369.775 1025.75)" class="colorffbe13 svgShape"></rect><rect width="7.67" height="734.74" x="1301.96" y="658.38" fill="#7613ff" transform="rotate(180 1305.79 1025.75)" class="colorffbe13 svgShape"></rect><rect width="88.96" height="5.75" x="1294.08" y="705.17" fill="#7613ff" transform="rotate(-45 1338.563 708.049)" class="colorffbe13 svgShape"></rect><rect width="5.75" height="88.96" x="1335.69" y="663.56" fill="#7613ff" transform="rotate(-45 1338.563 708.049)" class="colorffbe13 svgShape"></rect><rect width="88.96" height="5.75" x="1294.08" y="770.95" fill="#7613ff" transform="rotate(-45 1338.557 773.821)" class="colorffbe13 svgShape"></rect><rect width="5.75" height="88.96" x="1335.69" y="729.34" fill="#7613ff" transform="rotate(-45 1338.557 773.821)" class="colorffbe13 svgShape"></rect><rect width="4.05" height="62.63" x="1718.67" y="620.15" fill="#7613ff" transform="rotate(-45 1720.704 651.461)" class="colorffbe13 svgShape"></rect><rect width="62.63" height="4.05" x="1689.39" y="649.44" fill="#7613ff" transform="rotate(-45 1720.704 651.461)" class="colorffbe13 svgShape"></rect><rect width="4.05" height="62.63" x="1672.37" y="620.15" fill="#7613ff" transform="rotate(-45 1674.391 651.454)" class="colorffbe13 svgShape"></rect><rect width="62.63" height="4.05" x="1643.08" y="649.44" fill="#7613ff" transform="rotate(-45 1674.391 651.454)" class="colorffbe13 svgShape"></rect><rect width="4.05" height="62.63" x="1626.65" y="620.15" fill="#7613ff" transform="rotate(-45 1628.683 651.458)" class="colorffbe13 svgShape"></rect><rect width="62.63" height="4.05" x="1597.36" y="649.44" fill="#7613ff" transform="rotate(-45 1628.683 651.458)" class="colorffbe13 svgShape"></rect><rect width="4.05" height="62.63" x="1580.34" y="620.15" fill="#7613ff" transform="rotate(-45 1582.365 651.463)" class="colorffbe13 svgShape"></rect><rect width="62.63" height="4.05" x="1551.06" y="649.44" fill="#7613ff" transform="rotate(-45 1582.365 651.463)" class="colorffbe13 svgShape"></rect><rect width="4.05" height="62.63" x="1536.55" y="620.15" fill="#7613ff" transform="rotate(-45 1538.566 651.465)" class="colorffbe13 svgShape"></rect><rect width="62.63" height="4.05" x="1507.26" y="649.44" fill="#7613ff" transform="rotate(-45 1538.566 651.465)" class="colorffbe13 svgShape"></rect><rect width="4.05" height="62.63" x="1490.24" y="620.15" fill="#7613ff" transform="rotate(-45 1492.265 651.464)" class="colorffbe13 svgShape"></rect><rect width="62.63" height="4.05" x="1460.95" y="649.44" fill="#7613ff" transform="rotate(-45 1492.265 651.464)" class="colorffbe13 svgShape"></rect><rect width="4.05" height="62.63" x="1445" y="620.15" fill="#7613ff" transform="rotate(-45 1447.025 651.463)" class="colorffbe13 svgShape"></rect><rect width="62.63" height="4.05" x="1415.71" y="649.44" fill="#7613ff" transform="rotate(-45 1447.025 651.463)" class="colorffbe13 svgShape"></rect><rect width="4.05" height="62.63" x="1398.7" y="620.15" fill="#7613ff" transform="rotate(-45 1400.724 651.461)" class="colorffbe13 svgShape"></rect><rect width="62.63" height="4.05" x="1369.41" y="649.44" fill="#7613ff" transform="rotate(-45 1400.724 651.461)" class="colorffbe13 svgShape"></rect><rect width="4.05" height="62.63" x="1278.21" y="620.15" fill="#7613ff" transform="rotate(-45 1280.234 651.46)" class="colorffbe13 svgShape"></rect><rect width="62.63" height="4.05" x="1248.92" y="649.44" fill="#7613ff" transform="rotate(-45 1280.234 651.46)" class="colorffbe13 svgShape"></rect><rect width="4.05" height="62.63" x="1231.91" y="620.15" fill="#7613ff" transform="rotate(-45 1233.933 651.458)" class="colorffbe13 svgShape"></rect><rect width="62.63" height="4.05" x="1202.62" y="649.44" fill="#7613ff" transform="rotate(-45 1233.933 651.458)" class="colorffbe13 svgShape"></rect><rect width="4.05" height="62.63" x="1185.47" y="620.15" fill="#7613ff" transform="rotate(-45 1187.491 651.455)" class="colorffbe13 svgShape"></rect><rect width="62.63" height="4.05" x="1156.18" y="649.44" fill="#7613ff" transform="rotate(-45 1187.491 651.455)" class="colorffbe13 svgShape"></rect><rect width="4.05" height="62.63" x="1139.16" y="620.15" fill="#7613ff" transform="rotate(-45 1141.186 651.465)" class="colorffbe13 svgShape"></rect><rect width="62.63" height="4.05" x="1109.88" y="649.44" fill="#7613ff" transform="rotate(-45 1141.186 651.465)" class="colorffbe13 svgShape"></rect><rect width="88.96" height="5.75" x="1294.08" y="836.01" fill="#7613ff" transform="rotate(-45 1338.56 838.89)" class="colorffbe13 svgShape"></rect><rect width="5.75" height="88.96" x="1335.69" y="794.41" fill="#7613ff" transform="rotate(-45 1338.56 838.89)" class="colorffbe13 svgShape"></rect><rect width="88.96" height="5.75" x="1294.08" y="901.8" fill="#7613ff" transform="rotate(-45 1338.566 904.668)" class="colorffbe13 svgShape"></rect><rect width="5.75" height="88.96" x="1335.69" y="860.19" fill="#7613ff" transform="rotate(-45 1338.566 904.668)" class="colorffbe13 svgShape"></rect><rect width="88.96" height="5.75" x="1294.08" y="964.7" fill="#7613ff" transform="rotate(-45 1338.56 967.57)" class="colorffbe13 svgShape"></rect><rect width="5.75" height="88.96" x="1335.69" y="923.1" fill="#7613ff" transform="rotate(-45 1338.56 967.57)" class="colorffbe13 svgShape"></rect><rect width="88.96" height="5.75" x="1294.08" y="1030.48" fill="#7613ff" transform="rotate(-45 1338.562 1033.36)" class="colorffbe13 svgShape"></rect><rect width="5.75" height="88.96" x="1335.69" y="988.88" fill="#7613ff" transform="rotate(-45 1338.562 1033.36)" class="colorffbe13 svgShape"></rect><rect width="88.96" height="5.75" x="1294.08" y="1094.11" fill="#7613ff" transform="rotate(-45 1338.555 1096.982)" class="colorffbe13 svgShape"></rect><rect width="5.75" height="88.96" x="1335.69" y="1052.5" fill="#7613ff" transform="rotate(-45 1338.555 1096.982)" class="colorffbe13 svgShape"></rect><rect width="88.96" height="5.75" x="1294.08" y="1159.89" fill="#7613ff" transform="rotate(-45 1338.56 1162.76)" class="colorffbe13 svgShape"></rect><rect width="5.75" height="88.96" x="1335.69" y="1118.28" fill="#7613ff" transform="rotate(-45 1338.56 1162.76)" class="colorffbe13 svgShape"></rect><rect width="88.96" height="5.75" x="1294.08" y="1225.67" fill="#7613ff" transform="rotate(-45 1338.562 1228.55)" class="colorffbe13 svgShape"></rect><rect width="5.75" height="88.96" x="1335.69" y="1184.07" fill="#7613ff" transform="rotate(-45 1338.562 1228.55)" class="colorffbe13 svgShape"></rect><rect width="88.96" height="5.75" x="1294.08" y="1291.45" fill="#7613ff" transform="rotate(-45 1338.568 1294.327)" class="colorffbe13 svgShape"></rect><rect width="5.75" height="88.96" x="1335.69" y="1249.85" fill="#7613ff" transform="rotate(-45 1338.556 1294.322)" class="colorffbe13 svgShape"></rect><path fill="#7613ff" d="M1371.21 626.27H1745.3l49.78 50.32H1371.21zM1742.9 632H1377v38.82H1781.3zM1112.82 626.92h224.25l28.93 49H1112.82zm221.71 4.44H1117.26v40.13h241z" class="colorffbe13 svgShape"></path><rect width="5.75" height="43.62" x="1741.22" y="629.14" fill="#7613ff" class="colorffbe13 svgShape"></rect><path fill="#7613ff" d="M1328.29,506.92h19.4l28.12,132.29h-75.64Zm14.74,5.76H1333l-25.69,120.78h61.44Z" class="colorffbe13 svgShape"></path><polygon fill="#7613ff" points="1368.31 630.02 1371.72 625.39 1319.9 587.21 1356.59 553.69 1331.37 518.55 1326.7 521.9 1348.93 552.9 1310.85 587.68 1368.31 630.02" class="colorffbe13 svgShape"></polygon><polygon fill="#333333" points="1070.7 631.54 1126.78 602.78 1126.78 689.05 1070.7 689.05 1070.7 631.54" class="color333333 svgShape"></polygon><rect width="78.6" height="51.76" x="1298.84" y="624.83" fill="#333333" class="color333333 svgShape"></rect><rect width="41.7" height="41.7" x="1317.53" y="474.57" fill="#333333" class="color333333 svgShape"></rect><circle cx="1787.23" cy="679.47" r="14.86" fill="#333333" class="color333333 svgShape"></circle><rect width="92.74" height="43.85" x="1742.66" y="731.71" fill="#741ded" transform="rotate(180 1789.03 753.635)" class="colored761d svgShape"></rect><path fill="#333333" d="M1752.72,776.76a1.43,1.43,0,0,0,1.44-1.44V732.16l35.21-50.43a1.44,1.44,0,0,0-2.36-1.65l-35.47,50.81a1.47,1.47,0,0,0-.25.82v43.61A1.43,1.43,0,0,0,1752.72,776.76Z" class="color333333 svgShape"></path><path fill="#333333" d="M1826.53,776.76a1.44,1.44,0,0,1-1.44-1.44V732.16l-35.2-50.43a1.44,1.44,0,0,1,2.36-1.65l35.46,50.81a1.4,1.4,0,0,1,.26.82v43.61A1.44,1.44,0,0,1,1826.53,776.76Z" class="color333333 svgShape"></path><rect width="1410.72" height="193.4" x="-325.68" y="642.44" fill="#dec7ff" transform="rotate(90 379.675 739.135)" class="colorc7dbff svgShape"></rect><path fill="#333333" d="M480.27,1448.39H279.08V29.88H480.27Zm-193.39-7.79h185.6V37.67H286.88Z" class="color333333 svgShape"></path><line x1="333.65" x2="335.6" y1="51.31" y2="1448.39" fill="#d7dad6"></line><path fill="#2d2d2d" d="M335.6 1454.54c-2.15 0-3.9-2.86-3.9-5L329.75 51.44c0-2.15 1.74-4.9 3.89-4.9h0c2.15 0 3.89 2.18 3.9 4.33l1.94 1398.43c0 2.15-1.74 5.24-3.89 5.24zM370.56 393.53a9.07 9.07 0 10-12.22-3.9A9.08 9.08 0 00370.56 393.53zM370.56 508.09a9.07 9.07 0 10-12.22-3.91A9.08 9.08 0 00370.56 508.09zM370.56 164.4a9.07 9.07 0 10-12.22-3.9A9.08 9.08 0 00370.56 164.4z" class="color2d2d2d svgShape"></path><circle cx="362.51" cy="666.97" r="9.07" fill="#2d2d2d" class="color2d2d2d svgShape"></circle><circle cx="362.51" cy="862.18" r="9.07" fill="#2d2d2d" transform="rotate(-5.16 362.951 862.944)" class="color2d2d2d svgShape"></circle><path fill="#2d2d2d" d="M366.66,1192.81a9.07,9.07,0,1,0-12.22-3.91A9.07,9.07,0,0,0,366.66,1192.81Z" class="color2d2d2d svgShape"></path><circle cx="362.51" cy="1405.72" r="9.07" fill="#2d2d2d" transform="rotate(-23.8 362.572 1405.872)" class="color2d2d2d svgShape"></circle><rect width="450.73" height="54.93" x="161.27" y="502.15" fill="#5a00d6" transform="rotate(-43.35 386.694 529.65)" class="colord65600 svgShape"></rect><path fill="#313131" d="M241.62,708.2a3.9,3.9,0,0,1-2.83-1.22L201.08,667a3.9,3.9,0,0,1,.16-5.51L529,352.1a4,4,0,0,1,2.79-1.06,3.91,3.91,0,0,1,2.72,1.22l37.71,39.94a3.9,3.9,0,0,1-.16,5.51L244.3,707.14A3.91,3.91,0,0,1,241.62,708.2Zm-32.2-43.68,32.36,34.27L563.85,394.71l-32.36-34.27Z" class="color313131 svgShape"></path><rect width="54.93" height="450.73" x="359.17" y="304.25" fill="#5a00d6" transform="rotate(-46.65 386.58 529.585)" class="colord65600 svgShape"></rect><path fill="#313131" d="M531.65,711.54c-1,0-1.95-2-2.68-2.73L201.24,398.54A4.93,4.93,0,0,1,200,395.4a4.39,4.39,0,0,1,1.06-3l37.71-40.05a3.91,3.91,0,0,1,5.51-.21L572,661.55a3.89,3.89,0,0,1,.16,5.5l-37.71,41.61c-.71.75-1.69,2.88-2.72,2.88ZM209.42,394.71,531.49,698.79l32.36-34.27L241.78,360.44Z" class="color313131 svgShape"></path><circle cx="386.06" cy="529.62" r="78.73" fill="#741ded" class="colored761d svgShape"></circle><path fill="#313131" d="M386.06,612.24a82.63,82.63,0,1,1,82.63-82.62A82.71,82.71,0,0,1,386.06,612.24Zm0-157.45a74.83,74.83,0,1,0,74.83,74.83A74.92,74.92,0,0,0,386.06,454.79Z" class="color313131 svgShape"></path><path fill="#741ded" d="M127.9,525.61c0-134.4,109.35-243.74,243.74-243.74S615.39,391.21,615.39,525.61,506,769.35,371.64,769.35,127.9,660,127.9,525.61Zm432.56,0c0-104.11-84.7-188.81-188.82-188.81S182.83,421.5,182.83,525.61s84.7,188.82,188.81,188.82S560.46,629.72,560.46,525.61Z" class="colored761d svgShape"></path><path fill="#313131" d="M371.64,773.25C235.1,773.25,124,662.16,124,525.61S235.1,278,371.64,278,619.28,389.06,619.28,525.61,508.19,773.25,371.64,773.25Zm0-487.48c-132.25,0-239.84,107.59-239.84,239.84S239.39,765.46,371.64,765.46s239.85-107.6,239.85-239.85S503.89,285.77,371.64,285.77Zm0,432.55c-106.26,0-192.71-86.45-192.71-192.71S265.38,332.9,371.64,332.9s192.71,86.45,192.71,192.71S477.9,718.32,371.64,718.32Zm0-377.62c-102,0-184.91,82.95-184.91,184.91s83,184.92,184.91,184.92,184.92-82.95,184.92-184.92S473.61,340.7,371.64,340.7Z" class="color313131 svgShape"></path><rect width="92.6" height="233.82" x="333.19" y="-50.47" fill="#bc8bff" transform="rotate(90 379.485 66.435)" class="color8bb8ff svgShape"></rect><path fill="#313131" d="M496.4,116.64H262.58a3.9,3.9,0,0,1-3.9-3.9V20.14a3.89,3.89,0,0,1,3.9-3.9H496.4a3.9,3.9,0,0,1,3.9,3.9v92.6A3.91,3.91,0,0,1,496.4,116.64Zm-229.93-7.8h226V24h-226Z" class="color313131 svgShape"></path><rect width="40.09" height="277.99" x="362.04" y="-29.5" fill="#6929c2" rx="5" transform="rotate(90 382.085 109.495)" class="color3879f9 svgShape"></rect><path fill="#2d2d2d" d="M501.59,133.43h-239a23.4,23.4,0,0,1-23.39-23.38v-1.12a23.41,23.41,0,0,1,23.39-23.38h239A23.4,23.4,0,0,1,525,108.93v1.12A23.4,23.4,0,0,1,501.59,133.43Zm-239-40.09A15.6,15.6,0,0,0,247,108.93v1.12a15.6,15.6,0,0,0,15.59,15.59h239a15.6,15.6,0,0,0,15.59-15.59v-1.12a15.6,15.6,0,0,0-15.59-15.59Z" class="color2d2d2d svgShape"></path><path fill="#bc8bff" d="M669.54,844.71h0a3.9,3.9,0,0,1-3.79-3.08l-15.66-72.47a36.94,36.94,0,0,0-29-28.68l-.39-.1-46.26-14.57a3.9,3.9,0,0,1-.22-7.36l46.61-17.84.43-.14A37.74,37.74,0,0,0,649,671.4l14.56-74.24a3.9,3.9,0,0,1,7.61-.18l18.21,74.66A37.14,37.14,0,0,0,717.06,699l50.86,15.73a3.9,3.9,0,0,1,.15,7.4l-49.53,17.48a3.36,3.36,0,0,1-.48.13,37,37,0,0,0-27.95,28.31l-16.77,73.63A3.9,3.9,0,0,1,669.54,844.71ZM622.82,732.88a44.72,44.72,0,0,1,34.88,34.68l11.94,55.26,12.85-56.44a44.85,44.85,0,0,1,33.69-34.2l38.19-13.48L715,706.51a44.79,44.79,0,0,1-33.22-33l-14-57.44L656.61,673a45.52,45.52,0,0,1-33.23,35l-36,13.76Z" class="color8bb8ff svgShape"></path><path fill="#7613ff" d="M1262.1,156.26l46.59-17.15-47.56-15.21c-14.23-3.56-25.23-14.88-28.79-29.76L1215.19,20.7l-13.91,72.79c-2.91,15.53-13.91,27.5-28.47,31.38l-43.68,17.47,43.36,14.24c15.2,3.23,26.85,15.53,30.08,31.06l14.56,71.17L1233,186.67A38.06,38.06,0,0,1,1262.1,156.26Z" class="colorffbe13 svgShape"></path><path fill="#6929c2" d="M1009.16,865.18c-.9,2.83-1.89,5.67-3,8.56-.27.63-.49,1.21-.76,1.84C981.77,933,862.24,968,805.2,868.87c-1.13-2-2.26-4-3.34-6.08-.31-.59-1.48-1.22-2-1.8-.09-.09,1-.18.94-.27-52.62-105.57,93.39-184.91,93.39-184.91V606.74l71-4.51v66.19c0,17.17-7.29,33.34-20.71,44.06-32.17,25.73-86.12,78.54-55.71,122.46.05,0-.1.09,0,.14.94,1.26,2,2.48,3,3.69a68.78,68.78,0,0,0,5.74,6.13l0,.26c13.93,13.6,28.46,14.38,42.11,11.38h.05c4.19,0,8.33-4,12.3-8h0c26.09-13,46.86-54.85,50.33-78.86C1002.36,769.68,1026.24,811.61,1009.16,865.18Z" class="color3879f9 svgShape"></path><path fill="#2d2d2d" d="M907.24,935.32c-25.51,0-73.14-8.38-105.42-64.5-1.08-1.9-2.15-3.83-3.18-5.79l-.22-.17a9.15,9.15,0,0,1-1.52-1.36c-.62-.74-.43-1.69-.4-2.65-48.07-99.9,74.71-177,93.71-187.3V606.74c0-2.06,1.08-3.76,3.13-3.89l69.89-4.51a5.1,5.1,0,0,1,3.33,1,4.39,4.39,0,0,1,1.65,2.84v66.19c0,19.47-8.07,37.84-21.73,48.75-26.14,20.91-84.18,73.37-55.3,118.37h0c.16,0,.3-1.33.43-1.16.48.64,1,.46,1.61,1.08s1,.7,1.45,1.26a60.82,60.82,0,0,0,5.46,5.56,3.53,3.53,0,0,1,.94,1.3c11.22,10.54,23.74,13.78,37.5,9.86a3.93,3.93,0,0,1,1.07-.18c2.82,0,6.91-4,9.62-6.68a3.93,3.93,0,0,1,1.09-.77c24-14.56,44.61-51.8,48.15-76.29a3.9,3.9,0,0,1,7.24-1.38c1,1.75,24.53,43.64,7.13,98.22-1,3.07-2,5.94-3.1,8.79l-.81,2C995.33,910.28,951.59,935.32,907.24,935.32ZM803.85,859.23a5.86,5.86,0,0,1,1.44,1.71c1.09,2.07,2.19,4.06,3.3,6,30.31,52.7,74.82,60.58,98.65,60.58,41.37,0,82-23,94.53-53.43l.79-1.9c1-2.57,2-5.29,2.89-8.2a125.64,125.64,0,0,0-1.88-81.6c-7.46,25.22-27,56.65-49.25,70.11-3.84,3.78-8.56,8.23-14.09,8.51-16.66,4.59-32.13.24-45.45-12.78a3.91,3.91,0,0,1-.91-1.37,72.93,72.93,0,0,1-5.23-5.62c-.39-.48-.8-.94-1.23-1.41-.58-.65-1.16-1.31-1.69-2a2.61,2.61,0,0,1-.24-.22,4.54,4.54,0,0,1-.39-.48C851.73,789,913.57,731.79,941.51,709.44c11.77-9.4,18.7-24,18.7-41v-62l-62,4v65.42c0,1.43-1.4,2.74-2.65,3.42C894.14,680,753.72,758,804.05,859,804.09,859.06,803.82,859.14,803.85,859.23Z" class="color2d2d2d svgShape"></path><rect width="146.43" height="94.62" x="860.44" y="530.15" fill="#bc8bff" class="color8bb8ff svgShape"></rect><path fill="#313131" d="M1006.86,628.66H860.43a3.89,3.89,0,0,1-3.89-3.9V530.15a3.89,3.89,0,0,1,3.89-3.9h146.43a3.89,3.89,0,0,1,3.9,3.9v94.61A3.89,3.89,0,0,1,1006.86,628.66Zm-142.53-7.79H1003V534H864.33Z" class="color313131 svgShape"></path><rect width="174.59" height="82.23" x="848.04" y="485.09" fill="#6929c2" class="color3879f9 svgShape"></rect><path fill="#2d2d2d" d="M1022.63,571.21H848.05a3.89,3.89,0,0,1-3.9-3.89V485.09a3.9,3.9,0,0,1,3.9-3.9h174.58a3.91,3.91,0,0,1,3.9,3.9v82.23A3.9,3.9,0,0,1,1022.63,571.21Zm-170.69-7.79h166.8V489H851.94Z" class="color2d2d2d svgShape"></path><path fill="#7613ff" d="M1049.6,516.63H820A96.94,96.94,0,0,1,723,419.69V255.56a51.31,51.31,0,0,1,51.31-51.31h320.89a51.31,51.31,0,0,1,51.31,51.31V419.69A96.94,96.94,0,0,1,1049.6,516.63Z" class="colorffbe13 svgShape"></path><path fill="#333333" d="M1049.6,520.53H820A101,101,0,0,1,719.12,419.69V255.56a55.28,55.28,0,0,1,55.21-55.21h320.89a55.27,55.27,0,0,1,55.21,55.21V419.69A101,101,0,0,1,1049.6,520.53ZM774.33,208.15a47.47,47.47,0,0,0-47.42,47.41V419.69a93.15,93.15,0,0,0,93.05,93H1049.6a93.15,93.15,0,0,0,93-93V255.56a47.47,47.47,0,0,0-47.42-47.41Z" class="color333333 svgShape"></path><circle cx="1075.01" cy="445.11" r="27.6" fill="#bc8bff" transform="rotate(-67.5 1075.01 445.103)" class="color8bb8ff svgShape"></circle><path fill="#313131" d="M1075,476.6a31.5,31.5,0,1,1,31.49-31.5A31.53,31.53,0,0,1,1075,476.6Zm0-55.19a23.7,23.7,0,1,0,23.7,23.69A23.72,23.72,0,0,0,1075,421.41Z" class="color313131 svgShape"></path><path fill="#333333" d="M1061.9,473.15a3.9,3.9,0,0,1-3.26-6l29-44.15a3.9,3.9,0,1,1,6.51,4.28l-29,44.15A3.89,3.89,0,0,1,1061.9,473.15Z" class="color333333 svgShape"></path><circle cx="809.19" cy="445.11" r="27.6" fill="#bc8bff" transform="rotate(-67.5 809.185 445.105)" class="color8bb8ff svgShape"></circle><path fill="#313131" d="M809.19,476.6a31.5,31.5,0,1,1,31.49-31.5A31.53,31.53,0,0,1,809.19,476.6Zm0-55.19a23.7,23.7,0,1,0,23.69,23.69A23.72,23.72,0,0,0,809.19,421.41Z" class="color313131 svgShape"></path><path fill="#333333" d="M796.07,473.15a3.9,3.9,0,0,1-3.25-6l29-44.15a3.9,3.9,0,1,1,6.51,4.28l-29,44.15A3.88,3.88,0,0,1,796.07,473.15Z" class="color333333 svgShape"></path><circle cx="1075.01" cy="260.38" r="27.6" fill="#bc8bff" class="color8bb8ff svgShape"></circle><path fill="#313131" d="M1075,291.87a31.49,31.49,0,1,1,31.49-31.49A31.52,31.52,0,0,1,1075,291.87Zm0-55.19a23.7,23.7,0,1,0,23.7,23.7A23.72,23.72,0,0,0,1075,236.68Z" class="color313131 svgShape"></path><path fill="#333333" d="M1061.9,288.42a3.89,3.89,0,0,1-3.26-6l29-44.15a3.89,3.89,0,1,1,6.51,4.27l-29,44.16A3.91,3.91,0,0,1,1061.9,288.42Z" class="color333333 svgShape"></path><circle cx="809.19" cy="260.38" r="27.6" fill="#bc8bff" class="color8bb8ff svgShape"></circle><path fill="#313131" d="M809.19,291.87a31.49,31.49,0,1,1,31.49-31.49A31.53,31.53,0,0,1,809.19,291.87Zm0-55.19a23.7,23.7,0,1,0,23.69,23.7A23.72,23.72,0,0,0,809.19,236.68Z" class="color313131 svgShape"></path><path fill="#333333" d="M796.07,288.42a3.89,3.89,0,0,1-3.25-6l29-44.15a3.89,3.89,0,1,1,6.51,4.27l-29,44.16A3.89,3.89,0,0,1,796.07,288.42Z" class="color333333 svgShape"></path><rect width="52.56" height="205.75" x="1025.64" fill="#333333" class="color333333 svgShape"></rect><rect width="52.56" height="205.75" x="795.86" fill="#333333" class="color333333 svgShape"></rect><path fill="#bc8bff" d="M201.23,1050.38C93.18,1052.64,4.16,1171.8,4.16,1318s88.91,265.41,197,267.66l1484.1,3.24V1048.71Z" class="color8bb8ff svgShape"></path><path fill="#313131" d="M1684.17,1592.54h0l-1483.71-3.09C89.89,1587.14,0,1465.4,0,1318s90.52-269.21,201.15-271.52l1484.06-1.58v0A7.22,7.22,0,0,1,1688,1046a3.92,3.92,0,0,1,1.19,2.74v540.23c0,1-1,1.88-1.71,2.61A5.29,5.29,0,0,1,1684.17,1592.54Zm-3-539.93-1480,1.67C94.84,1056.5,8,1174.82,8,1318s86.82,261.55,193.1,263.76L1681.21,1585Z" class="color313131 svgShape"></path><path fill="#6929c2" d="M1855.9,1318c0,136.65-80.2,247.37-179.16,247.37-26,0-50.69-7.66-73-21.39-62.59-38.6-106.16-125.24-106.16-226s43.57-187.33,106.16-225.92c22.31-13.74,47-21.4,73-21.4C1775.7,1070.7,1855.9,1181.43,1855.9,1318Z" class="color3879f9 svgShape"></path><path fill="#2d2d2d" d="M1676.74,1569.29c-26.1,0-51.35-7.39-75-22-65.62-40.46-108-130.46-108-229.29s42.4-188.78,108-229.24c23.69-14.58,48.94-22,75-22,100.94,0,183.06,112.7,183.06,251.22S1777.68,1569.29,1676.74,1569.29Zm0-494.69c-24.64,0-48.51,7-71,20.82-63.37,39.07-104.31,126.45-104.31,222.6s40.94,183.58,104.31,222.66c22.44,13.81,46.31,20.82,71,20.82,96.64,0,175.27-109.22,175.27-243.48S1773.38,1074.6,1676.74,1074.6Z" class="color2d2d2d svgShape"></path><path fill="#333333" d="M1709.91,1318c0,100.74-43.57,187.38-106.17,226-62.59-38.6-106.16-125.24-106.16-226s43.57-187.33,106.16-225.92C1666.34,1130.69,1709.91,1217.33,1709.91,1318Z" class="color333333 svgShape"></path><path fill="#dec7ff" d="M1676.74,1589.19c-111.91,0-203-121.64-203-271.15s91-271.14,203-271.14,203,121.63,203,271.14S1788.66,1589.19,1676.74,1589.19Zm0-494.72c-85.68,0-155.39,100.29-155.39,223.57s69.71,223.58,155.39,223.58,155.4-100.3,155.4-223.58S1762.43,1094.47,1676.74,1094.47Z" class="colorc7dbff svgShape"></path><path fill="#333333" d="M1676.74,1593.08c-114.06,0-206.85-123.38-206.85-275s92.79-275,206.85-275,206.86,123.38,206.86,275S1790.81,1593.08,1676.74,1593.08Zm0-542.29c-109.76,0-199.06,119.89-199.06,267.25s89.3,267.25,199.06,267.25S1875.81,1465.4,1875.81,1318,1786.51,1050.79,1676.74,1050.79Zm0,494.72c-87.83,0-159.28-102-159.28-227.47s71.45-227.47,159.28-227.47S1836,1192.61,1836,1318,1764.58,1545.51,1676.74,1545.51Zm0-447.14c-83.53,0-151.49,98.54-151.49,219.67s68,219.68,151.49,219.68,151.5-98.55,151.5-219.68S1760.28,1098.37,1676.74,1098.37Z" class="color333333 svgShape"></path><path fill="#313131" d="M1473.73,1325.54H4.55a4,4,0,0,1,0-8H1473.73a4,4,0,0,1,0,8Z" class="color313131 svgShape"></path><circle cx="1398.02" cy="1264.8" r="18.79" fill="#dec7ff" class="colorc7dbff svgShape"></circle><path fill="#333333" d="M1398,1287.49a22.69,22.69,0,1,1,22.69-22.69A22.72,22.72,0,0,1,1398,1287.49Zm0-37.58a14.9,14.9,0,1,0,14.89,14.89A14.92,14.92,0,0,0,1398,1249.91Z" class="color333333 svgShape"></path><circle cx="1214.81" cy="1264.8" r="18.79" fill="#dec7ff" class="colorc7dbff svgShape"></circle><path fill="#333333" d="M1214.81,1287.49a22.69,22.69,0,1,1,22.69-22.69A22.72,22.72,0,0,1,1214.81,1287.49Zm0-37.58a14.9,14.9,0,1,0,14.89,14.89A14.91,14.91,0,0,0,1214.81,1249.91Z" class="color333333 svgShape"></path><circle cx="1031.6" cy="1264.8" r="18.79" fill="#dec7ff" class="colorc7dbff svgShape"></circle><path fill="#333333" d="M1031.6,1287.49a22.69,22.69,0,1,1,22.69-22.69A22.72,22.72,0,0,1,1031.6,1287.49Zm0-37.58a14.9,14.9,0,1,0,14.9,14.89A14.91,14.91,0,0,0,1031.6,1249.91Z" class="color333333 svgShape"></path><circle cx="848.4" cy="1264.8" r="18.79" fill="#dec7ff" class="colorc7dbff svgShape"></circle><path fill="#333333" d="M848.4,1287.49a22.69,22.69,0,1,1,22.68-22.69A22.72,22.72,0,0,1,848.4,1287.49Zm0-37.58a14.9,14.9,0,1,0,14.89,14.89A14.91,14.91,0,0,0,848.4,1249.91Z" class="color333333 svgShape"></path><circle cx="669.89" cy="1264.8" r="18.79" fill="#dec7ff" class="colorc7dbff svgShape"></circle><path fill="#333333" d="M669.89,1287.49a22.69,22.69,0,1,1,22.68-22.69A22.72,22.72,0,0,1,669.89,1287.49Zm0-37.58a14.9,14.9,0,1,0,14.89,14.89A14.92,14.92,0,0,0,669.89,1249.91Z" class="color333333 svgShape"></path><circle cx="486.68" cy="1264.8" r="18.79" fill="#dec7ff" class="colorc7dbff svgShape"></circle><path fill="#333333" d="M486.68,1287.49a22.69,22.69,0,1,1,22.69-22.69A22.72,22.72,0,0,1,486.68,1287.49Zm0-37.58a14.9,14.9,0,1,0,14.89,14.89A14.91,14.91,0,0,0,486.68,1249.91Z" class="color333333 svgShape"></path><circle cx="294.08" cy="1264.8" r="18.79" fill="#dec7ff" class="colorc7dbff svgShape"></circle><path fill="#333333" d="M294.08,1287.49a22.69,22.69,0,1,1,22.68-22.69A22.72,22.72,0,0,1,294.08,1287.49Zm0-37.58A14.9,14.9,0,1,0,309,1264.8,14.91,14.91,0,0,0,294.08,1249.91Z" class="color333333 svgShape"></path><circle cx="110.87" cy="1264.8" r="18.79" fill="#dec7ff" class="colorc7dbff svgShape"></circle><path fill="#333333" d="M110.87,1287.49a22.69,22.69,0,1,1,22.69-22.69A22.72,22.72,0,0,1,110.87,1287.49Zm0-37.58a14.9,14.9,0,1,0,14.89,14.89A14.91,14.91,0,0,0,110.87,1249.91Z" class="color333333 svgShape"></path><path fill="#313131" d="M1681.11 1048.05a4.54 4.54 0 01-5.54 3.2L1006.14 873.74c1.13-2.89 2.12-5.73 3-8.56l668.75 177.38A4.51 4.51 0 011681.11 1048.05zM952 850.25c-4 2.61-8.11 6.29-12.3 6.29h-.05l-42-11.38-.18-.15a72.73 72.73 0 01-5.77-6.18c-1-1.22-2.16-2.46-3.11-3.72l.46-.15 1.66-.5a4.93 4.93 0 012.44 0z" class="color313131 svgShape"></path><path fill="#313131" d="M897.47,844.9,892,843.46,805.2,868.87,176.86,1052.6a3.88,3.88,0,0,1-1.26.18,4.5,4.5,0,0,1-1.26-8.83L799.88,861l1-.27,87.76-25.64c.95,1.26,2.12,2.48,3.11,3.69A68.92,68.92,0,0,0,897.47,844.9Z" class="color313131 svgShape"></path><path fill="#ffffff" d="M1261.58,1517.84l57.73-20.38-59-18.26a47.83,47.83,0,0,1-35.66-35.23l-21.23-87-17,86.6a48.56,48.56,0,0,1-35.66,37.36l-54.33,20.8,53.91,17a47.72,47.72,0,0,1,37.36,36.94L1206,1640.1l19.53-85.76A47.43,47.43,0,0,1,1261.58,1517.84Z" class="colorffffff svgShape"></path><path fill="#333333" d="M1206,1644h0a3.9,3.9,0,0,1-3.79-3.07l-18.25-84.48a43.74,43.74,0,0,0-34.33-33.94l-.39-.1-53.91-17a3.89,3.89,0,0,1-.23-7.35l54.34-20.81a3.06,3.06,0,0,1,.43-.13,44.68,44.68,0,0,0,32.81-34.38l17-86.56a3.89,3.89,0,0,1,3.73-3.14h.09a3.9,3.9,0,0,1,3.79,3l21.22,87a44,44,0,0,0,32.78,32.37l59.26,18.33a3.9,3.9,0,0,1,.14,7.4l-57.73,20.37a4.34,4.34,0,0,1-.48.14,43.78,43.78,0,0,0-33.09,33.49L1209.77,1641A3.88,3.88,0,0,1,1206,1644Zm-54.63-129.08a51.47,51.47,0,0,1,40.19,39.93l14.54,67.27,15.63-68.63a51.65,51.65,0,0,1,38.81-39.4l46.41-16.38-47.76-14.77a51.62,51.62,0,0,1-38.3-38l-17-69.81-13.57,69.21a52.45,52.45,0,0,1-38.3,40.33l-43.69,16.73Z" class="color333333 svgShape"></path><circle cx="162.18" cy="916.45" r="37.02" fill="#333333" class="color333333 svgShape"></circle><circle cx="132.95" cy="770.31" r="19.49" fill="#333333" class="color333333 svgShape"></circle><circle cx="618.13" cy="238.37" r="25.33" fill="#333333" transform="rotate(-13.28 618.236 238.397)" class="color333333 svgShape"></circle><circle cx="649.31" cy="105.87" r="17.54" fill="#333333" class="color333333 svgShape"></circle><circle cx="1485.22" cy="427.37" r="19.49" fill="#333333" class="color333333 svgShape"></circle><circle cx="1502.75" cy="787.85" r="35.8" fill="#333333" transform="rotate(-67.5 1502.758 787.85)" class="color333333 svgShape"></circle><circle cx="1081.23" cy="972.96" r="18.19" fill="#333333" class="color333333 svgShape"></circle></svg>