<svg xmlns="http://www.w3.org/2000/svg" viewBox="0 0 2000 2000" id="Constructioncrane"><g fill="#000000" class="color000000 svgShape"><rect width="470.12" height="63.65" x="557.32" y="1879.14" fill="#6a00fd" class="colorfdc500 svgShape"></rect><rect width="470.12" height="63.65" x="557.32" y="1817.41" fill="#6a00fd" class="colorfdc500 svgShape"></rect><rect width="470.12" height="63.65" x="557.32" y="1756.96" fill="#6a00fd" class="colorfdc500 svgShape"></rect><rect width="494.36" height="63.65" x="791.17" y="1879.14" fill="#7625e6" class="colore67925 svgShape"></rect><rect width="470.12" height="63.65" x="823.26" y="1817.41" fill="#7625e6" class="colore67925 svgShape"></rect><rect width="470.12" height="63.65" x="779.7" y="1756.96" fill="#7625e6" class="colore67925 svgShape"></rect><path fill="#2b0068" d="M1249.83 1822.61H557.32a2 2 0 110-4h692.51a2 2 0 010 4zM1249.83 1883.07H557.32a2 2 0 110-4h692.51a2 2 0 010 4z" class="color68003c svgShape"></path><rect width="450.34" height="1228.81" x="1435.45" y="711.94" fill="#6929c2" class="color2351fb svgShape"></rect><rect width="450.34" height="626.75" x="988.02" y="1316.74" fill="#6929c2" class="color2351fb svgShape"></rect><rect width="59.11" height="223.73" x="1435.45" y="615.03" fill="#6929c2" class="color2351fb svgShape"></rect><rect width="59.11" height="223.73" x="1565.86" y="615.03" fill="#6929c2" class="color2351fb svgShape"></rect><rect width="59.11" height="223.73" x="1696.27" y="615.03" fill="#6929c2" class="color2351fb svgShape"></rect><rect width="59.11" height="223.73" x="1826.68" y="615.03" fill="#6929c2" class="color2351fb svgShape"></rect><rect width="180.11" height="117.72" x="39.38" y="524.06" fill="#7625e6" class="colore67925 svgShape"></rect><path fill="#6929c2" d="M494 1928H344.66a8 8 0 01-8-8c0-1593.33-.25-1522.81.45-1524.82l79.16-226c2.61-7.47 13-6.9 15.19.27l70.17 226c.56 1.8.36-68.59.36 1524.55A8 8 0 01494 1928zm-141.33-16H486V399L423.36 197.27l-70.7 201.87zM1417.1 532.06H552.22a8 8 0 01-6.93-12L617.94 393.8a8 8 0 016.93-4h719.58a8 8 0 016.93 4L1424 520.07A8 8 0 011417.1 532.06zm-851-16h837.2l-63.44-110.27H629.5zM319.29 532.06H46a8 8 0 01-8-8V420.52a8 8 0 018-8h273.3a8 8 0 018 8V524.06A8 8 0 01319.29 532.06zM54 516.06h257.3V428.52H54z" class="color2351fb svgShape"></path><path fill="#6929c2" d="M552.22,530.06H319.29a6,6,0,1,1,0-12H552.22a6,6,0,0,1,0,12Z" class="color2351fb svgShape"></path><polygon fill="#7625e6" points="630.06 1943.49 201.09 1943.49 239.47 1860.82 591.68 1860.82 630.06 1943.49" class="colore67925 svgShape"></polygon><path fill="#6929c2" d="M494,1854.47c-2.42,0,7,5.13-146.62-86.18a6,6,0,0,1,3.06-11.16H473.56l-126.38-81.21a6,6,0,0,1,3.24-11H473.3l-131.85-83.49a6,6,0,0,1,3.21-11.07H474l-126.85-83.55a6,6,0,0,1,3.3-11H473.11L347.24,1396.9a6,6,0,0,1,3.18-11.09h125l-128.54-92.92a6,6,0,0,1,3.51-10.86H476.94L346.66,1177.39a6,6,0,0,1,3.76-10.68H476.24l-129.46-98.78a6,6,0,0,1,3.64-10.77H475.78L346.86,961.89a6,6,0,0,1,3.56-10.82H474L347.12,867.52a6,6,0,0,1,3.3-11H475.78L346.86,761.24a6,6,0,0,1,3.56-10.82h126L341,645.85a6,6,0,0,1,3.67-10.75H477.19L340.86,523.51a6,6,0,1,1,7.6-9.29L497.79,636.46A6,6,0,0,1,494,647.1H362.24L497.66,751.67A6,6,0,0,1,494,762.42H368.64l128.92,95.26A6,6,0,0,1,494,868.51H370.44l126.85,83.55a6,6,0,0,1-3.3,11H368.64l128.92,95.27a6,6,0,0,1-3.57,10.82H368.18l129.45,98.78a6,6,0,0,1-3.64,10.77H367.47l130.28,104.64A6,6,0,0,1,494,1294H369L497.51,1387a6,6,0,0,1-3.52,10.86H371.3l125.88,78.86a6,6,0,0,1-3.19,11.09H370.44l126.85,83.55a6,6,0,0,1-3.3,11H365.35l131.85,83.49a6,6,0,0,1-3.21,11.07H370.86l126.37,81.2a6,6,0,0,1-3.24,11.05H372.26l124.8,74.18A6,6,0,0,1,494,1854.47Z" class="color2351fb svgShape"></path><path fill="#6929c2" d="M344.66 1854.47a6 6 0 01-3.07-11.16l124.8-74.18H344.66a6 6 0 01-3.25-11.05l126.38-81.2H344.66a6 6 0 01-3.21-11.07l131.85-83.49H344.66a6 6 0 01-3.3-11l126.85-83.55H344.66a6 6 0 01-3.19-11.09l125.88-78.86H344.66a6 6 0 01-3.52-10.86L469.68 1294h-125a6 6 0 01-3.76-10.68l130.27-104.64H344.66a6 6 0 01-3.64-10.77l129.45-98.78H344.66a6 6 0 01-3.57-10.82L470 963.07H344.66a6 6 0 01-3.3-11l126.85-83.55H344.66a6 6 0 01-3.57-10.83L470 762.42H344.66A6 6 0 01341 751.67L476.4 647.1H344.66a6 6 0 01-3.8-10.64l142.08-116.3L342 451.61a6 6 0 01.78-11.1l135.53-44-113.92-58a6 6 0 01-.33-10.52L450 277.3a6 6 0 116.1 10.34l-76.5 45.18 117.11 59.62a6 6 0 01-.87 11.05L360.66 447.34l136 66.13a6 6 0 011.17 10L361.46 635.1H494a6 6 0 013.67 10.75L362.24 750.42h126a6 6 0 013.57 10.82L362.87 856.51H488.22a6 6 0 013.31 11L364.67 951.07H488.22a6 6 0 013.57 10.82l-128.92 95.27H488.22a6 6 0 013.65 10.77l-129.46 98.78H488.22a6 6 0 013.76 10.68L361.71 1282H488.22a6 6 0 013.52 10.86L363.2 1385.81h125a6 6 0 013.19 11.09l-125.87 78.86H488.22a6 6 0 013.31 11l-126.86 83.55H494a6 6 0 013.21 11.07l-131.85 83.49H488.22a6 6 0 013.25 11l-126.38 81.21H488.22a6 6 0 013.07 11.16C337.85 1859.49 347.09 1854.47 344.66 1854.47zM979.42 527L914.25 410 850.34 521.84a6 6 0 01-10.55-.23L782.05 409.34l-79.62 113a6 6 0 01-10-.37L619.73 400.87A6 6 0 01630 394.7l67.91 113.18 80-113.55a6 6 0 0110.24.71l57.22 111.25 63.7-111.48a6 6 0 0110.45.06l65.1 116.86 65.1-116.86a6 6 0 0110.54.11L1122 511.41l63.83-116.51a6 6 0 0110.34-.31l71.07 113.06 72.17-113.09a6 6 0 0110.12 6.45l-77.27 121.08a6 6 0 01-10.13 0l-70.68-112.43-64.28 117.31a6 6 0 01-10.56-.08l-61.72-116.51L989.9 527A6 6 0 01979.42 527z" class="color2351fb svgShape"></path><rect width="192.58" height="192.58" x="270.85" y="370.11" fill="#7625e6" class="colore67925 svgShape"></rect><path fill="#6929c2" d="M423.82 177.77a6 6 0 01-6-6V61a6 6 0 1112 0V171.77A6 6 0 01423.82 177.77zM220.78 526.82l-49.07-94.23-54.88 87.8a6 6 0 01-10 .2L41 423.89A6 6 0 0151 417.14l60.58 89.09 55.57-88.89a6 6 0 0110.41.41l48.08 92.35 39.76-92a6 6 0 0111 4.75L231.61 526.43A6 6 0 01220.78 526.82zM1094.47 866.28a6 6 0 01-6-5.33l-37.78-336.23a6 6 0 1111.92-1.33l31.72 282.23L1125 523.41a5.94 5.94 0 016.61-5.32 6 6 0 015.32 6.61l-36.48 336.23a6 6 0 01-6 5.35z" class="color2351fb svgShape"></path><rect width="488.57" height="56.51" x="855.88" y="1072.38" fill="#6a00fd" class="colorfdc500 svgShape"></rect><rect width="488.57" height="56.51" x="855.88" y="1015.86" fill="#6a00fd" class="colorfdc500 svgShape"></rect><path fill="#6929c2" d="M1353 1138.89H834.68a10 10 0 010-20H1353a10 10 0 010 20zM1100.16 1021.86a6 6 0 01-6-6v-145a6 6 0 1112 0v145A6 6 0 011100.16 1021.86z" class="color2351fb svgShape"></path><path fill="#2b0068" d="M1332.5,1074.38H855.88a2,2,0,0,1,0-4H1332.5a2,2,0,0,1,0,4Z" class="color68003c svgShape"></path><path fill="#6929c2" d="M1344.45,1134.89a6,6,0,0,1-4.36-1.87l-240-253.49L849.11,1133a6,6,0,0,1-8.53-8.45L1095.9,866.68a6,6,0,0,1,8.62.1l244.28,258A6,6,0,0,1,1344.45,1134.89Z" class="color2351fb svgShape"></path><circle cx="1097.8" cy="864.23" r="41.11" fill="#7625e6" class="colore67925 svgShape"></circle><path fill="#6a00fd" d="M1961.67,1943.49S1804.44,1697.38,1726.58,1682s-91.59,89.11-177.07,65.12-164.86-210.8-244.24-205.66-277.82,402.07-277.82,402.07Z" class="colorfdc500 svgShape"></path><rect width="363.33" height="62.13" x="1483.43" y="776.63" fill="#2b0068" class="color68003c svgShape"></rect><rect width="95.56" height="95.56" x="1483.43" y="1010.89" fill="#2b0068" class="color68003c svgShape"></rect><rect width="95.56" height="95.56" x="1617.32" y="1010.89" fill="#2b0068" class="color68003c svgShape"></rect><rect width="95.56" height="95.56" x="1751.2" y="1010.89" fill="#2b0068" class="color68003c svgShape"></rect><rect width="95.56" height="95.56" x="1483.43" y="1157.59" fill="#2b0068" class="color68003c svgShape"></rect><rect width="95.56" height="95.56" x="1617.32" y="1157.59" fill="#2b0068" class="color68003c svgShape"></rect><rect width="95.56" height="95.56" x="1751.2" y="1157.59" fill="#2b0068" class="color68003c svgShape"></rect><rect width="95.56" height="95.56" x="1483.43" y="1294.29" fill="#2b0068" class="color68003c svgShape"></rect><rect width="95.56" height="95.56" x="1617.32" y="1294.29" fill="#2b0068" class="color68003c svgShape"></rect><rect width="95.56" height="95.56" x="1751.2" y="1294.29" fill="#2b0068" class="color68003c svgShape"></rect><rect width="95.56" height="95.56" x="1483.43" y="1431" fill="#2b0068" class="color68003c svgShape"></rect><rect width="95.56" height="95.56" x="1617.32" y="1431" fill="#2b0068" class="color68003c svgShape"></rect><rect width="95.56" height="95.56" x="1751.2" y="1431" fill="#2b0068" class="color68003c svgShape"></rect><rect width="95.56" height="95.56" x="1483.43" y="877.04" fill="#2b0068" class="color68003c svgShape"></rect><rect width="95.56" height="95.56" x="1617.32" y="877.04" fill="#2b0068" class="color68003c svgShape"></rect><rect width="95.56" height="95.56" x="1751.2" y="877.04" fill="#2b0068" class="color68003c svgShape"></rect><rect width="95.56" height="95.56" x="1057.27" y="1356.87" fill="#2b0068" class="color68003c svgShape"></rect><rect width="95.56" height="95.56" x="1191.16" y="1356.87" fill="#2b0068" class="color68003c svgShape"></rect><rect width="95.56" height="95.56" x="1325.04" y="1356.87" fill="#2b0068" class="color68003c svgShape"></rect></g></svg>