<svg xmlns="http://www.w3.org/2000/svg" enable-background="new 0 0 3000 2500" viewBox="0 0 3000 2500" id="Rocketlaunchcomputerdata"><rect width="2918.6" height="2432.2" x="40.7" y="33.9" fill="none"></rect><g opacity=".36" fill="#000000" class="color000000 svgShape"><ellipse cx="2222.9" cy="1906.1" fill="#260a24" opacity="0" rx="105.5" ry="379.3" transform="rotate(-88.666 2222.88 1906.127) scale(.99997)" class="color0f0a26 svgShape"></ellipse><ellipse cx="2221.6" cy="1906.1" fill="#260a24" opacity=".02" rx="104.5" ry="375.6" transform="rotate(-88.666 2221.594 1906.097) scale(.99997)" class="color0f0a26 svgShape"></ellipse><ellipse cx="2220.3" cy="1906.1" fill="#260a24" opacity=".039" rx="103.5" ry="371.9" transform="rotate(-88.666 2220.31 1906.067) scale(.99997)" class="color0f0a26 svgShape"></ellipse><ellipse cx="2219" cy="1906" fill="#260a24" opacity=".059" rx="102.4" ry="368.2" transform="rotate(-88.666 2219.025 1906.037) scale(.99997)" class="color0f0a26 svgShape"></ellipse><ellipse cx="2217.7" cy="1906" fill="#260a24" opacity=".078" rx="101.4" ry="364.6" transform="rotate(-88.666 2217.74 1906.007) scale(.99997)" class="color0f0a26 svgShape"></ellipse><ellipse cx="2216.5" cy="1906" fill="#260a24" opacity=".098" rx="100.4" ry="360.9" transform="rotate(-88.666 2216.455 1905.977) scale(.99997)" class="color0f0a26 svgShape"></ellipse><ellipse cx="2215.2" cy="1905.9" fill="#260a24" opacity=".118" rx="99.4" ry="357.2" transform="rotate(-88.666 2215.17 1905.947) scale(.99997)" class="color0f0a26 svgShape"></ellipse><ellipse cx="2213.9" cy="1905.9" fill="#260a24" opacity=".137" rx="98.3" ry="353.5" transform="rotate(-88.666 2213.885 1905.918) scale(.99997)" class="color0f0a26 svgShape"></ellipse><ellipse cx="2212.6" cy="1905.9" fill="#260a24" opacity=".157" rx="97.3" ry="349.9" transform="rotate(-88.666 2212.6 1905.888) scale(.99997)" class="color0f0a26 svgShape"></ellipse><ellipse cx="2211.3" cy="1905.9" fill="#260a24" opacity=".176" rx="96.3" ry="346.2" transform="rotate(-88.666 2211.316 1905.858) scale(.99997)" class="color0f0a26 svgShape"></ellipse><ellipse cx="2210" cy="1905.8" fill="#260a24" opacity=".196" rx="95.3" ry="342.5" transform="rotate(-88.666 2210.03 1905.828) scale(.99997)" class="color0f0a26 svgShape"></ellipse><ellipse cx="2208.7" cy="1905.8" fill="#260a24" opacity=".216" rx="94.3" ry="338.8" transform="rotate(-88.666 2208.746 1905.798) scale(.99997)" class="color0f0a26 svgShape"></ellipse><ellipse cx="2207.5" cy="1905.8" fill="#260a24" opacity=".235" rx="93.2" ry="335.2" transform="rotate(-88.666 2207.461 1905.768) scale(.99997)" class="color0f0a26 svgShape"></ellipse><ellipse cx="2206.2" cy="1905.7" fill="#260a24" opacity=".255" rx="92.2" ry="331.5" transform="rotate(-88.666 2206.176 1905.738) scale(.99997)" class="color0f0a26 svgShape"></ellipse><ellipse cx="2204.9" cy="1905.7" fill="#260a24" opacity=".275" rx="91.2" ry="327.8" transform="rotate(-88.666 2204.891 1905.708) scale(.99997)" class="color0f0a26 svgShape"></ellipse><ellipse cx="2203.6" cy="1905.7" fill="#260a24" opacity=".294" rx="90.2" ry="324.1" transform="rotate(-88.666 2203.607 1905.678) scale(.99997)" class="color0f0a26 svgShape"></ellipse><ellipse cx="2202.3" cy="1905.7" fill="#260a24" opacity=".314" rx="89.1" ry="320.5" transform="rotate(-88.666 2202.322 1905.648) scale(.99997)" class="color0f0a26 svgShape"></ellipse><ellipse cx="2201" cy="1905.6" fill="#260a24" opacity=".333" rx="88.1" ry="316.8" transform="rotate(-88.666 2201.037 1905.618) scale(.99997)" class="color0f0a26 svgShape"></ellipse><ellipse cx="2199.8" cy="1905.6" fill="#260a24" opacity=".353" rx="87.1" ry="313.1" transform="rotate(-88.666 2199.752 1905.588) scale(.99997)" class="color0f0a26 svgShape"></ellipse><ellipse cx="2198.5" cy="1905.6" fill="#260a24" opacity=".372" rx="86.1" ry="309.4" transform="rotate(-88.666 2198.467 1905.558) scale(.99997)" class="color0f0a26 svgShape"></ellipse><ellipse cx="2197.2" cy="1905.5" fill="#260a24" opacity=".392" rx="85" ry="305.7" transform="rotate(-88.666 2197.182 1905.528) scale(.99997)" class="color0f0a26 svgShape"></ellipse><ellipse cx="2195.9" cy="1905.5" fill="#260a24" opacity=".412" rx="84" ry="302.1" transform="rotate(-88.666 2195.897 1905.498) scale(.99997)" class="color0f0a26 svgShape"></ellipse><ellipse cx="2194.6" cy="1905.5" fill="#260a24" opacity=".431" rx="83" ry="298.4" transform="rotate(-88.666 2194.613 1905.468) scale(.99997)" class="color0f0a26 svgShape"></ellipse><ellipse cx="2193.3" cy="1905.4" fill="#260a24" opacity=".451" rx="82" ry="294.7" transform="rotate(-88.666 2193.328 1905.438) scale(.99997)" class="color0f0a26 svgShape"></ellipse><ellipse cx="2192" cy="1905.4" fill="#260a24" opacity=".471" rx="81" ry="291" transform="rotate(-88.666 2192.043 1905.408) scale(.99997)" class="color0f0a26 svgShape"></ellipse><ellipse cx="2190.8" cy="1905.4" fill="#260a24" opacity=".49" rx="79.9" ry="287.4" transform="rotate(-88.666 2190.758 1905.378) scale(.99997)" class="color0f0a26 svgShape"></ellipse><ellipse cx="2189.5" cy="1905.4" fill="#260a24" opacity=".51" rx="78.9" ry="283.7" transform="rotate(-88.666 2189.473 1905.348) scale(.99997)" class="color0f0a26 svgShape"></ellipse><ellipse cx="2188.2" cy="1905.3" fill="#260a24" opacity=".529" rx="77.9" ry="280" transform="rotate(-88.666 2188.188 1905.318) scale(.99997)" class="color0f0a26 svgShape"></ellipse><ellipse cx="2186.9" cy="1905.3" fill="#260a24" opacity=".549" rx="76.9" ry="276.3" transform="rotate(-88.666 2186.904 1905.288) scale(.99997)" class="color0f0a26 svgShape"></ellipse><ellipse cx="2185.6" cy="1905.3" fill="#260a24" opacity=".569" rx="75.8" ry="272.7" transform="rotate(-88.666 2185.619 1905.258) scale(.99997)" class="color0f0a26 svgShape"></ellipse><ellipse cx="2184.3" cy="1905.2" fill="#260a24" opacity=".588" rx="74.8" ry="269" transform="rotate(-88.666 2184.334 1905.228) scale(.99997)" class="color0f0a26 svgShape"></ellipse><ellipse cx="2183" cy="1905.2" fill="#260a24" opacity=".608" rx="73.8" ry="265.3" transform="rotate(-88.666 2183.05 1905.198) scale(.99997)" class="color0f0a26 svgShape"></ellipse><ellipse cx="2181.8" cy="1905.2" fill="#260a24" opacity=".627" rx="72.8" ry="261.6" transform="rotate(-88.666 2181.764 1905.168) scale(.99997)" class="color0f0a26 svgShape"></ellipse><ellipse cx="2180.5" cy="1905.1" fill="#260a24" opacity=".647" rx="71.8" ry="258" transform="rotate(-88.666 2180.48 1905.138) scale(.99997)" class="color0f0a26 svgShape"></ellipse><ellipse cx="2179.2" cy="1905.1" fill="#260a24" opacity=".667" rx="70.7" ry="254.3" transform="rotate(-88.666 2179.195 1905.108) scale(.99997)" class="color0f0a26 svgShape"></ellipse><ellipse cx="2177.9" cy="1905.1" fill="#260a24" opacity=".686" rx="69.7" ry="250.6" transform="rotate(-88.666 2177.91 1905.078) scale(.99997)" class="color0f0a26 svgShape"></ellipse><ellipse cx="2176.6" cy="1905.1" fill="#260a24" opacity=".706" rx="68.7" ry="246.9" transform="rotate(-88.666 2176.625 1905.048) scale(.99997)" class="color0f0a26 svgShape"></ellipse><ellipse cx="2175.3" cy="1905" fill="#260a24" opacity=".726" rx="67.7" ry="243.2" transform="rotate(-88.666 2175.34 1905.018) scale(.99997)" class="color0f0a26 svgShape"></ellipse><ellipse cx="2174.1" cy="1905" fill="#260a24" opacity=".745" rx="66.6" ry="239.6" transform="rotate(-88.666 2174.055 1904.988) scale(.99997)" class="color0f0a26 svgShape"></ellipse><ellipse cx="2172.8" cy="1905" fill="#260a24" opacity=".765" rx="65.6" ry="235.9" transform="rotate(-88.666 2172.77 1904.958) scale(.99997)" class="color0f0a26 svgShape"></ellipse><ellipse cx="2171.5" cy="1904.9" fill="#260a24" opacity=".784" rx="64.6" ry="232.2" transform="rotate(-88.666 2171.486 1904.929) scale(.99997)" class="color0f0a26 svgShape"></ellipse><ellipse cx="2170.2" cy="1904.9" fill="#260a24" opacity=".804" rx="63.6" ry="228.5" transform="rotate(-88.666 2170.2 1904.899) scale(.99997)" class="color0f0a26 svgShape"></ellipse><ellipse cx="2168.9" cy="1904.9" fill="#260a24" opacity=".824" rx="62.5" ry="224.9" transform="rotate(-88.666 2168.916 1904.869) scale(.99997)" class="color0f0a26 svgShape"></ellipse><ellipse cx="2167.6" cy="1904.8" fill="#260a24" opacity=".843" rx="61.5" ry="221.2" transform="rotate(-88.666 2167.631 1904.839) scale(.99997)" class="color0f0a26 svgShape"></ellipse><ellipse cx="2166.3" cy="1904.8" fill="#260a24" opacity=".863" rx="60.5" ry="217.5" transform="rotate(-88.666 2166.346 1904.809) scale(.99997)" class="color0f0a26 svgShape"></ellipse><ellipse cx="2165.1" cy="1904.8" fill="#260a24" opacity=".882" rx="59.5" ry="213.8" transform="rotate(-88.666 2165.061 1904.779) scale(.99997)" class="color0f0a26 svgShape"></ellipse><ellipse cx="2163.8" cy="1904.8" fill="#260a24" opacity=".902" rx="58.5" ry="210.2" transform="rotate(-88.666 2163.777 1904.749) scale(.99997)" class="color0f0a26 svgShape"></ellipse><ellipse cx="2162.5" cy="1904.7" fill="#260a24" opacity=".922" rx="57.4" ry="206.5" transform="rotate(-88.666 2162.492 1904.719) scale(.99997)" class="color0f0a26 svgShape"></ellipse><ellipse cx="2161.2" cy="1904.7" fill="#260a24" opacity=".941" rx="56.4" ry="202.8" transform="rotate(-88.666 2161.207 1904.689) scale(.99997)" class="color0f0a26 svgShape"></ellipse><ellipse cx="2159.9" cy="1904.7" fill="#260a24" opacity=".961" rx="55.4" ry="199.1" transform="rotate(-88.666 2159.922 1904.659) scale(.99997)" class="color0f0a26 svgShape"></ellipse><ellipse cx="2158.6" cy="1904.6" fill="#260a24" opacity=".98" rx="54.4" ry="195.5" transform="rotate(-88.666 2158.637 1904.629) scale(.99997)" class="color0f0a26 svgShape"></ellipse><ellipse cx="2157.4" cy="1904.6" fill="#260a24" rx="53.3" ry="191.8" transform="rotate(-88.666 2157.352 1904.599) scale(.99997)" class="color0f0a26 svgShape"></ellipse></g><g opacity=".4" fill="#000000" class="color000000 svgShape"><ellipse cx="1754.9" cy="1297.6" fill="#260a24" opacity="0" rx="103.2" ry="390.6" transform="rotate(-88.744 1754.869 1297.64) scale(1.00004)" class="color0f0a26 svgShape"></ellipse><ellipse cx="1754.9" cy="1297.6" fill="#260a24" opacity=".02" rx="102.2" ry="386.8" transform="rotate(-88.744 1754.869 1297.64) scale(1.00004)" class="color0f0a26 svgShape"></ellipse><ellipse cx="1754.9" cy="1297.6" fill="#260a24" opacity=".039" rx="101.2" ry="383" transform="rotate(-88.744 1754.869 1297.64) scale(1.00004)" class="color0f0a26 svgShape"></ellipse><ellipse cx="1754.9" cy="1297.6" fill="#260a24" opacity=".059" rx="100.2" ry="379.2" transform="rotate(-88.744 1754.869 1297.64) scale(1.00004)" class="color0f0a26 svgShape"></ellipse><ellipse cx="1754.9" cy="1297.6" fill="#260a24" opacity=".078" rx="99.2" ry="375.4" transform="rotate(-88.744 1754.869 1297.64) scale(1.00004)" class="color0f0a26 svgShape"></ellipse><ellipse cx="1754.9" cy="1297.6" fill="#260a24" opacity=".098" rx="98.2" ry="371.6" transform="rotate(-88.744 1754.869 1297.64) scale(1.00004)" class="color0f0a26 svgShape"></ellipse><ellipse cx="1754.9" cy="1297.6" fill="#260a24" opacity=".118" rx="97.2" ry="367.9" transform="rotate(-88.744 1754.869 1297.64) scale(1.00004)" class="color0f0a26 svgShape"></ellipse><ellipse cx="1754.9" cy="1297.6" fill="#260a24" opacity=".137" rx="96.2" ry="364.1" transform="rotate(-88.744 1754.869 1297.64) scale(1.00004)" class="color0f0a26 svgShape"></ellipse><ellipse cx="1754.9" cy="1297.6" fill="#260a24" opacity=".157" rx="95.2" ry="360.3" transform="rotate(-88.744 1754.869 1297.64) scale(1.00004)" class="color0f0a26 svgShape"></ellipse><ellipse cx="1754.9" cy="1297.6" fill="#260a24" opacity=".176" rx="94.2" ry="356.5" transform="rotate(-88.744 1754.869 1297.64) scale(1.00004)" class="color0f0a26 svgShape"></ellipse><ellipse cx="1754.9" cy="1297.6" fill="#260a24" opacity=".196" rx="93.2" ry="352.7" transform="rotate(-88.744 1754.869 1297.64) scale(1.00004)" class="color0f0a26 svgShape"></ellipse><ellipse cx="1754.9" cy="1297.6" fill="#260a24" opacity=".216" rx="92.2" ry="348.9" transform="rotate(-88.744 1754.869 1297.64) scale(1.00004)" class="color0f0a26 svgShape"></ellipse><ellipse cx="1754.9" cy="1297.6" fill="#260a24" opacity=".235" rx="91.2" ry="345.1" transform="rotate(-88.744 1754.869 1297.64) scale(1.00004)" class="color0f0a26 svgShape"></ellipse><ellipse cx="1754.9" cy="1297.6" fill="#260a24" opacity=".255" rx="90.2" ry="341.4" transform="rotate(-88.744 1754.869 1297.64) scale(1.00004)" class="color0f0a26 svgShape"></ellipse><ellipse cx="1754.9" cy="1297.6" fill="#260a24" opacity=".275" rx="89.2" ry="337.6" transform="rotate(-88.744 1754.869 1297.64) scale(1.00004)" class="color0f0a26 svgShape"></ellipse><ellipse cx="1754.9" cy="1297.6" fill="#260a24" opacity=".294" rx="88.2" ry="333.8" transform="rotate(-88.744 1754.869 1297.639) scale(1.00004)" class="color0f0a26 svgShape"></ellipse><ellipse cx="1754.9" cy="1297.6" fill="#260a24" opacity=".314" rx="87.2" ry="330" transform="rotate(-88.744 1754.869 1297.639) scale(1.00004)" class="color0f0a26 svgShape"></ellipse><ellipse cx="1754.9" cy="1297.6" fill="#260a24" opacity=".333" rx="86.2" ry="326.2" transform="rotate(-88.744 1754.869 1297.639) scale(1.00004)" class="color0f0a26 svgShape"></ellipse><ellipse cx="1754.9" cy="1297.6" fill="#260a24" opacity=".353" rx="85.2" ry="322.4" transform="rotate(-88.744 1754.869 1297.639) scale(1.00004)" class="color0f0a26 svgShape"></ellipse><ellipse cx="1754.9" cy="1297.6" fill="#260a24" opacity=".372" rx="84.2" ry="318.6" transform="rotate(-88.744 1754.869 1297.639) scale(1.00004)" class="color0f0a26 svgShape"></ellipse><ellipse cx="1754.9" cy="1297.6" fill="#260a24" opacity=".392" rx="83.2" ry="314.9" transform="rotate(-88.744 1754.869 1297.639) scale(1.00004)" class="color0f0a26 svgShape"></ellipse><ellipse cx="1754.9" cy="1297.6" fill="#260a24" opacity=".412" rx="82.2" ry="311.1" transform="rotate(-88.744 1754.869 1297.639) scale(1.00004)" class="color0f0a26 svgShape"></ellipse><ellipse cx="1754.9" cy="1297.6" fill="#260a24" opacity=".431" rx="81.2" ry="307.3" transform="rotate(-88.744 1754.869 1297.639) scale(1.00004)" class="color0f0a26 svgShape"></ellipse><ellipse cx="1754.9" cy="1297.6" fill="#260a24" opacity=".451" rx="80.2" ry="303.5" transform="rotate(-88.744 1754.868 1297.639) scale(1.00004)" class="color0f0a26 svgShape"></ellipse><ellipse cx="1754.9" cy="1297.6" fill="#260a24" opacity=".471" rx="79.2" ry="299.7" transform="rotate(-88.744 1754.868 1297.639) scale(1.00004)" class="color0f0a26 svgShape"></ellipse><ellipse cx="1754.9" cy="1297.6" fill="#260a24" opacity=".49" rx="78.2" ry="295.9" transform="rotate(-88.744 1754.868 1297.638) scale(1.00004)" class="color0f0a26 svgShape"></ellipse><ellipse cx="1754.9" cy="1297.6" fill="#260a24" opacity=".51" rx="77.2" ry="292.1" transform="rotate(-88.744 1754.868 1297.638) scale(1.00004)" class="color0f0a26 svgShape"></ellipse><ellipse cx="1754.9" cy="1297.6" fill="#260a24" opacity=".529" rx="76.2" ry="288.4" transform="rotate(-88.744 1754.868 1297.638) scale(1.00004)" class="color0f0a26 svgShape"></ellipse><ellipse cx="1754.9" cy="1297.6" fill="#260a24" opacity=".549" rx="75.2" ry="284.6" transform="rotate(-88.744 1754.868 1297.638) scale(1.00004)" class="color0f0a26 svgShape"></ellipse><ellipse cx="1754.9" cy="1297.6" fill="#260a24" opacity=".569" rx="74.2" ry="280.8" transform="rotate(-88.744 1754.869 1297.638) scale(1.00004)" class="color0f0a26 svgShape"></ellipse><ellipse cx="1754.9" cy="1297.6" fill="#260a24" opacity=".588" rx="73.2" ry="277" transform="rotate(-88.744 1754.869 1297.638) scale(1.00004)" class="color0f0a26 svgShape"></ellipse><ellipse cx="1754.9" cy="1297.6" fill="#260a24" opacity=".608" rx="72.2" ry="273.2" transform="rotate(-88.744 1754.869 1297.638) scale(1.00004)" class="color0f0a26 svgShape"></ellipse><ellipse cx="1754.9" cy="1297.6" fill="#260a24" opacity=".627" rx="71.2" ry="269.4" transform="rotate(-88.744 1754.868 1297.638) scale(1.00004)" class="color0f0a26 svgShape"></ellipse><ellipse cx="1754.9" cy="1297.6" fill="#260a24" opacity=".647" rx="70.2" ry="265.6" transform="rotate(-88.744 1754.868 1297.638) scale(1.00004)" class="color0f0a26 svgShape"></ellipse><ellipse cx="1754.9" cy="1297.6" fill="#260a24" opacity=".667" rx="69.2" ry="261.8" transform="rotate(-88.744 1754.868 1297.638) scale(1.00004)" class="color0f0a26 svgShape"></ellipse><ellipse cx="1754.9" cy="1297.6" fill="#260a24" opacity=".686" rx="68.2" ry="258.1" transform="rotate(-88.744 1754.868 1297.638) scale(1.00004)" class="color0f0a26 svgShape"></ellipse><ellipse cx="1754.9" cy="1297.6" fill="#260a24" opacity=".706" rx="67.2" ry="254.3" transform="rotate(-88.744 1754.868 1297.638) scale(1.00004)" class="color0f0a26 svgShape"></ellipse><ellipse cx="1754.9" cy="1297.6" fill="#260a24" opacity=".726" rx="66.2" ry="250.5" transform="rotate(-88.744 1754.868 1297.638) scale(1.00004)" class="color0f0a26 svgShape"></ellipse><ellipse cx="1754.9" cy="1297.6" fill="#260a24" opacity=".745" rx="65.2" ry="246.7" transform="rotate(-88.744 1754.868 1297.638) scale(1.00004)" class="color0f0a26 svgShape"></ellipse><ellipse cx="1754.9" cy="1297.6" fill="#260a24" opacity=".765" rx="64.2" ry="242.9" transform="rotate(-88.744 1754.868 1297.638) scale(1.00004)" class="color0f0a26 svgShape"></ellipse><ellipse cx="1754.9" cy="1297.6" fill="#260a24" opacity=".784" rx="63.2" ry="239.1" transform="rotate(-88.744 1754.868 1297.638) scale(1.00004)" class="color0f0a26 svgShape"></ellipse><ellipse cx="1754.9" cy="1297.6" fill="#260a24" opacity=".804" rx="62.2" ry="235.3" transform="rotate(-88.744 1754.868 1297.638) scale(1.00004)" class="color0f0a26 svgShape"></ellipse><ellipse cx="1754.9" cy="1297.6" fill="#260a24" opacity=".824" rx="61.2" ry="231.6" transform="rotate(-88.744 1754.868 1297.638) scale(1.00004)" class="color0f0a26 svgShape"></ellipse><ellipse cx="1754.9" cy="1297.6" fill="#260a24" opacity=".843" rx="60.2" ry="227.8" transform="rotate(-88.744 1754.868 1297.638) scale(1.00004)" class="color0f0a26 svgShape"></ellipse><ellipse cx="1754.9" cy="1297.6" fill="#260a24" opacity=".863" rx="59.2" ry="224" transform="rotate(-88.744 1754.868 1297.637) scale(1.00004)" class="color0f0a26 svgShape"></ellipse><ellipse cx="1754.9" cy="1297.6" fill="#260a24" opacity=".882" rx="58.2" ry="220.2" transform="rotate(-88.744 1754.868 1297.637) scale(1.00004)" class="color0f0a26 svgShape"></ellipse><ellipse cx="1754.9" cy="1297.6" fill="#260a24" opacity=".902" rx="57.2" ry="216.4" transform="rotate(-88.744 1754.868 1297.637) scale(1.00004)" class="color0f0a26 svgShape"></ellipse><ellipse cx="1754.9" cy="1297.6" fill="#260a24" opacity=".922" rx="56.2" ry="212.6" transform="rotate(-88.744 1754.868 1297.637) scale(1.00004)" class="color0f0a26 svgShape"></ellipse><ellipse cx="1754.9" cy="1297.6" fill="#260a24" opacity=".941" rx="55.2" ry="208.8" transform="rotate(-88.744 1754.868 1297.637) scale(1.00004)" class="color0f0a26 svgShape"></ellipse><ellipse cx="1754.9" cy="1297.6" fill="#260a24" opacity=".961" rx="54.2" ry="205.1" transform="rotate(-88.744 1754.868 1297.637) scale(1.00004)" class="color0f0a26 svgShape"></ellipse><ellipse cx="1754.9" cy="1297.6" fill="#260a24" opacity=".98" rx="53.2" ry="201.3" transform="rotate(-88.744 1754.868 1297.637) scale(1.00004)" class="color0f0a26 svgShape"></ellipse><ellipse cx="1754.9" cy="1297.6" fill="#260a24" rx="52.2" ry="197.5" transform="rotate(-88.744 1754.868 1297.637) scale(1.00004)" class="color0f0a26 svgShape"></ellipse></g><g opacity=".36" fill="#000000" class="color000000 svgShape"><ellipse cx="1535.4" cy="1561.8" fill="#260a24" opacity="0" rx="157.2" ry="565.1" transform="rotate(-88.666 1535.444 1561.798) scale(.99997)" class="color0f0a26 svgShape"></ellipse><ellipse cx="1535.4" cy="1561.8" fill="#260a24" opacity=".02" rx="155.7" ry="559.6" transform="rotate(-88.666 1535.444 1561.798) scale(.99997)" class="color0f0a26 svgShape"></ellipse><ellipse cx="1535.4" cy="1561.8" fill="#260a24" opacity=".039" rx="154.1" ry="554.1" transform="rotate(-88.666 1535.444 1561.798) scale(.99997)" class="color0f0a26 svgShape"></ellipse><ellipse cx="1535.4" cy="1561.8" fill="#260a24" opacity=".059" rx="152.6" ry="548.7" transform="rotate(-88.666 1535.444 1561.798) scale(.99997)" class="color0f0a26 svgShape"></ellipse><ellipse cx="1535.4" cy="1561.8" fill="#260a24" opacity=".078" rx="151.1" ry="543.2" transform="rotate(-88.666 1535.444 1561.798) scale(.99997)" class="color0f0a26 svgShape"></ellipse><ellipse cx="1535.4" cy="1561.8" fill="#260a24" opacity=".098" rx="149.6" ry="537.7" transform="rotate(-88.666 1535.444 1561.798) scale(.99997)" class="color0f0a26 svgShape"></ellipse><ellipse cx="1535.4" cy="1561.8" fill="#260a24" opacity=".118" rx="148" ry="532.2" transform="rotate(-88.666 1535.444 1561.798) scale(.99997)" class="color0f0a26 svgShape"></ellipse><ellipse cx="1535.4" cy="1561.8" fill="#260a24" opacity=".137" rx="146.5" ry="526.8" transform="rotate(-88.666 1535.444 1561.798) scale(.99997)" class="color0f0a26 svgShape"></ellipse><ellipse cx="1535.4" cy="1561.8" fill="#260a24" opacity=".157" rx="145" ry="521.3" transform="rotate(-88.666 1535.444 1561.798) scale(.99997)" class="color0f0a26 svgShape"></ellipse><ellipse cx="1535.4" cy="1561.8" fill="#260a24" opacity=".176" rx="143.5" ry="515.8" transform="rotate(-88.666 1535.444 1561.798) scale(.99997)" class="color0f0a26 svgShape"></ellipse><ellipse cx="1535.4" cy="1561.8" fill="#260a24" opacity=".196" rx="142" ry="510.3" transform="rotate(-88.666 1535.444 1561.797) scale(.99997)" class="color0f0a26 svgShape"></ellipse><ellipse cx="1535.4" cy="1561.8" fill="#260a24" opacity=".216" rx="140.4" ry="504.8" transform="rotate(-88.666 1535.444 1561.797) scale(.99997)" class="color0f0a26 svgShape"></ellipse><ellipse cx="1535.4" cy="1561.8" fill="#260a24" opacity=".235" rx="138.9" ry="499.4" transform="rotate(-88.666 1535.444 1561.797) scale(.99997)" class="color0f0a26 svgShape"></ellipse><ellipse cx="1535.4" cy="1561.8" fill="#260a24" opacity=".255" rx="137.4" ry="493.9" transform="rotate(-88.666 1535.444 1561.797) scale(.99997)" class="color0f0a26 svgShape"></ellipse><ellipse cx="1535.4" cy="1561.8" fill="#260a24" opacity=".275" rx="135.9" ry="488.4" transform="rotate(-88.666 1535.444 1561.797) scale(.99997)" class="color0f0a26 svgShape"></ellipse><ellipse cx="1535.4" cy="1561.8" fill="#260a24" opacity=".294" rx="134.3" ry="482.9" transform="rotate(-88.666 1535.444 1561.797) scale(.99997)" class="color0f0a26 svgShape"></ellipse><ellipse cx="1535.4" cy="1561.8" fill="#260a24" opacity=".314" rx="132.8" ry="477.5" transform="rotate(-88.666 1535.444 1561.797) scale(.99997)" class="color0f0a26 svgShape"></ellipse><ellipse cx="1535.4" cy="1561.8" fill="#260a24" opacity=".333" rx="131.3" ry="472" transform="rotate(-88.666 1535.444 1561.797) scale(.99997)" class="color0f0a26 svgShape"></ellipse><ellipse cx="1535.4" cy="1561.8" fill="#260a24" opacity=".353" rx="129.8" ry="466.5" transform="rotate(-88.666 1535.444 1561.797) scale(.99997)" class="color0f0a26 svgShape"></ellipse><ellipse cx="1535.4" cy="1561.8" fill="#260a24" opacity=".372" rx="128.2" ry="461" transform="rotate(-88.666 1535.444 1561.797) scale(.99997)" class="color0f0a26 svgShape"></ellipse><ellipse cx="1535.4" cy="1561.8" fill="#260a24" opacity=".392" rx="126.7" ry="455.5" transform="rotate(-88.666 1535.444 1561.797) scale(.99997)" class="color0f0a26 svgShape"></ellipse><ellipse cx="1535.4" cy="1561.8" fill="#260a24" opacity=".412" rx="125.2" ry="450.1" transform="rotate(-88.666 1535.444 1561.797) scale(.99997)" class="color0f0a26 svgShape"></ellipse><ellipse cx="1535.4" cy="1561.8" fill="#260a24" opacity=".431" rx="123.7" ry="444.6" transform="rotate(-88.666 1535.444 1561.797) scale(.99997)" class="color0f0a26 svgShape"></ellipse><ellipse cx="1535.4" cy="1561.8" fill="#260a24" opacity=".451" rx="122.1" ry="439.1" transform="rotate(-88.666 1535.444 1561.796) scale(.99997)" class="color0f0a26 svgShape"></ellipse><ellipse cx="1535.4" cy="1561.8" fill="#260a24" opacity=".471" rx="120.6" ry="433.6" transform="rotate(-88.666 1535.444 1561.796) scale(.99997)" class="color0f0a26 svgShape"></ellipse><ellipse cx="1535.4" cy="1561.8" fill="#260a24" opacity=".49" rx="119.1" ry="428.2" transform="rotate(-88.666 1535.444 1561.796) scale(.99997)" class="color0f0a26 svgShape"></ellipse><ellipse cx="1535.4" cy="1561.8" fill="#260a24" opacity=".51" rx="117.6" ry="422.7" transform="rotate(-88.666 1535.444 1561.796) scale(.99997)" class="color0f0a26 svgShape"></ellipse><ellipse cx="1535.4" cy="1561.8" fill="#260a24" opacity=".529" rx="116.1" ry="417.2" transform="rotate(-88.666 1535.444 1561.796) scale(.99997)" class="color0f0a26 svgShape"></ellipse><ellipse cx="1535.4" cy="1561.8" fill="#260a24" opacity=".549" rx="114.5" ry="411.7" transform="rotate(-88.666 1535.444 1561.796) scale(.99997)" class="color0f0a26 svgShape"></ellipse><ellipse cx="1535.4" cy="1561.8" fill="#260a24" opacity=".569" rx="113" ry="406.2" transform="rotate(-88.666 1535.444 1561.796) scale(.99997)" class="color0f0a26 svgShape"></ellipse><ellipse cx="1535.4" cy="1561.8" fill="#260a24" opacity=".588" rx="111.5" ry="400.8" transform="rotate(-88.666 1535.444 1561.796) scale(.99997)" class="color0f0a26 svgShape"></ellipse><ellipse cx="1535.4" cy="1561.8" fill="#260a24" opacity=".608" rx="110" ry="395.3" transform="rotate(-88.666 1535.444 1561.796) scale(.99997)" class="color0f0a26 svgShape"></ellipse><ellipse cx="1535.4" cy="1561.8" fill="#260a24" opacity=".627" rx="108.4" ry="389.8" transform="rotate(-88.666 1535.444 1561.796) scale(.99997)" class="color0f0a26 svgShape"></ellipse><ellipse cx="1535.4" cy="1561.8" fill="#260a24" opacity=".647" rx="106.9" ry="384.3" transform="rotate(-88.666 1535.444 1561.796) scale(.99997)" class="color0f0a26 svgShape"></ellipse><ellipse cx="1535.4" cy="1561.8" fill="#260a24" opacity=".667" rx="105.4" ry="378.9" transform="rotate(-88.666 1535.444 1561.796) scale(.99997)" class="color0f0a26 svgShape"></ellipse><ellipse cx="1535.4" cy="1561.8" fill="#260a24" opacity=".686" rx="103.9" ry="373.4" transform="rotate(-88.666 1535.443 1561.796) scale(.99997)" class="color0f0a26 svgShape"></ellipse><ellipse cx="1535.4" cy="1561.8" fill="#260a24" opacity=".706" rx="102.3" ry="367.9" transform="rotate(-88.666 1535.443 1561.796) scale(.99997)" class="color0f0a26 svgShape"></ellipse><ellipse cx="1535.4" cy="1561.8" fill="#260a24" opacity=".726" rx="100.8" ry="362.4" transform="rotate(-88.666 1535.443 1561.795) scale(.99997)" class="color0f0a26 svgShape"></ellipse><ellipse cx="1535.4" cy="1561.8" fill="#260a24" opacity=".745" rx="99.3" ry="356.9" transform="rotate(-88.666 1535.443 1561.795) scale(.99997)" class="color0f0a26 svgShape"></ellipse><ellipse cx="1535.4" cy="1561.8" fill="#260a24" opacity=".765" rx="97.8" ry="351.5" transform="rotate(-88.666 1535.443 1561.795) scale(.99997)" class="color0f0a26 svgShape"></ellipse><ellipse cx="1535.4" cy="1561.8" fill="#260a24" opacity=".784" rx="96.2" ry="346" transform="rotate(-88.666 1535.443 1561.795) scale(.99997)" class="color0f0a26 svgShape"></ellipse><ellipse cx="1535.4" cy="1561.8" fill="#260a24" opacity=".804" rx="94.7" ry="340.5" transform="rotate(-88.666 1535.443 1561.795) scale(.99997)" class="color0f0a26 svgShape"></ellipse><ellipse cx="1535.4" cy="1561.8" fill="#260a24" opacity=".824" rx="93.2" ry="335" transform="rotate(-88.666 1535.443 1561.795) scale(.99997)" class="color0f0a26 svgShape"></ellipse><ellipse cx="1535.4" cy="1561.8" fill="#260a24" opacity=".843" rx="91.7" ry="329.6" transform="rotate(-88.666 1535.443 1561.795) scale(.99997)" class="color0f0a26 svgShape"></ellipse><ellipse cx="1535.4" cy="1561.8" fill="#260a24" opacity=".863" rx="90.1" ry="324.1" transform="rotate(-88.666 1535.443 1561.795) scale(.99997)" class="color0f0a26 svgShape"></ellipse><ellipse cx="1535.4" cy="1561.8" fill="#260a24" opacity=".882" rx="88.6" ry="318.6" transform="rotate(-88.666 1535.443 1561.795) scale(.99997)" class="color0f0a26 svgShape"></ellipse><ellipse cx="1535.4" cy="1561.8" fill="#260a24" opacity=".902" rx="87.1" ry="313.1" transform="rotate(-88.666 1535.443 1561.795) scale(.99997)" class="color0f0a26 svgShape"></ellipse><ellipse cx="1535.4" cy="1561.8" fill="#260a24" opacity=".922" rx="85.6" ry="307.6" transform="rotate(-88.666 1535.443 1561.795) scale(.99997)" class="color0f0a26 svgShape"></ellipse><ellipse cx="1535.4" cy="1561.8" fill="#260a24" opacity=".941" rx="84.1" ry="302.2" transform="rotate(-88.666 1535.443 1561.795) scale(.99997)" class="color0f0a26 svgShape"></ellipse><ellipse cx="1535.4" cy="1561.8" fill="#260a24" opacity=".961" rx="82.5" ry="296.7" transform="rotate(-88.666 1535.443 1561.794) scale(.99997)" class="color0f0a26 svgShape"></ellipse><ellipse cx="1535.4" cy="1561.8" fill="#260a24" opacity=".98" rx="81" ry="291.2" transform="rotate(-88.666 1535.443 1561.794) scale(.99997)" class="color0f0a26 svgShape"></ellipse><ellipse cx="1535.4" cy="1561.8" fill="#260a24" rx="79.5" ry="285.7" transform="rotate(-88.666 1535.443 1561.794) scale(.99997)" class="color0f0a26 svgShape"></ellipse></g><linearGradient id="a" x1="1752.319" x2="1340.25" y1="1419.246" y2="1458.198" gradientUnits="userSpaceOnUse"><stop offset="0" stop-color="#83427f" class="stopColor505faa svgShape"></stop><stop offset="1" stop-color="#912c8b" class="stopColor2c3c91 svgShape"></stop></linearGradient><path fill="url(#a)" d="M1211.1,1218.1l658.6,227.9c16.2,7.4,14.3,47-0.4,57.4l-260.5,185.1c-13.2,9.4-30.8,10.3-44.6,2.4
			l-631.4-303.2c-15.8-9-18.4-49-2.5-58.4l218.1-107.8C1167.6,1210.3,1191.2,1209,1211.1,1218.1z"></path><linearGradient id="b" x1="1654.295" x2="1820.591" y1="1244.343" y2="1223.89" gradientUnits="userSpaceOnUse"><stop offset="0" stop-color="#c78fc4" class="stopColor8f92c7 svgShape"></stop><stop offset="1" stop-color="#ebcfe9" class="stopColorcfd5eb svgShape"></stop></linearGradient><path fill="url(#b)" d="M1642.1,1157.2l238.8,65.1c5.9,2.2,7.1,15.5,1.7,19.7l-95.2,74.9c-4.8,3.8-11.2,4.6-16.3,2.2l-243.1-72.9
			c-5.8-2.8-14.2-24.9-8.4-28.8l99.6-57.1C1626.2,1155.6,1634.9,1154.5,1642.1,1157.2z"></path><linearGradient id="c" x1="1706.773" x2="1686.371" y1="1182.818" y2="1262.727" gradientUnits="userSpaceOnUse"><stop offset="0" stop-color="#c78fc4" class="stopColor8f92c7 svgShape"></stop><stop offset="1" stop-color="#ebcfe9" class="stopColorcfd5eb svgShape"></stop></linearGradient><path fill="url(#c)" d="M1635.3,1136.5l239.3,70.6c5.9,2.2,6.6,9.9,1.3,14.1l-95.2,74.9c-4.8,3.8-11.2,4.6-16.3,2.2l-243.1-72.9
			c-5.8-2.8-5.7-10.8,0.1-14.7l91.1-71.2C1619.4,1134.9,1628.1,1133.7,1635.3,1136.5z"></path><linearGradient id="d" x1="1752.319" x2="1340.25" y1="1416.751" y2="1455.703" gradientUnits="userSpaceOnUse"><stop offset="0" stop-color="#c78fc4" class="stopColor8f92c7 svgShape"></stop><stop offset="1" stop-color="#ebcfe9" class="stopColorcfd5eb svgShape"></stop></linearGradient><path fill="url(#d)" d="M1211.1,1215.6l658.6,227.9c16.2,7.4,14.3,47-0.4,57.4L1608.8,1686c-13.2,9.4-30.8,10.3-44.6,2.4
			l-631.4-303.2c-15.8-9-18.4-49-2.5-58.4l218.1-107.8C1167.6,1207.8,1191.2,1206.5,1211.1,1215.6z"></path><linearGradient id="e" x1="2099.807" x2="1696.131" y1="887.86" y2="972.351" gradientUnits="userSpaceOnUse"><stop offset="0" stop-color="#c78fc4" class="stopColor8f92c7 svgShape"></stop><stop offset="1" stop-color="#ebcfe9" class="stopColorcfd5eb svgShape"></stop></linearGradient><path fill="url(#e)" d="M2034.9,1270.5c-3.4,0-6.9-0.5-10.2-1.4l-584.2-171.9c-11.8-3.2-21.6-10.8-27.5-21.5
			c-5.9-10.7-7.3-23-3.7-34.7l112.5-378.2c5.8-19.1,23-31.9,42.9-31.9c0.8,0,1.7,0,2.6,0.1l630.9-0.1c12.1,0.7,26.6,42.8,33.5,52.7
			c6.9,9.9,8.9,22.2,5.3,33.8l-164.6,525.3C2067.2,1259.4,2052.2,1270.5,2034.9,1270.5C2034.9,1270.5,2034.9,1270.5,2034.9,1270.5z"></path><linearGradient id="f" x1="1912.62" x2="1759.02" y1="1203.159" y2="723.158" gradientUnits="userSpaceOnUse"><stop offset="0" stop-color="#fff9ff" class="stopColorf9fcff svgShape"></stop><stop offset="1" stop-color="#f7e7f6" class="stopColore7edf7 svgShape"></stop></linearGradient><path fill="url(#f)" d="M2016.6,1238.1c-3.4,0-6.9-0.5-10.2-1.4l-593.4-160.5c-11.8-3.2-21.6-10.8-27.5-21.5
			c-5.9-10.7-7.3-23-3.7-34.7L1517,589.8c5.8-19.1,23-31.9,42.9-31.9c0.8,0,1.7,0,2.6,0.1l619.5,67.5c12.1,0.7,23,6.8,29.9,16.7
			c6.9,9.9,8.9,22.2,5.3,33.8L2054,1210.4C2048.9,1226.9,2033.9,1238.1,2016.6,1238.1C2016.6,1238.1,2016.6,1238.1,2016.6,1238.1z"></path><linearGradient id="g" x1="1993.311" x2="1802.239" y1="708.524" y2="883.933" gradientUnits="userSpaceOnUse"><stop offset="0" stop-color="#83427f" class="stopColor505faa svgShape"></stop><stop offset="1" stop-color="#912c8b" class="stopColor2c3c91 svgShape"></stop></linearGradient><path fill="url(#g)" d="M2185.7,643l-627.5-68.3c-11.2-0.6-21.4,6.5-24.6,17.2l-137,435.8c-4,13.1,3.7,26.9,16.9,30.5l601.1,162.6
			c9.6,2.6,19.6-2.9,22.5-12.5l165.3-541.4C2205.9,655.4,2197.7,643.7,2185.7,643z"></path><linearGradient id="h" x1="1330.161" x2="1452.396" y1="1566.014" y2="1282.591" gradientUnits="userSpaceOnUse"><stop offset="0" stop-color="#fff9ff" class="stopColorf9fcff svgShape"></stop><stop offset="1" stop-color="#f7e7f6" class="stopColore7edf7 svgShape"></stop></linearGradient><path fill="url(#h)" d="M1211.1,1195.7l654.8,246.2c16.2,7.4,18.1,28.7,3.4,39.1l-260.5,185.1c-13.2,9.4-30.8,10.3-44.6,2.4
			l-631.4-303.2c-15.8-9-15.6-31,0.3-40.4l215.3-125.8C1167.6,1187.9,1191.2,1186.6,1211.1,1195.7z"></path><path fill="#f420e7" d="M1873.1,715l-182.3,560.7c-5.8,18.1-25.5,27.5-43.8,21.2l-586.6-184.3c-11.7-4.1-20-13.7-22.8-24.7
				c3.3,2.9,7.2,5.2,11.5,6.7l586.7,184.2c18.3,6.4,38-3.1,43.8-21.2L1861.8,697c2.1-6.4,2.2-13,0.6-19
				C1872.7,686.8,1877.6,701.3,1873.1,715z" class="colorf47e20 svgShape"></path><linearGradient id="i" x1="1023.019" x2="1855.497" y1="900.716" y2="900.716" gradientTransform="matrix(1.0071 .0256 0 1 -5.202 -18.706)" gradientUnits="userSpaceOnUse"><stop offset="0" stop-color="#f521e8" class="stopColorf58b21 svgShape"></stop><stop offset="1" stop-color="#f519e7" class="stopColorf5b419 svgShape"></stop></linearGradient><path fill="url(#i)" d="M1861.8,697l-182.3,560.7c-5.8,18.1-25.5,27.6-43.8,21.2L1049,1094.6c-4.4-1.5-8.2-3.8-11.5-6.7
				c-10.6-9-15.2-23.8-10.6-37.5l176.5-470.8c5.2-15.3,20.6-24.7,36.9-22.4l592.4,94.4c14.9,2.1,26.3,13.1,29.7,26.4
				C1864,684,1863.9,690.5,1861.8,697z" opacity=".68"></path><path fill="#ffffff" d="M1812.9 724.6l-13.5 41.7c-3.5 10.7-14.3 17.1-25.4 15l-142-27.1-402-76.8c-13.6-2.6-21.5-16.8-16.7-29.7l11.4-30.4c3.7-10 14-15.9 24.6-14.1L1661 673l134.5 22.9C1808.9 698.2 1817.1 711.7 1812.9 724.6zM1218.9 694.9l213.6 40.5c10 1.9 16 12.2 12.8 21.9L1315.9 1139c-2.9 8.6-12.2 13.4-20.9 10.6l-213.4-66.8c-9.1-2.9-14-12.8-10.8-21.7L1200 705.7C1202.8 697.9 1210.8 693.4 1218.9 694.9zM1476.6 743.9l302 57.3c8.3 1.6 13.4 10.1 10.9 18.2L1654 1245.9c-2.4 7.4-10.3 11.6-17.7 9.2l-298-93.6c-7.6-2.4-11.7-10.5-9.2-18l131.5-390.1C1462.8 746.6 1469.6 742.6 1476.6 743.9z" opacity=".68" class="colorffffff svgShape"></path><path fill="#ffffff" d="M1392.2 777.9l-135.3-31.8c-3-.7-4.7-3.7-3.7-6.7l.5-1.3c1-3 4.3-4.8 7.3-4.1l135.3 31.8c3 .7 4.7 3.7 3.7 6.7l-.5 1.3C1398.5 776.8 1395.2 778.6 1392.2 777.9zM1382 805.6l-172.5-40.5c-3.4-.8-5.3-4.2-4.1-7.5l0 0c1.1-3.3 4.8-5.4 8.2-4.6l172.5 40.5c3.4.8 5.3 4.2 4.1 7.5l0 0C1389.1 804.4 1385.4 806.4 1382 805.6zM1372.5 833.5L1200 793c-3.4-.8-5.3-4.2-4.1-7.5v0c1.1-3.3 4.8-5.4 8.2-4.6l172.5 40.5c3.4.8 5.3 4.2 4.1 7.5l0 0C1379.6 832.2 1375.9 834.3 1372.5 833.5zM1363 861.4l-172.5-40.5c-3.4-.8-5.3-4.2-4.1-7.5l0 0c1.1-3.3 4.8-5.4 8.2-4.6l172.5 40.5c3.4.8 5.3 4.2 4.1 7.5l0 0C1370.1 860.1 1366.4 862.2 1363 861.4zM1353.6 889.3L1181 848.7c-3.4-.8-5.3-4.2-4.1-7.5l0 0c1.1-3.3 4.8-5.4 8.2-4.6l172.5 40.5c3.4.8 5.3 4.2 4.1 7.5v0C1360.7 888 1357 890.1 1353.6 889.3zM1746.7 842.5l-223.7-45.2c-3-.7-4.7-3.7-3.7-6.7l.5-1.3c1-3 4.3-4.8 7.3-4.1l223.8 44.6c3 .7 4.7 3.8 3.6 6.9l-.5 1.4C1753 841.3 1749.7 843.3 1746.7 842.5zM1736.2 871.4l-260.6-55.1c-3.4-.8-5.3-4.2-4.1-7.5v0c1.1-3.3 4.8-5.4 8.2-4.6l260.7 54.6c3.4.8 5.2 4.3 4.1 7.7v0C1743.4 870.1 1739.6 872.2 1736.2 871.4zM1726.5 900.5l-260.3-56.3c-3.4-.8-5.3-4.2-4.1-7.5l0 0c1.1-3.3 4.8-5.4 8.2-4.6l260.4 55.7c3.4.8 5.2 4.3 4.1 7.7l0 0C1733.6 899.1 1729.9 901.3 1726.5 900.5zM1716.7 929.6l-260-57.4c-3.4-.8-5.3-4.2-4.1-7.5l0 0c1.1-3.3 4.8-5.4 8.2-4.6l260.2 56.9c3.4.8 5.2 4.3 4.1 7.7l0 0C1723.9 928.2 1720.1 930.4 1716.7 929.6zM1707 958.6L1447.2 900c-3.4-.8-5.3-4.2-4.1-7.5h0c1.1-3.3 4.8-5.4 8.2-4.6l259.9 58.1c3.4.8 5.2 4.3 4.1 7.7l0 0C1714.1 957.3 1710.4 959.4 1707 958.6z" class="colorffffff svgShape"></path><g fill="#000000" class="color000000 svgShape"><path fill="#ffffff" d="M1657.9 1064.6l-211.7-58.2c-2.9-.9-4.4-3.9-3.5-6.7l.4-1.3c1-2.8 4.1-4.4 6.9-3.5l211.8 57.7c2.9.9 4.4 4 3.4 6.9l-.4 1.3C1663.9 1063.8 1660.7 1065.5 1657.9 1064.6zM1648 1091.9l-246.6-70.1c-3.2-1-5-4.4-3.9-7.5l0 0c1.1-3.1 4.6-4.9 7.8-3.9L1652 1080c3.2 1 5 4.5 3.8 7.8l0 0C1654.7 1091.1 1651.2 1092.9 1648 1091.9zM1638.7 1119.5l-246.3-71.3c-3.2-1-5-4.4-3.9-7.5l0 0c1.1-3.1 4.6-4.9 7.8-3.9l246.5 70.8c3.2 1 5 4.5 3.8 7.8l0 0C1645.4 1118.6 1641.9 1120.5 1638.7 1119.5zM1629.4 1147l-246.1-72.4c-3.2-1-5-4.4-3.9-7.5l0 0c1.1-3.1 4.6-4.9 7.8-3.9l246.2 71.9c3.2 1 5 4.5 3.8 7.8l0 0C1636.1 1146.1 1632.6 1148 1629.4 1147zM1620.1 1174.5l-245.8-73.5c-3.2-1-5-4.4-3.9-7.5l0 0c1.1-3.1 4.6-4.9 7.8-3.9l245.9 73c3.2 1 5 4.5 3.8 7.8l0 0C1626.9 1173.6 1623.3 1175.5 1620.1 1174.5z" class="colorffffff svgShape"></path></g><g fill="#000000" class="color000000 svgShape"><path fill="#ffffff" d="M1322.8 955.8l-132.3-37.4c-3-.8-4.6-3.9-3.6-6.9l.4-1.3c1-2.9 4.2-4.7 7.2-3.8l132.3 37.4c3 .8 4.6 3.9 3.6 6.9l-.4 1.3C1329 955 1325.8 956.7 1322.8 955.8zM1312.7 983.4l-168.7-47.7c-3.3-.9-5.1-4.4-4-7.7l0 0c1.1-3.3 4.8-5.2 8.1-4.3l168.7 47.7c3.3.9 5.1 4.4 4 7.7l0 0C1319.7 982.4 1316 984.4 1312.7 983.4zM1303.3 1011.2l-168.7-47.7c-3.3-.9-5.1-4.4-4-7.7l0 0c1.1-3.3 4.8-5.2 8.1-4.3l168.7 47.7c3.3.9 5.1 4.4 4 7.7l0 0C1310.3 1010.2 1306.6 1012.1 1303.3 1011.2zM1293.9 1038.9l-168.7-47.7c-3.3-.9-5.1-4.4-4-7.7v0c1.1-3.3 4.8-5.2 8.1-4.3l168.7 47.7c3.3.9 5.1 4.4 4 7.7l0 0C1300.9 1037.9 1297.2 1039.9 1293.9 1038.9zM1284.5 1066.7l-168.7-47.7c-3.3-.9-5.1-4.4-4-7.7l0 0c1.1-3.3 4.8-5.2 8.1-4.3l168.7 47.7c3.3.9 5.1 4.4 4 7.7l0 0C1291.4 1065.7 1287.8 1067.6 1284.5 1066.7z" class="colorffffff svgShape"></path></g><linearGradient id="j" x1="1720.959" x2="1734.23" y1="761.52" y2="696.099" gradientUnits="userSpaceOnUse"><stop offset="0" stop-color="#f521e8" class="stopColorf58b21 svgShape"></stop><stop offset="1" stop-color="#f519e7" class="stopColorf5b419 svgShape"></stop></linearGradient><path fill="url(#j)" d="M1812.9,724.6l-13.5,41.7c-3.5,10.7-14.3,17.1-25.4,15l-136.5-26.1l28.6-81.3l129.3,22
				C1808.9,698.2,1817.1,711.7,1812.9,724.6z"></path><g fill="#000000" class="color000000 svgShape"><linearGradient id="k" x1="2566.473" x2="2152.265" y1="1048.591" y2="1450.209" gradientTransform="matrix(1 0 .02895 1.0109 -79.988 -30.015)" gradientUnits="userSpaceOnUse"><stop offset="0" stop-color="#cc32c2" class="stopColor32a4cc svgShape"></stop><stop offset="1" stop-color="#9a2d93" class="stopColor2d4d9a svgShape"></stop></linearGradient><path fill="url(#k)" d="M2705.8,868.1l-191,651.9c-6.1,21-28.5,32-49.7,24.6l-680.8-214.2c-13.6-4.8-23.4-15.9-27.1-28.8
				c3.9,3.4,8.4,6,13.5,7.8l680.9,214.2c21.3,7.5,43.6-3.6,49.7-24.6l191-651.9c2.2-7.5,2-15.1,0-22.1
				C2704.5,835.3,2710.6,852.1,2705.8,868.1z"></path><path fill="#cc32c2" d="M2692.3,847.1l-191,651.9c-6.1,21-28.5,32-49.7,24.6l-680.9-214.2c-5.1-1.8-9.6-4.4-13.5-7.8
				c-12.5-10.5-18.3-27.7-13.4-43.6l187.3-547.4c5.4-17.8,22.8-28.7,41.7-26.1l684.5,109.8c17.3,2.4,30.6,15.2,35,30.7
				C2694.4,832,2694.5,839.6,2692.3,847.1z" opacity=".68" class="color32a4cc svgShape"></path><linearGradient id="l" x1="669.982" x2="847.799" y1="-773.162" y2="-773.162" gradientTransform="matrix(1.0578 .2291 -.2959 .9552 1080.376 1382.23)" gradientUnits="userSpaceOnUse"><stop offset="0" stop-color="#f521e8" class="stopColorf58b21 svgShape"></stop><stop offset="1" stop-color="#f519e7" class="stopColorf5b419 svgShape"></stop></linearGradient><path fill="url(#l)" d="M2197.1,842.7L2022.8,805c-3.8-0.8-6.1-4.3-5-7.8v0c1.1-3.4,5.1-5.6,8.9-4.8l174.2,37.7
						c3.8,0.8,6.1,4.3,5,7.8l0,0C2204.9,841.4,2200.9,843.5,2197.1,842.7z"></path><path fill="#ffffff" d="M2260.8 902.9l-174.2-37.7c-3.8-.8-6.1-4.3-5-7.8v0c1.1-3.4 5.1-5.6 8.9-4.8l174.2 37.7c3.8.8 6.1 4.3 5 7.8l0 0C2268.6 901.6 2264.6 903.7 2260.8 902.9zM2161.7 964.7L1987.4 927c-3.8-.8-6.1-4.3-5-7.8l0 0c1.1-3.4 5.1-5.6 8.9-4.8l174.2 37.7c3.8.8 6.1 4.3 5 7.8v0C2169.5 963.4 2165.5 965.5 2161.7 964.7z" class="colorffffff svgShape"></path><linearGradient id="m" x1="686.498" x2="864.314" y1="-601.037" y2="-601.037" gradientTransform="matrix(1.0578 .2291 -.2959 .9552 1080.376 1382.23)" gradientUnits="userSpaceOnUse"><stop offset="0" stop-color="#f521e8" class="stopColorf58b21 svgShape"></stop><stop offset="1" stop-color="#f519e7" class="stopColorf5b419 svgShape"></stop></linearGradient><path fill="url(#m)" d="M2163.6,1010.9l-174.2-37.7c-3.8-0.8-6.1-4.3-5-7.8l0,0c1.1-3.4,5.1-5.6,8.9-4.8l174.2,37.7
						c3.8,0.8,6.1,4.3,5,7.8v0C2171.4,1009.6,2167.4,1011.7,2163.6,1010.9z"></path><path fill="#ffffff" d="M2101.1 1043.1l-126-27.3c-3.3-.7-5.2-3.7-4.3-6.6l.6-1.8c.9-2.9 4.3-4.8 7.6-4.1l126 27.3c3.3.7 5.2 3.7 4.3 6.6l-.6 1.8C2107.7 1042 2104.3 1043.8 2101.1 1043.1zM2257.9 1077.1l-126-27.3c-3.3-.7-5.2-3.7-4.3-6.6l.6-1.8c.9-2.9 4.3-4.8 7.6-4.1l126 27.3c3.3.7 5.2 3.7 4.3 6.6l-.6 1.8C2264.6 1075.9 2261.2 1077.8 2257.9 1077.1z" class="colorffffff svgShape"></path><linearGradient id="n" x1="983.029" x2="1113.319" y1="-556.17" y2="-556.17" gradientTransform="matrix(1.0578 .2291 -.2959 .9552 1080.376 1382.23)" gradientUnits="userSpaceOnUse"><stop offset="0" stop-color="#f521e8" class="stopColorf58b21 svgShape"></stop><stop offset="1" stop-color="#f519e7" class="stopColorf5b419 svgShape"></stop></linearGradient><path fill="url(#n)" d="M2414.7,1111l-126-27.3c-3.3-0.7-5.2-3.7-4.3-6.6l0.6-1.8c0.9-2.9,4.3-4.8,7.6-4.1l126,27.3
						c3.3,0.7,5.2,3.7,4.3,6.6l-0.6,1.8C2421.4,1109.9,2418,1111.7,2414.7,1111z"></path><path fill="#ffffff" d="M2378.9 1057.5l-174.2-37.7c-3.8-.8-6.1-4.3-5-7.8l0 0c1.1-3.4 5.1-5.6 8.9-4.8l174.2 37.7c3.8.8 6.1 4.3 5 7.8l0 0C2386.7 1056.2 2382.7 1058.4 2378.9 1057.5zM2299.1 951.9l-174.2-37.7c-3.8-.8-6.1-4.3-5-7.8v0c1.1-3.4 5.1-5.6 8.9-4.8l174.2 37.7c3.8.8 6.1 4.3 5 7.8l0 0C2306.9 950.6 2302.9 952.7 2299.1 951.9z" class="colorffffff svgShape"></path><linearGradient id="o" x1="995.061" x2="1172.878" y1="-687.697" y2="-687.697" gradientTransform="matrix(1.0578 .2291 -.2959 .9552 1080.376 1382.23)" gradientUnits="userSpaceOnUse"><stop offset="0" stop-color="#f521e8" class="stopColorf58b21 svgShape"></stop><stop offset="1" stop-color="#f519e7" class="stopColorf5b419 svgShape"></stop></linearGradient><path fill="url(#o)" d="M2515.7,998.8l-174.2-37.7c-3.8-0.8-6.1-4.3-5-7.8l0,0c1.1-3.4,5.1-5.6,8.9-4.8l174.2,37.7
						c3.8,0.8,6.1,4.3,5,7.8l0,0C2523.5,997.5,2519.5,999.7,2515.7,998.8z"></path><path fill="#ffffff" d="M2402.4 887.2l-174.2-37.7c-3.8-.8-6.1-4.3-5-7.8v0c1.1-3.4 5.1-5.6 8.9-4.8l174.2 37.7c3.8.8 6.1 4.3 5 7.8l0 0C2410.2 885.9 2406.2 888 2402.4 887.2zM2555 920.2l-122.7-26.6c-3.2-.7-5.1-3.6-4.2-6.6l.6-1.9c.9-2.9 4.3-4.7 7.5-4l122.7 26.6c3.2.7 5.1 3.6 4.2 6.6l-.6 1.9C2561.6 919.1 2558.3 920.9 2555 920.2z" class="colorffffff svgShape"></path><g fill="#000000" class="color000000 svgShape"><path fill="#ffffff" d="M2196 1113.6l-174.2-37.7c-3.8-.8-6.1-4.3-5-7.8l0 0c1.1-3.4 5.1-5.6 8.9-4.8l174.2 37.7c3.8.8 6.1 4.3 5 7.8h0C2203.8 1112.3 2199.8 1114.4 2196 1113.6zM2096.8 1174.2l-174.2-37.7c-3.8-.8-6.1-4.3-5-7.8l0 0c1.1-3.4 5.1-5.6 8.9-4.8l174.2 37.7c3.8.8 6.1 4.3 5 7.8l0 0C2104.6 1172.8 2100.6 1175 2096.8 1174.2z" class="colorffffff svgShape"></path><linearGradient id="p" x1="686.498" x2="864.314" y1="-381.771" y2="-381.771" gradientTransform="matrix(1.0578 .2291 -.2959 .9552 1080.376 1382.23)" gradientUnits="userSpaceOnUse"><stop offset="0" stop-color="#f521e8" class="stopColorf58b21 svgShape"></stop><stop offset="1" stop-color="#f519e7" class="stopColorf5b419 svgShape"></stop></linearGradient><path fill="url(#p)" d="M2098.7,1220.4l-174.2-37.7c-3.8-0.8-6.1-4.3-5-7.8l0,0c1.1-3.4,5.1-5.6,8.9-4.8l174.2,37.7
						c3.8,0.8,6.1,4.3,5,7.8l0,0C2106.5,1219,2102.6,1221.2,2098.7,1220.4z"></path><path fill="#ffffff" d="M2036.2 1252.5l-126-27.3c-3.3-.7-5.2-3.7-4.3-6.6l.6-1.8c.9-2.9 4.3-4.8 7.6-4.1l126 27.3c3.3.7 5.2 3.7 4.3 6.6l-.6 1.8C2042.9 1251.4 2039.5 1253.2 2036.2 1252.5zM2193 1286.5l-126-27.3c-3.3-.7-5.2-3.7-4.3-6.6l.6-1.8c.9-2.9 4.3-4.8 7.6-4.1l126 27.3c3.3.7 5.2 3.7 4.3 6.6l-.6 1.8C2199.7 1285.4 2196.3 1287.2 2193 1286.5z" class="colorffffff svgShape"></path><linearGradient id="q" x1="983.029" x2="1113.319" y1="-336.905" y2="-336.905" gradientTransform="matrix(1.0578 .2291 -.2959 .9552 1080.376 1382.23)" gradientUnits="userSpaceOnUse"><stop offset="0" stop-color="#f521e8" class="stopColorf58b21 svgShape"></stop><stop offset="1" stop-color="#f519e7" class="stopColorf5b419 svgShape"></stop></linearGradient><path fill="url(#q)" d="M2349.9,1320.5l-126-27.3c-3.3-0.7-5.2-3.7-4.3-6.6l0.6-1.8c0.9-2.9,4.3-4.8,7.6-4.1l126,27.3
						c3.3,0.7,5.2,3.7,4.3,6.6l-0.6,1.8C2356.5,1319.4,2353.1,1321.2,2349.9,1320.5z"></path><path fill="#ffffff" d="M2314,1267l-174.2-37.7c-3.8-0.8-6.1-4.3-5-7.8l0,0c1.1-3.4,5.1-5.6,8.9-4.8l174.2,37.7
						c3.8,0.8,6.1,4.3,5,7.8l0,0C2321.8,1265.7,2317.8,1267.8,2314,1267z" class="colorffffff svgShape"></path><linearGradient id="r" x1="790.369" x2="968.185" y1="-468.432" y2="-468.432" gradientTransform="matrix(1.0578 .2291 -.2959 .9552 1080.376 1382.23)" gradientUnits="userSpaceOnUse"><stop offset="0" stop-color="#f521e8" class="stopColorf58b21 svgShape"></stop><stop offset="1" stop-color="#f519e7" class="stopColorf5b419 svgShape"></stop></linearGradient><path fill="url(#r)" d="M2234.3,1161.4l-174.2-37.7c-3.8-0.8-6.1-4.3-5-7.8l0,0c1.1-3.4,5.1-5.6,8.9-4.8l174.2,37.7
						c3.8,0.8,6.1,4.3,5,7.8l0,0C2242.1,1160.1,2238.1,1162.2,2234.3,1161.4z"></path><path fill="#ffffff" d="M2450.8,1208.3l-174.2-37.7c-3.8-0.8-6.1-4.3-5-7.8v0c1.1-3.4,5.1-5.6,8.9-4.8l174.2,37.7
						c3.8,0.8,6.1,4.3,5,7.8l0,0C2458.6,1207,2454.6,1209.1,2450.8,1208.3z" class="colorffffff svgShape"></path></g></g><g fill="#000000" class="color000000 svgShape"><linearGradient id="s" x1="1122.851" x2="1667.35" y1="1322.111" y2="1692.285" gradientUnits="userSpaceOnUse"><stop offset="0" stop-color="#83427f" class="stopColor505faa svgShape"></stop><stop offset="1" stop-color="#912c8b" class="stopColor2c3c91 svgShape"></stop></linearGradient><polygon fill="url(#s)" points="1225.2 1369.8 1188.6 1353.9 1162 1370.7 1198.6 1386.7"></polygon><linearGradient id="t" x1="1147.356" x2="1691.855" y1="1286.067" y2="1656.24" gradientUnits="userSpaceOnUse"><stop offset="0" stop-color="#83427f" class="stopColor505faa svgShape"></stop><stop offset="1" stop-color="#912c8b" class="stopColor2c3c91 svgShape"></stop></linearGradient><polygon fill="url(#t)" points="1201.9 1345.4 1238.8 1361.2 1265.5 1344.2 1228.6 1328.5"></polygon><linearGradient id="u" x1="1134.356" x2="1678.855" y1="1305.188" y2="1675.362" gradientUnits="userSpaceOnUse"><stop offset="0" stop-color="#83427f" class="stopColor505faa svgShape"></stop><stop offset="1" stop-color="#912c8b" class="stopColor2c3c91 svgShape"></stop></linearGradient><polygon fill="url(#u)" points="1326.1 1413.5 1289.6 1397.6 1263.2 1414.8 1299.7 1430.8"></polygon><linearGradient id="v" x1="1141.42" x2="1685.919" y1="1294.798" y2="1664.971" gradientUnits="userSpaceOnUse"><stop offset="0" stop-color="#83427f" class="stopColor505faa svgShape"></stop><stop offset="1" stop-color="#912c8b" class="stopColor2c3c91 svgShape"></stop></linearGradient><polygon fill="url(#v)" points="1151.3 1323.7 1188.2 1339.5 1215 1322.7 1178.1 1306.9"></polygon><linearGradient id="w" x1="1140.109" x2="1684.608" y1="1296.725" y2="1666.899" gradientUnits="userSpaceOnUse"><stop offset="0" stop-color="#83427f" class="stopColor505faa svgShape"></stop><stop offset="1" stop-color="#912c8b" class="stopColor2c3c91 svgShape"></stop></linearGradient><polygon fill="url(#w)" points="1376.5 1435.3 1340.1 1419.5 1313.8 1436.9 1350.2 1452.8"></polygon><linearGradient id="x" x1="1117.099" x2="1661.598" y1="1330.571" y2="1700.745" gradientUnits="userSpaceOnUse"><stop offset="0" stop-color="#83427f" class="stopColor505faa svgShape"></stop><stop offset="1" stop-color="#912c8b" class="stopColor2c3c91 svgShape"></stop></linearGradient><polygon fill="url(#x)" points="1111.5 1348.6 1148.1 1364.6 1174.8 1347.9 1138.1 1332"></polygon><linearGradient id="y" x1="1128.603" x2="1673.102" y1="1313.65" y2="1683.823" gradientUnits="userSpaceOnUse"><stop offset="0" stop-color="#83427f" class="stopColor505faa svgShape"></stop><stop offset="1" stop-color="#912c8b" class="stopColor2c3c91 svgShape"></stop></linearGradient><polygon fill="url(#y)" points="1275.7 1391.6 1239.1 1375.8 1212.6 1392.8 1249.1 1408.7"></polygon><linearGradient id="z" x1="1188.908" x2="1733.407" y1="1224.947" y2="1595.12" gradientUnits="userSpaceOnUse"><stop offset="0" stop-color="#83427f" class="stopColor505faa svgShape"></stop><stop offset="1" stop-color="#912c8b" class="stopColor2c3c91 svgShape"></stop></linearGradient><polygon fill="url(#z)" points="1618.7 1494.6 1582.3 1479.1 1556.3 1497.3 1592.6 1512.8"></polygon><linearGradient id="A" x1="1214.734" x2="1759.233" y1="1186.958" y2="1557.132" gradientUnits="userSpaceOnUse"><stop offset="0" stop-color="#83427f" class="stopColor505faa svgShape"></stop><stop offset="1" stop-color="#912c8b" class="stopColor2c3c91 svgShape"></stop></linearGradient><polygon fill="url(#A)" points="1659.1 1466.3 1622.6 1451 1596.5 1469.2 1633 1484.6"></polygon><linearGradient id="B" x1="1182.971" x2="1727.47" y1="1233.678" y2="1603.852" gradientUnits="userSpaceOnUse"><stop offset="0" stop-color="#83427f" class="stopColor505faa svgShape"></stop><stop offset="1" stop-color="#912c8b" class="stopColor2c3c91 svgShape"></stop></linearGradient><polygon fill="url(#B)" points="1568.2 1473.1 1531.8 1457.6 1505.7 1475.6 1542.1 1491.2"></polygon><linearGradient id="C" x1="1157.373" x2="1701.872" y1="1271.331" y2="1641.505" gradientUnits="userSpaceOnUse"><stop offset="0" stop-color="#83427f" class="stopColor505faa svgShape"></stop><stop offset="1" stop-color="#912c8b" class="stopColor2c3c91 svgShape"></stop></linearGradient><polygon fill="url(#C)" points="1527.9 1500.9 1491.7 1485.2 1465.6 1503.2 1501.8 1519"></polygon><linearGradient id="D" x1="1145.863" x2="1690.362" y1="1288.262" y2="1658.435" gradientUnits="userSpaceOnUse"><stop offset="0" stop-color="#83427f" class="stopColor505faa svgShape"></stop><stop offset="1" stop-color="#912c8b" class="stopColor2c3c91 svgShape"></stop></linearGradient><polygon fill="url(#D)" points="1427 1457.2 1390.6 1441.4 1364.4 1459 1400.7 1474.8"></polygon><linearGradient id="E" x1="1151.618" x2="1696.117" y1="1279.797" y2="1649.97" gradientUnits="userSpaceOnUse"><stop offset="0" stop-color="#83427f" class="stopColor505faa svgShape"></stop><stop offset="1" stop-color="#912c8b" class="stopColor2c3c91 svgShape"></stop></linearGradient><polygon fill="url(#E)" points="1477.4 1479.1 1441.1 1463.3 1415 1481.1 1451.2 1496.9"></polygon><linearGradient id="F" x1="1153.292" x2="1697.791" y1="1277.335" y2="1647.508" gradientUnits="userSpaceOnUse"><stop offset="0" stop-color="#83427f" class="stopColor505faa svgShape"></stop><stop offset="1" stop-color="#912c8b" class="stopColor2c3c91 svgShape"></stop></linearGradient><polygon fill="url(#F)" points="1315.9 1365.7 1279.1 1350 1252.6 1367.1 1289.3 1382.8"></polygon><linearGradient id="G" x1="1159.227" x2="1703.726" y1="1268.604" y2="1638.777" gradientUnits="userSpaceOnUse"><stop offset="0" stop-color="#83427f" class="stopColor505faa svgShape"></stop><stop offset="1" stop-color="#912c8b" class="stopColor2c3c91 svgShape"></stop></linearGradient><polygon fill="url(#G)" points="1366.4 1387.1 1329.7 1371.5 1303.2 1388.8 1339.9 1404.5"></polygon><linearGradient id="H" x1="1241.256" x2="1785.755" y1="1147.946" y2="1518.119" gradientUnits="userSpaceOnUse"><stop offset="0" stop-color="#83427f" class="stopColor505faa svgShape"></stop><stop offset="1" stop-color="#912c8b" class="stopColor2c3c91 svgShape"></stop></linearGradient><polygon fill="url(#H)" points="1673.4 1456.3 1701.6 1436.6 1664.7 1421.6 1636.7 1441.1"></polygon><linearGradient id="I" x1="1208.62" x2="1753.119" y1="1195.951" y2="1566.124" gradientUnits="userSpaceOnUse"><stop offset="0" stop-color="#83427f" class="stopColor505faa svgShape"></stop><stop offset="1" stop-color="#912c8b" class="stopColor2c3c91 svgShape"></stop></linearGradient><polygon fill="url(#I)" points="1608.7 1445.2 1572 1429.9 1545.8 1447.9 1582.4 1463.3"></polygon><linearGradient id="J" x1="1087.49" x2="1631.989" y1="1374.125" y2="1744.299" gradientUnits="userSpaceOnUse"><stop offset="0" stop-color="#83427f" class="stopColor505faa svgShape"></stop><stop offset="1" stop-color="#912c8b" class="stopColor2c3c91 svgShape"></stop></linearGradient><path fill="url(#J)" d="M1051.4,1336.3l-5.7,3.5c-10.6,6.2-10.7,20.8-0.2,26.8l7.6,3.6l31.3-19.4L1051.4,1336.3z"></path><linearGradient id="K" x1="1165.163" x2="1709.662" y1="1259.873" y2="1630.046" gradientUnits="userSpaceOnUse"><stop offset="0" stop-color="#83427f" class="stopColor505faa svgShape"></stop><stop offset="1" stop-color="#912c8b" class="stopColor2c3c91 svgShape"></stop></linearGradient><polygon fill="url(#K)" points="1416.9 1408.6 1380.2 1393 1353.8 1410.5 1390.4 1426.2"></polygon><linearGradient id="L" x1="1171.925" x2="1716.424" y1="1249.926" y2="1620.099" gradientUnits="userSpaceOnUse"><stop offset="0" stop-color="#83427f" class="stopColor505faa svgShape"></stop><stop offset="1" stop-color="#912c8b" class="stopColor2c3c91 svgShape"></stop></linearGradient><polygon fill="url(#L)" points="1242 1320 1279 1335.6 1305.8 1318.5 1268.7 1303"></polygon><linearGradient id="M" x1="1202.505" x2="1747.005" y1="1204.945" y2="1575.118" gradientUnits="userSpaceOnUse"><stop offset="0" stop-color="#83427f" class="stopColor505faa svgShape"></stop><stop offset="1" stop-color="#912c8b" class="stopColor2c3c91 svgShape"></stop></linearGradient><polygon fill="url(#M)" points="1495.2 1426.6 1531.9 1442 1558.2 1424.1 1521.5 1408.7"></polygon><linearGradient id="N" x1="1171.099" x2="1715.598" y1="1251.141" y2="1621.315" gradientUnits="userSpaceOnUse"><stop offset="0" stop-color="#83427f" class="stopColor505faa svgShape"></stop><stop offset="1" stop-color="#912c8b" class="stopColor2c3c91 svgShape"></stop></linearGradient><polygon fill="url(#N)" points="1467.3 1430.1 1430.7 1414.5 1404.4 1432.2 1441 1447.8"></polygon><linearGradient id="O" x1="1190.275" x2="1734.774" y1="1222.935" y2="1593.108" gradientUnits="userSpaceOnUse"><stop offset="0" stop-color="#83427f" class="stopColor505faa svgShape"></stop><stop offset="1" stop-color="#912c8b" class="stopColor2c3c91 svgShape"></stop></linearGradient><polygon fill="url(#O)" points="1393.9 1384 1430.7 1399.5 1457.3 1381.9 1420.4 1366.4"></polygon><linearGradient id="P" x1="1178.043" x2="1722.542" y1="1240.928" y2="1611.101" gradientUnits="userSpaceOnUse"><stop offset="0" stop-color="#83427f" class="stopColor505faa svgShape"></stop><stop offset="1" stop-color="#912c8b" class="stopColor2c3c91 svgShape"></stop></linearGradient><polygon fill="url(#P)" points="1292.6 1341.3 1329.6 1356.9 1356.3 1339.6 1319.3 1324.1"></polygon><linearGradient id="Q" x1="1184.159" x2="1728.658" y1="1231.931" y2="1602.104" gradientUnits="userSpaceOnUse"><stop offset="0" stop-color="#83427f" class="stopColor505faa svgShape"></stop><stop offset="1" stop-color="#912c8b" class="stopColor2c3c91 svgShape"></stop></linearGradient><polygon fill="url(#Q)" points="1343.3 1362.6 1380.1 1378.2 1406.8 1360.7 1369.9 1345.3"></polygon><linearGradient id="R" x1="1177.035" x2="1721.534" y1="1242.41" y2="1612.583" gradientUnits="userSpaceOnUse"><stop offset="0" stop-color="#83427f" class="stopColor505faa svgShape"></stop><stop offset="1" stop-color="#912c8b" class="stopColor2c3c91 svgShape"></stop></linearGradient><polygon fill="url(#R)" points="1517.8 1451.6 1481.3 1436.1 1455.1 1453.9 1491.5 1469.5"></polygon><linearGradient id="S" x1="1196.391" x2="1740.89" y1="1213.939" y2="1584.113" gradientUnits="userSpaceOnUse"><stop offset="0" stop-color="#83427f" class="stopColor505faa svgShape"></stop><stop offset="1" stop-color="#912c8b" class="stopColor2c3c91 svgShape"></stop></linearGradient><polygon fill="url(#S)" points="1444.6 1405.3 1481.3 1420.7 1507.7 1403 1471 1387.6"></polygon><linearGradient id="T" x1="1107.057" x2="1651.556" y1="1345.342" y2="1715.516" gradientUnits="userSpaceOnUse"><stop offset="0" stop-color="#83427f" class="stopColor505faa svgShape"></stop><stop offset="1" stop-color="#912c8b" class="stopColor2c3c91 svgShape"></stop></linearGradient><polygon fill="url(#T)" points="1300.1 1446 1300.1 1446 1285.9 1439.7 1285.9 1439.7 1249.6 1423.7 1249.6 1423.7 1199.1 1401.5 1164.6 1423.7 1239.5 1459.6 1248.8 1464 1248.8 1464 1262.7 1470.7 1262.7 1470.7 1297.8 1487.5 1336.3 1462"></polygon><linearGradient id="U" x1="1126.928" x2="1671.428" y1="1316.114" y2="1686.287" gradientUnits="userSpaceOnUse"><stop offset="0" stop-color="#83427f" class="stopColor505faa svgShape"></stop><stop offset="1" stop-color="#912c8b" class="stopColor2c3c91 svgShape"></stop></linearGradient><polygon fill="url(#U)" points="1451.6 1512.8 1410.2 1541.3 1445.1 1558 1487.6 1528.7"></polygon><linearGradient id="V" x1="1121.831" x2="1666.33" y1="1323.612" y2="1693.785" gradientUnits="userSpaceOnUse"><stop offset="0" stop-color="#83427f" class="stopColor505faa svgShape"></stop><stop offset="1" stop-color="#912c8b" class="stopColor2c3c91 svgShape"></stop></linearGradient><polygon fill="url(#V)" points="1401.1 1490.5 1361 1517.7 1396 1534.5 1437.2 1506.5"></polygon><linearGradient id="W" x1="1132.029" x2="1676.528" y1="1308.611" y2="1678.785" gradientUnits="userSpaceOnUse"><stop offset="0" stop-color="#83427f" class="stopColor505faa svgShape"></stop><stop offset="1" stop-color="#912c8b" class="stopColor2c3c91 svgShape"></stop></linearGradient><polygon fill="url(#W)" points="1502.1 1535.1 1459.4 1564.9 1494.3 1581.6 1538.1 1551"></polygon><linearGradient id="X" x1="1163.129" x2="1707.628" y1="1262.865" y2="1633.038" gradientUnits="userSpaceOnUse"><stop offset="0" stop-color="#83427f" class="stopColor505faa svgShape"></stop><stop offset="1" stop-color="#912c8b" class="stopColor2c3c91 svgShape"></stop></linearGradient><polygon fill="url(#X)" points="1578.3 1522.8 1542.2 1507.1 1516.2 1525.3 1552.3 1541"></polygon><linearGradient id="Y" x1="1234.902" x2="1779.401" y1="1157.291" y2="1527.465" gradientUnits="userSpaceOnUse"><stop offset="0" stop-color="#83427f" class="stopColor505faa svgShape"></stop><stop offset="1" stop-color="#912c8b" class="stopColor2c3c91 svgShape"></stop></linearGradient><polygon fill="url(#Y)" points="1622.9 1435.4 1651 1416 1614 1401 1586.1 1420.2"></polygon><linearGradient id="Z" x1="1116.735" x2="1661.234" y1="1331.108" y2="1701.281" gradientUnits="userSpaceOnUse"><stop offset="0" stop-color="#83427f" class="stopColor505faa svgShape"></stop><stop offset="1" stop-color="#912c8b" class="stopColor2c3c91 svgShape"></stop></linearGradient><polygon fill="url(#Z)" points="1350.6 1468.3 1311.8 1494.2 1346.9 1511 1386.7 1484.2"></polygon><linearGradient id="aa" x1="1246.407" x2="1790.906" y1="1140.37" y2="1510.543" gradientUnits="userSpaceOnUse"><stop offset="0" stop-color="#83427f" class="stopColor505faa svgShape"></stop><stop offset="1" stop-color="#912c8b" class="stopColor2c3c91 svgShape"></stop></linearGradient><path fill="url(#aa)" d="M1732.3,1449.1l-16.9-6.9l-28.1,19.9l41.4,17.1l5.8-4.1C1744.3,1468.1,1743.1,1454,1732.3,1449.1z"></path><linearGradient id="ab" x1="1184.362" x2="1728.861" y1="1231.632" y2="1601.805" gradientUnits="userSpaceOnUse"><stop offset="0" stop-color="#83427f" class="stopColor505faa svgShape"></stop><stop offset="1" stop-color="#912c8b" class="stopColor2c3c91 svgShape"></stop></linearGradient><path fill="url(#ab)" d="M1245.4,1251.1l-9.1-3.7c-13.2-6-28.9-5.2-41.6,2.2l-8.6,5.2l31.9,13.2L1245.4,1251.1z"></path><linearGradient id="ac" x1="1137.402" x2="1681.901" y1="1300.708" y2="1670.881" gradientUnits="userSpaceOnUse"><stop offset="0" stop-color="#83427f" class="stopColor505faa svgShape"></stop><stop offset="1" stop-color="#912c8b" class="stopColor2c3c91 svgShape"></stop></linearGradient><path fill="url(#ac)" d="M1508.7,1588.5l23.3,11.1c9.2,5.2,20.9,4.6,29.6-1.6l31.8-22.6l-40.8-18L1508.7,1588.5z"></path><linearGradient id="ad" x1="1221.138" x2="1765.637" y1="1177.539" y2="1547.712" gradientUnits="userSpaceOnUse"><stop offset="0" stop-color="#83427f" class="stopColor505faa svgShape"></stop><stop offset="1" stop-color="#912c8b" class="stopColor2c3c91 svgShape"></stop></linearGradient><polygon fill="url(#ad)" points="1647.1 1490.5 1688.4 1507.9 1714.4 1489.4 1673.1 1472.2"></polygon><linearGradient id="ae" x1="1169.164" x2="1713.663" y1="1253.989" y2="1624.162" gradientUnits="userSpaceOnUse"><stop offset="0" stop-color="#83427f" class="stopColor505faa svgShape"></stop><stop offset="1" stop-color="#912c8b" class="stopColor2c3c91 svgShape"></stop></linearGradient><polygon fill="url(#ae)" points="1566.8 1547.3 1607.7 1565.2 1633.7 1546.8 1592.7 1529"></polygon><linearGradient id="af" x1="1195.128" x2="1739.627" y1="1215.796" y2="1585.97" gradientUnits="userSpaceOnUse"><stop offset="0" stop-color="#83427f" class="stopColor505faa svgShape"></stop><stop offset="1" stop-color="#912c8b" class="stopColor2c3c91 svgShape"></stop></linearGradient><polygon fill="url(#af)" points="1606.9 1519 1648 1536.6 1674 1518.1 1632.9 1500.6"></polygon><linearGradient id="ag" x1="1209.475" x2="1753.974" y1="1194.694" y2="1564.867" gradientUnits="userSpaceOnUse"><stop offset="0" stop-color="#83427f" class="stopColor505faa svgShape"></stop><stop offset="1" stop-color="#912c8b" class="stopColor2c3c91 svgShape"></stop></linearGradient><polygon fill="url(#ag)" points="1420.5 1351.8 1448.3 1333.6 1411 1318.4 1383.4 1336.4"></polygon><linearGradient id="ah" x1="1215.834" x2="1760.333" y1="1185.34" y2="1555.513" gradientUnits="userSpaceOnUse"><stop offset="0" stop-color="#83427f" class="stopColor505faa svgShape"></stop><stop offset="1" stop-color="#912c8b" class="stopColor2c3c91 svgShape"></stop></linearGradient><polygon fill="url(#ah)" points="1471.1 1372.7 1499 1354.2 1461.8 1339.1 1434.1 1357.4"></polygon><linearGradient id="ai" x1="1203.114" x2="1747.613" y1="1204.05" y2="1574.223" gradientUnits="userSpaceOnUse"><stop offset="0" stop-color="#83427f" class="stopColor505faa svgShape"></stop><stop offset="1" stop-color="#912c8b" class="stopColor2c3c91 svgShape"></stop></linearGradient><polygon fill="url(#ai)" points="1369.9 1330.8 1397.6 1313 1360.3 1297.8 1332.8 1315.5"></polygon><linearGradient id="aj" x1="1222.191" x2="1766.691" y1="1175.988" y2="1546.161" gradientUnits="userSpaceOnUse"><stop offset="0" stop-color="#83427f" class="stopColor505faa svgShape"></stop><stop offset="1" stop-color="#912c8b" class="stopColor2c3c91 svgShape"></stop></linearGradient><polygon fill="url(#aj)" points="1521.7 1393.6 1549.7 1374.8 1512.6 1359.7 1484.8 1378.3"></polygon><linearGradient id="ak" x1="1196.752" x2="1741.251" y1="1213.408" y2="1583.581" gradientUnits="userSpaceOnUse"><stop offset="0" stop-color="#83427f" class="stopColor505faa svgShape"></stop><stop offset="1" stop-color="#912c8b" class="stopColor2c3c91 svgShape"></stop></linearGradient><polygon fill="url(#ak)" points="1319.3 1309.9 1346.9 1292.4 1309.5 1277.1 1282.1 1294.5"></polygon><linearGradient id="al" x1="1228.548" x2="1773.047" y1="1166.639" y2="1536.812" gradientUnits="userSpaceOnUse"><stop offset="0" stop-color="#83427f" class="stopColor505faa svgShape"></stop><stop offset="1" stop-color="#912c8b" class="stopColor2c3c91 svgShape"></stop></linearGradient><polygon fill="url(#al)" points="1572.3 1414.5 1600.3 1395.4 1563.3 1380.3 1535.4 1399.3"></polygon><linearGradient id="am" x1="1190.389" x2="1734.888" y1="1222.768" y2="1592.941" gradientUnits="userSpaceOnUse"><stop offset="0" stop-color="#83427f" class="stopColor505faa svgShape"></stop><stop offset="1" stop-color="#912c8b" class="stopColor2c3c91 svgShape"></stop></linearGradient><polygon fill="url(#am)" points="1268.7 1289 1296.2 1271.7 1258.6 1256.5 1231.4 1273.6"></polygon><linearGradient id="an" x1="1111.566" x2="1656.065" y1="1338.71" y2="1708.883" gradientUnits="userSpaceOnUse"><stop offset="0" stop-color="#83427f" class="stopColor505faa svgShape"></stop><stop offset="1" stop-color="#912c8b" class="stopColor2c3c91 svgShape"></stop></linearGradient><polygon fill="url(#an)" points="1124.4 1326.1 1091.8 1311.9 1064.7 1328.3 1097.6 1342.6"></polygon><linearGradient id="ao" x1="1091.289" x2="1635.788" y1="1368.537" y2="1738.711" gradientUnits="userSpaceOnUse"><stop offset="0" stop-color="#83427f" class="stopColor505faa svgShape"></stop><stop offset="1" stop-color="#912c8b" class="stopColor2c3c91 svgShape"></stop></linearGradient><polygon fill="url(#ao)" points="1098.2 1357 1066.6 1376.7 1101.9 1393.7 1134.7 1373.1"></polygon><linearGradient id="ap" x1="1135.74" x2="1680.239" y1="1303.152" y2="1673.326" gradientUnits="userSpaceOnUse"><stop offset="0" stop-color="#83427f" class="stopColor505faa svgShape"></stop><stop offset="1" stop-color="#912c8b" class="stopColor2c3c91 svgShape"></stop></linearGradient><polygon fill="url(#ap)" points="1164.6 1301.2 1132.3 1287.4 1105.1 1303.9 1137.7 1317.8"></polygon><linearGradient id="aq" x1="1096.373" x2="1640.873" y1="1361.058" y2="1731.231" gradientUnits="userSpaceOnUse"><stop offset="0" stop-color="#83427f" class="stopColor505faa svgShape"></stop><stop offset="1" stop-color="#912c8b" class="stopColor2c3c91 svgShape"></stop></linearGradient><polygon fill="url(#aq)" points="1148.6 1379.2 1115.6 1400.2 1150.8 1417.1 1185.1 1395.3"></polygon><linearGradient id="ar" x1="1159.986" x2="1704.485" y1="1267.489" y2="1637.662" gradientUnits="userSpaceOnUse"><stop offset="0" stop-color="#83427f" class="stopColor505faa svgShape"></stop><stop offset="1" stop-color="#912c8b" class="stopColor2c3c91 svgShape"></stop></linearGradient><polygon fill="url(#ar)" points="1204.8 1276.2 1172.9 1262.9 1145.5 1279.4 1177.8 1293"></polygon><linearGradient id="as" x1="1165.808" x2="1710.307" y1="1258.925" y2="1629.098" gradientUnits="userSpaceOnUse"><stop offset="0" stop-color="#83427f" class="stopColor505faa svgShape"></stop><stop offset="1" stop-color="#912c8b" class="stopColor2c3c91 svgShape"></stop></linearGradient><polygon fill="url(#as)" points="1191.3 1298.7 1228.4 1314.3 1255.3 1297.4 1218.2 1281.8"></polygon></g><g fill="#000000" class="color000000 svgShape"><linearGradient id="at" x1="-3595.856" x2="-3152.343" y1="-7207.611" y2="-7207.611" gradientTransform="rotate(54.669 -9213.37 1420.948)" gradientUnits="userSpaceOnUse"><stop offset="0" stop-color="#f521e8" class="stopColorf58b21 svgShape"></stop><stop offset="1" stop-color="#f519e7" class="stopColorf5b419 svgShape"></stop></linearGradient><path fill="url(#at)" d="M1114.3,985.8c0,0,74.4,30.9,82.4,74.5c8,43.6,60.7,21.2,80.7,86.7c20,65.5,86.4,31.8,113.9,109.5
				c17.8,50.1,57.5,36,57.5,36s-45.7,30.2-89.7-4.7c-44-34.9-82.7-47.1-121.8-36.2c-39.1,10.9-92.2,8.1-125.7-48.4
				c-33.5-56.5-106.9-38.8-106.9-38.8L1114.3,985.8z"></path><path fill="#dd0bd0" d="M1086.1,1012.5c0,0,64.6,22.8,80.6,73.5c16.1,50.6,59.5,22.7,71.2,84.5c8.2,43.6,45,30.1,61.1,42
				c20.6,15.3,20.6,37.9,20.6,37.9s-22.8-34.2-64.4-30.4c-30.3,2.8-86.7,15.4-106.1-26s-132.6-46.5-132.6-46.5L1086.1,1012.5z" class="colordd6a0b svgShape"></path><g fill="#000000" class="color000000 svgShape"><linearGradient id="au" x1="10847.76" x2="11027.607" y1="317.965" y2="317.965" gradientTransform="rotate(-52.345 6842.55 10979.148)" gradientUnits="userSpaceOnUse"><stop offset="0" stop-color="#532150" class="stopColor212253 svgShape"></stop><stop offset="1" stop-color="#95318f" class="stopColor313f95 svgShape"></stop></linearGradient><path fill="url(#au)" d="M776.8,1059.7l16.3,137.7c7.4,62.8,54.9,113.5,117.1,125.1l145.8,27.1l9.4-6.3l-90.4-91.2
						c-22-26.5-35.7-58.9-39.4-93.2l-2.8-26.1l-146.6-79.5L776.8,1059.7z"></path><linearGradient id="av" x1="10858.513" x2="11038.359" y1="319.757" y2="319.757" gradientTransform="rotate(-52.345 6842.55 10979.148)" gradientUnits="userSpaceOnUse"><stop offset="0" stop-color="#83427f" class="stopColor505faa svgShape"></stop><stop offset="1" stop-color="#912c8b" class="stopColor2c3c91 svgShape"></stop></linearGradient><path fill="url(#av)" d="M786.2,1053.3l16.3,137.7c7.4,62.8,54.9,113.5,117.1,125.1l145.8,27.1l-81-97.5
						c-22-26.5-35.7-58.9-39.4-93.2l-2.8-26.1L786.2,1053.3z"></path><linearGradient id="aw" x1="-9545.576" x2="-9365.729" y1="317.965" y2="317.965" gradientTransform="scale(-1 1) rotate(52.345 -5903.272 9067.845)" gradientUnits="userSpaceOnUse"><stop offset="0" stop-color="#532150" class="stopColor212253 svgShape"></stop><stop offset="1" stop-color="#95318f" class="stopColor313f95 svgShape"></stop></linearGradient><path fill="url(#aw)" d="M954.9,828.8l137.4-19.1c62.7-8.7,123.7,24.3,150.7,81.6l63.2,134.2l-3.7,10.7l-111.1-64.3
						c-31.2-14.6-66-19.6-100.1-14.5l-26,3.9l-114-121.6L954.9,828.8z"></path><linearGradient id="ax" x1="11239.346" x2="11368.088" y1="261.763" y2="383.86" gradientTransform="rotate(-52.345 6842.55 10979.148)" gradientUnits="userSpaceOnUse"><stop offset="0" stop-color="#83427f" class="stopColor505faa svgShape"></stop><stop offset="1" stop-color="#912c8b" class="stopColor2c3c91 svgShape"></stop></linearGradient><path fill="url(#ax)" d="M951.2,839.5l137.4-19.1c62.7-8.7,123.7,24.3,150.7,81.6l63.2,134.2l-114.8-53.6
						c-31.2-14.6-66-19.6-100.1-14.5l-26,3.9L951.2,839.5z"></path><linearGradient id="ay" x1="10972.61" x2="11299.402" y1="265.429" y2="265.429" gradientTransform="rotate(-52.345 6842.55 10979.148)" gradientUnits="userSpaceOnUse"><stop offset="0" stop-color="#83427f" class="stopColor505faa svgShape"></stop><stop offset="1" stop-color="#912c8b" class="stopColor2c3c91 svgShape"></stop></linearGradient><path fill="url(#ay)" d="M984,829l-199.6,258.7l171.7,80.8l0.1-0.2c30.9,19.3,86.3-5.4,126.2-57.1s49.7-111.5,23.2-136.5l0.1-0.2
					L984,829z"></path><linearGradient id="az" x1="10969.665" x2="11302.348" y1="122.66" y2="122.66" gradientTransform="rotate(-52.345 6842.55 10979.148)" gradientUnits="userSpaceOnUse"><stop offset="0" stop-color="#532150" class="stopColor212253 svgShape"></stop><stop offset="1" stop-color="#95318f" class="stopColor313f95 svgShape"></stop></linearGradient><path fill="url(#az)" d="M971.9,816c41,31.6,28.7,116.2-27.4,188.9c-56.1,72.7-134.8,106.1-175.8,74.5S740,963.2,796.1,890.4
					S930.9,784.3,971.9,816z"></path><linearGradient id="aA" x1="547.806" x2="816.648" y1="999.334" y2="645.857" gradientUnits="userSpaceOnUse"><stop offset="0" stop-color="#c78fc4" class="stopColor8f92c7 svgShape"></stop><stop offset=".528" stop-color="#ebcfe9" class="stopColorcfd5eb svgShape"></stop><stop offset="1" stop-color="#ffffff" class="stopColorffffff svgShape"></stop></linearGradient><path fill="url(#aA)" d="M965.7,802.9c42.2,32.6,29.1,120.2-29.2,195.8c-58.3,75.6-139.8,110.5-182,77.9
				C491.9,910.6,366.8,726.9,366.8,726.9l0.3-0.4c1.5,1.6,3.2,3.1,5,4.5c0.3,0.3,0.7,0.5,1,0.8c0.3,0.3,0.6,0.5,1,0.8
				c32.4,25,95-1.8,139.8-59.9c44.8-58.1,54.8-125.4,22.5-150.4c-0.4-0.3-0.7-0.5-1.1-0.8c-0.3-0.3-0.6-0.5-0.9-0.7
				c-1.8-1.4-3.7-2.6-5.6-3.7l0.3-0.4C529.1,516.6,738.5,591.1,965.7,802.9z"></path><linearGradient id="aB" x1="11003.203" x2="11268.809" y1="-369.116" y2="-369.116" gradientTransform="rotate(-52.345 6842.55 10979.148)" gradientUnits="userSpaceOnUse"><stop offset="0" stop-color="#c78fc4" class="stopColor8f92c7 svgShape"></stop><stop offset="1" stop-color="#ebcfe9" class="stopColorcfd5eb svgShape"></stop></linearGradient><path fill="url(#aB)" d="M535.3,521.5c0.4,0.3,0.7,0.5,1.1,0.8c32.4,25,22.4,92.3-22.5,150.4c-44.8,58.1-107.4,84.9-139.8,59.9
				c-0.3-0.2-0.7-0.5-1-0.8c-0.4-0.2-0.7-0.5-1-0.8c-1.8-1.4-3.4-2.9-5-4.5l161.6-209.4c2,1.1,3.9,2.3,5.6,3.7
				C534.7,521,535,521.2,535.3,521.5z"></path><linearGradient id="aC" x1="11240.683" x2="11062.883" y1="-464.664" y2="-464.664" gradientTransform="rotate(-52.345 6842.55 10979.148)" gradientUnits="userSpaceOnUse"><stop offset="0" stop-color="#532150" class="stopColor212253 svgShape"></stop><stop offset="1" stop-color="#95318f" class="stopColor313f95 svgShape"></stop></linearGradient><path fill="url(#aC)" d="M536.3,522.3c32.4,25,22.4,92.3-22.5,150.4c-44.8,58.1-107.4,84.9-139.8,59.9c-0.3-0.2-0.7-0.5-1-0.8
				c-2.1-1.7-4-3.6-5.7-5.6c-1.2-1.4-2.3-2.9-3.3-4.5c-0.1-0.2-0.3-0.4-0.4-0.6c-1.3-2-28.3-30.1-47.5-86.3
				C293.8,569,291.9,511.2,296.7,505c4.9-6.3,63.9-19.4,133.7-14.4c55.8,4,86.3,22.7,90.2,24c2.7,0.7,5.4,1.6,7.9,2.8
				c2.4,1.1,4.7,2.5,6.8,4C535.6,521.7,536,522,536.3,522.3z"></path><linearGradient id="aD" x1="11240.683" x2="11062.883" y1="-467.144" y2="-467.144" gradientTransform="rotate(-52.345 6842.55 10979.148)" gradientUnits="userSpaceOnUse"><stop offset="0" stop-color="#83427f" class="stopColor505faa svgShape"></stop><stop offset="1" stop-color="#912c8b" class="stopColor2c3c91 svgShape"></stop></linearGradient><path fill="url(#aD)" d="M534.4,520.7c0.3,0.2,0.6,0.5,0.9,0.7c31.3,25.6,21.1,92.2-23.3,149.7c-44.4,57.5-106.1,84.3-138.8,60.6
				c-0.4-0.2-0.7-0.5-1-0.8c-1.8-1.4-3.4-2.9-5-4.5c-1.8-2-3.5-4.1-5-6.4l0,0c-0.1-0.2-0.2-0.4-0.4-0.6
				c-1.3-2.1-28.3-30.1-47.5-86.3c-22.4-65.6-24.3-123.4-19.6-129.6c4.9-6.3,63.9-19.4,133.7-14.4c55.8,4,86.3,22.7,90.2,24
				c3.6,0.9,7,2.3,10.2,4C530.7,518.1,532.6,519.4,534.4,520.7z"></path><g fill="#000000" class="color000000 svgShape"><linearGradient id="aE" x1="-9319.698" x2="-9263.794" y1="398.892" y2="398.892" gradientTransform="scale(-1 1) rotate(52.345 -5903.272 9067.845)" gradientUnits="userSpaceOnUse"><stop offset="0" stop-color="#532150" class="stopColor212253 svgShape"></stop><stop offset="1" stop-color="#95318f" class="stopColor313f95 svgShape"></stop></linearGradient><path fill="url(#aE)" d="M947.9,984.7l93,32.8c42.4,15,96.9,52.6,134.4,92.9l88,94.5l-5.8,7.5l-93.9-73.6
					c-27.1-18-53.8-31.8-76.8-39.7l-17.5-6.1L942.1,992.3L947.9,984.7z"></path><linearGradient id="aF" x1="11160.543" x2="11144.515" y1="398.429" y2="317.484" gradientTransform="rotate(-52.345 6842.55 10979.148)" gradientUnits="userSpaceOnUse"><stop offset="0" stop-color="#83427f" class="stopColor505faa svgShape"></stop><stop offset="1" stop-color="#912c8b" class="stopColor2c3c91 svgShape"></stop></linearGradient><path fill="url(#aF)" d="M942.1,992.3l93,32.8c42.4,15,96.9,52.6,134.4,92.9l88,94.5l-99.7-66.1c-27.1-18-53.8-31.8-76.8-39.7
					l-17.5-6.1L942.1,992.3z"></path></g><g fill="#000000" class="color000000 svgShape"><linearGradient id="aG" x1="11082.515" x2="11239.682" y1="-151.04" y2="-151.04" gradientTransform="rotate(-52.345 6842.55 10979.148)" gradientUnits="userSpaceOnUse"><stop offset="0" stop-color="#532150" class="stopColor212253 svgShape"></stop><stop offset="1" stop-color="#95318f" class="stopColor313f95 svgShape"></stop></linearGradient><path fill="url(#aG)" d="M730.4,680.9c47.3,36.5,54.8,106.1,16.8,155.4S639.9,896,592.6,859.5c-47.3-36.5-54.8-106.1-16.8-155.4
					C613.9,654.8,683.1,644.4,730.4,680.9z"></path><linearGradient id="aH" x1="11138.242" x2="11157.694" y1="-29.483" y2="-230.687" gradientTransform="rotate(-52.345 6842.55 10979.148)" gradientUnits="userSpaceOnUse"><stop offset="0" stop-color="#c78fc4" class="stopColor8f92c7 svgShape"></stop><stop offset="1" stop-color="#ebcfe9" class="stopColorcfd5eb svgShape"></stop></linearGradient><path fill="url(#aH)" d="M738.9,687.4c47.3,36.5,54.8,106.1,16.8,155.4C717.6,892.2,648.4,902.5,601,866s-54.8-106.1-16.8-155.4
					C622.3,661.3,691.5,650.9,738.9,687.4z"></path><linearGradient id="aI" x1="11101.889" x2="11247.359" y1="-98.867" y2="-98.867" gradientTransform="rotate(-52.345 6842.55 10979.148)" gradientUnits="userSpaceOnUse"><stop offset="0" stop-color="#532150" class="stopColor212253 svgShape"></stop><stop offset="1" stop-color="#95318f" class="stopColor313f95 svgShape"></stop></linearGradient><path fill="url(#aI)" d="M726.2,703.8c38.6,29.8,44.7,86.6,13.7,126.8c-31.1,40.3-87.5,48.7-126.2,18.9c-1.4-1.1-2.8-2.2-4.1-3.4
					c38.4,26,91.9,16.7,121.8-22.1c29.9-38.8,25.3-92.9-9.5-123.4C723.3,701.7,724.8,702.7,726.2,703.8z"></path><linearGradient id="aJ" x1="11240.853" x2="11057.065" y1="-145.698" y2="-145.698" gradientTransform="rotate(-52.345 6842.55 10979.148)" gradientUnits="userSpaceOnUse"><stop offset="0" stop-color="#83427f" class="stopColor505faa svgShape"></stop><stop offset="1" stop-color="#912c8b" class="stopColor2c3c91 svgShape"></stop></linearGradient><path fill="url(#aJ)" d="M721.8,700.7c34.9,30.6,39.5,84.7,9.5,123.4c-29.9,38.8-83.4,48.1-121.8,22.1
					c-34.9-30.6-39.5-84.7-9.5-123.4C629.9,684,683.4,674.7,721.8,700.7z"></path></g></g></g><g fill="#000000" class="color000000 svgShape"><linearGradient id="aK" x1="15277.329" x2="15603.37" y1="-5485.92" y2="-5317.959" gradientTransform="rotate(1.38 -285437.678 -561370.906) scale(.99999)" gradientUnits="userSpaceOnUse"><stop offset="0" stop-color="#83427f" class="stopColor505faa svgShape"></stop><stop offset="1" stop-color="#912c8b" class="stopColor2c3c91 svgShape"></stop></linearGradient><path fill="url(#aK)" d="M2316,1695.7c-3.4,143.4-122.4,256.8-265.8,253.3c-7-0.2-13.9-0.6-20.7-1.3c-44-4.5-84.6-20-119.2-43.6
			c-70.2-47.9-115.6-129.4-113.4-220.8c2.3-97.5,58.2-181.1,138.7-223.6c37.9-19.9,81.2-30.8,127-29.7c45.8,1.1,88.6,14,125.5,35.8
			C2266.6,1512,2318.3,1598.2,2316,1695.7z"></path><ellipse cx="2061.8" cy="1468" fill="none" stroke="#772672" stroke-miterlimit="10" stroke-width="3.295" rx="20.9" ry="45.9" transform="rotate(-88.624 2061.783 1467.974) scale(.99999)" class="colorStroke263477 svgStroke"></ellipse><line x1="2061.3" x2="2050.2" y1="1488.9" y2="1949" fill="none" stroke="#772672" stroke-miterlimit="10" stroke-width="3.295" class="colorStroke263477 svgStroke"></line><path fill="none" stroke="#772672" stroke-miterlimit="10" stroke-width="3.295" d="M2020.4,1476.2c0,0-102.4,58.7-121.8,204.4c-19.4,145.7,53.5,229.4,94.6,260.7" class="colorStroke263477 svgStroke"></path><path fill="none" stroke="#772672" stroke-miterlimit="10" stroke-width="3.295" d="M2041.5,1486.3c0,0-81.4,103.6-74.7,266.8c0,0,7.2,110.2,63.6,194.7" class="colorStroke263477 svgStroke"></path><path fill="none" stroke="#772672" stroke-miterlimit="10" stroke-width="3.295" d="M2016.1,1460.2c0,0-109.9,3-171.6,151.8c-56.4,135.9,30.4,270.7,111.8,317.1" class="colorStroke263477 svgStroke"></path><line x1="2062.3" x2="2062.7" y1="1447.1" y2="1430" fill="none" stroke="#772672" stroke-miterlimit="10" stroke-width="3.295" class="colorStroke263477 svgStroke"></line><path fill="none" stroke="#772672" stroke-miterlimit="10" stroke-width="3.295" d="M1926.5 1464.7c0 0 65.8-36.6 110.9-14.9M2104 1478.2c0 0 99.5 63.6 111.9 210s-64.5 226.6-107 255.9" class="colorStroke263477 svgStroke"></path><path fill="none" stroke="#772672" stroke-miterlimit="10" stroke-width="3.295" d="M2082.5,1487.3c0,0,76.3,107.4,61.8,270.1c0,0-12.5,109.7-72.8,191.4" class="colorStroke263477 svgStroke"></path><path fill="none" stroke="#772672" stroke-miterlimit="10" stroke-width="3.295" d="M2109.1 1462.4c0 0 109.6 8.3 164.2 159.8 49.8 138.5-43.3 269-126.9 311.3M2198.4 1471.3c0 0-64-39.8-110.1-20.2" class="colorStroke263477 svgStroke"></path><path fill="none" stroke="#772672" stroke-miterlimit="10" stroke-width="3.295" d="M2231.8 1500.4c2.6 5.9 3.8 11.9 3.7 18.1-1.1 46.6-82.7 82.4-182.1 80-99.5-2.4-179.2-42.1-178.1-88.6.1-2.4.3-4.7.8-7M2306.1 1618.1c-1.5 61.5-116 108.7-255.8 105.3-122.8-2.9-224.2-43.9-246.1-95.5" class="colorStroke263477 svgStroke"></path><path fill="none" stroke="#772672" stroke-miterlimit="10" stroke-width="3.295" d="M2314.7,1716.1c-1.5,63-118.6,111.4-261.5,107.9s-257.5-57.3-256-120.4" class="colorStroke263477 svgStroke"></path><path fill="none" stroke="#772672" stroke-miterlimit="10" stroke-width="3.295" d="M2284.8,1806.8c-3.5,40-106,104.7-233.6,101.6c-127.6-3.1-224.2-61.9-228.4-112.7" class="colorStroke263477 svgStroke"></path><g opacity=".67" fill="#000000" class="color000000 svgShape"><linearGradient id="aL" x1="15712.089" x2="15392.635" y1="-5238.414" y2="-5472.242" gradientTransform="rotate(1.38 -285437.678 -561370.906) scale(.99999)" gradientUnits="userSpaceOnUse"><stop offset="0" stop-color="#532150" class="stopColor212253 svgShape"></stop><stop offset="1" stop-color="#95318f" class="stopColor313f95 svgShape"></stop></linearGradient><path fill="url(#aL)" d="M2316,1695.7c-3.4,143.4-122.4,256.8-265.8,253.3c-7-0.2-13.9-0.6-20.7-1.3l1.1-9l28.6,4.2l30.6-18.5
				c0,0,24.5,6,42.4,1c17.9-5,13.1-1.4,17.2-6.9c4.1-5.4,15-25.3,15-25.3l-21.9-24.8l-23-12l-33.9,10.6c0,0-4.4-13.6-2.8-15.9
				c1.7-2.3-3.5-20.7-3.5-23.1c-0.1-2.4-12.9-16.2-12.9-16.2l13.5-6.8l-4.6-15.2l21.6-9.8l0.6-23c0,0,37.6,2.5,42.3,5.8
				c4.7,3.3,26.5,0.6,26.5,0.6s21.2-5.8,25.5-7.3c4.2-1.5,15.9-11.5,17.2-13c1.2-1.6-16.3-22.3-16.3-22.3l38.6-16.8
				c0,0,17.4-17.3,19.9-18.7c2.6-1.3,1.7-35.5,1-40.3c-0.7-4.8-18.6-37.7-18.6-37.7l-31.6-16.6l-2.7-40c0,0-22.2-14.5-25.1-21.7
				c-3-7.2-1.7-27,0.7-30.1c2.5-3,9.9-15.7,12.3-18.8c1.1-1.4,1.4-7.9,1.3-14.4C2266.6,1512,2318.3,1598.2,2316,1695.7z"></path><linearGradient id="aM" x1="15658.646" x2="15339.191" y1="-5165.4" y2="-5399.227" gradientTransform="rotate(1.38 -285437.678 -561370.906) scale(.99999)" gradientUnits="userSpaceOnUse"><stop offset="0" stop-color="#532150" class="stopColor212253 svgShape"></stop><stop offset="1" stop-color="#95318f" class="stopColor313f95 svgShape"></stop></linearGradient><path fill="url(#aM)" d="M1971.3,1727c-0.1,3.1,2.8,55.4,2.8,55.4s-20.9-2-20.6-0.5c0.3,1.5-23.7,7.1-23.7,7.1l-16.5,13.4
				l19.2,36.6c0,0-11.9,9.4-10.3,12.6c1.5,3.2-7.7,8.5-7.7,8.5l-8.4,17.3l7.5,19.5c0,0-1.3,3.1-3.3,7.2
				c-70.2-47.9-115.6-129.4-113.4-220.8c2.3-97.5,58.2-181.1,138.7-223.6l9.6-3.6l-0.7,28l-37.7,15.6l-15.2,25l-24.3,18.3
				c0,0-13.5,17.7-13.6,22.3c-0.1,4.6-11.2,19-11.2,19l14.9,18l28.2,9.1c0,0,1.7,24.6-0.7,28.4c-2.4,3.8-13.9,15-13.4,18.1
				c0.6,3.1,24.8,18.3,24.8,18.3l17.6,0.4c0,0,15.5-7.3,16.9,0.4c1.3,7.7,26.5,14.5,29.7,10.3c3.2-4.1,19.7-21.1,19.7-21.1
				l21.7,14.9l8,23.9c0,0-19.6,12.2-24.5,12.5C1980.8,1717.5,1971.4,1723.9,1971.3,1727z"></path><linearGradient id="aN" x1="15738.034" x2="15418.58" y1="-5273.861" y2="-5507.689" gradientTransform="rotate(1.38 -285437.678 -561370.906) scale(.99999)" gradientUnits="userSpaceOnUse"><stop offset="0" stop-color="#532150" class="stopColor212253 svgShape"></stop><stop offset="1" stop-color="#95318f" class="stopColor313f95 svgShape"></stop></linearGradient><path fill="url(#aN)" d="M2105.2,1627.3l-34.4,20.7l-4.8,41.8l19.4-21.2l39,22.6c0,0-1.2-15.2,0.5-21.6
				c1.7-6.4,16.2-21.2,16.1-21.5c0-0.2,14-15.8,14-15.8s5.1-21.6,0.4-17.8c-4.7,3.9-30,2.5-30,2.5l-12.4-17.1l-18.2,13.2
				L2105.2,1627.3z"></path><linearGradient id="aO" x1="15605.221" x2="15285.766" y1="-5092.411" y2="-5326.238" gradientTransform="rotate(1.38 -285437.678 -561370.906) scale(.99999)" gradientUnits="userSpaceOnUse"><stop offset="0" stop-color="#532150" class="stopColor212253 svgShape"></stop><stop offset="1" stop-color="#95318f" class="stopColor313f95 svgShape"></stop></linearGradient><path fill="url(#aO)" d="M2011.7,1838.6l-18.7,6.5c0,0,8.7,3.7,5,8.4s-14.7,10.6-14.7,10.6l34.7-3l14.7-12.7L2011.7,1838.6z"></path><linearGradient id="aP" x1="15734.501" x2="15415.047" y1="-5269.034" y2="-5502.861" gradientTransform="rotate(1.38 -285437.678 -561370.906) scale(.99999)" gradientUnits="userSpaceOnUse"><stop offset="0" stop-color="#532150" class="stopColor212253 svgShape"></stop><stop offset="1" stop-color="#95318f" class="stopColor313f95 svgShape"></stop></linearGradient><path fill="url(#aP)" d="M1980,1538.2l-21.2,22.5l24.1,0.6c0,0-7.2,18.9-7.5,22.9s-0.3,12.4-0.3,12.4l29,0.7l18.5,7.3l-13.1-29.5
				c0,0,7.2-8.3,8.8-11.3c1.5-3-4.2-20.8-4.2-20.8l-14.4-4.2l-19.2-20.4l-24.3,7.9L1980,1538.2z"></path></g></g></svg>