<?xml version="1.0" encoding="UTF-8" standalone="no" ?>
<!DOCTYPE svg PUBLIC "-//W3C//DTD SVG 1.1//EN" "http://www.w3.org/Graphics/SVG/1.1/DTD/svg11.dtd">
<svg xmlns="http://www.w3.org/2000/svg" xmlns:xlink="http://www.w3.org/1999/xlink" version="1.1" width="1080" height="1080" viewBox="0 0 1080 1080" xml:space="preserve">
<desc>Created with Fabric.js 5.2.4</desc>
<defs>
</defs>
<rect x="0" y="0" width="100%" height="100%" fill="transparent"></rect>
<g transform="matrix(1 0 0 1 540 540)" id="872c037b-4edf-46ae-9b8d-f816e2e473e1"  >
<rect style="stroke: none; stroke-width: 1; stroke-dasharray: none; stroke-linecap: butt; stroke-dashoffset: 0; stroke-linejoin: miter; stroke-miterlimit: 4; fill: rgb(255,255,255); fill-rule: nonzero; opacity: 1; visibility: hidden;" vector-effect="non-scaling-stroke"  x="-540" y="-540" rx="0" ry="0" width="1080" height="1080" />
</g>
<g transform="matrix(1 0 0 1 540 540)" id="67fbac24-7525-4002-889b-8b5da6d975c3"  >
</g>
<g transform="matrix(0.62 0 0 0.62 405.44 893.29)"  >
<path style="stroke: none; stroke-width: 1; stroke-dasharray: none; stroke-linecap: butt; stroke-dashoffset: 0; stroke-linejoin: miter; stroke-miterlimit: 4; fill: rgb(255,255,255); fill-rule: nonzero; opacity: 1;" vector-effect="non-scaling-stroke"  transform=" translate(-1914.14, -2004.78)" d="M 2113.125 2166.936 C 2113.169 2194.8070000000002 2112.858 2222.9010000000003 2111.923 2251.262 C 1994.7389999999998 2207.362 1871.6779999999999 2169.607 1754.4939999999997 2125.708 C 1741.4039999999998 2120.811 1727.5569999999998 2115.29 1719.4549999999997 2103.8920000000003 C 1710.9509999999998 2091.9150000000004 1710.7729999999997 2076.1540000000005 1710.9059999999997 2061.4620000000004 C 1711.2619999999997 2017.6070000000004 1711.6189999999997 1973.7520000000004 1712.0189999999998 1929.8970000000004 C 1712.1079999999997 1916.4960000000003 1712.197 1903.0950000000005 1712.3309999999997 1889.6930000000004 L 2117.3999999999996 1758.3060000000005 C 2104.176 1896.371 2112.947 2029.183 2113.125 2166.936 z" stroke-linecap="round" />
</g>
<g transform="matrix(0.62 0 0 0.62 404.12 946.12)"  >
<path style="stroke: none; stroke-width: 1; stroke-dasharray: none; stroke-linecap: butt; stroke-dashoffset: 0; stroke-linejoin: miter; stroke-miterlimit: 4; fill: rgb(216,216,216); fill-rule: nonzero; opacity: 1;" vector-effect="non-scaling-stroke"  transform=" translate(-1912.01, -2090.58)" d="M 2113.125 2166.936 C 2113.169 2194.8070000000002 2112.858 2222.9010000000003 2111.923 2251.262 C 1994.7389999999998 2207.362 1871.6779999999999 2169.607 1754.4939999999997 2125.708 C 1741.4039999999998 2120.811 1727.5569999999998 2115.29 1719.4549999999997 2103.8920000000003 C 1710.9509999999998 2091.9150000000004 1710.7729999999997 2076.1540000000005 1710.9059999999997 2061.4620000000004 C 1711.2619999999997 2017.6070000000004 1711.6189999999997 1973.7520000000004 1712.0189999999998 1929.8970000000004 C 1720.4779999999998 1959.0600000000004 1735.0819999999999 1986.6640000000004 1753.6479999999997 2010.7510000000004 C 1787.2179999999996 2054.2050000000004 1832.8089999999997 2087.0630000000006 1881.1169999999997 2113.2870000000003 C 1930.5369999999998 2140.09 1984.0089999999998 2160.748 2039.8849999999998 2167.2490000000003 C 2064.106 2170.053 2088.86 2170.097 2113.125 2166.936 z" stroke-linecap="round" />
</g>
<g transform="matrix(0.62 0 0 0.62 651.37 895.67)"  >
<path style="stroke: none; stroke-width: 1; stroke-dasharray: none; stroke-linecap: butt; stroke-dashoffset: 0; stroke-linejoin: miter; stroke-miterlimit: 4; fill: rgb(255,255,255); fill-rule: nonzero; opacity: 1;" vector-effect="non-scaling-stroke"  transform=" translate(-2313.53, -2008.66)" d="M 2505.461 2103.892 C 2497.4019999999996 2115.29 2483.511 2120.8109999999997 2470.421 2125.7079999999996 C 2353.2369999999996 2169.6079999999997 2230.176 2207.363 2112.9919999999997 2251.2619999999997 L 2112.9919999999997 1766.0519999999997 L 2512.629 1889.6919999999998 C 2512.718 1900.7339999999997 2512.807 1911.7309999999998 2512.8959999999997 1922.7719999999997 C 2513.252 1968.9869999999996 2513.653 2015.2459999999996 2514.053 2061.461 C 2514.187 2076.154 2513.964 2091.915 2505.461 2103.892 z" stroke-linecap="round" />
</g>
<g transform="matrix(0.62 0 0 0.62 651.37 943.93)"  >
<path style="stroke: none; stroke-width: 1; stroke-dasharray: none; stroke-linecap: butt; stroke-dashoffset: 0; stroke-linejoin: miter; stroke-miterlimit: 4; fill: rgb(216,216,216); fill-rule: nonzero; opacity: 1;" vector-effect="non-scaling-stroke"  transform=" translate(-2313.53, -2087.02)" d="M 2505.461 2103.892 C 2497.4019999999996 2115.29 2483.511 2120.8109999999997 2470.421 2125.7079999999996 C 2353.2369999999996 2169.6079999999997 2230.176 2207.363 2112.9919999999997 2251.2619999999997 L 2112.9919999999997 2179.714 C 2195.1809999999996 2177.3089999999997 2276.7029999999995 2152.466 2346.1139999999996 2108.344 C 2380.441 2086.483 2411.6959999999995 2059.948 2439.0329999999994 2029.8500000000001 C 2463.4309999999996 2002.958 2483.4669999999996 1973.3500000000001 2501.8989999999994 1942.14 C 2505.2379999999994 1936.441 2508.8449999999993 1929.6290000000001 2512.8959999999993 1922.7730000000001 C 2513.2519999999995 1968.988 2513.6529999999993 2015.247 2514.0529999999994 2061.462 C 2514.187 2076.154 2513.964 2091.915 2505.461 2103.892 z" stroke-linecap="round" />
</g>
<g transform="matrix(0.62 0 0 0.62 526.03 710.09)"  >
<path style="stroke: none; stroke-width: 1; stroke-dasharray: none; stroke-linecap: butt; stroke-dashoffset: 0; stroke-linejoin: miter; stroke-miterlimit: 4; fill: rgb(55,33,54); fill-rule: nonzero; opacity: 1;" vector-effect="non-scaling-stroke"  transform=" translate(-2109.99, -1707.26)" d="M 2517.482 1676.428 C 2382.756 1706.615 2252.126 1728.1190000000001 2117.399 1758.306 C 1982.629 1728.1200000000001 1837.484 1700.2930000000001 1702.7579999999998 1670.106 L 1702.4909999999998 1669.394 C 1813.1299999999997 1662.894 1938.2839999999997 1662.716 2048.879 1656.215 L 2185.252 1656.215 C 2295.891 1662.715 2406.486 1669.216 2517.125 1675.716 L 2517.482 1676.428 z" stroke-linecap="round" />
</g>
<g transform="matrix(0.62 0 0 0.62 526.32 784.83)"  >
<path style="stroke: none; stroke-width: 1; stroke-dasharray: none; stroke-linecap: butt; stroke-dashoffset: 0; stroke-linejoin: miter; stroke-miterlimit: 4; fill: rgb(131,66,127); fill-rule: nonzero; opacity: 1;" vector-effect="non-scaling-stroke"  transform=" translate(-2110.46, -1828.65)" d="M 2117.387 1758.286 L 2056.491 1975.2050000000002 C 2054.06 1983.8640000000003 2045.416 1989.2920000000001 2036.578 1987.6250000000002 C 1904.275 1962.6660000000002 1750.915 1910.2970000000003 1628.179 1854.9530000000002 L 1702.497 1669.3760000000002 M 2117.387 1758.286 L 2178.2830000000004 1975.2050000000002 C 2180.7140000000004 1983.8640000000003 2189.358 1989.2920000000001 2198.1960000000004 1987.6250000000002 C 2330.4990000000003 1962.6660000000002 2469.9990000000003 1910.3030000000003 2592.7350000000006 1854.9590000000003 L 2517.4980000000005 1676.4130000000002" stroke-linecap="round" />
</g>
<g transform="matrix(0.62 0 0 0.62 525.56 636.76)"  >
<path style="stroke: none; stroke-width: 1; stroke-dasharray: none; stroke-linecap: butt; stroke-dashoffset: 0; stroke-linejoin: miter; stroke-miterlimit: 4; fill: rgb(255,255,255); fill-rule: nonzero; opacity: 1;" vector-effect="non-scaling-stroke"  transform=" translate(-2109.23, -1588.18)" d="M 2213.035 1599.047 L 2212.412 1597.1770000000001 C 2212.0559999999996 1598.958 2211.566 1600.739 2210.9869999999996 1602.4750000000001 C 2204.843 1621.219 2191.1739999999995 1636.3570000000002 2178.5739999999996 1651.5390000000002 C 2153.2409999999995 1681.9920000000002 2127.2389999999996 1715.2510000000002 2110.3209999999995 1751.0470000000003 C 2073.0999999999995 1719.4360000000001 2049.3249999999994 1672.9990000000003 2043.5369999999994 1624.6020000000003 L 2043.2699999999993 1632.8830000000003 C 2014.2409999999993 1608.2620000000002 1993.4489999999994 1574.1130000000003 1984.9889999999994 1536.9810000000002 C 1976.4849999999994 1499.8940000000002 1980.4029999999993 1460.0900000000001 1995.8529999999994 1425.3180000000002 L 1996.2979999999993 1425.3180000000002 L 2209.249999999999 1434.9350000000002 L 2214.7709999999993 1435.2020000000002 C 2224.921999999999 1462.2720000000002 2235.1619999999994 1489.7420000000002 2237.432999999999 1518.5490000000002 C 2239.748 1547.356 2232.981 1578.166 2213.035 1599.047 z" stroke-linecap="round" />
</g>
<g transform="matrix(0.62 0 0 0.62 525.56 636.76)"  >
<path style="stroke: none; stroke-width: 1; stroke-dasharray: none; stroke-linecap: butt; stroke-dashoffset: 0; stroke-linejoin: miter; stroke-miterlimit: 4; fill: rgb(216,216,216); fill-rule: nonzero; opacity: 1;" vector-effect="non-scaling-stroke"  transform=" translate(-2109.23, -1588.18)" d="M 2213.035 1599.047 L 2212.412 1597.1770000000001 C 2212.0559999999996 1598.958 2211.566 1600.739 2210.9869999999996 1602.4750000000001 C 2204.843 1621.219 2191.1739999999995 1636.3570000000002 2178.5739999999996 1651.5390000000002 C 2153.2409999999995 1681.9920000000002 2127.2389999999996 1715.2510000000002 2110.3209999999995 1751.0470000000003 C 2073.0999999999995 1719.4360000000001 2049.3249999999994 1672.9990000000003 2043.5369999999994 1624.6020000000003 L 2043.2699999999993 1632.8830000000003 C 2014.2409999999993 1608.2620000000002 1993.4489999999994 1574.1130000000003 1984.9889999999994 1536.9810000000002 C 1976.4849999999994 1499.8940000000002 1980.4029999999993 1460.0900000000001 1995.8529999999994 1425.3180000000002 L 1996.2979999999993 1425.3180000000002 C 1999.9929999999993 1429.236 2002.7089999999994 1434.3560000000002 2003.9109999999994 1439.5650000000003 C 2006.4039999999993 1450.5170000000003 2004.1779999999994 1461.9600000000003 2003.0649999999994 1473.1350000000002 C 1999.5029999999995 1508.6640000000002 2007.3839999999993 1545.2620000000002 2025.2379999999994 1576.1610000000003 C 2024.8819999999994 1569.0820000000003 2024.6589999999994 1561.5570000000002 2028.3099999999993 1555.5020000000002 C 2031.9609999999993 1549.4470000000001 2040.9989999999993 1546.1970000000001 2046.2529999999992 1550.9160000000002 C 2049.2359999999994 1553.5880000000002 2050.0819999999994 1557.9060000000002 2050.7939999999994 1561.8690000000001 C 2061.033999999999 1618.7250000000001 2080.801999999999 1673.844 2109.0299999999993 1724.2440000000001 C 2110.765999999999 1701.226 2124.345999999999 1680.8790000000001 2139.2609999999995 1663.2930000000001 C 2154.2209999999995 1645.7510000000002 2171.1389999999997 1629.4550000000002 2181.9579999999996 1609.064 C 2192.7769999999996 1588.717 2196.3839999999996 1562.538 2183.8729999999996 1543.17 C 2181.3349999999996 1539.207 2178.0399999999995 1534.8000000000002 2179.4649999999997 1530.347 C 2181.7799999999997 1523.134 2192.9549999999995 1524.8709999999999 2198.5649999999996 1529.991 C 2204.2189999999996 1535.066 2209.2499999999995 1542.4569999999999 2216.8189999999995 1542.591 C 2222.2509999999993 1542.6799999999998 2211.6099999999997 1472.8239999999998 2210.0519999999997 1466.724 C 2206.8909999999996 1454.614 2198.4759999999997 1444.418 2208.6719999999996 1435.424 C 2208.8499999999995 1435.2459999999999 2209.028 1435.113 2209.2509999999997 1434.934 L 2214.772 1435.201 C 2224.923 1462.271 2235.163 1489.741 2237.4339999999997 1518.548 C 2239.748 1547.356 2232.981 1578.166 2213.035 1599.047 z" stroke-linecap="round" />
</g>
<g transform="matrix(0.62 0 0 0.62 527.07 288.81)"  >
<path style="stroke: none; stroke-width: 1; stroke-dasharray: none; stroke-linecap: butt; stroke-dashoffset: 0; stroke-linejoin: miter; stroke-miterlimit: 4; fill: rgb(255,255,255); fill-rule: nonzero; opacity: 1;" vector-effect="non-scaling-stroke"  transform=" translate(-2111.68, -1023.11)" d="M 2245.893 1368.909 C 2244.468 1388.2320000000002 2242.465 1408.9350000000002 2229.8650000000002 1423.6280000000002 C 2208.405 1448.5610000000001 2178.3520000000003 1440.324 2146.963 1439.9230000000002 L 2076.3940000000002 1439.9230000000002 C 2045.0060000000003 1440.3240000000003 2014.9530000000002 1448.5600000000002 1993.4930000000002 1423.6280000000002 C 1980.8930000000003 1408.9350000000002 1978.8890000000001 1388.2320000000002 1977.4650000000001 1368.909 C 1976.0400000000002 1349.586 1974.6160000000002 1332.712 1973.236 1317.6190000000001 L 1973.236 1317.574 C 1963.9750000000001 1217.353 1956.228 1197.362 1960.324 1068.469 C 1962.9950000000001 985.3000000000001 1970.653 901.731 1993.226 821.59 C 1995.6750000000002 812.908 1998.3010000000002 804.315 2001.151 795.722 C 2024.303 725.064 2060.188 658.1469999999999 2111.701 604.675 C 2163.17 658.1469999999999 2199.055 725.0649999999999 2222.251 795.722 C 2225.056 804.3149999999999 2227.683 812.908 2230.1310000000003 821.59 C 2231.244 825.508 2232.313 829.426 2233.2920000000004 833.344 C 2253.4610000000002 909.879 2260.4950000000003 989.3520000000001 2263.0330000000004 1068.469 C 2267.753 1216.774 2256.801 1220.915 2245.893 1368.909 z" stroke-linecap="round" />
</g>
<g transform="matrix(0.62 0 0 0.62 531.39 359.21)"  >
<path style="stroke: none; stroke-width: 1; stroke-dasharray: none; stroke-linecap: butt; stroke-dashoffset: 0; stroke-linejoin: miter; stroke-miterlimit: 4; fill: rgb(216,216,216); fill-rule: nonzero; opacity: 1;" vector-effect="non-scaling-stroke"  transform=" translate(-2118.7, -1137.44)" d="M 2245.893 1368.909 C 2244.468 1388.2320000000002 2242.465 1408.9350000000002 2229.8650000000002 1423.6280000000002 C 2208.405 1448.5610000000001 2178.3520000000003 1440.324 2146.963 1439.9230000000002 L 2076.3940000000002 1439.9230000000002 C 2045.0060000000003 1440.3240000000003 2014.9530000000002 1448.5600000000002 1993.4930000000002 1423.6280000000002 C 1980.8930000000003 1408.9350000000002 1978.8890000000001 1388.2320000000002 1977.4650000000001 1368.909 C 1976.0400000000002 1349.586 1974.6160000000002 1332.712 1973.236 1317.6190000000001 C 1982.63 1335.1160000000002 1993.894 1350.922 2010.2350000000001 1362.409 C 2032.363 1377.9470000000001 2061.213 1382.5330000000001 2087.7490000000003 1377.3690000000001 C 2114.2400000000002 1372.16 2138.4610000000002 1357.69 2157.695 1338.7230000000002 C 2205.29 1291.7960000000003 2221.2290000000003 1222.0290000000002 2230.1330000000003 1155.7790000000002 C 2233.7390000000005 1129.1540000000002 2236.5440000000003 1102.4410000000003 2238.5480000000002 1075.6380000000001 C 2244.692 994.5620000000001 2243.5350000000003 913.3080000000001 2233.2940000000003 833.3450000000001 C 2253.463 909.8800000000001 2260.4970000000003 989.3530000000002 2263.0350000000003 1068.4700000000003 C 2267.753 1216.774 2256.801 1220.915 2245.893 1368.909 z" stroke-linecap="round" />
</g>
<g transform="matrix(0.62 0 0 0.62 585.09 358.56)"  >
<path style="stroke: none; stroke-width: 1; stroke-dasharray: none; stroke-linecap: butt; stroke-dashoffset: 0; stroke-linejoin: miter; stroke-miterlimit: 4; fill: rgb(131,66,127); fill-rule: nonzero; opacity: 1;" vector-effect="non-scaling-stroke"  transform=" translate(-2205.9, -1136.38)" d="M 2257.357 1153.7 C 2290.812 1163.652 2327.711 1176.332 2343.887 1207.261 C 2352.6000000000004 1223.92 2353.739 1243.3799999999999 2354.404 1262.168 C 2357.122 1338.907 2354.896 1415.821 2347.749 1492.2749999999999 C 2347.256 1497.5449999999998 2339.7819999999997 1498.147 2338.4469999999997 1493.0249999999999 C 2324.4839999999995 1439.447 2288.903 1381.6529999999998 2247.7029999999995 1344.6229999999998 M 1960.345 1153.7 C 1926.89 1163.652 1889.992 1176.332 1873.815 1207.261 C 1865.102 1223.92 1863.963 1243.3799999999999 1863.298 1262.168 C 1860.58 1338.907 1862.807 1415.821 1869.953 1492.2749999999999 C 1870.446 1497.5449999999998 1877.92 1498.147 1879.2549999999999 1493.0249999999999 C 1893.2179999999998 1439.447 1928.799 1381.6529999999998 1969.9989999999998 1344.6229999999998 M 2499.095 784.769 C 2537.1769999999997 801.265 2557.162 850.445 2541.5319999999997 888.89 C 2525.9019999999996 927.3349999999999 2477.43 948.624 2438.4889999999996 934.274 C 2399.548 919.924 2376.4799999999996 872.435 2389.1199999999994 832.905 C 2401.7599999999993 793.375 2447.9409999999993 768.087 2488.0959999999995 778.573 C 2528.2509999999997 789.059 2556.1549999999997 833.539 2548.2809999999995 874.286" stroke-linecap="round" />
</g>
<g transform="matrix(0.62 0 0 0.62 725.68 186.82)"  >
<path style="stroke: none; stroke-width: 1; stroke-dasharray: none; stroke-linecap: butt; stroke-dashoffset: 0; stroke-linejoin: miter; stroke-miterlimit: 4; fill: rgb(255,255,255); fill-rule: nonzero; opacity: 1;" vector-effect="non-scaling-stroke"  transform=" translate(-2434.22, -857.49)" d="M 2465.924 934.277 C 2469.887 935.7460000000001 2473.983 936.859 2478.123 937.572 C 2464.855 939.842 2451.187 938.952 2438.498 934.277 C 2399.541 919.941 2376.477 872.4350000000001 2389.122 832.899 C 2401.232 795.099 2443.9739999999997 770.3 2482.798 777.423 C 2453.1009999999997 782.587 2425.8089999999997 803.9590000000001 2416.548 832.899 C 2403.904 872.435 2426.967 919.941 2465.924 934.277 z" stroke-linecap="round" />
</g>
<g transform="matrix(0.62 0 0 0.62 744.71 187.14)"  >
<path style="stroke: none; stroke-width: 1; stroke-dasharray: none; stroke-linecap: butt; stroke-dashoffset: 0; stroke-linejoin: miter; stroke-miterlimit: 4; fill: rgb(55,33,54); fill-rule: nonzero; opacity: 1;" vector-effect="non-scaling-stroke"  transform=" translate(-2465.12, -858)" d="M 2548.28 874.286 C 2546.82 874.0659999999999 2548.4640000000004 865.357 2545.6850000000004 850.531 C 2544.3010000000004 843.1519999999999 2541.4310000000005 834.3439999999999 2536.4040000000005 825.083 C 2531.4260000000004 815.818 2523.8380000000006 806.261 2513.5600000000004 798.279 C 2508.4010000000003 794.353 2502.6050000000005 790.727 2496.0810000000006 788.233 C 2489.6320000000005 785.5949999999999 2482.5780000000004 783.8059999999999 2475.1060000000007 783.4559999999999 C 2467.6680000000006 783.0219999999999 2459.861000000001 783.6189999999999 2452.0950000000007 785.6139999999999 C 2444.3490000000006 787.6469999999999 2436.656000000001 790.867 2429.453000000001 795.2789999999999 C 2415.1060000000007 804.0289999999999 2402.476000000001 817.8659999999999 2397.089000000001 834.9469999999999 C 2391.5860000000007 851.8959999999998 2393.4680000000008 871.8989999999999 2401.940000000001 889.3049999999998 C 2410.361000000001 906.7389999999998 2424.9300000000007 920.5799999999998 2441.658000000001 926.6989999999998 C 2458.408000000001 932.9649999999998 2477.083000000001 931.4689999999998 2492.757000000001 925.4549999999998 C 2500.641000000001 922.4469999999998 2507.876000000001 918.3119999999998 2514.188000000001 913.4019999999998 C 2520.466000000001 908.4349999999998 2525.6690000000012 902.6029999999998 2529.7940000000012 896.4159999999998 C 2534.0150000000012 890.2559999999999 2536.7900000000013 883.5429999999998 2538.5200000000013 876.8169999999998 C 2540.4090000000015 870.1099999999998 2540.9040000000014 863.3009999999998 2540.7910000000015 856.8329999999997 C 2540.4020000000014 843.8489999999997 2537.1140000000014 832.0999999999998 2532.4830000000015 822.6729999999998 C 2527.8850000000016 813.2079999999997 2522.3670000000016 805.7739999999998 2517.1220000000017 800.4169999999998 C 2506.5920000000015 789.6399999999998 2498.4430000000016 786.1089999999998 2499.094000000002 784.7709999999998 C 2499.293000000002 784.0109999999999 2508.587000000002 785.4469999999999 2521.508000000002 795.6169999999998 C 2527.907000000002 800.6769999999998 2534.7880000000023 808.1939999999998 2540.729000000002 818.2879999999999 C 2546.690000000002 828.3449999999999 2551.323000000002 841.2539999999999 2552.5850000000023 856.2069999999999 C 2553.127000000002 863.6609999999998 2552.9340000000025 871.6579999999999 2551.0670000000023 879.7649999999999 C 2549.370000000002 887.8699999999999 2546.2990000000023 896.1929999999999 2541.5090000000023 903.8039999999999 C 2536.8170000000023 911.4549999999998 2530.776000000002 918.6469999999998 2523.4800000000023 924.7759999999998 C 2516.149000000002 930.8489999999998 2507.7060000000024 935.9759999999999 2498.4110000000023 939.7699999999999 C 2479.9710000000023 947.3149999999998 2457.419000000002 949.7269999999999 2436.0830000000024 942.0859999999999 C 2414.801000000002 934.5329999999999 2397.0300000000025 917.5439999999999 2386.9100000000026 896.5989999999999 C 2376.7300000000027 875.684 2374.362000000003 851.241 2381.5370000000025 829.8439999999999 C 2388.6480000000024 808.3639999999999 2404.3430000000026 792.05 2421.5650000000023 782.06 C 2430.2370000000024 777.02 2439.435000000002 773.453 2448.7000000000025 771.323 C 2457.9830000000024 769.23 2467.3500000000026 768.792 2476.2660000000024 769.653 C 2485.2100000000023 770.421 2493.6920000000023 772.929 2501.1910000000025 776.4 C 2508.7910000000024 779.732 2515.3430000000026 784.2869999999999 2521.0250000000024 789.127 C 2532.3420000000024 798.947 2540.0670000000023 810.245 2544.7690000000025 820.933 C 2549.5120000000024 831.627 2551.6570000000024 841.5649999999999 2552.1320000000023 849.698 C 2553.042 866.083 2549.036 874.545 2548.28 874.286 z" stroke-linecap="round" />
</g>
<g transform="matrix(0.62 0 0 0.62 745.48 186.55)"  >
<path style="stroke: none; stroke-width: 1; stroke-dasharray: none; stroke-linecap: butt; stroke-dashoffset: 0; stroke-linejoin: miter; stroke-miterlimit: 4; fill: rgb(255,255,255); fill-rule: nonzero; opacity: 1;" vector-effect="non-scaling-stroke"  transform=" translate(-2466.38, -857.05)" d="M 2501.069 820.712 C 2505.016 823.009 2495.067 847.252 2475.993 872.894 C 2473.612 876.087 2471.227 879.16 2468.839 882.061 C 2467.395 883.801 2465.975 885.51 2464.584 887.186 C 2462.399 889.938 2459.928 891.981 2457.2659999999996 892.914 C 2454.6569999999997 893.911 2451.508 893.77 2449.1859999999997 892.6229999999999 C 2446.8599999999997 891.583 2444.8839999999996 889.4359999999999 2443.2149999999997 887.132 L 2441.9579999999996 885.492 C 2441.4849999999997 884.881 2441.4629999999997 884.795 2441.1969999999997 884.424 C 2440.785 883.816 2440.381 883.218 2439.9839999999995 882.631 C 2439.2129999999993 881.446 2438.4709999999995 880.305 2437.7589999999996 879.213 C 2432.1939999999995 870.4119999999999 2429.6269999999995 864.218 2431.3769999999995 862.7149999999999 C 2433.1269999999995 861.2119999999999 2438.8619999999996 864.6859999999999 2446.7199999999993 871.5179999999999 C 2447.6929999999993 872.386 2448.707999999999 873.2919999999999 2449.7619999999993 874.2339999999999 C 2450.2819999999992 874.7149999999999 2450.8119999999994 875.2049999999999 2451.350999999999 875.704 C 2451.5609999999992 875.887 2452.0189999999993 876.361 2452.030999999999 876.314 L 2452.240999999999 876.3829999999999 C 2452.7329999999993 876.5479999999999 2453.146999999999 876.5619999999999 2453.351999999999 876.0559999999999 C 2453.431999999999 875.852 2453.439999999999 875.67 2453.432999999999 875.5509999999999 C 2453.468999999999 875.472 2453.336999999999 875.608 2453.506999999999 875.3609999999999 L 2454.2909999999993 874.2729999999999 L 2455.8789999999995 872.0649999999999 C 2458.0439999999994 869.1149999999999 2460.2829999999994 866.064 2462.5769999999993 862.938 C 2481.062 838.104 2497.056 818.346 2501.069 820.712 z" stroke-linecap="round" />
</g>
<g transform="matrix(0.62 0 0 0.62 527.59 313.33)"  >
<path style="stroke: none; stroke-width: 1; stroke-dasharray: none; stroke-linecap: butt; stroke-dashoffset: 0; stroke-linejoin: miter; stroke-miterlimit: 4; fill: rgb(131,66,127); fill-rule: nonzero; opacity: 1;" vector-effect="non-scaling-stroke"  transform=" translate(-2112.52, -1062.94)" d="M 2222.264 795.708 L 2002.7800000000002 800.6429999999999 C 2025.9440000000002 729.992 2060.181 658.137 2111.6800000000003 604.6949999999999 C 2163.18 658.137 2199.1 725.058 2222.264 795.708 z M 2089.585 1236.505 C 2085.55 1313.7240000000002 2081.514 1321.986 2077.479 1399.2060000000001 C 2075.8219999999997 1430.91 2074.3089999999997 1463.634 2085.229 1493.4440000000002 C 2087.913 1500.7710000000002 2091.439 1507.9910000000002 2097.0409999999997 1513.4240000000002 C 2102.6429999999996 1518.8560000000002 2110.6359999999995 1522.2770000000003 2118.3099999999995 1520.8620000000003 C 2127.2079999999996 1519.2220000000002 2133.9729999999995 1511.4440000000004 2137.0069999999996 1502.9190000000003 C 2140.0409999999997 1494.3940000000002 2140.0119999999997 1485.1300000000003 2139.9479999999994 1476.0820000000003 C 2139.2629999999995 1378.4420000000002 2138.5789999999993 1349.7610000000004 2137.8939999999993 1252.1210000000003 C 2137.814999999999 1240.8780000000004 2137.649999999999 1229.2330000000004 2132.9059999999995 1219.0390000000002 C 2128.162 1208.845 2117.4839999999995 1200.4980000000003 2106.3669999999993 1202.1830000000002 C 2097.0879999999993 1203.5900000000001 2089.9009999999994 1211.5930000000003 2086.707999999999 1220.4180000000001 C 2083.514999999999 1229.2430000000002 2083.5749999999994 1238.864 2083.673999999999 1248.248 C 2084.157999999999 1294.1480000000001 2084.640999999999 1271.0900000000001 2085.124999999999 1316.99 M 2112.762 883.879 C 2084.199 883.077 2056.1510000000003 902.089 2046.3190000000002 928.918 C 2036.486 955.747 2045.6060000000002 988.381 2067.9230000000002 1006.226 C 2090.2400000000002 1024.071 2124.081 1025.788 2148.09 1010.294 C 2172.099 994.8 2184.4750000000004 963.257 2177.409 935.5699999999999 C 2170.3430000000003 907.8839999999999 2144.3630000000003 886.1299999999999 2115.866 884.0369999999999" stroke-linecap="round" />
</g>
<g transform="matrix(0.62 0 0 0.62 477.62 289.82)"  >
<path style="stroke: none; stroke-width: 1; stroke-dasharray: none; stroke-linecap: butt; stroke-dashoffset: 0; stroke-linejoin: miter; stroke-miterlimit: 4; fill: rgb(55,33,54); fill-rule: nonzero; opacity: 1;" vector-effect="non-scaling-stroke"  transform=" translate(-2031.38, -1024.76)" d="M 2111.68 604.695 C 2112.625 605.5980000000001 2103.879 615.5880000000001 2089.692 634.6840000000001 C 2075.525 653.7570000000001 2056.3940000000002 682.474 2038.114 720.714 C 2029.021 739.841 2020.2 761.327 2012.1290000000001 784.879 C 2004.3110000000001 808.517 1996.9170000000001 834.105 1991.1380000000001 861.5450000000001 C 1979.2220000000002 916.3430000000001 1972.5660000000003 977.9390000000001 1969.68 1042.894 C 1968.2350000000001 1075.369 1967.44 1107.234 1967.402 1137.831 C 1967.451 1168.4579999999999 1968.769 1197.788 1971.454 1225.8229999999999 C 1974.043 1253.8559999999998 1976.9869999999999 1280.7209999999998 1979.046 1305.8749999999998 C 1981.2340000000002 1330.9879999999998 1982.6490000000001 1354.6089999999997 1983.943 1375.8179999999998 C 1984.682 1386.2869999999998 1985.933 1396.0129999999997 1988.746 1404.4899999999998 C 1991.505 1413.0059999999999 1995.943 1419.9489999999998 2001.6940000000002 1425.2399999999998 C 2013.015 1435.9739999999997 2027.6960000000001 1437.7769999999998 2039.2320000000002 1438.2659999999998 C 2050.9500000000003 1438.7109999999998 2060.356 1438.2569999999998 2066.6910000000003 1438.581 C 2073.0460000000003 1438.7959999999998 2076.3840000000005 1439.3899999999999 2076.3840000000005 1439.9299999999998 C 2076.3870000000006 1440.543 2073.0960000000005 1441.0749999999998 2066.8560000000007 1441.9429999999998 C 2060.5900000000006 1442.6999999999998 2051.4610000000007 1444.2019999999998 2039.2200000000007 1444.7669999999998 C 2033.1100000000008 1444.984 2026.1450000000007 1444.946 2018.5090000000007 1443.3429999999998 C 2010.9170000000006 1441.774 2002.6360000000006 1438.2789999999998 1995.5060000000008 1432.234 C 1988.3690000000008 1426.3919999999998 1982.2990000000007 1417.7859999999998 1978.7370000000008 1408.057 C 1975.0490000000007 1398.325 1973.3350000000007 1387.692 1972.1770000000008 1376.866 C 1970.1010000000008 1355.3799999999999 1968.038000000001 1332.213 1965.2570000000007 1307.205 C 1962.3990000000008 1282.185 1959.3460000000007 1255.452 1956.1330000000007 1227.321 C 1952.9920000000006 1199.021 1951.3010000000006 1168.915 1951.0340000000008 1137.917 C 1950.8500000000008 1106.887 1951.5310000000009 1074.942 1952.9890000000007 1042.127 C 1955.9000000000008 976.5509999999999 1963.1160000000007 913.929 1976.1130000000007 858.1859999999999 C 1982.4260000000008 830.2889999999999 1990.4910000000007 804.2379999999999 1999.0630000000008 780.2679999999999 C 2007.8910000000008 756.3749999999999 2017.5570000000007 734.6589999999999 2027.5400000000009 715.4409999999999 C 2047.605000000001 677.0079999999999 2068.674000000001 648.7049999999999 2084.620000000001 630.6089999999999 C 2100.608 612.478 2110.973 603.993 2111.68 604.695 z" stroke-linecap="round" />
</g>
<g transform="matrix(0.62 0 0 0.62 576.52 289.82)"  >
<path style="stroke: none; stroke-width: 1; stroke-dasharray: none; stroke-linecap: butt; stroke-dashoffset: 0; stroke-linejoin: miter; stroke-miterlimit: 4; fill: rgb(55,33,54); fill-rule: nonzero; opacity: 1;" vector-effect="non-scaling-stroke"  transform=" translate(-2191.98, -1024.76)" d="M 2146.974 1439.931 C 2146.974 1439.391 2150.313 1438.797 2156.6670000000004 1438.582 C 2163.0020000000004 1438.258 2172.4080000000004 1438.711 2184.126 1438.267 C 2195.6620000000003 1437.778 2210.3430000000003 1435.9750000000001 2221.664 1425.241 C 2227.4150000000004 1419.95 2231.853 1413.007 2234.612 1404.491 C 2237.425 1396.014 2238.677 1386.288 2239.415 1375.82 C 2240.709 1354.6109999999999 2242.123 1330.99 2244.312 1305.878 C 2246.372 1280.725 2249.315 1253.8609999999999 2251.904 1225.829 C 2254.589 1197.796 2255.908 1168.4669999999999 2255.957 1137.841 C 2255.92 1107.2459999999999 2255.125 1075.3829999999998 2253.68 1042.9089999999999 C 2250.7949999999996 977.9499999999998 2244.14 916.3519999999999 2232.223 861.5509999999999 C 2226.444 834.1099999999999 2219.049 808.521 2211.232 784.8829999999999 C 2203.161 761.3309999999999 2194.339 739.8439999999999 2185.247 720.7159999999999 C 2166.9669999999996 682.4749999999999 2147.835 653.7579999999999 2133.6679999999997 634.6839999999999 C 2119.4799999999996 615.5879999999999 2110.7349999999997 605.5969999999999 2111.68 604.6939999999998 C 2112.3869999999997 603.9919999999998 2122.7529999999997 612.4769999999999 2138.736 630.6099999999999 C 2154.683 648.7069999999999 2175.7509999999997 677.0089999999999 2195.817 715.444 C 2205.799 734.6619999999999 2215.466 756.3789999999999 2224.294 780.2719999999999 C 2232.8669999999997 804.2429999999999 2240.932 830.295 2247.2439999999997 858.193 C 2260.2409999999995 913.939 2267.4559999999997 976.563 2270.3669999999997 1042.143 C 2271.825 1074.955 2272.506 1106.8990000000001 2272.3219999999997 1137.928 C 2272.055 1168.9240000000002 2270.3639999999996 1199.029 2267.2229999999995 1227.3280000000002 C 2264.0099999999993 1255.457 2260.9569999999994 1282.1890000000003 2258.0999999999995 1307.2090000000003 C 2255.3199999999993 1332.2170000000003 2253.2559999999994 1355.3830000000003 2251.1809999999996 1376.8680000000004 C 2250.0229999999997 1387.6940000000004 2248.3099999999995 1398.3270000000005 2244.6209999999996 1408.0580000000004 C 2241.0589999999997 1417.7870000000005 2234.988 1426.3930000000005 2227.852 1432.2350000000004 C 2220.7219999999998 1438.2790000000005 2212.442 1441.7750000000003 2204.8489999999997 1443.3430000000003 C 2197.2129999999997 1444.9460000000004 2190.2479999999996 1444.9840000000004 2184.138 1444.7670000000003 C 2171.897 1444.2020000000002 2162.767 1442.6990000000003 2156.502 1441.9430000000002 C 2150.262 1441.076 2146.971 1440.544 2146.974 1439.931 z" stroke-linecap="round" />
</g>
<g transform="matrix(0.62 0 0 0.62 525.33 394.28)"  >
<path style="stroke: none; stroke-width: 1; stroke-dasharray: none; stroke-linecap: butt; stroke-dashoffset: 0; stroke-linejoin: miter; stroke-miterlimit: 4; fill: rgb(55,33,54); fill-rule: nonzero; opacity: 1;" vector-effect="non-scaling-stroke"  transform=" translate(-2108.85, -1194.39)" d="M 2218.99 795.712 C 2219.095 800.324 2170.7799999999997 805.1659999999999 2111.0769999999998 806.528 C 2051.3709999999996 807.889 2002.8849999999998 805.255 2002.7799999999997 800.643 C 2002.6749999999997 796.032 2050.99 791.1890000000001 2110.696 789.827 C 2170.399 788.466 2218.885 791.101 2218.99 795.712 z M 2115.865 884.037 C 2115.906 882.6030000000001 2122.2839999999997 880.7610000000001 2133.7639999999997 883.081 C 2144.9629999999997 885.463 2161.6389999999997 892.732 2174.9069999999997 910.128 C 2181.4289999999996 918.6930000000001 2186.941 930.0060000000001 2188.7549999999997 943.056 C 2190.6959999999995 956.0210000000001 2189.1279999999997 970.3280000000001 2183.5889999999995 983.945 C 2178.1029999999996 997.5070000000001 2168.5849999999996 1010.697 2154.7489999999993 1019.892 C 2140.957999999999 1029.094 2123.8749999999995 1033.545 2106.7709999999993 1032.679 C 2089.6669999999995 1031.8110000000001 2073.1199999999994 1025.654 2060.3299999999995 1015.104 C 2047.4949999999994 1004.5550000000001 2039.3589999999995 990.47 2035.2729999999995 976.422 C 2031.1399999999994 962.3140000000001 2031.0279999999996 947.921 2034.2709999999995 935.219 C 2037.3969999999995 922.4200000000001 2044.0249999999994 911.7220000000001 2051.3799999999997 903.8610000000001 C 2066.3409999999994 887.897 2083.6669999999995 882.3530000000001 2095.0499999999997 881.1170000000001 C 2106.7059999999997 879.97 2112.865 882.4490000000001 2112.7599999999998 883.879 C 2112.7239999999997 885.702 2106.6789999999996 886.529 2097.18 890.158 C 2087.852 893.79 2074.5299999999997 900.8870000000001 2064.2929999999997 914.722 C 2059.2349999999997 921.559 2055.151 929.9159999999999 2053.6089999999995 939.411 C 2051.9389999999994 948.8829999999999 2052.6859999999997 959.569 2056.2519999999995 969.8399999999999 C 2059.7609999999995 980.078 2066.0939999999996 989.9739999999999 2075.0229999999997 996.9189999999999 C 2083.8759999999997 1003.8929999999999 2095.631 1008.2189999999998 2107.977 1008.8439999999998 C 2120.323 1009.4699999999998 2132.4539999999997 1006.3559999999998 2141.966 1000.3139999999999 C 2151.5519999999997 994.3079999999999 2158.853 985.1029999999998 2163.38 975.2729999999998 C 2167.967 965.4159999999998 2169.792 954.8609999999998 2169.089 945.2689999999998 C 2168.516 935.6669999999998 2165.298 926.9389999999997 2160.958 919.6259999999997 C 2152.174 904.8249999999997 2139.64 896.4169999999998 2130.727 891.8589999999997 C 2121.647 887.289 2115.718 885.854 2115.865 884.037 z M 2247.704 1344.623 C 2248.264 1343.991 2252.8410000000003 1346.7160000000001 2260.2650000000003 1353.026 C 2267.7030000000004 1359.307 2277.9580000000005 1369.247 2289.222 1383.171 C 2300.46 1397.0900000000001 2312.918 1414.863 2324.217 1436.671 C 2329.847 1447.575 2335.2400000000002 1459.451 2339.896 1472.334 C 2340.2830000000004 1473.4650000000001 2340.183 1473.124 2340.2580000000003 1473.314 L 2340.382 1473.577 L 2340.582 1473.978 C 2340.703 1474.222 2340.786 1474.425 2340.895 1474.5710000000001 C 2341.045 1474.7210000000002 2341.425 1474.5470000000003 2341.466 1474.2240000000002 C 2341.4829999999997 1473.9080000000001 2341.451 1473.6340000000002 2341.442 1473.411 L 2341.418 1473.108 L 2341.405 1472.975 C 2341.405 1472.924 2341.396 1472.994 2341.404 1472.8449999999998 L 2341.503 1471.4829999999997 C 2341.764 1467.8469999999998 2342.027 1464.1809999999998 2342.2920000000004 1460.4879999999998 C 2342.7610000000004 1453.0969999999998 2343.2380000000003 1445.5939999999998 2343.7200000000003 1437.9909999999998 C 2344.601 1422.7809999999997 2345.36 1407.1629999999998 2345.9590000000003 1391.2379999999998 C 2347.4230000000002 1351.3539999999998 2347.713 1313.3199999999997 2347.2070000000003 1278.7269999999999 C 2346.8190000000004 1261.389 2347.0890000000004 1244.9379999999999 2344.5560000000005 1230.7199999999998 C 2343.3220000000006 1223.5829999999999 2341.3670000000006 1216.9819999999997 2338.5990000000006 1211.1179999999997 C 2335.7500000000005 1205.2829999999997 2332.2060000000006 1200.0629999999996 2328.2140000000004 1195.4929999999997 C 2324.1520000000005 1190.9739999999997 2319.6690000000003 1187.1469999999997 2315.2150000000006 1183.7279999999996 C 2310.620000000001 1180.4769999999996 2306.1480000000006 1177.5049999999997 2301.6840000000007 1175.1009999999997 C 2292.8460000000005 1170.1529999999996 2284.7010000000005 1166.5949999999996 2278.0170000000007 1163.7109999999996 C 2264.596000000001 1158.0059999999996 2256.991000000001 1154.8719999999996 2257.355000000001 1153.6989999999996 C 2257.672000000001 1152.6699999999996 2265.812000000001 1153.6629999999996 2280.168000000001 1157.5749999999996 C 2287.3320000000012 1159.5729999999996 2296.076000000001 1162.3229999999996 2305.894000000001 1166.7639999999997 C 2310.8320000000012 1168.9089999999997 2315.925000000001 1171.7299999999996 2321.226000000001 1174.9649999999997 C 2326.421000000001 1178.3939999999998 2331.764000000001 1182.3849999999998 2336.7940000000012 1187.3739999999998 C 2341.7590000000014 1192.4199999999998 2346.349000000001 1198.4229999999998 2350.115000000001 1205.3249999999998 C 2353.8120000000013 1212.2709999999997 2356.4350000000013 1220.0219999999997 2358.146000000001 1228.0409999999997 C 2361.6180000000013 1244.2189999999998 2361.7520000000013 1260.9889999999998 2362.594000000001 1278.3229999999996 C 2363.953000000001 1313.1919999999996 2364.1310000000008 1351.5949999999996 2362.653000000001 1391.8539999999996 C 2362.048000000001 1407.9279999999997 2361.208000000001 1423.6889999999996 2360.1740000000013 1439.0309999999995 C 2359.597000000001 1446.6969999999994 2359.0270000000014 1454.2629999999995 2358.4660000000013 1461.7159999999994 C 2357.5240000000013 1472.1549999999995 2356.5960000000014 1482.4359999999995 2355.684000000001 1492.5409999999995 C 2354.7610000000013 1494.2799999999995 2353.842000000001 1496.0109999999995 2352.9280000000012 1497.7339999999995 L 2351.570000000001 1500.3119999999994 C 2351.342000000001 1500.7219999999995 2351.127000000001 1501.2099999999994 2350.8900000000012 1501.5549999999994 C 2350.626000000001 1501.7639999999994 2350.4020000000014 1501.9609999999993 2350.037000000001 1502.2039999999993 C 2348.733000000001 1503.1439999999993 2346.392000000001 1504.1109999999992 2344.086000000001 1504.2689999999993 C 2341.7810000000013 1504.4639999999993 2339.385000000001 1503.8509999999994 2338.0690000000013 1503.1649999999993 C 2337.6850000000013 1502.9979999999994 2337.490000000001 1502.8409999999992 2337.2070000000012 1502.6779999999992 L 2336.3610000000012 1501.4159999999993 L 2334.6810000000014 1498.8789999999992 C 2333.5720000000015 1497.1909999999991 2332.4690000000014 1495.5109999999993 2331.372000000001 1493.8409999999992 L 2330.5560000000014 1492.5889999999993 C 2330.285000000001 1492.1649999999993 2330.0900000000015 1491.0689999999993 2329.854000000001 1490.3449999999993 L 2328.503000000001 1485.4999999999993 C 2327.617000000001 1482.7039999999993 2326.735000000001 1479.9239999999993 2325.8590000000013 1477.1599999999994 C 2321.8170000000014 1464.8399999999995 2317.0780000000013 1453.3169999999993 2312.1230000000014 1442.6369999999995 C 2302.1720000000014 1421.2669999999996 2291.1460000000015 1403.4219999999996 2281.3310000000015 1389.0979999999995 C 2271.4890000000014 1374.7649999999994 2262.6410000000014 1364.0599999999995 2256.5130000000013 1356.7449999999994 C 2250.405 1349.401 2247.035 1345.367 2247.704 1344.623 z M 1969.999 1344.623 C 1971.9180000000001 1346.589 1947.358 1368.464 1921.0620000000001 1413.1660000000002 C 1914.555 1424.3210000000001 1907.98 1436.8540000000003 1901.95 1450.7140000000002 C 1898.887 1457.622 1896.07 1464.9050000000002 1893.431 1472.4710000000002 L 1892.42 1475.3130000000003 L 1891.424 1478.4820000000004 C 1890.209 1482.1620000000005 1889.009 1485.9630000000004 1887.915 1490.1040000000005 L 1887.49 1491.6260000000004 L 1887.277 1492.3860000000004 L 1887.0230000000001 1492.7770000000005 L 1886.0020000000002 1494.3420000000006 L 1883.939 1497.4870000000005 L 1881.8480000000002 1500.6510000000005 C 1881.1290000000001 1501.6910000000005 1880.4690000000003 1502.9870000000005 1879.7390000000003 1503.1140000000005 C 1878.1320000000003 1504.0030000000004 1874.8870000000002 1504.6880000000006 1872.0730000000003 1504.0440000000006 C 1870.6580000000004 1503.7660000000005 1869.3260000000002 1503.2160000000006 1868.3310000000004 1502.6260000000007 C 1867.3220000000003 1501.9160000000006 1866.6920000000005 1501.9330000000007 1866.3300000000004 1500.0800000000006 C 1864.6160000000004 1494.2430000000006 1862.7770000000003 1488.5490000000007 1861.0530000000003 1482.3340000000005 C 1860.5310000000004 1476.4910000000004 1860.0030000000004 1470.5860000000005 1859.4700000000003 1464.6240000000005 C 1859.0980000000002 1459.9780000000005 1858.7220000000002 1455.2880000000005 1858.3430000000003 1450.5550000000005 C 1856.9140000000002 1431.6180000000006 1855.7890000000002 1411.9820000000004 1855.0460000000003 1391.8550000000005 C 1853.5680000000002 1351.5960000000005 1853.7460000000003 1313.1930000000004 1855.1050000000002 1278.3240000000005 C 1855.9460000000001 1260.9900000000005 1856.0810000000004 1244.2200000000005 1859.5530000000003 1228.0420000000006 C 1861.2640000000004 1220.0230000000006 1863.8880000000004 1212.2720000000006 1867.5840000000003 1205.3260000000007 C 1871.3500000000004 1198.4240000000007 1875.9390000000003 1192.4210000000007 1880.9040000000002 1187.3750000000007 C 1885.9350000000002 1182.3860000000006 1891.2780000000002 1178.3950000000007 1896.4720000000002 1174.9660000000006 C 1901.7730000000001 1171.7310000000007 1906.8660000000002 1168.9090000000006 1911.8040000000003 1166.7650000000006 C 1921.6210000000003 1162.3240000000005 1930.3650000000002 1159.5740000000005 1937.5300000000002 1157.5760000000005 C 1951.8860000000002 1153.6650000000004 1960.025 1152.6710000000005 1960.3430000000003 1153.7000000000005 C 1960.7080000000003 1154.8720000000005 1953.1020000000003 1158.0060000000005 1939.6810000000003 1163.7110000000005 C 1932.9970000000003 1166.5950000000005 1924.8510000000003 1170.1540000000005 1916.0140000000004 1175.1020000000005 C 1911.5500000000004 1177.5050000000006 1907.0780000000004 1180.4780000000005 1902.4830000000004 1183.7290000000005 C 1898.0290000000005 1187.1480000000006 1893.5460000000005 1190.9740000000004 1889.4840000000004 1195.4940000000006 C 1885.4920000000004 1200.0650000000005 1881.9480000000003 1205.2850000000005 1879.0990000000004 1211.1200000000006 C 1876.3320000000003 1216.9850000000006 1874.3770000000004 1223.5850000000005 1873.1430000000005 1230.7220000000007 C 1870.6100000000006 1244.9400000000007 1870.8800000000006 1261.3910000000008 1870.4920000000004 1278.7290000000007 C 1869.9860000000003 1313.3220000000008 1870.2760000000005 1351.3560000000007 1871.7400000000005 1391.2400000000007 C 1872.4760000000006 1411.1810000000007 1873.4740000000004 1430.6390000000006 1874.6690000000006 1449.4190000000008 C 1875.2160000000006 1457.4670000000008 1875.7540000000006 1465.3730000000007 1876.2800000000007 1473.1160000000007 L 1876.2270000000005 1474.0080000000007 C 1876.1230000000005 1474.4130000000007 1876.6110000000006 1474.7820000000006 1876.8100000000006 1474.5670000000007 C 1876.9380000000006 1474.3800000000008 1877.0480000000007 1474.1120000000008 1877.2160000000006 1473.7780000000007 L 1877.5140000000006 1473.1600000000008 L 1878.4740000000006 1470.4040000000007 L 1879.6290000000006 1467.4420000000007 C 1882.6570000000006 1459.5580000000007 1885.8810000000005 1452.0310000000006 1889.3570000000007 1444.9420000000007 C 1896.2150000000006 1430.7170000000008 1903.6570000000006 1418.0460000000007 1911.0440000000006 1406.9070000000006 C 1925.8200000000006 1384.5990000000006 1940.5590000000007 1368.6200000000006 1951.3720000000005 1358.4170000000006 C 1962.314 1348.282 1969.313 1343.841 1969.999 1344.623 z M 2085.126 1316.989 C 2083.4300000000003 1317.032 2081.92 1306.106 2079.916 1286.686 C 2078.7270000000003 1276.9599999999998 2077.809 1264.741 2077.034 1250.841 C 2076.695 1243.925 2076.012 1236.174 2077.156 1227.235 C 2078.245 1218.456 2081.928 1207.8619999999999 2090.814 1200.317 C 2095.1969999999997 1196.541 2101.283 1193.574 2108.0389999999998 1193.16 C 2114.767 1192.7730000000001 2121.4109999999996 1194.835 2126.7389999999996 1198.246 C 2132.0999999999995 1201.6760000000002 2136.5539999999996 1206.237 2139.874 1211.77 C 2143.218 1217.41 2145.075 1223.2169999999999 2146.259 1229.122 C 2147.408 1234.988 2147.812 1240.761 2148.029 1246.3200000000002 C 2148.178 1251.6960000000001 2148.33 1257.1570000000002 2148.484 1262.698 C 2148.748 1273.688 2149.019 1284.999 2149.297 1296.5970000000002 C 2150.327 1342.9930000000002 2151.128 1394.005 2151.619 1447.554 C 2151.675 1454.248 2151.731 1460.902 2151.7870000000003 1467.5130000000001 C 2151.793 1474.1340000000002 2152.0200000000004 1480.5200000000002 2151.6490000000003 1487.919 C 2151.213 1495.237 2150.119 1503.207 2146.3 1511.2340000000002 C 2142.5 1518.9560000000001 2136.454 1526.1740000000002 2127.284 1530.237 C 2122.76 1532.231 2117.485 1533.111 2112.654 1532.7250000000001 C 2107.783 1532.3980000000001 2103.339 1530.979 2099.39 1529.0380000000002 C 2095.4429999999998 1527.0760000000002 2091.964 1524.5290000000002 2088.9339999999997 1521.5470000000003 C 2086.0139999999997 1518.6440000000002 2083.595 1515.4660000000003 2081.6209999999996 1512.2580000000003 C 2077.6719999999996 1505.8010000000002 2075.2519999999995 1499.3800000000003 2073.3389999999995 1493.2730000000004 C 2071.3849999999993 1487.0990000000004 2069.8409999999994 1480.9060000000004 2068.7949999999996 1474.7770000000003 C 2064.517 1450.1870000000004 2065.8399999999997 1427.2500000000002 2067.2009999999996 1406.5580000000002 C 2068.6689999999994 1385.8790000000001 2070.3189999999995 1366.63 2072.2849999999994 1349.0750000000003 C 2074.2299999999996 1331.5140000000004 2076.4309999999996 1315.7520000000002 2078.3079999999995 1301.9790000000003 C 2080.1889999999994 1288.2020000000002 2081.8099999999995 1276.3300000000004 2083.1359999999995 1266.6160000000002 C 2085.8579999999997 1247.1810000000003 2087.9119999999994 1236.4140000000002 2089.5859999999993 1236.5030000000002 C 2091.2019999999993 1236.5890000000002 2092.283999999999 1247.5090000000002 2092.4039999999995 1267.2430000000002 C 2092.4659999999994 1277.1070000000002 2092.2299999999996 1289.19 2091.5969999999998 1303.178 C 2090.8639999999996 1317.0890000000002 2090.0289999999995 1332.922 2089.1059999999998 1350.422 C 2088.2329999999997 1367.848 2087.5699999999997 1386.976 2086.968 1407.5140000000001 C 2086.432 1427.941 2086.1009999999997 1449.5040000000001 2090.394 1470.6460000000002 C 2091.432 1475.9310000000003 2092.881 1481.1260000000002 2094.624 1486.237 C 2096.348 1491.422 2098.4219999999996 1496.258 2100.912 1500.1180000000002 C 2102.1569999999997 1502.0560000000003 2103.5209999999997 1503.7230000000002 2104.9779999999996 1505.122 C 2106.3469999999998 1506.415 2107.9309999999996 1507.515 2109.5529999999994 1508.278 C 2111.1689999999994 1509.031 2112.7959999999994 1509.478 2114.1799999999994 1509.521 C 2115.5899999999992 1509.591 2116.6829999999995 1509.366 2117.9349999999995 1508.808 C 2120.3959999999993 1507.747 2123.2869999999994 1504.799 2125.0359999999996 1501.024 C 2126.749 1497.4009999999998 2127.6929999999998 1492.3169999999998 2127.9429999999998 1486.6609999999998 C 2128.2119999999995 1481.032 2127.995 1474.2759999999998 2127.9559999999997 1467.6779999999999 C 2127.89 1461.0669999999998 2127.8239999999996 1454.4129999999998 2127.758 1447.7189999999998 C 2127.267 1394.1699999999998 2127.133 1343.1539999999998 2127.3109999999997 1296.7489999999998 C 2127.3759999999997 1285.1479999999997 2127.4399999999996 1273.8349999999998 2127.5019999999995 1262.8429999999998 C 2127.4809999999993 1251.774 2128.0989999999997 1241.1019999999999 2126.7809999999995 1232.6049999999998 C 2126.1519999999996 1228.37 2124.9239999999995 1224.3549999999998 2123.3219999999997 1221.3419999999999 C 2121.6959999999995 1218.2299999999998 2119.2389999999996 1215.5169999999998 2116.6389999999997 1213.6399999999999 C 2111.211 1209.8999999999999 2106.265 1209.9029999999998 2101.4269999999997 1213.435 C 2099.0599999999995 1215.182 2096.9379999999996 1217.691 2095.4109999999996 1220.4679999999998 C 2093.9109999999996 1223.1709999999998 2092.825 1226.406 2092.1289999999995 1229.7399999999998 C 2090.7119999999995 1236.4379999999999 2090.6379999999995 1243.6909999999998 2090.3769999999995 1250.6879999999999 C 2089.9189999999994 1264.578 2089.5229999999997 1276.5459999999998 2089.1999999999994 1286.34 C 2088.357 1306.161 2086.722 1316.948 2085.126 1316.989 z M 2213.016 1599.056 C 2211.1910000000003 1597.305 2216.957 1589.477 2222.027 1575.641 C 2227.247 1561.922 2230.955 1541.654 2229.125 1519.181 C 2227.254 1496.599 2221.51 1476.124 2217.898 1460.983 C 2214.172 1445.845 2212.554 1436.02 2214.7560000000003 1435.211 C 2216.8820000000005 1434.429 2222.367 1442.66 2229.0550000000003 1457.103 C 2235.5820000000003 1471.511 2243.648 1492.614 2245.7780000000002 1517.863 C 2247.8950000000004 1543.222 2241.5510000000004 1566.5810000000001 2232.646 1580.815 C 2223.815 1595.289 2214.374 1600.578 2213.016 1599.056 z" stroke-linecap="round" />
</g>
<g transform="matrix(0.62 0 0 0.62 559.89 674.86)"  >
<path style="stroke: none; stroke-width: 1; stroke-dasharray: none; stroke-linecap: butt; stroke-dashoffset: 0; stroke-linejoin: miter; stroke-miterlimit: 4; fill: rgb(55,33,54); fill-rule: nonzero; opacity: 1;" vector-effect="non-scaling-stroke"  transform=" translate(-2164.97, -1650.06)" d="M 2110.319 1751.068 C 2108.321 1750.181 2111.821 1736.789 2122.2019999999998 1717.291 C 2132.4129999999996 1697.731 2149.953 1672.7649999999999 2171.216 1647.308 C 2181.924 1634.486 2192.056 1623.163 2198.598 1611.729 C 2201.879 1606.057 2204.402 1600.3590000000002 2205.785 1595.0430000000001 C 2207.258 1589.64 2207.7129999999997 1584.3110000000001 2207.567 1579.5020000000002 C 2207.249 1569.8350000000003 2204.362 1562.3110000000001 2201.436 1557.6380000000001 C 2198.5710000000004 1552.88 2196.1670000000004 1550.39 2196.858 1549.3310000000001 C 2197.367 1548.46 2201.157 1549.0620000000001 2206.3500000000004 1553.381 C 2211.559 1557.5810000000001 2217.2490000000003 1566.3000000000002 2219.3070000000002 1578.2130000000002 C 2220.3320000000003 1584.1420000000003 2220.543 1590.8170000000002 2219.3450000000003 1597.8640000000003 C 2218.177 1605.0280000000002 2215.6220000000003 1612.0840000000003 2212.155 1619.0150000000003 C 2205.202 1632.9370000000004 2194.4610000000002 1645.4810000000002 2184.0710000000004 1657.9750000000004 C 2163.0150000000003 1683.1940000000004 2144.6390000000006 1706.1800000000003 2132.2250000000004 1723.5400000000004 C 2119.678 1740.783 2112.518 1752.083 2110.319 1751.068 z" stroke-linecap="round" />
</g>
<g transform="matrix(0.62 0 0 0.62 503.28 680.51)"  >
<path style="stroke: none; stroke-width: 1; stroke-dasharray: none; stroke-linecap: butt; stroke-dashoffset: 0; stroke-linejoin: miter; stroke-miterlimit: 4; fill: rgb(55,33,54); fill-rule: nonzero; opacity: 1;" vector-effect="non-scaling-stroke"  transform=" translate(-2073.05, -1659.24)" d="M 2045.294 1567.142 C 2047.7740000000001 1567.617 2047.1750000000002 1579.077 2048.1710000000003 1596.977 C 2048.311 1599.2130000000002 2048.4570000000003 1601.5520000000001 2048.61 1603.988 C 2048.763 1606.419 2049.165 1608.939 2049.4190000000003 1611.544 C 2049.8350000000005 1616.765 2050.885 1622.2720000000002 2051.7650000000003 1628.066 C 2053.9600000000005 1639.599 2057.0440000000003 1652.109 2061.4700000000003 1664.8790000000001 C 2066.0530000000003 1677.594 2071.5170000000003 1689.2640000000001 2077.059 1699.613 C 2080.0170000000003 1704.674 2082.6600000000003 1709.617 2085.619 1713.94 C 2087.059 1716.126 2088.33 1718.339 2089.739 1720.325 C 2091.151 1722.315 2092.507 1724.227 2093.804 1726.054 C 2104.28 1740.603 2111.949 1749.14 2110.318 1751.068 C 2109.0200000000004 1752.683 2098.389 1747.205 2084.802 1733.702 C 2083.1440000000002 1731.9759999999999 2081.4100000000003 1730.17 2079.6040000000003 1728.29 C 2077.822 1726.379 2076.1870000000004 1724.2169999999999 2074.389 1722.049 C 2070.714 1717.761 2067.398 1712.741 2063.833 1707.487 C 2057.081 1696.76 2050.6890000000003 1684.258 2045.72 1670.4470000000001 C 2040.905 1656.583 2038.019 1642.842 2036.529 1630.255 C 2035.999 1623.928 2035.424 1617.939 2035.587 1612.295 C 2035.623 1609.479 2035.535 1606.769 2035.721 1604.163 C 2035.944 1601.566 2036.158 1599.071 2036.362 1596.686 C 2038.444 1577.644 2043.27 1566.702 2045.294 1567.142 z" stroke-linecap="round" />
</g>
<g transform="matrix(0.62 0 0 0.62 463.29 600.44)"  >
<path style="stroke: none; stroke-width: 1; stroke-dasharray: none; stroke-linecap: butt; stroke-dashoffset: 0; stroke-linejoin: miter; stroke-miterlimit: 4; fill: rgb(55,33,54); fill-rule: nonzero; opacity: 1;" vector-effect="non-scaling-stroke"  transform=" translate(-2008.1, -1529.19)" d="M 2043.28 1632.876 C 2041.995 1634.511 2030.087 1628.324 2015.4089999999999 1612.647 C 2000.7939999999999 1597.1879999999999 1984.2209999999998 1571.249 1976.8329999999999 1538.856 C 1969.4229999999998 1506.466 1973.09 1475.903 1979.543 1455.631 C 1985.9589999999998 1435.135 1993.9989999999998 1424.392 1995.867 1425.306 C 1998.162 1426.324 1994.1589999999999 1438.516 1991.048 1458.308 C 1987.858 1478.003 1986.418 1505.805 1993.119 1535.136 C 1999.818 1564.466 2013.186 1588.884 2024.6109999999999 1605.24 C 2036.006 1621.717 2044.905 1630.962 2043.28 1632.876 z" stroke-linecap="round" />
</g>
<g transform="matrix(0.62 0 0 0.62 508.68 319.09)"  >
<path style="stroke: none; stroke-width: 1; stroke-dasharray: none; stroke-linecap: butt; stroke-dashoffset: 0; stroke-linejoin: miter; stroke-miterlimit: 4; fill: rgb(255,255,255); fill-rule: nonzero; opacity: 1;" vector-effect="non-scaling-stroke"  transform=" translate(-2081.8, -1072.28)" d="M 2053.656 746.92 C 2050.653 745.7919999999999 2057.48 720.721 2072.964 692.938 C 2088.359 665.103 2106.027 646.0509999999999 2108.573 648.0029999999999 C 2111.2839999999997 650.0229999999999 2098.336 671.6959999999999 2083.3959999999997 698.7289999999999 C 2068.352 725.704 2056.803 748.153 2053.656 746.92 z M 2043.787 773.549 C 2040.759 772.251 2039.703 767.934 2041.428 763.9069999999999 C 2043.1540000000002 759.8799999999999 2047.008 757.6669999999999 2050.0370000000003 758.9649999999999 C 2053.0660000000007 760.2629999999999 2054.121 764.5799999999999 2052.3950000000004 768.607 C 2050.67 772.635 2046.815 774.847 2043.787 773.549 z M 2093.899 995.396 C 2093.584 996.0999999999999 2091.575 996.1769999999999 2088.315 995.0219999999999 C 2085.071 993.877 2080.618 991.3749999999999 2076.128 986.959 C 2071.715 982.534 2067.301 976.092 2065.0040000000004 967.794 C 2062.635 959.507 2062.9200000000005 949.6 2066.311 940.309 C 2069.737 931.03 2075.9300000000003 923.2909999999999 2083.098 918.505 C 2090.218 913.665 2097.752 911.608 2103.98 911.09 C 2110.261 910.628 2115.276 911.601 2118.4900000000002 912.8280000000001 C 2121.7230000000004 914.0570000000001 2123.2050000000004 915.4140000000001 2122.9900000000002 916.1560000000001 C 2122.5310000000004 917.913 2115.456 916.676 2105.3750000000005 919.412 C 2100.3940000000002 920.811 2094.7020000000007 923.2520000000001 2089.6050000000005 927.368 C 2084.5120000000006 931.4010000000001 2080.1480000000006 937.3470000000001 2077.5120000000006 944.422 C 2074.9440000000004 951.522 2074.4250000000006 958.879 2075.6990000000005 965.249 C 2076.9220000000005 971.6850000000001 2079.6830000000004 977.229 2082.5750000000007 981.518 C 2088.491 990.125 2094.685 993.759 2093.899 995.396 z M 2117.076 1496.212 C 2116.832 1496.918 2114.275 1497.0819999999999 2110.297 1495.087 C 2106.358 1493.139 2101.265 1488.722 2097.609 1481.661 C 2093.8489999999997 1474.5890000000002 2092.115 1465.295 2091.496 1455.665 C 2090.88 1446.1 2090.466 1435.83 2090.1530000000002 1424.9099999999999 C 2088.9500000000003 1381.35 2090.646 1345.964 2093.9390000000003 1345.8729999999998 C 2097.2320000000004 1345.7819999999997 2100.878 1381.0209999999997 2102.0800000000004 1424.581 C 2102.3910000000005 1435.4389999999999 2102.4780000000005 1445.9189999999999 2102.481 1455.223 C 2102.487 1464.417 2103.231 1472.2459999999999 2105.3360000000002 1478.2749999999999 C 2109.503 1490.706 2117.782 1494.659 2117.076 1496.212 z" stroke-linecap="round" />
</g>
<g transform="matrix(0.62 0 0 0.62 380.07 814.68)"  >
<path style="stroke: none; stroke-width: 1; stroke-dasharray: none; stroke-linecap: butt; stroke-dashoffset: 0; stroke-linejoin: miter; stroke-miterlimit: 4; fill: rgb(55,33,54); fill-rule: nonzero; opacity: 1;" vector-effect="non-scaling-stroke"  transform=" translate(-1872.95, -1877.12)" d="M 2117.387 1758.286 C 2119.608 1758.909 2111.311 1796.188 2096.103 1855.9540000000002 C 2088.4990000000003 1885.8370000000002 2079.167 1921.342 2068.5570000000002 1960.698 C 2067.2270000000003 1965.6170000000002 2065.8810000000003 1970.596 2064.5190000000002 1975.633 L 2063.972 1977.608 C 2063.6690000000003 1978.5049999999999 2063.4320000000002 1979.427 2063.029 1980.292 C 2062.311 1982.0559999999998 2061.375 1983.742 2060.26 1985.3049999999998 C 2058.059 1988.4589999999998 2055.063 1991.0399999999997 2051.6620000000003 1992.9049999999997 C 2048.262 1994.7869999999998 2044.3520000000003 1995.7989999999998 2040.3990000000003 1995.9399999999998 C 2038.5010000000004 1996.0209999999997 2036.2540000000004 1995.774 2034.6770000000004 1995.4669999999999 L 2030.6530000000005 1994.6909999999998 C 2025.2740000000006 1993.6499999999999 2019.8440000000005 1992.5979999999997 2014.3650000000005 1991.5369999999998 C 1992.4960000000005 1987.0919999999999 1969.9590000000005 1982.0119999999997 1947.0760000000005 1976.0829999999999 C 1855.4200000000005 1952.647 1775.0660000000005 1922.8729999999998 1718.0340000000006 1899.052 C 1660.9970000000005 1875.09 1627.2780000000005 1856.9009999999998 1628.1770000000006 1854.953 C 1629.1940000000006 1852.7069999999999 1664.5380000000007 1867.041 1722.3360000000007 1888.052 C 1780.1450000000007 1908.933 1860.5020000000006 1936.7079999999999 1951.2180000000008 1959.9009999999998 C 1973.8700000000008 1965.7709999999997 1996.1200000000008 1970.9029999999998 2017.6700000000008 1975.5099999999998 C 2023.0660000000007 1976.6179999999997 2028.4130000000007 1977.7169999999999 2033.7100000000007 1978.8049999999998 L 2037.6730000000007 1979.6229999999998 C 2038.7550000000008 1979.8339999999998 2039.2060000000006 1979.8739999999998 2040.0040000000006 1979.8759999999997 C 2041.4250000000006 1979.8309999999997 2042.8680000000006 1979.5319999999997 2044.1450000000007 1978.8349999999998 C 2045.4160000000006 1978.1529999999998 2046.5900000000006 1977.2289999999998 2047.4200000000008 1976.0539999999999 C 2047.8490000000008 1975.4789999999998 2048.216000000001 1974.858 2048.4970000000008 1974.196 C 2048.681000000001 1973.884 2048.734000000001 1973.5149999999999 2048.882000000001 1973.185 L 2049.413000000001 1971.393 C 2050.8720000000008 1966.383 2052.3140000000008 1961.43 2053.7380000000007 1956.538 C 2065.1610000000005 1917.411 2075.6710000000007 1882.236 2084.7310000000007 1852.762 C 2102.85 1793.813 2115.167 1757.663 2117.387 1758.286 z" stroke-linecap="round" />
</g>
<g transform="matrix(0.59 0 0 0.59 296.59 679.85)"  >
<path style="stroke: rgb(131,66,127); stroke-width: 0.7; stroke-dasharray: none; stroke-linecap: butt; stroke-dashoffset: 0; stroke-linejoin: miter; stroke-miterlimit: 10; fill: none; fill-rule: nonzero; opacity: 1;" vector-effect="non-scaling-stroke"  transform=" translate(-1702.74, -1670.09)" d="M 1702.742 1670.092" stroke-linecap="round" />
</g>
<g transform="matrix(0.62 0 0 0.62 678.98 789.32)"  >
<path style="stroke: none; stroke-width: 1; stroke-dasharray: none; stroke-linecap: butt; stroke-dashoffset: 0; stroke-linejoin: miter; stroke-miterlimit: 4; fill: rgb(55,33,54); fill-rule: nonzero; opacity: 1;" vector-effect="non-scaling-stroke"  transform=" translate(-2358.37, -1835.93)" d="M 2117.387 1758.286 C 2118.4970000000003 1757.9740000000002 2122.826 1769.329 2129.703 1790.1290000000001 C 2136.58 1810.929 2146.006 1841.1740000000002 2157.31 1878.6440000000002 C 2162.899 1897.3990000000003 2169.02 1917.9400000000003 2175.591 1939.9900000000002 C 2178.804 1950.8930000000003 2182.127 1962.1690000000003 2185.5499999999997 1973.7840000000003 C 2186.72 1977.1260000000004 2189.87 1979.7450000000003 2193.397 1980.2480000000003 C 2194.269 1980.4190000000003 2195.16 1980.3620000000003 2196.043 1980.2830000000004 L 2196.706 1980.1820000000002 L 2197.806 1979.9630000000002 L 2200.138 1979.4840000000002 C 2203.252 1978.8450000000003 2206.386 1978.2020000000002 2209.5389999999998 1977.555 C 2260.011 1967.298 2315.008 1953.646 2371.9089999999997 1936.538 C 2428.8199999999997 1919.429 2482.1119999999996 1900.164 2529.8929999999996 1880.939 C 2541.8049999999994 1876.053 2553.4569999999994 1871.3580000000002 2564.6469999999995 1866.49 C 2567.4509999999996 1865.287 2570.2339999999995 1864.093 2572.9959999999996 1862.907 L 2577.1249999999995 1861.138 L 2579.1779999999994 1860.259 C 2579.9409999999993 1859.94 2580.0569999999993 1859.821 2580.542999999999 1859.618 C 2583.562999999999 1857.941 2585.649999999999 1854.615 2585.782999999999 1851.124 C 2585.868999999999 1850.257 2585.738999999999 1849.4 2585.624999999999 1848.547 C 2585.492999999999 1848.136 2585.4449999999993 1847.703 2585.285999999999 1847.298 C 2585.122999999999 1846.879 2585.053999999999 1846.568 2584.715999999999 1845.814 C 2583.612999999999 1843.212 2582.518999999999 1840.633 2581.434999999999 1838.078 C 2579.273999999999 1832.965 2577.151999999999 1827.947 2575.072999999999 1823.028 C 2570.9379999999987 1813.18 2566.968999999999 1803.729 2563.179999999999 1794.707 C 2548.088999999999 1758.594 2536.1409999999987 1729.2530000000002 2528.229999999999 1708.824 C 2520.3179999999993 1688.395 2516.4429999999993 1676.8780000000002 2517.497999999999 1676.413 C 2518.552999999999 1675.948 2524.438999999999 1686.579 2534.179999999999 1706.202 C 2543.9199999999987 1725.825 2557.5159999999987 1754.44 2573.988999999999 1789.943 C 2578.091999999999 1798.826 2582.389999999999 1808.133 2586.8689999999992 1817.829 C 2589.0969999999993 1822.683 2591.3699999999994 1827.634 2593.684999999999 1832.6789999999999 C 2594.8399999999992 1835.2029999999997 2596.005999999999 1837.7499999999998 2597.181999999999 1840.32 C 2597.441999999999 1840.848 2597.8509999999987 1841.8709999999999 2598.197999999999 1842.7759999999998 C 2598.556999999999 1843.6929999999998 2598.778999999999 1844.667 2599.047999999999 1845.6219999999998 C 2599.438999999999 1847.57 2599.713999999999 1849.57 2599.626999999999 1851.581 C 2599.534999999999 1859.625 2595.014999999999 1867.677 2587.699999999999 1871.98 C 2586.853999999999 1872.434 2585.6789999999987 1873.067 2585.066999999999 1873.329 L 2583.017999999999 1874.263 L 2578.894999999999 1876.1409999999998 C 2576.134999999999 1877.396 2573.354999999999 1878.6619999999998 2570.553999999999 1879.936 C 2559.370999999999 1885.0819999999999 2547.707999999999 1890.037 2535.767999999999 1895.164 C 2487.8779999999992 1915.349 2434.2039999999993 1935.251 2376.731999999999 1952.53 C 2319.269999999999 1969.808 2263.601999999999 1983.139 2212.506999999999 1992.657 C 2209.313999999999 1993.2559999999999 2206.1419999999994 1993.8509999999999 2202.988999999999 1994.443 L 2200.628999999999 1994.885 L 2199.385999999999 1995.109 L 2197.690999999999 1995.337 C 2195.423999999999 1995.54 2193.119999999999 1995.525 2190.889999999999 1995.095 C 2181.902999999999 1993.583 2174.369999999999 1986.884 2171.661999999999 1978.571 L 2171.188999999999 1977.068 L 2170.890999999999 1975.962 L 2170.296999999999 1973.7549999999999 L 2169.115999999999 1969.366 C 2168.333999999999 1966.45 2167.556999999999 1963.557 2166.785999999999 1960.686 C 2165.249999999999 1954.943 2163.738999999999 1949.291 2162.2529999999992 1943.734 C 2156.3879999999995 1921.4859999999999 2150.923999999999 1900.76 2145.9359999999992 1881.836 C 2136.086999999999 1843.957 2128.3939999999993 1813.226 2123.441999999999 1791.886 C 2118.489999999999 1770.5459999999998 2116.277 1758.598 2117.387 1758.286 z" stroke-linecap="round" />
</g>
<g transform="matrix(0.62 0 0 0.62 404.73 896.92)"  >
<path style="stroke: none; stroke-width: 1; stroke-dasharray: none; stroke-linecap: butt; stroke-dashoffset: 0; stroke-linejoin: miter; stroke-miterlimit: 4; fill: rgb(55,33,54); fill-rule: nonzero; opacity: 1;" vector-effect="non-scaling-stroke"  transform=" translate(-1912.99, -2010.68)" d="M 2117.387 1758.286 C 2118.509 1758.393 2118.188 1771.865 2117.3520000000003 1796.324 C 2116.5400000000004 1820.789 2115.722 1856.2820000000002 2115.896 1900.4550000000002 C 2116 1944.631 2117.438 1997.4840000000002 2119.09 2056.748 C 2119.8500000000004 2086.385 2120.694 2117.618 2121.005 2150.19 C 2121.1400000000003 2166.474 2121.289 2183.0860000000002 2121.11 2199.994 C 2121.0060000000003 2208.449 2121.04 2216.971 2120.813 2225.5660000000003 C 2120.523 2237.9750000000004 2120.231 2250.4800000000005 2119.937 2263.0750000000003 C 2105.344 2257.715 2090.612 2252.304 2075.754 2246.847 C 2064.526 2242.831 2053.203 2238.782 2041.7959999999998 2234.7030000000004 C 1968.3489999999997 2208.8280000000004 1897.8189999999997 2185.3840000000005 1834.091 2162.5870000000004 C 1802.155 2151.1550000000007 1772.187 2140.1730000000002 1743.819 2128.9750000000004 C 1736.634 2125.9440000000004 1729.358 2122.3720000000003 1722.924 2117.1220000000003 C 1716.4479999999999 2111.9840000000004 1711.286 2104.6400000000003 1708.704 2097.1110000000003 C 1706.011 2089.5760000000005 1705.206 2082.0980000000004 1704.905 2075.0980000000004 C 1704.627 2068.0560000000005 1704.914 2061.4710000000005 1705.032 2055.1080000000006 C 1706.214 2004.0000000000007 1707.4589999999998 1962.6440000000007 1708.696 1934.0660000000007 C 1709.934 1905.4890000000007 1711.164 1889.6910000000007 1712.317 1889.7000000000007 C 1713.47 1889.7100000000007 1714.437 1905.5260000000007 1715.198 1934.1200000000008 C 1715.959 1962.7140000000009 1716.5140000000001 2004.0860000000007 1716.844 2055.2060000000006 C 1716.9950000000001 2067.9840000000004 1716.4660000000001 2081.3090000000007 1720.7820000000002 2092.6050000000005 C 1722.928 2098.2140000000004 1726.3600000000001 2102.8650000000007 1731.3100000000002 2106.6880000000006 C 1736.2200000000003 2110.5310000000004 1742.3740000000003 2113.5030000000006 1749.0650000000003 2116.1550000000007 C 1776.8230000000003 2126.4690000000005 1807.3400000000004 2137.1170000000006 1839.1770000000004 2148.060000000001 C 1903.0070000000003 2169.9990000000007 1973.6670000000004 2192.993000000001 2047.3600000000004 2218.953000000001 C 2058.8080000000004 2223.059000000001 2070.1720000000005 2227.1350000000007 2081.4410000000003 2231.177000000001 C 2091.4300000000003 2234.7650000000012 2108.773 2241.2540000000013 2103.949 2239.481000000001 L 2103.963 2239.4350000000013 L 2103.971 2239.3970000000013 L 2103.975 2239.376000000001 L 2104.011 2238.074000000001 C 2104.128 2233.777000000001 2104.245 2229.496000000001 2104.362 2225.232000000001 C 2104.632 2216.705000000001 2104.647 2208.2290000000007 2104.8050000000003 2199.831000000001 C 2105.0930000000003 2183.034000000001 2105.077 2166.500000000001 2105.097 2150.285000000001 C 2105.096 2117.854000000001 2104.646 2086.660000000001 2104.355 2057.0270000000014 C 2103.641 1997.7590000000014 2103.44 1944.6820000000014 2104.813 1900.3190000000013 C 2106.116 1855.9570000000012 2108.6510000000003 1820.3420000000012 2111.3360000000002 1795.9110000000014 C 2114.044 1771.478 2116.393 1758.188 2117.387 1758.286 z" stroke-linecap="round" />
</g>
<g transform="matrix(0.62 0 0 0.62 583.58 870.28)"  >
<path style="stroke: none; stroke-width: 1; stroke-dasharray: none; stroke-linecap: butt; stroke-dashoffset: 0; stroke-linejoin: miter; stroke-miterlimit: 4; fill: rgb(55,33,54); fill-rule: nonzero; opacity: 1;" vector-effect="non-scaling-stroke"  transform=" translate(-2203.45, -1967.42)" d="M 1886.131 2172.44 C 1886.6650000000002 2170.9030000000002 1910.2240000000002 2177.483 1950.5330000000001 2190.132 C 1970.6870000000001 2196.457 1995.0300000000002 2204.299 2022.775 2213.402 C 2049.728 2222.361 2080.025 2232.4320000000002 2112.909 2243.362 C 2119.0480000000002 2241.0170000000003 2125.2870000000003 2238.632 2131.621 2236.212 C 2138.833 2233.531 2146.152 2230.81 2153.572 2228.052 C 2168.434 2222.603 2183.728 2217.096 2199.395 2211.547 C 2230.732 2200.466 2263.559 2189.237 2297.32 2177.755 C 2354.623 2158.283 2409.164 2139.8160000000003 2458.346 2121.962 C 2470.711 2117.416 2482.782 2113.651 2491.52 2107.473 C 2495.882 2104.3759999999997 2499.321 2100.812 2501.64 2096.499 C 2504.019 2092.1989999999996 2505.435 2087.2059999999997 2506.2349999999997 2081.968 C 2507.803 2071.5139999999997 2507.294 2060.114 2507.4999999999995 2049.2799999999997 C 2507.5969999999998 2038.4539999999997 2507.6899999999996 2028.0629999999996 2507.7799999999997 2018.1449999999998 C 2508.205 1978.4739999999997 2508.8369999999995 1946.3669999999997 2509.6519999999996 1924.1759999999997 C 2510.4659999999994 1901.9849999999997 2511.4629999999997 1889.7089999999996 2512.6159999999995 1889.6999999999998 C 2513.7689999999993 1889.691 2514.9699999999993 1901.9479999999999 2516.1539999999995 1924.1219999999998 C 2517.3379999999997 1946.2959999999998 2518.5059999999994 1978.388 2519.5919999999996 2018.0459999999998 C 2519.8459999999995 2027.9619999999998 2520.113 2038.349 2520.3899999999994 2049.172 C 2520.4859999999994 2059.959 2521.4539999999993 2071.181 2519.9519999999993 2083.896 C 2519.1509999999994 2090.1850000000004 2517.553999999999 2096.858 2514.247999999999 2103.2180000000003 C 2511.0079999999994 2109.6380000000004 2505.814999999999 2115.2120000000004 2500.129999999999 2119.3730000000005 C 2494.412999999999 2123.6000000000004 2488.202999999999 2126.6130000000003 2482.0589999999993 2129.2360000000003 C 2475.865999999999 2131.8530000000005 2469.8499999999995 2134.0350000000003 2463.702999999999 2136.3910000000005 C 2414.572999999999 2155.1270000000004 2360.014999999999 2174.0930000000008 2302.699999999999 2193.5690000000004 C 2268.952999999999 2205.0430000000006 2236.147999999999 2216.1980000000003 2204.737999999999 2226.8780000000006 C 2189.083999999999 2232.312000000001 2173.777999999999 2237.6250000000005 2158.875999999999 2242.7980000000007 C 2151.445999999999 2245.4310000000005 2144.1159999999986 2248.0280000000007 2136.893999999999 2250.587000000001 C 2128.829999999999 2253.501000000001 2120.885999999999 2256.371000000001 2113.070999999999 2259.195000000001 C 2095.432999999999 2252.851000000001 2078.487999999999 2246.756000000001 2062.337999999999 2240.947000000001 C 2047.0149999999987 2235.359000000001 2032.4469999999988 2230.047000000001 2018.728999999999 2225.045000000001 C 1991.3179999999988 2214.980000000001 1967.358999999999 2206.036000000001 1947.6259999999988 2198.499000000001 C 1908.159 2183.425 1885.597 2173.976 1886.131 2172.44 z M 2517.5 1676.413 C 2518 1678.626 2496.154 1685.752 2460.252 1694.832 C 2424.36 1703.94 2374.399 1714.8010000000002 2319.044 1725.547 C 2263.6859999999997 1736.2930000000001 2213.491 1745.296 2177.0609999999997 1751.4270000000001 C 2140.629 1757.5290000000002 2117.9039999999995 1760.5720000000001 2117.388 1758.285 C 2116.888 1756.0720000000001 2138.734 1748.9460000000001 2174.6369999999997 1739.866 C 2210.5299999999997 1730.758 2260.4919999999997 1719.896 2315.8509999999997 1709.15 C 2371.2059999999997 1698.404 2421.3989999999994 1689.402 2457.8279999999995 1683.2710000000002 C 2494.258 1677.17 2516.983 1674.127 2517.5 1676.413 z" stroke-linecap="round" />
</g>
<g transform="matrix(0.62 0 0 0.62 402.92 714.35)"  >
<path style="stroke: none; stroke-width: 1; stroke-dasharray: none; stroke-linecap: butt; stroke-dashoffset: 0; stroke-linejoin: miter; stroke-miterlimit: 4; fill: rgb(55,33,54); fill-rule: nonzero; opacity: 1;" vector-effect="non-scaling-stroke"  transform=" translate(-1910.06, -1714.19)" d="M 1702.742 1670.092 C 1703.253 1667.8200000000002 1726.839 1671.018 1764.628 1677.614 C 1802.415 1684.23 1854.441 1694.1490000000001 1911.7569999999998 1706.009 C 1969.0759999999998 1717.8700000000001 2020.7899999999997 1729.634 2057.989 1739.2160000000001 C 2095.195 1748.7790000000002 2117.89 1756.057 2117.388 1758.285 C 2116.877 1760.556 2093.2909999999997 1757.3590000000002 2055.502 1750.7620000000002 C 2017.714 1744.1460000000002 1965.687 1734.226 1908.367 1722.3660000000002 C 1851.052 1710.5060000000003 1799.339 1698.7420000000002 1762.141 1689.1600000000003 C 1724.935 1679.598 1702.24 1672.32 1702.742 1670.092 z" stroke-linecap="round" />
</g>
<g transform="matrix(0.62 0 0 0.62 674.56 684.65)"  >
<path style="stroke: none; stroke-width: 1; stroke-dasharray: none; stroke-linecap: butt; stroke-dashoffset: 0; stroke-linejoin: miter; stroke-miterlimit: 4; fill: rgb(55,33,54); fill-rule: nonzero; opacity: 1;" vector-effect="non-scaling-stroke"  transform=" translate(-2351.2, -1665.96)" d="M 2185.274 1656.224 C 2185.544 1651.619 2260.051 1652.2459999999999 2351.685 1657.6229999999998 C 2443.324 1663.0009999999997 2517.393 1671.0939999999998 2517.123 1675.6989999999998 C 2516.853 1680.3029999999999 2442.346 1679.677 2350.706 1674.3 C 2259.073 1668.922 2185.004 1660.828 2185.274 1656.224 z" stroke-linecap="round" />
</g>
<g transform="matrix(0.62 0 0 0.62 523.69 783.99)"  >
<path style="stroke: none; stroke-width: 1; stroke-dasharray: none; stroke-linecap: butt; stroke-dashoffset: 0; stroke-linejoin: miter; stroke-miterlimit: 4; fill: rgb(255,255,255); fill-rule: nonzero; opacity: 1;" vector-effect="non-scaling-stroke"  transform=" translate(-2106.19, -1827.28)" d="M 1877.148 1898.877 C 1875.9209999999998 1901.935 1815.08 1880.405 1741.259 1850.79 C 1732.047 1847.05 1723.053 1843.398 1714.364 1839.87 C 1710.049 1838.0849999999998 1705.357 1836.216 1700.931 1833.1299999999999 C 1696.47 1830.1219999999998 1692.583 1825.434 1690.834 1820.2279999999998 C 1688.9850000000001 1815.0209999999997 1688.992 1809.704 1689.8300000000002 1805.07 C 1690.679 1800.399 1692.304 1796.254 1694.198 1792.519 C 1697.9250000000002 1785.111 1703.218 1779.034 1707.8100000000002 1774.508 C 1717.1270000000002 1765.275 1723.957 1757.941 1727.1680000000001 1751.7930000000001 C 1730.488 1745.757 1730.986 1741.6930000000002 1731.931 1741.7540000000001 C 1732.606 1741.7130000000002 1733.7920000000001 1746.103 1731.44 1753.6170000000002 C 1729.232 1761.1650000000002 1722.473 1770.352 1714.077 1780.1580000000001 C 1711.984 1782.6850000000002 1709.891 1785.1770000000001 1708.087 1787.8870000000002 C 1706.242 1790.6200000000001 1704.533 1793.5990000000002 1703.1299999999999 1796.776 C 1700.322 1803.0430000000001 1698.772 1810.547 1701.1339999999998 1816.381 C 1703.2319999999997 1822.393 1709.8609999999999 1825.7340000000002 1718.7169999999999 1829.0210000000002 C 1727.434 1832.476 1736.4589999999998 1836.053 1745.7019999999998 1839.7160000000001 C 1819.522 1869.331 1878.374 1895.82 1877.148 1898.877 z M 2314.449 1913.594 C 2313.3630000000003 1910.483 2379.285 1884.6480000000001 2461.686 1855.891 C 2471.952 1852.336 2481.656 1848.813 2489.915 1844.017 C 2498.197 1839.3010000000002 2504.717 1833.1090000000002 2508.395 1825.759 C 2512.14 1818.416 2513.299 1810.115 2512.911 1802.397 C 2512.525 1794.62 2510.675 1787.465 2508.242 1781.108 C 2503.28 1768.366 2496.829 1758.76 2492.742 1751.952 C 2488.54 1745.169 2486.3920000000003 1741.21 2487.058 1740.701 C 2487.701 1740.209 2491.062 1743.171 2496.465 1749.1770000000001 C 2501.7470000000003 1755.2430000000002 2509.4900000000002 1764.267 2516.002 1777.7980000000002 C 2519.195 1784.5570000000002 2521.87 1792.6250000000002 2522.776 1801.6450000000002 C 2523.678 1810.6170000000002 2522.8309999999997 1820.832 2518.281 1830.5700000000002 C 2513.7889999999998 1840.3840000000002 2505.353 1848.5180000000003 2495.873 1854.0750000000003 C 2486.381 1859.7690000000002 2475.933 1863.5700000000002 2465.617 1867.1580000000004 C 2383.217 1895.914 2315.534 1916.705 2314.449 1913.594 z" stroke-linecap="round" />
</g>
<g transform="matrix(0.62 0 0 0.62 460.13 353.83)"  >
<path style="stroke: none; stroke-width: 1; stroke-dasharray: none; stroke-linecap: butt; stroke-dashoffset: 0; stroke-linejoin: miter; stroke-miterlimit: 4; fill: rgb(55,33,54); fill-rule: nonzero; opacity: 1;" vector-effect="non-scaling-stroke"  transform=" translate(-2002.97, -1128.7)" d="M 2007.768 1217.804 C 2005.963 1218.133 1998.111 1178.4840000000002 1997.664 1128.8020000000001 C 1997.039 1079.1190000000001 2004.0339999999999 1039.3100000000002 2005.846 1039.6000000000001 C 2007.95 1039.8490000000002 2004.198 1079.623 2004.823 1128.7250000000001 C 2005.257 1177.825 2009.866 1217.509 2007.768 1217.804 z" stroke-linecap="round" />
</g>
<g transform="matrix(0.62 0 0 0.62 402.97 439.85)"  >
<path style="stroke: none; stroke-width: 1; stroke-dasharray: none; stroke-linecap: butt; stroke-dashoffset: 0; stroke-linejoin: miter; stroke-miterlimit: 4; fill: rgb(55,33,54); fill-rule: nonzero; opacity: 1;" vector-effect="non-scaling-stroke"  transform=" translate(-1910.13, -1268.4)" d="M 1899.163 1331.369 C 1897.247 1331.547 1892.98 1300.038 1893.297 1260.907 C 1893.419 1251.204 1893.386 1241.711 1895.281 1232.946 C 1896.231 1228.5919999999999 1897.663 1224.4959999999999 1899.581 1220.918 C 1901.5559999999998 1217.2959999999998 1903.9879999999998 1214.319 1906.589 1212.0369999999998 C 1911.7649999999999 1207.3859999999997 1917.434 1205.6159999999998 1921.2379999999998 1205.446 C 1925.1069999999997 1205.311 1927.061 1206.2849999999999 1926.9859999999999 1206.696 C 1926.9219999999998 1207.2479999999998 1924.908 1207.278 1921.694 1208.194 C 1918.513 1209.143 1914.095 1211.2939999999999 1910.126 1215.658 C 1906.061 1219.915 1903.061 1226.3159999999998 1901.754 1234.215 C 1900.387 1242.0529999999999 1900.5649999999998 1251.224 1900.456 1260.955 C 1900.14 1299.719 1901.186 1331.207 1899.163 1331.369 z" stroke-linecap="round" />
</g>
<g transform="matrix(0.62 0 0 0.62 651.46 453.51)"  >
<path style="stroke: none; stroke-width: 1; stroke-dasharray: none; stroke-linecap: butt; stroke-dashoffset: 0; stroke-linejoin: miter; stroke-miterlimit: 4; fill: rgb(55,33,54); fill-rule: nonzero; opacity: 1;" vector-effect="non-scaling-stroke"  transform=" translate(-2313.68, -1290.59)" d="M 2331.363 1361.221 C 2330.3529999999996 1361.144 2330.2839999999997 1352.075 2330.5969999999998 1337.543 C 2330.801 1323.031 2331.4739999999997 1302.982 2328.819 1281.2949999999998 C 2327.467 1270.475 2325.5009999999997 1260.196 2322.394 1251.5349999999999 C 2319.2839999999997 1242.8509999999999 2314.79 1235.8659999999998 2309.736 1231.2399999999998 C 2304.7419999999997 1226.5019999999997 2299.566 1224.0959999999998 2295.892 1222.8329999999999 C 2292.183 1221.6009999999999 2289.9159999999997 1221.322 2289.919 1220.771 C 2289.902 1220.3429999999998 2292.218 1219.645 2296.499 1220.114 C 2300.718 1220.616 2306.926 1222.56 2313.02 1227.388 C 2319.2019999999998 1232.0919999999999 2324.835 1239.839 2328.553 1249.172 C 2332.304 1258.545 2334.513 1269.195 2335.924 1280.414 C 2338.671 1302.939 2337.144 1323.342 2335.65 1337.863 C 2334.037 1352.41 2332.325 1361.294 2331.363 1361.221 z" stroke-linecap="round" />
</g>
</svg>