<svg width="120" height="120" viewBox="0 0 120 120" fill="none" xmlns="http://www.w3.org/2000/svg">
<path fill-rule="evenodd" clip-rule="evenodd" d="M18.378 100.228H20.3026V101.583C20.3026 105.127 23.1581 108 26.6806 108H101.622C105.144 108 108 105.127 108 101.583V26.1884C108 22.6447 105.144 19.7719 101.622 19.7719H99.6974V18.4166C99.6974 14.8728 96.8419 12 93.3194 12H18.378C14.8555 12 12 14.8728 12 18.4166V93.8116C12 97.3553 14.8555 100.228 18.378 100.228ZM93.3194 13.6041H18.378C15.7361 13.6041 13.5945 15.7588 13.5945 18.4166V93.8116C13.5945 96.4694 15.7361 98.624 18.378 98.624H19.9725V95.8546C19.9725 95.8546 19.9725 94.5258 19.9725 93.8116V26.4373C19.9725 24.2611 21.0494 22.3378 22.6963 21.1776C23.7879 20.298 25.1732 19.7719 26.6806 19.7719H98.1029V18.4166C98.1029 15.7588 95.9613 13.6041 93.3194 13.6041ZM99.6974 93.8116C99.6974 97.3553 96.8419 100.228 93.3194 100.228H21.8971V101.583C21.8971 104.241 24.0387 106.396 26.6806 106.396H101.622C104.264 106.396 106.406 104.241 106.406 101.583V26.1884C106.406 23.5306 104.264 21.376 101.622 21.376H99.6974V93.8116Z" fill="url(#paint0_linear_213_9)"/>
<path d="M46.9555 50.9514C47.7924 50.9514 48.4708 50.2689 48.4708 49.4269C48.4708 48.585 47.7924 47.9024 46.9555 47.9024C46.1186 47.9024 45.4402 48.585 45.4402 49.4269C45.4402 50.2689 46.1186 50.9514 46.9555 50.9514Z" fill="white"/>
<path d="M51.8133 50.9514C52.6502 50.9514 53.3286 50.2689 53.3286 49.4269C53.3286 48.585 52.6502 47.9024 51.8133 47.9024C50.9764 47.9024 50.2979 48.585 50.2979 49.4269C50.2979 50.2689 50.9764 50.9514 51.8133 50.9514Z" fill="white"/>
<path d="M56.6638 50.9514C57.5007 50.9514 58.1791 50.2689 58.1791 49.4269C58.1791 48.585 57.5007 47.9024 56.6638 47.9024C55.8269 47.9024 55.1485 48.585 55.1485 49.4269C55.1485 50.2689 55.8269 50.9514 56.6638 50.9514Z" fill="white"/>
<path d="M77.0519 44H42.25L40.7999 45.4589V74.5411L42.25 76H77.0519L78.502 74.5411V45.4589L77.0519 44ZM75.6018 46.9177V51.9362H43.7001V46.9177H75.6018ZM43.7001 73.0823V54.8466H75.6018V73.0823H43.7001Z" fill="white"/>
<path d="M57.4541 66.036L53.4519 61.8345L51.3565 63.8477L57.4178 70.2229L67.9382 59.5222L65.8791 57.4725L57.4541 66.036Z" fill="white"/>
<defs>
<linearGradient id="paint0_linear_213_9" x1="12" y1="12" x2="108" y2="108" gradientUnits="userSpaceOnUse">
<stop stop-color="#FFD43C"/>
<stop offset="0.637207" stop-color="#FF6633"/>
<stop offset="1" stop-color="#CE2F55"/>
</linearGradient>
</defs>
</svg>
