<svg xmlns="http://www.w3.org/2000/svg" enable-background="new 0 0 3000 3000" id="StartupAdvertising" viewBox="61.64 781.44 2690.37 2223.12">
  <path fill="#ffffff" d="M 2046.82 2986.359 L 836.724 2986.359 C 833.286 2958.189 835.141 2928.575 847.692 2903.288 C 854.294 2889.868 864.334 2877.889 876.394 2869.294 C 887.144 2861.641 899.476 2856.707 912.573 2855.875 C 937.674 2854.267 961.957 2867.52 979.473 2885.82 C 996.99 2904.064 1008.885 2927.078 1020.236 2949.87 L 997.481 2897.742 C 1006.048 2863.028 1037.588 2836.52 1072.348 2830.752 C 1107.052 2824.929 1143.504 2838.294 1169.424 2862.528 C 1187.103 2878.998 1200.091 2900.071 1208.549 2922.974 L 1199.873 2891.032 C 1221.973 2846.391 1278.123 2822.656 1324.833 2838.239 L 1484.826 2860.144 C 1504.961 2837.518 1525.424 2814.727 1550.58 2797.98 C 1575.68 2781.287 1606.294 2771.084 1635.869 2776.352 C 1666.209 2781.843 1692.183 2803.138 1709.099 2829.312 L 1699.823 2837.464 C 1737.802 2821.493 1783.367 2821.327 1818.454 2843.009 C 1833.133 2852.048 1845.465 2865.136 1853.977 2880.331 L 1852.995 2873.454 C 1858.888 2838.74 1893.867 2813.673 1928.571 2813.73 C 1946.579 2813.784 1963.931 2819.552 1979.21 2829.202 C 1993.452 2838.075 2005.948 2850.329 2015.443 2864.248 C 2035.196 2893.194 2043.818 2951.2 2046.82 2986.359 Z" class="colorffffff svgShape" style=""/>
  <path fill="#d8d8d8" d="M 2046.82 2986.359 L 836.724 2986.359 C 833.286 2958.189 835.141 2928.575 847.692 2903.288 C 854.294 2889.868 864.334 2877.889 876.394 2869.294 C 884.907 2883.324 893.802 2897.077 905.097 2908.556 C 945.749 2949.647 1009.158 2953.695 1066.508 2954.416 C 1319.865 2957.577 1573.115 2944.656 1826.145 2931.791 C 1871.328 2929.462 1921.203 2925.081 1952.416 2891.808 C 1968.568 2874.617 1976.699 2852.657 1979.209 2829.2 C 1993.45 2838.073 2005.947 2850.328 2015.441 2864.247 C 2035.196 2893.194 2043.818 2951.2 2046.82 2986.359 Z" class="colord8d8d8 svgShape" style=""/>
  <path fill="#2a2137" d="M 1020.254 2949.859 C 1018.449 2950.796 1014.738 2947.618 1009.501 2941.249 C 1004.24 2934.915 997.511 2925.329 988.845 2914.502 C 980.119 2903.742 969.378 2891.771 955.278 2882.888 C 941.287 2873.925 923.867 2868.151 907.21 2871.596 C 890.34 2874.854 875.442 2886.441 865.61 2899.476 C 855.703 2912.425 850.281 2927.653 847.035 2940.714 C 843.778 2953.914 842.529 2965.337 841.235 2973.343 C 839.993 2981.369 838.74 2986.082 836.695 2986.338 C 834.734 2986.587 832.156 2982.345 829.871 2974.056 C 827.663 2965.78 825.645 2953.386 826.577 2937.624 C 827.604 2921.986 831.504 2902.583 843.555 2883.737 C 849.469 2874.442 857.299 2865.658 866.993 2858.257 C 876.688 2850.925 888.444 2844.962 901.658 2842.415 C 914.903 2839.648 928.321 2841.055 940.008 2844.545 C 951.727 2848.166 961.944 2853.817 970.543 2860.324 C 987.943 2873.417 998.747 2889.474 1006.026 2902.81 C 1013.274 2916.349 1017.346 2927.78 1019.586 2935.892 C 1021.784 2944.018 1022.045 2948.929 1020.254 2949.859 Z" class="color212237 svgShape" style=""/>
  <path fill="#2a2137" d="M 1217.5 2955.938 C 1213.214 2956.769 1207.843 2939.351 1194.329 2915.521 C 1187.464 2903.727 1178.387 2890.412 1166.047 2878.364 C 1153.882 2866.291 1138.059 2855.882 1119.821 2849.57 C 1101.623 2843.409 1083.027 2842.298 1067.27 2845.873 C 1051.368 2849.369 1037.859 2857.032 1027.876 2865.106 C 1007.687 2881.559 1001.814 2898.955 997.492 2897.737 C 995.689 2897.307 994.541 2892.269 996.258 2883.512 C 997.941 2874.817 1003.009 2862.513 1013.374 2850.124 C 1023.742 2837.914 1039.593 2825.788 1060.404 2819.389 C 1081.226 2812.871 1105.904 2813.485 1129.129 2821.392 C 1152.326 2829.366 1171.833 2843.523 1185.544 2859.457 C 1199.378 2875.301 1207.914 2892.21 1213.108 2906.716 C 1218.197 2921.335 1220.132 2933.642 1220.408 2942.195 C 1220.68 2950.767 1219.42 2955.592 1217.5 2955.938 Z" class="color212237 svgShape" style=""/>
  <path fill="#2a2137" d="M 1324.852 2838.219 C 1323.486 2842.296 1314.914 2842.859 1302.913 2844.414 C 1299.894 2844.817 1296.663 2845.169 1293.224 2845.885 C 1289.791 2846.315 1286.192 2847.309 1282.43 2848.048 C 1274.945 2849.961 1266.92 2852.412 1258.748 2855.779 C 1250.637 2859.296 1243.267 2863.351 1236.655 2867.398 C 1233.488 2869.588 1230.256 2871.482 1227.536 2873.653 C 1224.612 2875.627 1222.088 2877.707 1219.679 2879.599 C 1210.132 2887.154 1203.696 2892.934 1199.888 2891.045 C 1196.453 2889.427 1196.464 2879.54 1203.759 2866.184 C 1205.594 2862.888 1207.795 2859.357 1210.641 2855.972 C 1213.299 2852.372 1216.697 2849.105 1220.301 2845.63 C 1227.751 2839.032 1236.967 2832.876 1247.515 2828.335 C 1258.12 2823.934 1268.913 2821.634 1278.769 2820.915 C 1283.735 2820.768 1288.411 2820.621 1292.796 2821.244 C 1297.166 2821.58 1301.181 2822.483 1304.774 2823.485 C 1319.237 2827.641 1326.145 2834.603 1324.852 2838.219 Z M 1709.112 2829.292 C 1705.494 2831.787 1695.146 2819.957 1676.072 2807.268 C 1666.533 2801.07 1654.704 2794.8 1641.099 2791.68 C 1627.618 2788.459 1612.162 2788.784 1596.121 2793.096 C 1563.771 2801.729 1538.239 2822.87 1519.393 2838.021 C 1500.609 2853.517 1487.853 2863.025 1484.807 2860.142 C 1481.947 2857.439 1488.939 2843.285 1504.796 2823.132 C 1512.828 2813.147 1523.312 2801.672 1537.104 2790.769 C 1550.869 2779.844 1568.333 2769.842 1588.701 2764.344 C 1598.896 2761.664 1609.317 2760.253 1619.496 2760.422 C 1629.665 2760.609 1639.569 2762.363 1648.455 2765.332 C 1666.314 2771.283 1679.766 2781.465 1689.221 2791.047 C 1698.678 2800.774 1704.38 2810.068 1707.375 2816.912 C 1710.381 2823.78 1710.739 2828.213 1709.112 2829.292 Z" class="color212237 svgShape" style=""/>
  <path fill="#2a2137" d="M 1864.111 2950.131 C 1863.138 2949.857 1862.47 2948.312 1862.06 2945.751 C 1861.828 2944.465 1861.777 2942.947 1861.582 2941.164 C 1861.339 2939.371 1861.134 2937.347 1860.975 2935.12 C 1860.091 2926.192 1857.785 2913.621 1851.469 2899.74 C 1845.095 2885.99 1834.28 2870.899 1818.592 2859.705 C 1803.083 2848.507 1781.924 2841.657 1759.2 2840.984 C 1736.334 2840.435 1714.507 2845.7 1696.115 2854.264 C 1677.539 2862.727 1662.09 2873.815 1649.641 2883.984 C 1624.908 2904.702 1611.417 2921.012 1607.815 2918.456 C 1606.194 2917.343 1607.392 2911.804 1611.74 2902.986 C 1616.089 2894.185 1623.684 2882.128 1635.339 2868.802 C 1647.065 2855.634 1663.074 2841.137 1684.208 2829.695 C 1705.236 2818.109 1731.787 2810.542 1760.016 2811.272 C 1788.237 2812.077 1815.294 2821.625 1834.88 2837.884 C 1854.472 2854.037 1865.772 2874.521 1870.883 2892.492 C 1875.925 2910.662 1875.032 2926.232 1872.317 2936.129 C 1871.575 2938.613 1870.853 2940.775 1870.162 2942.61 C 1869.421 2944.437 1868.526 2945.905 1867.809 2947.069 C 1866.32 2949.389 1865.084 2950.405 1864.111 2950.131 Z" class="color212237 svgShape" style=""/>
  <path fill="#2a2137" d="M 2046.823 2986.335 C 2042.653 2986.715 2038.026 2968.123 2030.13 2939.224 C 2026.079 2924.893 2021.299 2907.68 2013.816 2890.707 C 2011.956 2886.482 2009.878 2882.338 2007.595 2878.435 C 2006.515 2876.386 2005.181 2874.741 2004.009 2872.83 C 2002.633 2870.967 2001.174 2868.997 1999.662 2867.125 C 1993.514 2859.652 1986.418 2852.467 1978.25 2846.473 C 1962.042 2834.292 1943.632 2827.738 1926.989 2827.5 C 1910.594 2827.175 1895.395 2833.096 1884.493 2840.376 C 1873.352 2847.639 1866.44 2856.425 1861.889 2862.877 C 1857.506 2869.448 1855.151 2873.818 1853.005 2873.442 C 1851.199 2873.166 1849.653 2867.939 1851.345 2858.516 C 1853.192 2849.336 1858.955 2835.89 1871.505 2824.02 C 1883.818 2812.209 1902.721 2801.578 1926.355 2800.12 C 1949.573 2798.639 1974.888 2806.92 1995.556 2822.511 C 2006.005 2830.21 2014.793 2839.412 2022.163 2849.095 C 2023.996 2851.544 2025.679 2854.004 2027.369 2856.546 C 2028.94 2859.257 2030.74 2861.943 2032.002 2864.628 C 2034.755 2869.991 2036.961 2875.272 2038.797 2880.431 C 2046.078 2901.074 2048.811 2919.715 2050.458 2935.361 C 2053.391 2966.676 2050.685 2986.014 2046.823 2986.335 Z" class="color212237 svgShape" style=""/>
  <path fill="#ffffff" d="M 1592.106 2696.165 L 1591.069 2692.837 C 1590.415 2695.998 1589.541 2699.103 1588.559 2702.154 C 1577.863 2735.316 1554.072 2762.1 1532.135 2788.94 C 1488.045 2842.841 1442.808 2901.735 1413.342 2965.064 C 1412.687 2964.454 1411.978 2963.899 1411.323 2963.234 C 1410.231 2962.348 1409.14 2961.405 1408.103 2960.406 C 1346.279 2904.618 1306.88 2824.653 1297.058 2741.36 L 1296.622 2756 C 1246.037 2712.469 1209.859 2651.967 1195.125 2586.365 C 1180.338 2520.707 1187.103 2450.28 1214.061 2388.726 L 1251.494 2390.445 L 1559.529 2404.585 L 1595.108 2406.249 C 1612.842 2454.106 1630.686 2502.74 1634.669 2553.703 C 1638.597 2604.665 1626.866 2659.177 1592.106 2696.165 Z" class="colorffffff svgShape" style=""/>
  <path fill="#d8d8d8" d="M 1319.267 2592.521 C 1351.463 2714.466 1383.657 2836.576 1408.103 2960.406 C 1346.279 2904.618 1306.88 2824.653 1297.058 2741.36 L 1296.622 2756 C 1246.037 2712.469 1209.859 2651.967 1195.125 2586.365 C 1180.338 2520.707 1187.103 2450.28 1214.061 2388.726 L 1251.494 2390.445 C 1254.496 2395.99 1256.842 2401.869 1258.479 2407.579 C 1281.125 2486.324 1247.838 2573.277 1270.648 2651.911 C 1289.528 2634.61 1305.952 2614.535 1319.267 2592.521 Z M 1592.106 2696.165 L 1591.069 2692.837 C 1590.415 2695.998 1589.541 2699.103 1588.559 2702.154 C 1577.863 2735.316 1554.072 2762.1 1532.135 2788.94 C 1488.045 2842.841 1442.808 2901.735 1413.342 2965.064 C 1412.687 2964.454 1411.978 2963.899 1411.323 2963.234 C 1409.523 2903.121 1427.039 2842.565 1460.816 2793.211 C 1484.007 2759.327 1514.401 2730.768 1535.956 2695.776 C 1557.509 2660.785 1569.296 2615.257 1551.071 2578.324 C 1574.809 2577.714 1598.054 2594.35 1605.475 2617.308 C 1597.126 2591.356 1597.836 2558.97 1592.651 2531.908 C 1587.031 2502.683 1580.21 2473.737 1572.133 2445.177 C 1569.132 2434.419 1561.493 2418.836 1559.528 2404.584 L 1595.106 2406.248 C 1612.841 2454.105 1630.685 2502.739 1634.668 2553.701 C 1638.597 2604.665 1626.866 2659.177 1592.106 2696.165 Z" class="colord8d8d8 svgShape" style=""/>
  <path fill="#ffffff" d="M 1649.402 2288.962 C 1646.892 2323.122 1644.6 2360.887 1621.463 2385.786 C 1585.175 2424.771 1520.349 2430.206 1464.472 2417.451 L 1354.245 2414.623 C 1299.623 2415.288 1247.292 2429.928 1209.968 2385.786 C 1187.977 2359.778 1184.539 2323.122 1182.029 2288.962 C 1180.883 2273.324 1179.737 2258.018 1178.591 2243.046 C 1160.857 2007.364 1144.486 1848.875 1152.181 1602.158 C 1156.818 1454.982 1170.133 1307.139 1209.477 1165.398 C 1213.733 1150.036 1218.317 1134.787 1223.228 1119.592 C 1263.553 994.597 1326.034 876.201 1415.689 781.652 C 1505.344 876.201 1567.878 994.598 1608.204 1119.592 C 1613.115 1134.786 1617.699 1150.036 1621.956 1165.398 C 1629.268 1191.849 1635.706 1218.467 1641.382 1245.308 C 1649.348 1283.405 1655.788 1321.891 1660.917 1360.542 L 1680.999 1689.776 C 1683.016 1903.608 1666.209 2057.55 1649.402 2288.962 Z" class="colorffffff svgShape" style=""/>
  <path fill="#d8d8d8" d="M 1645.035 2288.962 C 1642.525 2323.122 1640.233 2360.887 1617.096 2385.786 C 1580.808 2424.771 1515.982 2430.206 1460.105 2417.451 L 1349.878 2414.623 C 1295.256 2415.288 1242.925 2429.928 1205.601 2385.786 C 1183.61 2359.778 1180.172 2323.122 1177.662 2288.962 C 1176.516 2273.324 1175.37 2258.018 1174.224 2243.046 C 1226.282 2262.733 1283.305 2268.999 1338.201 2260.182 C 1420.706 2246.928 1497.539 2199.792 1547.413 2131.638 C 1609.075 2047.458 1627.464 1939.1 1638.323 1834.735 C 1649.509 1726.432 1654.475 1617.464 1653.056 1508.551 C 1651.91 1420.655 1646.562 1332.705 1637.012 1245.308 C 1644.979 1283.405 1651.418 1321.891 1656.548 1360.542 L 1676.629 1689.776 C 1678.649 1903.608 1661.842 2057.55 1645.035 2288.962 Z" class="colord8d8d8 svgShape" style=""/>
  <path fill="#6929c2" d="M 1417.571 1275.583 C 1367.846 1274.164 1319.017 1307.8 1301.9 1355.266 C 1284.783 1402.732 1300.66 1460.469 1339.512 1492.039 C 1378.364 1523.61 1437.278 1526.648 1479.074 1499.236 C 1520.871 1471.824 1542.417 1416.018 1530.114 1367.035 C 1517.813 1318.052 1472.585 1279.565 1422.974 1275.862 M 1608.203 1119.592 L 1226.103 1128.323 C 1266.429 1003.328 1326.034 876.203 1415.689 781.652 C 1505.344 876.201 1567.878 994.597 1608.203 1119.592 Z M 1669.298 1908.222 C 1727.54 1925.83 1791.777 1948.262 1819.939 2002.982 C 1835.107 2032.455 1837.09 2066.884 1838.248 2100.124 C 1842.979 2235.89 1839.104 2371.966 1826.663 2507.228 C 1825.805 2516.551 1812.794 2517.617 1810.47 2508.556 C 1786.162 2413.766 1724.219 2311.516 1652.493 2246.003 M 1152.227 1908.222 C 1093.985 1925.83 1029.748 1948.262 1001.586 2002.982 C 986.418 2032.455 984.436 2066.884 983.276 2100.124 C 978.545 2235.89 982.421 2371.966 994.862 2507.228 C 995.72 2516.551 1008.731 2517.617 1011.055 2508.556 C 1035.362 2413.766 1097.306 2311.516 1169.032 2246.003" class="color60baf6 svgShape" style=""/>
  <path fill="#2a2137" d="M 1415.687 781.651 C 1417.359 783.27 1400.562 802.432 1373.683 839.415 C 1347.103 876.543 1311.133 932.376 1278.074 1007.145 C 1245.005 1081.806 1215.453 1175.206 1196.614 1281.964 C 1177.455 1388.69 1168.725 1508.204 1165.999 1634.001 C 1162.8 1759.831 1166.415 1879.611 1173.066 1988.625 C 1179.623 2097.636 1187.065 2196.013 1191.639 2278.72 C 1192.813 2299.46 1193.775 2318.681 1197.261 2336.009 C 1200.645 2353.303 1206.686 2368.548 1215.915 2380.043 C 1225.238 2391.835 1236.722 2399.811 1248.622 2404.483 C 1260.543 2409.203 1272.696 2410.836 1283.724 2411.581 C 1305.901 2412.808 1323.768 2411.795 1335.814 2412.291 C 1347.894 2412.59 1354.245 2413.669 1354.244 2414.62 C 1354.249 2415.72 1347.991 2416.646 1336.119 2418.273 C 1324.214 2419.695 1306.806 2422.598 1283.411 2423.146 C 1271.748 2423.249 1258.308 2422.495 1244.016 2417.854 C 1229.783 2413.314 1215.062 2404.203 1203.455 2390.803 C 1191.461 2377.274 1183.583 2359.18 1179.11 2340.152 C 1174.506 2321.046 1172.853 2300.784 1171.016 2280.284 C 1163.809 2197.861 1154.244 2099.837 1146.176 1990.439 C 1138.014 1881.08 1133.532 1760.053 1136.76 1633.286 C 1139.504 1506.618 1149.137 1385.375 1170.13 1276.896 C 1190.782 1168.389 1223.128 1073.334 1259.352 998.216 C 1295.57 922.931 1335.011 867.693 1364.752 832.238 C 1394.829 796.9 1414.469 780.415 1415.687 781.651 Z" class="color212237 svgShape" style=""/>
  <path fill="#6929c2" d="M 1377.222 1932.721 C 1370.196 2069.337 1363.171 2205.953 1356.146 2342.57 C 1353.261 2398.661 1350.627 2456.556 1369.639 2509.296 C 1374.312 2522.259 1380.45 2535.032 1390.202 2544.644 C 1399.954 2554.256 1413.87 2560.306 1427.229 2557.804 C 1442.72 2554.903 1454.498 2541.141 1459.778 2526.059 C 1465.059 2510.977 1465.009 2494.587 1464.898 2478.58 C 1463.706 2305.836 1462.514 2133.092 1461.322 1960.348 C 1461.185 1940.457 1460.898 1919.854 1452.639 1901.82 C 1444.38 1883.786 1425.79 1869.017 1406.438 1871.999 C 1390.284 1874.487 1377.773 1888.646 1372.214 1904.259 C 1366.654 1919.872 1366.761 1936.893 1366.933 1953.496 C 1367.775 2034.702 1368.617 2115.908 1369.459 2197.114" class="color60baf6 svgShape" style=""/>
  <path fill="#2a2137" d="M 1464.477 2417.471 C 1464.95 2415.178 1479.09 2417.501 1504.221 2417.354 C 1516.745 2417.212 1532.061 2416.347 1549.126 2412.796 C 1557.578 2410.777 1566.549 2408.426 1575.447 2404.636 C 1584.318 2400.85 1593.236 2396.007 1601.45 2389.608 C 1603.427 2387.932 1605.427 2386.236 1607.451 2384.521 C 1609.285 2382.628 1611.14 2380.712 1613.015 2378.776 C 1616.423 2374.831 1619.543 2370.653 1622.069 2365.764 C 1627.238 2356.123 1630.523 2344.567 1632.598 2331.949 C 1634.632 2319.274 1635.525 2305.618 1636.33 2291.064 C 1637.167 2276.503 1638.03 2261.518 1638.913 2246.151 C 1642.395 2184.692 1646.223 2117.128 1650.241 2046.207 C 1657.969 1904.37 1663.63 1775.962 1666.471 1682.977 C 1669.738 1589.994 1670.244 1532.381 1674.503 1532.178 C 1678.308 1531.972 1685.126 1589.589 1687.152 1683.066 C 1689.604 1776.524 1687.194 1905.625 1679.443 2047.845 C 1675.59 2118.954 1670.836 2186.617 1665.794 2248.092 C 1664.487 2263.456 1663.212 2278.44 1661.975 2292.999 C 1660.71 2307.552 1659.294 2322.193 1656.434 2336.484 C 1653.517 2350.752 1649.022 2364.845 1641.595 2377.261 C 1637.982 2383.478 1633.394 2389.116 1628.602 2394.043 C 1626.139 2396.32 1623.704 2398.572 1621.294 2400.797 C 1618.698 2402.76 1616.132 2404.7 1613.596 2406.617 C 1592.593 2421.039 1570.589 2426.652 1551.796 2429.191 C 1532.838 2431.444 1516.568 2430.562 1503.526 2428.902 C 1477.39 2425.393 1464.06 2419.159 1464.477 2417.471 Z M 1415.687 781.651 C 1418.248 779.014 1446.762 801.442 1483.591 846.988 C 1501.919 869.746 1522.115 898.296 1541.759 931.747 C 1561.331 965.227 1580.233 1003.616 1596.953 1045.17 C 1605.089 1066.032 1612.711 1086.543 1619.014 1106.687 C 1622.42 1116.677 1625.009 1126.729 1627.871 1136.466 C 1630.612 1146.239 1633.44 1155.766 1635.864 1165.143 C 1645.381 1202.704 1651.809 1236.993 1656.054 1265.909 C 1664.428 1323.799 1664.746 1360.039 1660.916 1360.542 C 1656.744 1361.115 1649.172 1325.958 1635.761 1269.965 C 1629.001 1241.982 1620.619 1208.816 1609.903 1172.492 C 1607.18 1163.427 1604.107 1154.238 1601.166 1144.79 C 1598.105 1135.382 1595.365 1125.65 1591.862 1115.987 C 1585.359 1096.481 1577.758 1076.631 1569.857 1056.359 C 1553.614 1016.002 1536.044 978.488 1518.34 945.297 C 1500.565 912.145 1482.762 883.297 1467.013 859.551 C 1435.422 812.105 1412.509 784.765 1415.687 781.651 Z" class="color212237 svgShape" style=""/>
  <path fill="#2a2137" d="M 1602.504 1119.598 C 1602.688 1127.804 1518.577 1136.409 1414.641 1138.818 C 1310.698 1141.227 1226.289 1136.527 1226.103 1128.322 C 1225.92 1120.116 1310.031 1111.511 1413.974 1109.102 C 1517.91 1106.693 1602.32 1111.394 1602.504 1119.598 Z M 1422.974 1275.862 C 1422.993 1274.184 1434.05 1271.76 1453.514 1276.533 C 1463.193 1278.907 1474.72 1283.525 1486.903 1291.202 C 1499.097 1298.836 1511.632 1310.04 1522.55 1325.066 C 1533.319 1340.056 1542.201 1359.566 1544.925 1381.896 C 1547.734 1404.085 1544.852 1428.546 1535.1 1451.673 C 1525.506 1474.729 1509.074 1496.903 1485.764 1512.117 C 1462.523 1527.313 1433.786 1534.401 1405.115 1532.4 C 1376.446 1530.459 1348.851 1519.435 1327.918 1501.083 C 1306.984 1482.748 1293.522 1458.653 1287.097 1434.458 C 1280.736 1410.183 1280.768 1385.533 1286.717 1363.914 C 1289.694 1353.21 1293.815 1342.873 1299.328 1334.08 C 1304.815 1325.318 1310.834 1317.473 1317.51 1311.069 C 1330.556 1297.896 1344.807 1289.259 1357.78 1283.381 C 1370.821 1277.548 1382.743 1274.511 1392.57 1273.205 C 1412.365 1270.75 1423.118 1274.149 1422.974 1275.862 C 1422.933 1278.208 1412.375 1278.899 1395.047 1284.498 C 1386.414 1287.353 1376.15 1291.662 1365.213 1298.185 C 1354.341 1304.731 1342.638 1313.519 1332.535 1325.514 C 1322.259 1337.42 1313.903 1352.167 1310.261 1369.837 C 1306.374 1387.417 1307.224 1407.409 1312.991 1426.863 C 1318.811 1446.28 1330.175 1465.112 1346.44 1478.864 C 1362.617 1492.611 1384.264 1501.195 1407.08 1502.742 C 1429.884 1504.349 1452.55 1498.83 1470.474 1487.491 C 1488.473 1476.19 1502.077 1459.017 1510.445 1440.619 C 1518.974 1422.186 1522.13 1402.418 1520.805 1384.449 C 1519.567 1366.439 1513.489 1350.208 1505.4 1336.808 C 1497.199 1323.457 1487.364 1312.684 1477.477 1304.78 C 1467.612 1296.826 1458.025 1291.207 1449.78 1287.461 C 1433.266 1279.892 1422.763 1278.233 1422.974 1275.862 Z M 1652.492 2246.002 C 1653.693 2244.609 1665.884 2252.458 1684.94 2270.383 C 1703.773 2288.428 1729.441 2316.694 1755.174 2356.161 C 1768.038 2375.868 1780.998 2398.286 1792.941 2423.456 C 1796.019 2429.704 1798.857 2436.204 1801.676 2442.847 C 1804.634 2449.424 1807.191 2456.314 1809.883 2463.266 C 1814.556 2475.486 1814.112 2474.593 1814.676 2475.508 C 1815.023 2475.885 1815.871 2475.23 1815.69 2474.512 L 1815.597 2472.927 C 1816.502 2459.359 1817.426 2445.504 1818.368 2431.4 C 1820.446 2398.176 1822.186 2363.75 1823.465 2328.472 C 1826.014 2257.91 1826.519 2190.623 1825.644 2129.422 C 1824.97 2098.749 1825.443 2069.644 1821.038 2044.501 C 1818.892 2031.879 1815.492 2020.207 1810.679 2009.836 C 1805.723 1999.518 1799.559 1990.287 1792.614 1982.203 C 1785.547 1974.211 1777.747 1967.44 1769.996 1961.393 C 1762.001 1955.641 1754.218 1950.382 1746.449 1946.129 C 1731.068 1937.373 1716.891 1931.073 1705.257 1925.966 C 1681.897 1915.864 1668.66 1910.307 1669.298 1908.222 C 1669.853 1906.39 1684.026 1908.138 1709.023 1915.048 C 1721.498 1918.579 1736.723 1923.439 1753.82 1931.295 C 1762.418 1935.087 1771.288 1940.079 1780.52 1945.802 C 1789.567 1951.869 1798.873 1958.93 1807.636 1967.76 C 1816.284 1976.69 1824.28 1987.315 1830.841 1999.531 C 1837.281 2011.826 1841.852 2025.544 1844.834 2039.735 C 1847.866 2053.947 1849.432 2068.653 1850.416 2083.488 C 1851.391 2098.35 1851.936 2113.247 1852.586 2128.705 C 1854.955 2190.396 1855.269 2258.341 1852.695 2329.568 C 1851.402 2365.178 1849.442 2399.919 1846.954 2433.423 C 1846.293 2441.795 1845.639 2450.094 1844.991 2458.314 C 1844.05 2468.995 1843.12 2479.572 1842.199 2490.04 C 1839.181 2500.948 1835.963 2510.925 1832.962 2521.164 C 1832.325 2524.415 1831.237 2524.384 1829.483 2525.631 C 1827.755 2526.671 1825.438 2527.639 1822.977 2528.129 C 1818.085 2529.264 1812.439 2528.058 1809.654 2526.501 C 1808.392 2526.273 1807.243 2524.022 1805.99 2522.214 L 1802.351 2516.713 L 1798.76 2511.242 L 1796.983 2508.52 L 1796.541 2507.84 L 1796.199 2506.692 L 1795.517 2504.396 C 1793.715 2498.306 1791.923 2492.258 1790.143 2486.251 C 1789.261 2483.269 1788.382 2480.298 1787.506 2477.338 L 1785.72 2472.217 C 1783.367 2465.543 1781.164 2458.919 1778.556 2452.549 C 1776.091 2446.126 1773.613 2439.82 1770.896 2433.729 C 1760.404 2409.208 1748.96 2387.037 1737.638 2367.301 C 1714.986 2327.764 1692.506 2298.324 1676.626 2278.284 C 1660.549 2258.382 1651.015 2247.674 1652.492 2246.002 Z M 1169.033 2246.002 C 1170.204 2247.326 1164.337 2254.474 1153.705 2267.478 C 1143.037 2280.434 1127.633 2299.39 1110.497 2324.766 C 1093.406 2350.125 1074.216 2381.72 1056.893 2419.549 C 1054.611 2424.218 1052.64 2429.112 1050.509 2434.007 C 1048.351 2438.893 1046.272 2443.888 1044.346 2449.017 C 1042.384 2454.13 1040.24 2459.248 1038.48 2464.571 C 1037.555 2467.215 1036.624 2469.876 1035.686 2472.551 L 1034.273 2476.574 L 1032.259 2483.281 C 1030.842 2488.067 1029.417 2492.88 1027.984 2497.718 L 1025.816 2505.037 L 1025.271 2506.878 L 1024.997 2507.8 L 1024.646 2508.356 L 1023.224 2510.536 C 1021.313 2513.443 1019.391 2516.366 1017.46 2519.305 L 1014.533 2523.719 C 1014.048 2524.399 1013.54 2525.323 1013.069 2525.804 C 1012.608 2526.087 1012.2 2526.368 1011.54 2526.657 C 1009.189 2527.876 1004.987 2528.875 1000.98 2528.507 C 996.97 2528.183 992.93 2526.419 990.737 2524.786 C 990.096 2524.348 989.771 2524.059 989.292 2523.634 L 988.119 2521.374 L 985.757 2516.836 C 984.166 2513.803 982.568 2510.757 980.964 2507.696 C 979.371 2489.768 977.752 2471.529 976.108 2453.008 C 975.039 2439.846 974.033 2426.478 973.138 2412.923 C 971.341 2385.814 969.882 2357.966 968.829 2329.565 C 966.256 2258.339 966.569 2190.394 968.938 2128.702 C 969.587 2113.244 970.133 2098.346 971.107 2083.485 C 972.09 2068.649 973.658 2053.943 976.69 2039.732 C 979.671 2025.54 984.242 2011.822 990.681 1999.527 C 997.242 1987.31 1005.237 1976.687 1013.886 1967.756 C 1022.649 1958.927 1031.955 1951.866 1041.001 1945.8 C 1050.233 1940.077 1059.104 1935.086 1067.703 1931.292 C 1084.799 1923.438 1100.025 1918.576 1112.499 1915.045 C 1137.495 1908.135 1151.668 1906.388 1152.225 1908.22 C 1152.862 1910.305 1139.625 1915.86 1116.265 1925.962 C 1104.632 1931.069 1090.454 1937.369 1075.074 1946.125 C 1067.304 1950.379 1059.522 1955.637 1051.526 1961.389 C 1043.775 1967.437 1035.976 1974.207 1028.908 1982.201 C 1021.963 1990.284 1015.799 1999.516 1010.843 2009.834 C 1006.03 2020.204 1002.63 2031.876 1000.484 2044.498 C 996.079 2069.643 996.552 2098.746 995.878 2129.42 C 995.002 2190.62 995.508 2257.908 998.057 2328.469 C 999.099 2356.605 1000.417 2384.198 1001.949 2411.073 C 1002.787 2424.506 1003.614 2437.764 1004.429 2450.824 C 1004.889 2457.351 1005.346 2463.827 1005.798 2470.253 L 1005.962 2472.554 L 1005.951 2472.668 L 1005.928 2472.901 L 1005.886 2473.437 C 1005.869 2473.832 1005.818 2474.315 1005.84 2474.877 C 1005.901 2475.452 1006.559 2475.777 1006.829 2475.521 C 1007.024 2475.27 1007.165 2474.911 1007.376 2474.484 C 1007.994 2472.839 1008.607 2471.212 1009.214 2469.603 C 1011.068 2464.783 1012.901 2460.017 1014.712 2455.309 C 1016.753 2449.768 1019.173 2444.479 1021.42 2439.197 C 1023.632 2433.896 1025.999 2428.756 1028.444 2423.743 C 1030.864 2418.717 1033.132 2413.702 1035.707 2408.939 C 1055.39 2370.33 1077.09 2338.861 1096.673 2314.222 C 1116.299 2289.571 1134.168 2271.977 1147.131 2260.861 C 1160.072 2249.695 1168.052 2244.877 1169.033 2246.002 Z M 1369.459 2197.113 C 1367.44 2197.134 1365.265 2172.838 1363.058 2128.882 C 1360.885 2084.84 1358.546 2021.503 1356.55 1942.502 C 1356.473 1932.372 1356.786 1921.467 1359.253 1910.074 C 1361.626 1898.78 1366.827 1886.662 1375.523 1877.053 C 1379.887 1872.213 1385.156 1867.806 1391.504 1864.65 C 1397.767 1861.402 1405.161 1859.662 1412.535 1859.762 C 1427.547 1859.931 1440.761 1867.526 1450.452 1877.319 C 1455.368 1882.282 1459.47 1888.038 1462.757 1894.414 C 1465.97 1900.737 1468.231 1907.182 1469.845 1913.785 C 1473.095 1926.974 1473.788 1940.11 1474.106 1952.711 C 1474.484 1977.372 1474.871 2002.751 1475.269 2028.777 C 1476.727 2132.74 1477.925 2247.044 1478.753 2367.03 C 1478.934 2397.028 1479.114 2426.671 1479.291 2455.887 C 1479.228 2470.599 1479.792 2484.572 1479.006 2500.346 C 1478.523 2508.176 1477.51 2516.329 1475.315 2524.518 C 1473.197 2532.632 1469.46 2541.15 1464.407 2548.341 C 1459.334 2555.622 1452.653 2562.171 1444.279 2566.796 C 1435.992 2571.492 1425.638 2573.541 1416.282 2572.518 C 1397.488 2570.552 1382.329 2559.055 1372.797 2545.986 C 1363.147 2532.786 1357.994 2518.701 1353.832 2505.39 C 1349.653 2491.883 1346.772 2478.258 1344.829 2464.799 C 1340.973 2437.847 1340.669 2411.635 1341.468 2386.647 C 1342.303 2361.604 1344.045 2337.79 1345.433 2314.724 C 1348.448 2268.587 1351.257 2225.61 1353.821 2186.373 C 1359.181 2107.915 1364.022 2044.449 1368.028 2000.623 C 1372.034 1956.798 1375.203 1932.615 1377.22 1932.722 C 1379.237 1932.829 1379.908 1957.216 1379.397 2001.227 C 1378.886 2045.238 1377.192 2108.871 1374.475 2187.47 C 1373.002 2226.766 1371.386 2269.806 1369.653 2316.01 C 1368.189 2362.256 1363.856 2411.543 1371.464 2460.628 C 1373.406 2472.851 1376.159 2484.995 1379.985 2496.842 C 1383.809 2508.784 1388.496 2520.189 1395.031 2528.804 C 1398.347 2533.164 1401.932 2536.635 1406.073 2539.228 C 1410.207 2541.845 1414.763 2543.498 1418.971 2543.86 C 1423.199 2544.199 1426.93 2543.462 1430.71 2541.326 C 1434.447 2539.217 1438.087 2535.827 1440.998 2531.545 C 1446.928 2523.116 1449.427 2511.717 1450.143 2498.609 C 1450.756 2485.639 1450.2 2470.592 1450.191 2456.094 C 1449.964 2426.879 1449.735 2397.236 1449.502 2367.238 C 1448.674 2247.252 1448.295 2132.943 1448.317 2028.969 C 1448.342 2003.011 1448.365 1977.699 1448.388 1953.104 C 1448.327 1941.119 1447.817 1929.841 1445.529 1919.76 C 1443.232 1909.526 1439.349 1901.141 1433.118 1894.56 C 1426.973 1888.025 1419.156 1883.735 1411.99 1883.572 C 1404.869 1883.166 1397.729 1886.653 1392.021 1892.697 C 1380.195 1904.841 1377.594 1923.776 1377.227 1942.665 C 1376.574 2020.924 1375.763 2084.851 1374.437 2128.758 C 1373.149 2172.753 1371.477 2197.091 1369.459 2197.113 Z M 1592.104 2696.145 C 1588.911 2693.031 1598.931 2679.17 1607.739 2654.694 C 1616.807 2630.425 1623.251 2594.582 1620.065 2554.838 C 1616.809 2514.902 1606.821 2478.678 1600.548 2451.889 C 1594.076 2425.104 1591.279 2407.713 1595.133 2406.274 C 1598.857 2404.883 1608.423 2419.437 1620.081 2444.985 C 1625.868 2457.78 1632.076 2473.427 1637.501 2491.526 C 1642.924 2509.598 1647.415 2530.243 1649.221 2552.493 C 1650.899 2574.894 1649.28 2596.499 1645.011 2615.595 C 1640.722 2634.696 1633.994 2651.25 1626.33 2663.9 C 1618.707 2676.584 1610.711 2685.539 1604.302 2690.656 C 1597.913 2695.811 1593.498 2697.517 1592.104 2696.145 Z" class="color212237 svgShape" style=""/>
  <path fill="#2a2137" d="M 1413.317 2965.084 C 1409.818 2963.505 1415.893 2939.801 1433.954 2905.295 C 1451.719 2870.678 1482.251 2826.497 1519.269 2781.458 C 1537.913 2758.773 1555.547 2738.746 1566.936 2718.529 C 1572.647 2708.5 1577.04 2698.426 1579.448 2689.029 C 1582.014 2679.479 1582.808 2670.058 1582.56 2661.554 C 1582.016 2644.463 1577.003 2631.157 1571.921 2622.889 C 1566.944 2614.468 1562.767 2610.054 1563.977 2608.171 C 1564.869 2606.62 1571.473 2607.676 1580.526 2615.315 C 1589.606 2622.744 1599.527 2638.176 1603.118 2659.263 C 1604.908 2669.757 1605.278 2681.574 1603.194 2694.05 C 1601.162 2706.735 1596.713 2719.225 1590.677 2731.493 C 1578.57 2756.136 1559.869 2778.337 1541.781 2800.438 C 1505.125 2845.056 1473.131 2885.71 1451.507 2916.414 C 1429.651 2946.909 1417.166 2966.889 1413.317 2965.084 Z" class="color212237 svgShape" style=""/>
  <path fill="#2a2137" d="M 1300.116 2639.683 C 1304.457 2640.527 1303.434 2660.806 1305.184 2692.468 C 1305.429 2696.42 1305.686 2700.559 1305.953 2704.87 C 1306.221 2709.17 1306.923 2713.627 1307.367 2718.235 C 1308.093 2727.47 1309.924 2737.21 1311.459 2747.46 C 1315.283 2767.858 1320.653 2789.985 1328.358 2812.571 C 1336.335 2835.062 1345.842 2855.703 1355.484 2874.012 C 1360.629 2882.965 1365.229 2891.71 1370.377 2899.357 C 1372.882 2903.225 1375.091 2907.139 1377.543 2910.655 C 1380 2914.179 1382.361 2917.562 1384.613 2920.793 C 1402.834 2946.538 1416.172 2961.656 1413.318 2965.086 C 1412.013 2966.651 1407.086 2964.73 1399.136 2959.763 C 1397.149 2958.521 1394.973 2957.09 1392.621 2955.476 C 1390.327 2953.802 1387.998 2951.8 1385.444 2949.688 C 1380.424 2945.377 1374.485 2940.591 1368.852 2934.402 C 1365.966 2931.35 1362.944 2928.155 1359.797 2924.828 C 1356.693 2921.448 1353.844 2917.623 1350.713 2913.787 C 1344.313 2906.2 1338.535 2897.32 1332.326 2888.022 C 1320.565 2869.042 1309.433 2846.918 1300.781 2822.479 C 1292.397 2797.946 1287.373 2773.628 1284.783 2751.355 C 1283.863 2740.159 1282.864 2729.56 1283.15 2719.572 C 1283.212 2714.589 1283.063 2709.794 1283.387 2705.183 C 1283.777 2700.584 1284.152 2696.17 1284.509 2691.953 C 1285.062 2683.54 1286.722 2676.024 1287.96 2669.465 C 1288.64 2666.189 1289.213 2663.145 1289.962 2660.379 C 1290.793 2657.621 1291.599 2655.119 1292.376 2652.884 C 1295.488 2643.94 1298.133 2639.299 1300.116 2639.683 Z" class="color212237 svgShape" style=""/>
  <path fill="#2a2137" d="M 1296.609 2755.979 C 1294.358 2758.89 1273.613 2747.961 1248.042 2720.228 C 1235.304 2706.426 1221.773 2688.271 1209.724 2666.216 C 1197.658 2644.202 1187.361 2618.162 1180.849 2589.659 C 1174.537 2561.107 1172.688 2533.105 1174.15 2507.949 C 1175.58 2482.765 1180.012 2460.438 1185.59 2442.384 C 1196.776 2406.118 1210.793 2387.119 1214.065 2388.748 C 1218.083 2390.559 1211.134 2412.137 1205.733 2447.149 C 1200.196 2481.991 1197.7 2531.163 1209.362 2583.04 C 1221.021 2634.914 1244.277 2678.106 1264.151 2707.049 C 1283.976 2736.204 1299.454 2752.575 1296.609 2755.979 Z" class="color212237 svgShape" style=""/>
  <path fill="#ffffff" d="M 1314.672 1033.275 C 1311.029 1031.898 1324.132 988.228 1350.973 939.286 C 1377.657 890.251 1407.199 855.858 1410.276 858.272 C 1413.641 860.805 1389.885 898.463 1363.758 946.501 C 1337.455 994.435 1318.567 1034.839 1314.672 1033.275 Z M 1297.492 1080.388 C 1293.781 1078.771 1293.207 1071.685 1296.211 1064.559 C 1299.215 1057.434 1304.66 1052.968 1308.373 1054.585 C 1312.085 1056.202 1312.657 1063.289 1309.654 1070.413 C 1306.648 1077.539 1301.203 1082.004 1297.492 1080.388 Z M 1384.732 1472.878 C 1384.358 1473.733 1381.041 1473.493 1375.641 1471.182 C 1370.264 1468.889 1362.876 1464.301 1355.456 1456.526 C 1348.165 1448.732 1340.907 1437.57 1337.184 1423.378 C 1333.343 1409.219 1333.899 1392.358 1339.59 1376.494 C 1345.351 1360.654 1355.662 1347.432 1367.607 1339.162 C 1379.48 1330.787 1392.123 1327.049 1402.643 1325.902 C 1413.252 1324.852 1421.805 1326.212 1427.365 1327.999 C 1432.955 1329.786 1435.637 1331.787 1435.377 1332.684 C 1434.84 1334.993 1422.586 1331.914 1404.353 1336.266 C 1395.361 1338.51 1384.976 1342.728 1375.582 1350.201 C 1366.181 1357.533 1358.112 1368.521 1353.318 1381.617 C 1348.637 1394.752 1347.793 1408.434 1350.292 1420.207 C 1352.698 1432.082 1357.93 1442.125 1363.357 1449.75 C 1374.49 1465.055 1385.792 1470.764 1384.732 1472.878 Z M 1425.082 2514.194 C 1424.802 2515.044 1420.534 2514.942 1413.986 2511.222 C 1407.498 2507.583 1399.137 2499.802 1393.183 2487.564 C 1387.062 2475.325 1384.3 2459.266 1383.38 2442.342 C 1382.466 2425.489 1381.829 2407.263 1381.285 2387.96 C 1379.191 2310.892 1380.766 2248.327 1384.803 2248.214 C 1388.839 2248.1 1393.81 2310.483 1395.904 2387.55 C 1396.445 2406.776 1396.682 2425.262 1396.845 2441.792 C 1397.014 2458.173 1398.564 2472.407 1402.656 2483.347 C 1406.658 2494.378 1412.619 2501.999 1417.352 2506.557 C 1422.095 2511.179 1425.495 2513.139 1425.082 2514.194 Z" class="colorffffff svgShape" style=""/>
  <path fill="#2a2137" d="M 1259.041 1901.489 C 1261.464 1901.515 1262.594 1980.345 1261.564 2077.552 C 1260.535 2174.767 1257.735 2253.552 1255.313 2253.526 C 1252.892 2253.5 1251.76 2174.67 1252.791 2077.456 C 1253.819 1980.248 1256.618 1901.463 1259.041 1901.489 Z M 1044.146 2210.615 C 1042.934 2210.599 1042.02 2196.769 1041.52 2174.423 C 1041.02 2152.079 1040.935 2121.217 1041.384 2087.138 C 1041.527 2078.616 1041.668 2070.296 1041.803 2062.258 C 1041.986 2054.189 1042.291 2046.24 1043.483 2038.637 C 1044.664 2031.054 1046.674 2023.786 1049.902 2017.534 C 1052.951 2011.258 1057.596 2005.95 1062.386 2002.534 C 1072.041 1995.393 1082.443 1994.209 1088.813 1995.923 C 1095.3 1997.59 1097.709 2000.715 1097.423 2001.017 C 1097.039 2001.698 1094.036 1999.769 1088.291 1999.353 C 1082.651 1998.852 1074.016 2000.813 1066.19 2007.515 C 1058.198 2013.94 1053.103 2025.722 1051.488 2039.793 C 1049.854 2053.8 1050.593 2070.246 1050.157 2087.26 C 1049.708 2121.34 1048.811 2152.188 1047.723 2174.511 C 1046.636 2196.832 1045.357 2210.631 1044.146 2210.615 Z M 1783.479 2194.001 C 1782.238 2193.911 1782.128 2182.484 1782.444 2164.175 C 1782.656 2145.888 1783.352 2120.634 1779.97 2093.311 C 1776.598 2066.006 1768.598 2042.261 1760.361 2026.371 C 1752.254 2010.366 1744.89 2001.748 1745.945 2000.789 C 1746.624 2000.048 1755.825 2007.304 1765.75 2023.246 C 1775.776 2039.017 1785.187 2063.792 1788.674 2092.171 C 1792.173 2120.529 1790.432 2146.247 1788.638 2164.546 C 1786.729 2182.886 1784.655 2194.087 1783.479 2194.001 Z" class="color212237 svgShape" style=""/>
  <g fill="#000000" class="color000000 svgShape" transform="matrix(1.225614, 0, 0, 1.245531, -402.551544, 7.830865)" style="">
    <path fill="#2a2137" d="M2573.864,2394.054c0,6.589-491.4,11.932-1097.543,11.932       c-606.179,0-1097.579-5.343-1097.579-11.932s491.4-11.932,1097.579-11.932       C2082.464,2382.122,2573.864,2387.464,2573.864,2394.054z" class="color212237 svgShape"/>
  </g>
</svg>