<?xml version="1.0" encoding="utf-8"?>
<!-- Generator: Adobe Illustrator 23.0.1, SVG Export Plug-In . SVG Version: 6.00 Build 0)  -->
<svg version="1.1" xmlns="http://www.w3.org/2000/svg" xmlns:xlink="http://www.w3.org/1999/xlink" x="0px" y="0px"
	 viewBox="0 0 146.3 43" style="enable-background:new 0 0 146.3 43;" xml:space="preserve">
<style type="text/css">
	.st0{fill:#592D55;}
	.st1{fill:#2E2F5F;}
	.st2{fill:#82417E;}
	.st3{fill:#586C7E;}
</style>
<g id="Layer_2">
</g>
<g id="Layer_1">
	<g>
		<text transform="matrix(0.8716 0 0 1 104.6403 390.3096)"><tspan x="0" y="0" class="st2" style="font-family:'Dubai-Regular'; font-size:35.0569px;">OMNI</tspan><tspan x="154.7" y="0" class="st2" style="font-family:'Dubai-Bold'; font-size:35.0569px;">SECURITY</tspan></text>
		<text transform="matrix(0.8716 0 0 1 104.6403 390.3096)"><tspan x="0" y="0" class="st3" style="font-family:'Dubai-Regular'; font-size:35.0569px;">OMNI</tspan><tspan x="154.7" y="0" class="st3" style="font-family:'Dubai-Bold'; font-size:35.0569px;">SECURITY</tspan></text>
	</g>
	<polyline class="st0" points="222.2,136.3 200.9,173.3 243.6,173.3 	"/>
	<polyline class="st1" points="128,299.5 106.6,336.5 149.3,336.5 	"/>
	<polyline class="st2" points="316.4,299.5 295.1,336.5 337.8,336.5 	"/>
	<polygon class="st2" points="200,336.5 247.2,336.5 294.1,260.9 272.3,223.1 	"/>
	<polyline class="st0" points="171.8,223.1 272.3,223.1 248.2,260.9 198.1,260.9 149.7,260.9 	"/>
	<polygon class="st1" points="223,300.4 200,336.5 150.3,260.9 198.1,260.9 	"/>
	<g>
		<g>
			<path class="st2" d="M58.6,16.4c-0.8-0.3-1.5-0.7-2.2-1.3l0.9-1.6c0.6,0.5,1.2,0.9,1.9,1.1c0.7,0.2,1.4,0.4,2,0.4
				c1,0,1.8-0.2,2.3-0.6s0.8-1,0.8-1.9c0-0.5-0.1-0.9-0.3-1.2c-0.2-0.3-0.5-0.6-0.9-0.9c-0.4-0.3-1-0.6-1.8-0.9l-0.4-0.1
				c-0.9-0.4-1.6-0.7-2.1-1c-0.5-0.3-1-0.8-1.3-1.4C57.2,6.4,57,5.7,57,4.9c0-0.9,0.2-1.7,0.6-2.3c0.4-0.6,1-1.1,1.7-1.4
				c0.7-0.3,1.4-0.5,2.2-0.5c0.8,0,1.6,0.1,2.4,0.4c0.7,0.2,1.5,0.6,2.2,1.2l-0.9,1.6c-0.6-0.4-1.2-0.8-1.8-1
				c-0.6-0.2-1.2-0.3-1.9-0.3c-0.7,0-1.4,0.2-1.8,0.5C59.2,3.5,59,4,59,4.8c0,0.4,0.1,0.7,0.2,1s0.4,0.6,0.8,0.8s1,0.5,1.7,0.8
				l0.4,0.1c0.9,0.4,1.7,0.7,2.2,1c0.6,0.3,1,0.8,1.4,1.4c0.4,0.6,0.6,1.4,0.6,2.4c0,1-0.2,1.8-0.6,2.5c-0.4,0.7-1,1.2-1.7,1.5
				c-0.8,0.3-1.6,0.5-2.7,0.5C60.3,16.9,59.4,16.7,58.6,16.4z"/>
			<path class="st2" d="M79.1,1V3h-4.7v13.6h-1.9V3h-4.7V1H79.1z"/>
			<path class="st2" d="M85.6,1l5.1,15.4v0.1h-2l-1.4-4.4h-5.8l-1.4,4.4h-1.9v-0.1L83.2,1H85.6z M82.1,10.3h4.6l-2.3-7.2L82.1,10.3z
				"/>
			<path class="st2" d="M102.7,16.4v0.1h-2.2l-3.9-6.1h-2v6.1h-1.9V1H97c1.1,0,2,0.2,2.7,0.6c0.7,0.4,1.3,0.9,1.7,1.6
				c0.4,0.7,0.6,1.5,0.6,2.4c0,0.7-0.1,1.4-0.4,2c-0.2,0.6-0.6,1.2-1.1,1.6s-1.1,0.8-1.8,1L102.7,16.4z M94.5,8.7h2.2
				c1,0,1.8-0.3,2.4-0.8c0.5-0.5,0.8-1.3,0.8-2.2c0-0.9-0.2-1.6-0.7-2.1c-0.5-0.5-1.2-0.7-2.2-0.7h-2.4V8.7z"/>
			<path class="st2" d="M106,16.4c-0.8-0.3-1.5-0.7-2.2-1.3l0.9-1.6c0.6,0.5,1.2,0.9,1.9,1.1c0.7,0.2,1.4,0.4,2,0.4
				c1,0,1.8-0.2,2.3-0.6s0.8-1,0.8-1.9c0-0.5-0.1-0.9-0.3-1.2c-0.2-0.3-0.5-0.6-0.9-0.9c-0.4-0.3-1-0.6-1.8-0.9l-0.4-0.1
				c-0.9-0.4-1.6-0.7-2.1-1c-0.5-0.3-1-0.8-1.3-1.4c-0.3-0.6-0.5-1.3-0.5-2.1c0-0.9,0.2-1.7,0.6-2.3c0.4-0.6,1-1.1,1.7-1.4
				c0.7-0.3,1.4-0.5,2.2-0.5c0.8,0,1.6,0.1,2.4,0.4c0.7,0.2,1.5,0.6,2.2,1.2l-0.9,1.6c-0.6-0.4-1.2-0.8-1.8-1
				c-0.6-0.2-1.2-0.3-1.9-0.3c-0.7,0-1.4,0.2-1.8,0.5c-0.5,0.4-0.7,0.9-0.7,1.6c0,0.4,0.1,0.7,0.2,1s0.4,0.6,0.8,0.8s1,0.5,1.7,0.8
				l0.4,0.1c0.9,0.4,1.7,0.7,2.2,1c0.6,0.3,1,0.8,1.4,1.4c0.4,0.6,0.6,1.4,0.6,2.4c0,1-0.2,1.8-0.6,2.5c-0.4,0.7-1,1.2-1.7,1.5
				c-0.8,0.3-1.6,0.5-2.7,0.5C107.7,16.9,106.8,16.7,106,16.4z"/>
			<path class="st2" d="M125.5,1h1.9v15.6h-1.9v-7H118v7h-1.9V1h1.9v6.7h7.5V1z"/>
			<path class="st2" d="M130.6,16.6V1h1.9v15.6H130.6z"/>
			<path class="st2" d="M143,1.6c0.8,0.4,1.3,0.9,1.7,1.7s0.6,1.5,0.6,2.5c0,0.9-0.2,1.8-0.6,2.6c-0.4,0.8-1,1.4-1.7,1.8
				c-0.8,0.5-1.7,0.7-2.9,0.7h-2.4v5.7h-1.9V1h4.5C141.3,1,142.2,1.2,143,1.6z M142.4,8.2c0.6-0.5,0.8-1.3,0.8-2.3
				c0-1-0.3-1.7-0.8-2.2c-0.5-0.5-1.3-0.8-2.3-0.8h-2.6V9h2.3C141,9,141.9,8.7,142.4,8.2z"/>
			<path class="st2" d="M58.6,42.4c-0.8-0.3-1.5-0.7-2.2-1.3l0.9-1.6c0.6,0.5,1.2,0.9,1.9,1.1c0.7,0.2,1.4,0.4,2,0.4
				c1,0,1.8-0.2,2.3-0.6s0.8-1,0.8-1.9c0-0.5-0.1-0.9-0.3-1.2c-0.2-0.3-0.5-0.6-0.9-0.9c-0.4-0.3-1-0.6-1.8-0.9l-0.4-0.1
				c-0.9-0.4-1.6-0.7-2.1-1c-0.5-0.3-1-0.8-1.3-1.4c-0.3-0.6-0.5-1.3-0.5-2.1c0-0.9,0.2-1.7,0.6-2.3c0.4-0.6,1-1.1,1.7-1.4
				c0.7-0.3,1.4-0.5,2.2-0.5c0.8,0,1.6,0.1,2.4,0.4c0.7,0.2,1.5,0.6,2.2,1.2l-0.9,1.6c-0.6-0.4-1.2-0.8-1.8-1
				c-0.6-0.2-1.2-0.3-1.9-0.3c-0.7,0-1.4,0.2-1.8,0.5C59.2,29.5,59,30,59,30.8c0,0.4,0.1,0.7,0.2,1c0.2,0.3,0.4,0.6,0.8,0.8
				s1,0.5,1.7,0.8l0.4,0.1c0.9,0.4,1.7,0.7,2.2,1c0.6,0.3,1,0.8,1.4,1.4c0.4,0.6,0.6,1.4,0.6,2.4c0,1-0.2,1.8-0.6,2.5
				c-0.4,0.7-1,1.2-1.7,1.5c-0.8,0.3-1.6,0.5-2.7,0.5C60.3,42.9,59.4,42.7,58.6,42.4z"/>
			<path class="st2" d="M78.2,27h1.9v15.6h-1.9v-7h-7.5v7h-1.9V27h1.9v6.7h7.5V27z"/>
			<path class="st2" d="M83.3,42.6V27h1.9v15.6H83.3z"/>
			<path class="st2" d="M90.3,40.7H97v1.9h-8.6V27h8.5v1.9h-6.5v4.8h5.7l-0.2,1.8h-5.5V40.7z"/>
			<path class="st2" d="M101.2,40.7h6.7v1.9h-8.6V27h1.9V40.7z"/>
			<path class="st2" d="M119.1,28.9c1.2,1.2,1.8,3.2,1.8,5.9c0,1.7-0.3,3.2-0.9,4.4c-0.6,1.2-1.5,2-2.6,2.6
				c-1.1,0.6-2.4,0.8-3.9,0.8h-3.7V27h4.1C116.1,27,117.9,27.7,119.1,28.9z M116.3,40.2c0.8-0.3,1.5-0.9,1.9-1.8
				c0.5-0.9,0.7-2.1,0.7-3.6c0-2-0.4-3.5-1.2-4.5c-0.8-1-2.1-1.4-3.8-1.4h-2.2v11.8h1.6C114.4,40.7,115.5,40.6,116.3,40.2z"/>
		</g>
		<g>
			<path class="st3" d="M58.6,16.4c-0.8-0.3-1.5-0.7-2.2-1.3l0.9-1.6c0.6,0.5,1.2,0.9,1.9,1.1c0.7,0.2,1.4,0.4,2,0.4
				c1,0,1.8-0.2,2.3-0.6s0.8-1,0.8-1.9c0-0.5-0.1-0.9-0.3-1.2c-0.2-0.3-0.5-0.6-0.9-0.9c-0.4-0.3-1-0.6-1.8-0.9l-0.4-0.1
				c-0.9-0.4-1.6-0.7-2.1-1c-0.5-0.3-1-0.8-1.3-1.4C57.2,6.4,57,5.7,57,4.9c0-0.9,0.2-1.7,0.6-2.3c0.4-0.6,1-1.1,1.7-1.4
				c0.7-0.3,1.4-0.5,2.2-0.5c0.8,0,1.6,0.1,2.4,0.4c0.7,0.2,1.5,0.6,2.2,1.2l-0.9,1.6c-0.6-0.4-1.2-0.8-1.8-1
				c-0.6-0.2-1.2-0.3-1.9-0.3c-0.7,0-1.4,0.2-1.8,0.5C59.2,3.5,59,4,59,4.8c0,0.4,0.1,0.7,0.2,1s0.4,0.6,0.8,0.8s1,0.5,1.7,0.8
				l0.4,0.1c0.9,0.4,1.7,0.7,2.2,1c0.6,0.3,1,0.8,1.4,1.4c0.4,0.6,0.6,1.4,0.6,2.4c0,1-0.2,1.8-0.6,2.5c-0.4,0.7-1,1.2-1.7,1.5
				c-0.8,0.3-1.6,0.5-2.7,0.5C60.3,16.9,59.4,16.7,58.6,16.4z"/>
			<path class="st3" d="M79.1,1V3h-4.7v13.6h-1.9V3h-4.7V1H79.1z"/>
			<path class="st3" d="M85.6,1l5.1,15.4v0.1h-2l-1.4-4.4h-5.8l-1.4,4.4h-1.9v-0.1L83.2,1H85.6z M82.1,10.3h4.6l-2.3-7.2L82.1,10.3z
				"/>
			<path class="st3" d="M102.7,16.4v0.1h-2.2l-3.9-6.1h-2v6.1h-1.9V1H97c1.1,0,2,0.2,2.7,0.6c0.7,0.4,1.3,0.9,1.7,1.6
				c0.4,0.7,0.6,1.5,0.6,2.4c0,0.7-0.1,1.4-0.4,2c-0.2,0.6-0.6,1.2-1.1,1.6s-1.1,0.8-1.8,1L102.7,16.4z M94.5,8.7h2.2
				c1,0,1.8-0.3,2.4-0.8c0.5-0.5,0.8-1.3,0.8-2.2c0-0.9-0.2-1.6-0.7-2.1c-0.5-0.5-1.2-0.7-2.2-0.7h-2.4V8.7z"/>
			<path class="st3" d="M106,16.4c-0.8-0.3-1.5-0.7-2.2-1.3l0.9-1.6c0.6,0.5,1.2,0.9,1.9,1.1c0.7,0.2,1.4,0.4,2,0.4
				c1,0,1.8-0.2,2.3-0.6s0.8-1,0.8-1.9c0-0.5-0.1-0.9-0.3-1.2c-0.2-0.3-0.5-0.6-0.9-0.9c-0.4-0.3-1-0.6-1.8-0.9l-0.4-0.1
				c-0.9-0.4-1.6-0.7-2.1-1c-0.5-0.3-1-0.8-1.3-1.4c-0.3-0.6-0.5-1.3-0.5-2.1c0-0.9,0.2-1.7,0.6-2.3c0.4-0.6,1-1.1,1.7-1.4
				c0.7-0.3,1.4-0.5,2.2-0.5c0.8,0,1.6,0.1,2.4,0.4c0.7,0.2,1.5,0.6,2.2,1.2l-0.9,1.6c-0.6-0.4-1.2-0.8-1.8-1
				c-0.6-0.2-1.2-0.3-1.9-0.3c-0.7,0-1.4,0.2-1.8,0.5c-0.5,0.4-0.7,0.9-0.7,1.6c0,0.4,0.1,0.7,0.2,1s0.4,0.6,0.8,0.8s1,0.5,1.7,0.8
				l0.4,0.1c0.9,0.4,1.7,0.7,2.2,1c0.6,0.3,1,0.8,1.4,1.4c0.4,0.6,0.6,1.4,0.6,2.4c0,1-0.2,1.8-0.6,2.5c-0.4,0.7-1,1.2-1.7,1.5
				c-0.8,0.3-1.6,0.5-2.7,0.5C107.7,16.9,106.8,16.7,106,16.4z"/>
			<path class="st3" d="M125.5,1h1.9v15.6h-1.9v-7H118v7h-1.9V1h1.9v6.7h7.5V1z"/>
			<path class="st3" d="M130.6,16.6V1h1.9v15.6H130.6z"/>
			<path class="st3" d="M143,1.6c0.8,0.4,1.3,0.9,1.7,1.7s0.6,1.5,0.6,2.5c0,0.9-0.2,1.8-0.6,2.6c-0.4,0.8-1,1.4-1.7,1.8
				c-0.8,0.5-1.7,0.7-2.9,0.7h-2.4v5.7h-1.9V1h4.5C141.3,1,142.2,1.2,143,1.6z M142.4,8.2c0.6-0.5,0.8-1.3,0.8-2.3
				c0-1-0.3-1.7-0.8-2.2c-0.5-0.5-1.3-0.8-2.3-0.8h-2.6V9h2.3C141,9,141.9,8.7,142.4,8.2z"/>
			<path class="st3" d="M58.6,42.4c-0.8-0.3-1.5-0.7-2.2-1.3l0.9-1.6c0.6,0.5,1.2,0.9,1.9,1.1c0.7,0.2,1.4,0.4,2,0.4
				c1,0,1.8-0.2,2.3-0.6s0.8-1,0.8-1.9c0-0.5-0.1-0.9-0.3-1.2c-0.2-0.3-0.5-0.6-0.9-0.9c-0.4-0.3-1-0.6-1.8-0.9l-0.4-0.1
				c-0.9-0.4-1.6-0.7-2.1-1c-0.5-0.3-1-0.8-1.3-1.4c-0.3-0.6-0.5-1.3-0.5-2.1c0-0.9,0.2-1.7,0.6-2.3c0.4-0.6,1-1.1,1.7-1.4
				c0.7-0.3,1.4-0.5,2.2-0.5c0.8,0,1.6,0.1,2.4,0.4c0.7,0.2,1.5,0.6,2.2,1.2l-0.9,1.6c-0.6-0.4-1.2-0.8-1.8-1
				c-0.6-0.2-1.2-0.3-1.9-0.3c-0.7,0-1.4,0.2-1.8,0.5C59.2,29.5,59,30,59,30.8c0,0.4,0.1,0.7,0.2,1c0.2,0.3,0.4,0.6,0.8,0.8
				s1,0.5,1.7,0.8l0.4,0.1c0.9,0.4,1.7,0.7,2.2,1c0.6,0.3,1,0.8,1.4,1.4c0.4,0.6,0.6,1.4,0.6,2.4c0,1-0.2,1.8-0.6,2.5
				c-0.4,0.7-1,1.2-1.7,1.5c-0.8,0.3-1.6,0.5-2.7,0.5C60.3,42.9,59.4,42.7,58.6,42.4z"/>
			<path class="st3" d="M78.2,27h1.9v15.6h-1.9v-7h-7.5v7h-1.9V27h1.9v6.7h7.5V27z"/>
			<path class="st3" d="M83.3,42.6V27h1.9v15.6H83.3z"/>
			<path class="st3" d="M90.3,40.7H97v1.9h-8.6V27h8.5v1.9h-6.5v4.8h5.7l-0.2,1.8h-5.5V40.7z"/>
			<path class="st3" d="M101.2,40.7h6.7v1.9h-8.6V27h1.9V40.7z"/>
			<path class="st3" d="M119.1,28.9c1.2,1.2,1.8,3.2,1.8,5.9c0,1.7-0.3,3.2-0.9,4.4c-0.6,1.2-1.5,2-2.6,2.6
				c-1.1,0.6-2.4,0.8-3.9,0.8h-3.7V27h4.1C116.1,27,117.9,27.7,119.1,28.9z M116.3,40.2c0.8-0.3,1.5-0.9,1.9-1.8
				c0.5-0.9,0.7-2.1,0.7-3.6c0-2-0.4-3.5-1.2-4.5c-0.8-1-2.1-1.4-3.8-1.4h-2.2v11.8h1.6C114.4,40.7,115.5,40.6,116.3,40.2z"/>
		</g>
	</g>
	<g>
		<polyline class="st0" points="27.6,0.9 23.2,8.5 32,8.5 		"/>
		<polyline class="st1" points="8.1,34.6 3.7,42.3 12.5,42.3 		"/>
		<polyline class="st2" points="47.1,34.6 42.6,42.3 51.5,42.3 		"/>
		<polygon class="st2" points="23,42.3 32.7,42.3 42.4,26.6 37.9,18.8 		"/>
		<polyline class="st0" points="17.1,18.8 37.9,18.8 32.9,26.6 22.6,26.6 12.6,26.6 		"/>
		<polygon class="st1" points="27.7,34.8 23,42.3 12.7,26.6 22.6,26.6 		"/>
	</g>
</g>
</svg>
