<?xml version="1.0" encoding="UTF-8" standalone="no" ?>
<!DOCTYPE svg PUBLIC "-//W3C//DTD SVG 1.1//EN" "http://www.w3.org/Graphics/SVG/1.1/DTD/svg11.dtd">
<svg xmlns="http://www.w3.org/2000/svg" xmlns:xlink="http://www.w3.org/1999/xlink" version="1.1" width="1080" height="1080" viewBox="0 0 1080 1080" xml:space="preserve">
<desc>Created with Fabric.js 5.2.4</desc>
<defs>
</defs>
<rect x="0" y="0" width="100%" height="100%" fill="transparent"></rect>
<g transform="matrix(1 0 0 1 540 540)" id="3fe983b7-5c01-4c0b-a229-78d05e16e77b"  >
<rect style="stroke: none; stroke-width: 1; stroke-dasharray: none; stroke-linecap: butt; stroke-dashoffset: 0; stroke-linejoin: miter; stroke-miterlimit: 4; fill: rgb(255,255,255); fill-rule: nonzero; opacity: 1; visibility: hidden;" vector-effect="non-scaling-stroke"  x="-540" y="-540" rx="0" ry="0" width="1080" height="1080" />
</g>
<g transform="matrix(1 0 0 1 540 540)" id="94fd0105-7091-4335-aa82-9a56992f87c4"  >
</g>
<g transform="matrix(7.53 0 0 7.53 725.89 539.94)"  >
<polygon style="stroke: none; stroke-width: 1; stroke-dasharray: none; stroke-linecap: butt; stroke-dashoffset: 0; stroke-linejoin: miter; stroke-miterlimit: 4; fill: rgb(130,65,126); fill-rule: nonzero; opacity: 1;" vector-effect="non-scaling-stroke"  points="-47.05,56.75 0.15,56.75 47.05,-18.95 25.25,-56.75 " />
</g>
<g transform="matrix(7.53 0 0 7.53 459.15 254.93)"  >
<polyline style="stroke: none; stroke-width: 1; stroke-dasharray: none; stroke-linecap: butt; stroke-dashoffset: 0; stroke-linejoin: miter; stroke-miterlimit: 4; fill: rgb(89,45,85); fill-rule: nonzero; opacity: 1;" vector-effect="non-scaling-stroke"  points="-61,18.9 -13.2,18.9 36.9,18.9 61,-18.9 -39.5,-18.9 -61,18.9 " />
</g>
<g transform="matrix(7.53 0 0 7.53 273.54 682.38)"  >
<polygon style="stroke: none; stroke-width: 1; stroke-dasharray: none; stroke-linecap: butt; stroke-dashoffset: 0; stroke-linejoin: miter; stroke-miterlimit: 4; fill: rgb(46,47,95); fill-rule: nonzero; opacity: 1;" vector-effect="non-scaling-stroke"  points="36.35,1.65 13.35,37.85 -36.35,-37.85 11.45,-37.85 " />
</g>
</svg>