<?xml version="1.0" encoding="utf-8"?>
<!-- Generator: Adobe Illustrator 23.0.1, SVG Export Plug-In . SVG Version: 6.00 Build 0)  -->
<svg version="1.1" xmlns="http://www.w3.org/2000/svg" xmlns:xlink="http://www.w3.org/1999/xlink" x="0px" y="0px"
	 viewBox="0 0 235.5 256.7" style="enable-background:new 0 0 235.5 256.7;" xml:space="preserve">
<style type="text/css">
	.st0{fill:#82417E;}
	.st1{fill:#586C7E;}
	.st2{fill:#592D55;}
	.st3{fill:#2E2F5F;}
</style>
<g id="Layer_2">
</g>
<g id="Layer_1">
	<g>
		<g>
			<path class="st0" d="M4.2,255.5C3,255,2,254.4,1.1,253.6l1.3-2.3c0.8,0.7,1.7,1.3,2.8,1.6c1,0.4,2,0.5,2.9,0.5
				c1.5,0,2.6-0.3,3.3-0.9c0.8-0.6,1.1-1.5,1.1-2.8c0-0.7-0.1-1.3-0.4-1.8s-0.7-0.9-1.3-1.3c-0.6-0.4-1.5-0.8-2.7-1.3l-0.5-0.2
				c-1.3-0.5-2.3-1-3.1-1.5c-0.8-0.5-1.4-1.2-1.9-2c-0.5-0.8-0.7-1.8-0.7-3.1c0-1.3,0.3-2.4,0.9-3.3c0.6-0.9,1.4-1.6,2.5-2
				c1-0.4,2.1-0.7,3.3-0.7c1.2,0,2.4,0.2,3.5,0.5s2.2,0.9,3.2,1.7l-1.3,2.3c-0.9-0.7-1.8-1.1-2.6-1.4c-0.8-0.3-1.8-0.4-2.8-0.4
				c-1.1,0-2,0.3-2.7,0.8c-0.7,0.5-1.1,1.3-1.1,2.4c0,0.6,0.1,1.1,0.4,1.5c0.2,0.4,0.6,0.8,1.2,1.2c0.6,0.4,1.4,0.8,2.4,1.2l0.5,0.2
				c1.4,0.5,2.5,1,3.3,1.5c0.8,0.5,1.5,1.2,2.1,2.1c0.6,0.9,0.9,2.1,0.9,3.5s-0.3,2.6-0.9,3.6c-0.6,1-1.4,1.7-2.5,2.2
				s-2.4,0.8-3.9,0.8C6.8,256.2,5.4,255.9,4.2,255.5z"/>
			<path class="st0" d="M34,233v2.8h-6.8v19.9h-2.8v-19.9h-6.9V233H34z"/>
			<path class="st0" d="M43.4,233l7.4,22.5v0.2h-2.9l-2.1-6.5h-8.4l-2.1,6.5h-2.8v-0.2L40,233H43.4z M38.3,246.6H45l-3.4-10.5
				L38.3,246.6z"/>
			<path class="st0" d="M68.3,255.5v0.2H65l-5.7-8.9h-2.9v8.9h-2.8V233H60c1.5,0,2.9,0.3,3.9,0.8c1.1,0.6,1.9,1.3,2.4,2.3
				c0.5,1,0.8,2.2,0.8,3.5c0,1.1-0.2,2.1-0.5,3c-0.4,0.9-0.9,1.7-1.6,2.4c-0.7,0.7-1.6,1.2-2.7,1.5L68.3,255.5z M56.4,244.2h3.2
				c1.5,0,2.7-0.4,3.5-1.1s1.2-1.8,1.2-3.2c0-1.3-0.4-2.3-1.1-3c-0.7-0.7-1.8-1.1-3.2-1.1h-3.6V244.2z"/>
			<path class="st0" d="M73,255.5c-1.2-0.5-2.3-1.1-3.2-1.9l1.3-2.3c0.8,0.7,1.7,1.3,2.8,1.6c1,0.4,2,0.5,2.9,0.5
				c1.5,0,2.6-0.3,3.3-0.9c0.8-0.6,1.1-1.5,1.1-2.8c0-0.7-0.1-1.3-0.4-1.8s-0.7-0.9-1.3-1.3c-0.6-0.4-1.5-0.8-2.7-1.3l-0.5-0.2
				c-1.3-0.5-2.3-1-3.1-1.5c-0.8-0.5-1.4-1.2-1.9-2c-0.5-0.8-0.7-1.8-0.7-3.1c0-1.3,0.3-2.4,0.9-3.3c0.6-0.9,1.4-1.6,2.5-2
				c1-0.4,2.1-0.7,3.3-0.7c1.2,0,2.4,0.2,3.5,0.5s2.2,0.9,3.2,1.7l-1.3,2.3c-0.9-0.7-1.8-1.1-2.6-1.4c-0.8-0.3-1.8-0.4-2.8-0.4
				c-1.1,0-2,0.3-2.7,0.8c-0.7,0.5-1.1,1.3-1.1,2.4c0,0.6,0.1,1.1,0.4,1.5c0.2,0.4,0.6,0.8,1.2,1.2c0.6,0.4,1.4,0.8,2.4,1.2l0.5,0.2
				c1.4,0.5,2.5,1,3.3,1.5c0.8,0.5,1.5,1.2,2.1,2.1c0.6,0.9,0.9,2.1,0.9,3.5s-0.3,2.6-0.9,3.6c-0.6,1-1.4,1.7-2.5,2.2
				s-2.4,0.8-3.9,0.8C75.5,256.2,74.2,255.9,73,255.5z"/>
			<path class="st0" d="M101.4,233h2.8v22.7h-2.8v-10.2H90.5v10.2h-2.8V233h2.8v9.8h10.9V233z"/>
			<path class="st0" d="M108.8,255.7V233h2.8v22.7H108.8z"/>
			<path class="st0" d="M126.8,233.9c1.1,0.6,1.9,1.4,2.5,2.4c0.6,1,0.8,2.3,0.8,3.6s-0.3,2.6-0.8,3.8c-0.6,1.1-1.4,2-2.5,2.7
				c-1.1,0.7-2.5,1-4.2,1H119v8.4h-2.8V233h6.6C124.4,233,125.7,233.3,126.8,233.9z M126,243.4c0.8-0.8,1.2-1.9,1.2-3.4
				c0-1.4-0.4-2.5-1.1-3.2c-0.7-0.7-1.8-1.1-3.3-1.1H119v8.9h3.3C124,244.6,125.2,244.2,126,243.4z"/>
			<path class="st0" d="M131.6,253.5l2-3.5c1.9,1.4,3.7,2.1,5.6,2.1c1.2,0,2.1-0.2,2.7-0.6c0.7-0.4,1-1.1,1-1.9
				c0-0.5-0.1-0.9-0.3-1.3s-0.6-0.7-1.1-1c-0.5-0.3-1.3-0.7-2.4-1.2l-0.7-0.3c-1.3-0.6-2.4-1.1-3.1-1.7c-0.8-0.5-1.4-1.2-1.9-2.1
				c-0.5-0.8-0.7-1.9-0.7-3.2c0-1.4,0.4-2.6,1.1-3.6c0.7-0.9,1.6-1.6,2.8-2.1c1.1-0.4,2.3-0.7,3.6-0.7c1.1,0,2.3,0.2,3.5,0.6
				c1.2,0.4,2.4,1.1,3.5,1.9l-2,3.4c-1-0.7-1.8-1.2-2.6-1.5c-0.7-0.3-1.6-0.5-2.4-0.5c-1,0-1.7,0.2-2.2,0.6s-0.7,0.9-0.7,1.5
				c0,0.4,0.1,0.8,0.3,1.1c0.2,0.3,0.6,0.6,1.1,0.9c0.5,0.3,1.3,0.7,2.3,1.1l0.7,0.3c1.3,0.6,2.3,1.1,3.1,1.6c0.8,0.5,1.5,1.2,2,2.1
				s0.8,2.1,0.8,3.5c0,1.5-0.3,2.8-1,3.8s-1.6,1.8-2.8,2.3c-1.2,0.5-2.5,0.8-4,0.8C136.3,256.2,133.7,255.3,131.6,253.5z"/>
			<path class="st0" d="M163.7,233h4.2v22.7h-4.2v-9.4h-9.2v9.4h-4.2V233h4.2v9.1h9.2V233z"/>
			<path class="st0" d="M172,255.7V233h4.2v22.7H172z"/>
			<path class="st0" d="M184.6,251.7h9.2v4.1h-13.4V233h13.2v4h-9v5.1h7.8l-0.5,4h-7.3V251.7z"/>
			<path class="st0" d="M201.3,251.5h9.1v4.3h-13.3V233h4.2V251.5z"/>
			<path class="st0" d="M227.2,235.6c1.9,1.7,2.8,4.6,2.8,8.8c0,2.5-0.5,4.6-1.5,6.3s-2.3,3-4,3.8c-1.7,0.8-3.5,1.2-5.5,1.2h-6.4
				V233h6.6C222.7,233,225.4,233.9,227.2,235.6z M222.5,250.9c1-0.4,1.8-1.1,2.4-2.1c0.5-1,0.8-2.5,0.8-4.4c0-1.8-0.2-3.1-0.7-4.2
				s-1.2-1.8-2.1-2.2c-0.9-0.5-2.1-0.7-3.5-0.7h-2.4v14.2h1.4C220,251.5,221.4,251.3,222.5,250.9z"/>
		</g>
		<g>
			<path class="st1" d="M4.2,255.5C3,255,2,254.4,1.1,253.6l1.3-2.3c0.8,0.7,1.7,1.3,2.8,1.6c1,0.4,2,0.5,2.9,0.5
				c1.5,0,2.6-0.3,3.3-0.9c0.8-0.6,1.1-1.5,1.1-2.8c0-0.7-0.1-1.3-0.4-1.8s-0.7-0.9-1.3-1.3c-0.6-0.4-1.5-0.8-2.7-1.3l-0.5-0.2
				c-1.3-0.5-2.3-1-3.1-1.5c-0.8-0.5-1.4-1.2-1.9-2c-0.5-0.8-0.7-1.8-0.7-3.1c0-1.3,0.3-2.4,0.9-3.3c0.6-0.9,1.4-1.6,2.5-2
				c1-0.4,2.1-0.7,3.3-0.7c1.2,0,2.4,0.2,3.5,0.5s2.2,0.9,3.2,1.7l-1.3,2.3c-0.9-0.7-1.8-1.1-2.6-1.4c-0.8-0.3-1.8-0.4-2.8-0.4
				c-1.1,0-2,0.3-2.7,0.8c-0.7,0.5-1.1,1.3-1.1,2.4c0,0.6,0.1,1.1,0.4,1.5c0.2,0.4,0.6,0.8,1.2,1.2c0.6,0.4,1.4,0.8,2.4,1.2l0.5,0.2
				c1.4,0.5,2.5,1,3.3,1.5c0.8,0.5,1.5,1.2,2.1,2.1c0.6,0.9,0.9,2.1,0.9,3.5s-0.3,2.6-0.9,3.6c-0.6,1-1.4,1.7-2.5,2.2
				s-2.4,0.8-3.9,0.8C6.8,256.2,5.4,255.9,4.2,255.5z"/>
			<path class="st1" d="M34,233v2.8h-6.8v19.9h-2.8v-19.9h-6.9V233H34z"/>
			<path class="st1" d="M43.4,233l7.4,22.5v0.2h-2.9l-2.1-6.5h-8.4l-2.1,6.5h-2.8v-0.2L40,233H43.4z M38.3,246.6H45l-3.4-10.5
				L38.3,246.6z"/>
			<path class="st1" d="M68.3,255.5v0.2H65l-5.7-8.9h-2.9v8.9h-2.8V233H60c1.5,0,2.9,0.3,3.9,0.8c1.1,0.6,1.9,1.3,2.4,2.3
				c0.5,1,0.8,2.2,0.8,3.5c0,1.1-0.2,2.1-0.5,3c-0.4,0.9-0.9,1.7-1.6,2.4c-0.7,0.7-1.6,1.2-2.7,1.5L68.3,255.5z M56.4,244.2h3.2
				c1.5,0,2.7-0.4,3.5-1.1s1.2-1.8,1.2-3.2c0-1.3-0.4-2.3-1.1-3c-0.7-0.7-1.8-1.1-3.2-1.1h-3.6V244.2z"/>
			<path class="st1" d="M73,255.5c-1.2-0.5-2.3-1.1-3.2-1.9l1.3-2.3c0.8,0.7,1.7,1.3,2.8,1.6c1,0.4,2,0.5,2.9,0.5
				c1.5,0,2.6-0.3,3.3-0.9c0.8-0.6,1.1-1.5,1.1-2.8c0-0.7-0.1-1.3-0.4-1.8s-0.7-0.9-1.3-1.3c-0.6-0.4-1.5-0.8-2.7-1.3l-0.5-0.2
				c-1.3-0.5-2.3-1-3.1-1.5c-0.8-0.5-1.4-1.2-1.9-2c-0.5-0.8-0.7-1.8-0.7-3.1c0-1.3,0.3-2.4,0.9-3.3c0.6-0.9,1.4-1.6,2.5-2
				c1-0.4,2.1-0.7,3.3-0.7c1.2,0,2.4,0.2,3.5,0.5s2.2,0.9,3.2,1.7l-1.3,2.3c-0.9-0.7-1.8-1.1-2.6-1.4c-0.8-0.3-1.8-0.4-2.8-0.4
				c-1.1,0-2,0.3-2.7,0.8c-0.7,0.5-1.1,1.3-1.1,2.4c0,0.6,0.1,1.1,0.4,1.5c0.2,0.4,0.6,0.8,1.2,1.2c0.6,0.4,1.4,0.8,2.4,1.2l0.5,0.2
				c1.4,0.5,2.5,1,3.3,1.5c0.8,0.5,1.5,1.2,2.1,2.1c0.6,0.9,0.9,2.1,0.9,3.5s-0.3,2.6-0.9,3.6c-0.6,1-1.4,1.7-2.5,2.2
				s-2.4,0.8-3.9,0.8C75.5,256.2,74.2,255.9,73,255.5z"/>
			<path class="st1" d="M101.4,233h2.8v22.7h-2.8v-10.2H90.5v10.2h-2.8V233h2.8v9.8h10.9V233z"/>
			<path class="st1" d="M108.8,255.7V233h2.8v22.7H108.8z"/>
			<path class="st1" d="M126.8,233.9c1.1,0.6,1.9,1.4,2.5,2.4c0.6,1,0.8,2.3,0.8,3.6s-0.3,2.6-0.8,3.8c-0.6,1.1-1.4,2-2.5,2.7
				c-1.1,0.7-2.5,1-4.2,1H119v8.4h-2.8V233h6.6C124.4,233,125.7,233.3,126.8,233.9z M126,243.4c0.8-0.8,1.2-1.9,1.2-3.4
				c0-1.4-0.4-2.5-1.1-3.2c-0.7-0.7-1.8-1.1-3.3-1.1H119v8.9h3.3C124,244.6,125.2,244.2,126,243.4z"/>
			<path class="st1" d="M131.6,253.5l2-3.5c1.9,1.4,3.7,2.1,5.6,2.1c1.2,0,2.1-0.2,2.7-0.6c0.7-0.4,1-1.1,1-1.9
				c0-0.5-0.1-0.9-0.3-1.3s-0.6-0.7-1.1-1c-0.5-0.3-1.3-0.7-2.4-1.2l-0.7-0.3c-1.3-0.6-2.4-1.1-3.1-1.7c-0.8-0.5-1.4-1.2-1.9-2.1
				c-0.5-0.8-0.7-1.9-0.7-3.2c0-1.4,0.4-2.6,1.1-3.6c0.7-0.9,1.6-1.6,2.8-2.1c1.1-0.4,2.3-0.7,3.6-0.7c1.1,0,2.3,0.2,3.5,0.6
				c1.2,0.4,2.4,1.1,3.5,1.9l-2,3.4c-1-0.7-1.8-1.2-2.6-1.5c-0.7-0.3-1.6-0.5-2.4-0.5c-1,0-1.7,0.2-2.2,0.6s-0.7,0.9-0.7,1.5
				c0,0.4,0.1,0.8,0.3,1.1c0.2,0.3,0.6,0.6,1.1,0.9c0.5,0.3,1.3,0.7,2.3,1.1l0.7,0.3c1.3,0.6,2.3,1.1,3.1,1.6c0.8,0.5,1.5,1.2,2,2.1
				s0.8,2.1,0.8,3.5c0,1.5-0.3,2.8-1,3.8s-1.6,1.8-2.8,2.3c-1.2,0.5-2.5,0.8-4,0.8C136.3,256.2,133.7,255.3,131.6,253.5z"/>
			<path class="st1" d="M163.7,233h4.2v22.7h-4.2v-9.4h-9.2v9.4h-4.2V233h4.2v9.1h9.2V233z"/>
			<path class="st1" d="M172,255.7V233h4.2v22.7H172z"/>
			<path class="st1" d="M184.6,251.7h9.2v4.1h-13.4V233h13.2v4h-9v5.1h7.8l-0.5,4h-7.3V251.7z"/>
			<path class="st1" d="M201.3,251.5h9.1v4.3h-13.3V233h4.2V251.5z"/>
			<path class="st1" d="M227.2,235.6c1.9,1.7,2.8,4.6,2.8,8.8c0,2.5-0.5,4.6-1.5,6.3s-2.3,3-4,3.8c-1.7,0.8-3.5,1.2-5.5,1.2h-6.4
				V233h6.6C222.7,233,225.4,233.9,227.2,235.6z M222.5,250.9c1-0.4,1.8-1.1,2.4-2.1c0.5-1,0.8-2.5,0.8-4.4c0-1.8-0.2-3.1-0.7-4.2
				s-1.2-1.8-2.1-2.2c-0.9-0.5-2.1-0.7-3.5-0.7h-2.4v14.2h1.4C220,251.5,221.4,251.3,222.5,250.9z"/>
		</g>
	</g>
	<polygon class="st2" points="117.7,1.8 96.4,38.8 139.1,38.8 	"/>
	<polygon class="st3" points="23.5,165 2.1,202 44.8,202 	"/>
	<polygon class="st0" points="211.9,165 190.6,202 233.3,202 	"/>
	<polygon class="st0" points="95.5,202 142.7,202 189.6,126.3 167.8,88.5 	"/>
	<polyline class="st2" points="45.8,126.3 93.6,126.3 143.7,126.3 167.8,88.5 67.3,88.5 45.8,126.3 	"/>
	<polygon class="st3" points="118.5,165.8 95.5,202 45.8,126.3 93.6,126.3 	"/>
</g>
</svg>
