<svg xmlns="http://www.w3.org/2000/svg" viewBox="0 0 400 250" id="MobileProtection"><defs><linearGradient id="a" x1="192.21" x2="275.43" y1="178.68" y2="34.53" gradientUnits="userSpaceOnUse"><stop offset="0" stop-color="#cfccd3" class="stopColorcccfd3 svgShape"></stop><stop offset="1" stop-color="#b4b1b8" stop-opacity="0" class="stopColorb2b1b8 svgShape"></stop></linearGradient><linearGradient id="b" x1="185.87" x2="185.87" y1="12.09" y2="278.67" gradientUnits="userSpaceOnUse"><stop offset="0" stop-color="#8b39fe" stop-opacity="0" class="stopColorfeda39 svgShape"></stop><stop offset=".46" stop-color="#8b39fe" stop-opacity=".36" class="stopColorfeda39 svgShape"></stop><stop offset="1" stop-color="#8b39fe" stop-opacity=".8" class="stopColorfeda39 svgShape"></stop></linearGradient></defs><g style="isolation:isolate" fill="#000000" class="color000000 svgShape"><g data-name="Layer 1" fill="#000000" class="color000000 svgShape"><polygon points="78.19 154.8 170.32 206.72 370.36 91.49 281.62 40.13 78.19 154.8" style="mix-blend-mode:multiply" fill="url(#a)"></polygon><path fill="#383838" d="M271.87,131.48l-69-40.19a14.41,14.41,0,0,0-13.66.27S33.27,181.09,33,181.3c-5.28,4.08-4.2,12.7,1.81,16.2l69,40.08a14.13,14.13,0,0,0,13.43-.41S272.31,148,272.55,147.75A9.59,9.59,0,0,0,271.87,131.48Z" class="color383838 svgShape"></path><path fill="#6929c2" d="M263.62,151.79a.85.85,0,0,1-.61-.25,1.44,1.44,0,0,1-.35-1A3.1,3.1,0,0,1,264,148l2.32-1.33a1.24,1.24,0,0,1,.6-.17c.57,0,1,.52,1,1.29a3.14,3.14,0,0,1-1.33,2.52l-2.33,1.33A1.24,1.24,0,0,1,263.62,151.79Z" class="color969a9f svgShape"></path><path fill="#383838" d="M266.91,146.71c.43,0,.73.4.73,1.06a2.91,2.91,0,0,1-1.22,2.32l-2.32,1.33a.93.93,0,0,1-.48.14c-.43,0-.73-.4-.73-1.06a2.89,2.89,0,0,1,1.21-2.32l2.33-1.33a.93.93,0,0,1,.48-.14Zm0-.46h0a1.38,1.38,0,0,0-.71.21l-2.32,1.32a3.37,3.37,0,0,0-1.45,2.72,1.64,1.64,0,0,0,.42,1.2,1.06,1.06,0,0,0,.77.32,1.41,1.41,0,0,0,.71-.21l2.32-1.32a3.37,3.37,0,0,0,1.45-2.72c0-1.05-.6-1.52-1.19-1.52Z" class="color383838 svgShape"></path><path fill="#ffffff" d="M262.78,151.14a1.8,1.8,0,0,1-.12-.62A3.1,3.1,0,0,1,264,148l2.32-1.33a1.57,1.57,0,0,1,.38-.14l.19-.05.07.19a1.81,1.81,0,0,1,.11.63,3.15,3.15,0,0,1-1.34,2.52l-2.32,1.32a1,1,0,0,1-.35.14l-.2.05Z" class="colorffffff svgShape"></path><path fill="#383838" d="M266.74,146.75a1.76,1.76,0,0,1,.09.55,2.91,2.91,0,0,1-1.22,2.32L263.29,151a1,1,0,0,1-.29.11,1.48,1.48,0,0,1-.11-.54,2.89,2.89,0,0,1,1.21-2.32l2.33-1.33a1,1,0,0,1,.31-.12Zm.29-.53-.39.08a1.67,1.67,0,0,0-.44.17l-2.32,1.33a3.37,3.37,0,0,0-1.45,2.71,2.13,2.13,0,0,0,.14.71l.14.37.39-.08a1.32,1.32,0,0,0,.41-.17l2.33-1.32a3.37,3.37,0,0,0,1.44-2.72,2,2,0,0,0-.11-.71l-.14-.37Z" class="color383838 svgShape"></path><path fill="#ffffff" d="M267.07,151a1,1,0,0,1-.73-.3,1.4,1.4,0,0,1-.33-1,2.69,2.69,0,0,1,1.52-2.26,1.32,1.32,0,0,1,.51-.1,1,1,0,0,1,.72.3,1.34,1.34,0,0,1,.33,1,2.68,2.68,0,0,1-1.51,2.25A1.38,1.38,0,0,1,267.07,151Z" class="colorffffff svgShape"></path><path fill="#383838" d="M268,147.51c.51,0,.85.42.83,1.09a2.49,2.49,0,0,1-1.38,2.05,1.14,1.14,0,0,1-.42.09c-.51,0-.86-.42-.83-1.08a2.5,2.5,0,0,1,1.37-2.06,1.18,1.18,0,0,1,.43-.09Zm0-.45a1.61,1.61,0,0,0-.6.12,2.93,2.93,0,0,0-1.66,2.46,1.55,1.55,0,0,0,.4,1.18,1.22,1.22,0,0,0,.89.38,1.71,1.71,0,0,0,.6-.13,2.92,2.92,0,0,0,1.65-2.46,1.58,1.58,0,0,0-.39-1.18,1.22,1.22,0,0,0-.89-.37Z" class="color383838 svgShape"></path><path fill="#6929c2" d="M265.32,149.89a1.88,1.88,0,0,1-.36-1,2.69,2.69,0,0,1,1.52-2.26,1.38,1.38,0,0,1,.52-.12,1,1,0,0,1,.46.13l1.29,1-.23.36-.19-.1a.5.5,0,0,0-.27-.07,1,1,0,0,0-.33.07,2.27,2.27,0,0,0-1.23,1.85,1,1,0,0,0,.22.71l-.3.35Z" class="color969a9f svgShape"></path><path fill="#383838" d="M267,146.69a.61.61,0,0,1,.34.1l1.1.83h0a.8.8,0,0,0-.38-.1,1.14,1.14,0,0,0-.42.09,2.47,2.47,0,0,0-1.37,2,1.18,1.18,0,0,0,.29.88l-1.1-.84a1.8,1.8,0,0,1-.27-.87,2.46,2.46,0,0,1,1.37-2.05,1.37,1.37,0,0,1,.44-.1Zm0-.46h0a1.66,1.66,0,0,0-.61.14,2.93,2.93,0,0,0-1.66,2.46,2.22,2.22,0,0,0,.34,1.12l0,.07.07,0,1.11.85.59-.69a.77.77,0,0,1-.15-.54,2,2,0,0,1,1.08-1.64.61.61,0,0,1,.25-.06.27.27,0,0,1,.16,0l.38.2.23-.36.22-.35-.33-.26-1.11-.84a1.14,1.14,0,0,0-.61-.19Z" class="color383838 svgShape"></path><path fill="#6929c2" d="M219.38,176.56l0-.27-.14.17a1.24,1.24,0,0,1-.36-1,3.12,3.12,0,0,1,1.33-2.52l7-4a1.18,1.18,0,0,1,.58-.16,1,1,0,0,1,.58.2l1.25.87-.26.37a.4.4,0,0,0-.22-.06.68.68,0,0,0-.37.11l-7,4a2.71,2.71,0,0,0-1.1,2.12.94.94,0,0,0,.26.76l-.27.37Z" class="color969a9f svgShape"></path><path fill="#383838" d="M227.76,169a.72.72,0,0,1,.44.16l.11.08,1.15.8a.61.61,0,0,0-.36-.11.93.93,0,0,0-.47.14l-6.95,4a2.93,2.93,0,0,0-1.22,2.32,1.13,1.13,0,0,0,.35.94l-1.3-.91,0,0h0l-.06-.05a1.06,1.06,0,0,1-.27-.87,2.87,2.87,0,0,1,1.22-2.32l7-4a1,1,0,0,1,.46-.14Zm0-.45a1.3,1.3,0,0,0-.69.2l-6.95,4a3.37,3.37,0,0,0-1.45,2.72,1.47,1.47,0,0,0,.44,1.22l.06.05,0,0,.06,0,1.3.92.54-.74a.78.78,0,0,1-.17-.58,2.49,2.49,0,0,1,1-1.92l7-4a.46.46,0,0,1,.24-.08.16.16,0,0,1,.1,0l.52-.75-1.15-.8-.1-.07a1.15,1.15,0,0,0-.71-.24Z" class="color383838 svgShape"></path><path fill="#ffffff" d="M221.19,177.64a.85.85,0,0,1-.61-.26,1.44,1.44,0,0,1-.35-1,3.12,3.12,0,0,1,1.33-2.51l6.95-4a1.31,1.31,0,0,1,.6-.17.84.84,0,0,1,.61.25,1.44,1.44,0,0,1,.35,1,3.14,3.14,0,0,1-1.33,2.52l-7,4A1.21,1.21,0,0,1,221.19,177.64Z" class="colorffffff svgShape"></path><path fill="#383838" d="M229.11,169.88c.43,0,.73.39.73,1.06a2.92,2.92,0,0,1-1.21,2.32l-7,4a1,1,0,0,1-.48.15c-.43,0-.73-.4-.73-1.07a2.93,2.93,0,0,1,1.22-2.32l6.95-4a.93.93,0,0,1,.48-.14Zm0-.46a1.5,1.5,0,0,0-.71.2l-7,4a3.36,3.36,0,0,0-1.45,2.71,1.71,1.71,0,0,0,.42,1.21,1.12,1.12,0,0,0,.77.32,1.41,1.41,0,0,0,.71-.21l6.95-4a3.37,3.37,0,0,0,1.45-2.72,1.62,1.62,0,0,0-.42-1.2,1.06,1.06,0,0,0-.77-.32Z" class="color383838 svgShape"></path><path fill="#6929c2" d="M234.63,167.72l0-.27-.15.18a1.28,1.28,0,0,1-.36-1,3.14,3.14,0,0,1,1.33-2.52l4-2.29a1.07,1.07,0,0,1,.57-.17,1,1,0,0,1,.59.2l1.24.87-.25.38a.39.39,0,0,0-.23-.07.71.71,0,0,0-.37.11l-4,2.3a2.7,2.7,0,0,0-1.1,2.12,1,1,0,0,0,.26.75l-.27.37Z" class="color969a9f svgShape"></path><path fill="#383838" d="M240,161.82a.75.75,0,0,1,.45.16l.11.08,1.14.8a.61.61,0,0,0-.35-.11.93.93,0,0,0-.48.14l-4,2.3a2.89,2.89,0,0,0-1.22,2.32,1.16,1.16,0,0,0,.36.94l-1.31-.92,0,0h0l-.06-.05a1,1,0,0,1-.28-.87,2.91,2.91,0,0,1,1.22-2.32l4-2.3a1,1,0,0,1,.46-.14Zm0-.45a1.3,1.3,0,0,0-.69.2l-4,2.29a3.4,3.4,0,0,0-1.45,2.72,1.45,1.45,0,0,0,.45,1.22l0,0,0,0h0l0,0,1.3.91.54-.74a.75.75,0,0,1-.17-.57,2.5,2.5,0,0,1,1-1.93l4-2.29a.48.48,0,0,1,.25-.08l.1,0,.51-.75-1.14-.8-.11-.07a1.13,1.13,0,0,0-.71-.24Z" class="color383838 svgShape"></path><path fill="#ffffff" d="M236.44,168.8a.84.84,0,0,1-.6-.25,1.4,1.4,0,0,1-.36-1,3.1,3.1,0,0,1,1.34-2.52l4-2.3a1.24,1.24,0,0,1,.59-.17.81.81,0,0,1,.61.25,1.44,1.44,0,0,1,.35,1,3.11,3.11,0,0,1-1.33,2.52l-4,2.3A1.24,1.24,0,0,1,236.44,168.8Z" class="colorffffff svgShape"></path><path fill="#383838" d="M241.39,162.75c.43,0,.74.39.73,1.06a2.9,2.9,0,0,1-1.21,2.32l-4,2.3a1,1,0,0,1-.49.14c-.43,0-.73-.4-.73-1.06a2.89,2.89,0,0,1,1.22-2.32l4-2.3a.93.93,0,0,1,.48-.14Zm0-.46h0a1.5,1.5,0,0,0-.71.2l-4,2.3a3.4,3.4,0,0,0-1.45,2.72,1.68,1.68,0,0,0,.42,1.2,1.07,1.07,0,0,0,.77.32,1.36,1.36,0,0,0,.71-.21l4-2.29a3.37,3.37,0,0,0,1.44-2.72,1.62,1.62,0,0,0-.42-1.2,1.06,1.06,0,0,0-.77-.32Z" class="color383838 svgShape"></path><path fill="#6929c2" d="M33,181.3,189.13,91.63a14.37,14.37,0,0,1,13.65-.41l69.67,40.6c3.55,2.59,4.23,7.77.3,10.05l-155.5,89.42a14.11,14.11,0,0,1-13.42.41L34.17,191.18C29.24,188.24,29.53,183.64,33,181.3Z" class="color969a9f svgShape"></path><path fill="#383838" d="M110.17,233.44a14.35,14.35,0,0,1-6.44-1.53L34.05,191.38c-2.43-1.45-3.79-3.41-3.84-5.51a5.58,5.58,0,0,1,2.71-4.76h0L189,91.43A14.53,14.53,0,0,1,202.88,91l69.69,40.6a7.18,7.18,0,0,1,3.07,6,5.34,5.34,0,0,1-2.77,4.43l-155.5,89.42A14.27,14.27,0,0,1,110.17,233.44Zm-77-51.95a5.15,5.15,0,0,0-2.5,4.37c.05,1.94,1.34,3.76,3.62,5.12l69.66,40.53a13.84,13.84,0,0,0,13.2-.42l155.5-89.42a4.88,4.88,0,0,0,2.54-4,6.71,6.71,0,0,0-2.86-5.62L202.67,91.42a14.1,14.1,0,0,0-13.43.41Z" class="color383838 svgShape"></path><path fill="#ffffff" d="M266.66,133.61,200.15,95.22a10.07,10.07,0,0,0-9.56.28L39,182.67c-2.46,1.64-2.66,4.86.79,6.92l66.5,38.35a9.89,9.89,0,0,0,9.4-.29l151.17-87A4,4,0,0,0,266.66,133.61Z" class="colorffffff svgShape"></path><path fill="#383838" d="M110.74,229.24a10.15,10.15,0,0,1-4.55-1.08L39.67,189.81a4.9,4.9,0,0,1-2.74-3.94,4,4,0,0,1,1.94-3.41L190.46,95.29a10.29,10.29,0,0,1,9.81-.29l66.51,38.39a4.25,4.25,0,0,1,.22,7.48l-151.17,87A10.18,10.18,0,0,1,110.74,229.24Zm84.9-134.85a9.89,9.89,0,0,0-4.93,1.33L39.13,182.89a3.51,3.51,0,0,0-1.7,3,4.42,4.42,0,0,0,2.49,3.52l66.5,38.34a9.61,9.61,0,0,0,9.16-.29l151.17-87a3.75,3.75,0,0,0-.2-6.6h0L200,95.44A9.75,9.75,0,0,0,195.64,94.39Z" class="color383838 svgShape"></path><path fill="#1d0046" d="M225.2 107.74l-.09 0c-.44-.25-.39-.7.12-1h0a1.91 1.91 0 011.72-.08l.08 0c.45.25.39.7-.12 1h0A1.89 1.89 0 01225.2 107.74zM243 117.94l-15.27-8.77c-.44-.25-.39-.7.12-1h0a1.91 1.91 0 011.72-.08l15.27 8.78c.44.25.39.69-.12 1h0A1.91 1.91 0 01243 117.94z" class="color003046 svgShape"></path><path fill="#ffffff" d="M85.21,225.21a1,1,0,0,1-.51-.15,1.84,1.84,0,0,1-.86-1.49.88.88,0,0,1,.41-.8.77.77,0,0,1,.4-.11,1.14,1.14,0,0,1,.51.15A1.87,1.87,0,0,1,86,224.3a.89.89,0,0,1-.42.81A.76.76,0,0,1,85.21,225.21Z" class="colorffffff svgShape"></path><path fill="#383838" d="M84.64,222.89a.77.77,0,0,1,.4.12,1.63,1.63,0,0,1,.75,1.29.67.67,0,0,1-.3.61.55.55,0,0,1-.28.07.89.89,0,0,1-.4-.11,1.64,1.64,0,0,1-.74-1.3.66.66,0,0,1,.3-.6.5.5,0,0,1,.27-.08Zm0-.45h0a1,1,0,0,0-.5.13,1.1,1.1,0,0,0-.53,1,2.09,2.09,0,0,0,1,1.69,1.26,1.26,0,0,0,.63.18,1,1,0,0,0,1-1.14,2.11,2.11,0,0,0-1-1.69,1.32,1.32,0,0,0-.63-.17Z" class="color383838 svgShape"></path><path fill="#ffffff" d="M88.13,226.9a1,1,0,0,1-.51-.15,1.84,1.84,0,0,1-.86-1.49.91.91,0,0,1,.41-.81.76.76,0,0,1,.39-.1,1,1,0,0,1,.52.15,1.84,1.84,0,0,1,.86,1.49.9.9,0,0,1-.42.81A.84.84,0,0,1,88.13,226.9Z" class="colorffffff svgShape"></path><path fill="#383838" d="M87.56,224.58a.77.77,0,0,1,.4.12,1.63,1.63,0,0,1,.75,1.29.67.67,0,0,1-.3.61.64.64,0,0,1-.28.07.83.83,0,0,1-.4-.12,1.64,1.64,0,0,1-.74-1.29.67.67,0,0,1,.3-.61.5.5,0,0,1,.27-.07Zm0-.46a1,1,0,0,0-.5.14,1.1,1.1,0,0,0-.53,1,2.11,2.11,0,0,0,1,1.69,1.41,1.41,0,0,0,.63.18,1,1,0,0,0,.51-.14,1.12,1.12,0,0,0,.53-1,2.09,2.09,0,0,0-1-1.69,1.23,1.23,0,0,0-.63-.18Z" class="color383838 svgShape"></path><path fill="#ffffff" d="M91.05,228.58a1.12,1.12,0,0,1-.51-.14,1.87,1.87,0,0,1-.86-1.49.9.9,0,0,1,.41-.81.76.76,0,0,1,.39-.1,1.13,1.13,0,0,1,.52.14,1.87,1.87,0,0,1,.86,1.5.88.88,0,0,1-.41.8A.79.79,0,0,1,91.05,228.58Z" class="colorffffff svgShape"></path><path fill="#383838" d="M90.48,226.27a.76.76,0,0,1,.4.11,1.63,1.63,0,0,1,.75,1.3.66.66,0,0,1-.3.6.53.53,0,0,1-.28.07.75.75,0,0,1-.39-.11,1.63,1.63,0,0,1-.75-1.29.67.67,0,0,1,.3-.61.52.52,0,0,1,.27-.07Zm0-.46h0a1,1,0,0,0-.5.13,1.11,1.11,0,0,0-.53,1,2.08,2.08,0,0,0,1,1.68,1.23,1.23,0,0,0,.62.18,1,1,0,0,0,.51-.13,1.13,1.13,0,0,0,.53-1,2.08,2.08,0,0,0-1-1.69,1.23,1.23,0,0,0-.62-.18Z" class="color383838 svgShape"></path><path fill="#ffffff" d="M94,230.27a1,1,0,0,1-.51-.15,1.84,1.84,0,0,1-.86-1.49.88.88,0,0,1,.41-.8.77.77,0,0,1,.4-.11,1,1,0,0,1,.51.15,1.84,1.84,0,0,1,.86,1.49.91.91,0,0,1-.41.81A.79.79,0,0,1,94,230.27Z" class="colorffffff svgShape"></path><path fill="#383838" d="M93.41,228a.77.77,0,0,1,.39.12,1.63,1.63,0,0,1,.75,1.29.67.67,0,0,1-.3.61A.53.53,0,0,1,94,230a.77.77,0,0,1-.39-.12,1.63,1.63,0,0,1-.75-1.29.67.67,0,0,1,.3-.61.64.64,0,0,1,.28-.07Zm0-.46h0a1,1,0,0,0-.51.14,1.1,1.1,0,0,0-.53,1,2.09,2.09,0,0,0,1,1.69,1.23,1.23,0,0,0,.62.18,1.1,1.1,0,0,0,.51-.13,1.13,1.13,0,0,0,.53-1,2.09,2.09,0,0,0-1-1.69,1.3,1.3,0,0,0-.62-.18Z" class="color383838 svgShape"></path><path fill="#ffffff" d="M96.89,232a1,1,0,0,1-.51-.15,1.85,1.85,0,0,1-.86-1.49.91.91,0,0,1,.41-.81.77.77,0,0,1,.4-.1,1,1,0,0,1,.51.15,1.84,1.84,0,0,1,.86,1.49.88.88,0,0,1-.41.8A.83.83,0,0,1,96.89,232Z" class="colorffffff svgShape"></path><path fill="#383838" d="M96.33,229.64a.86.86,0,0,1,.39.11,1.64,1.64,0,0,1,.75,1.3.68.68,0,0,1-.3.61.64.64,0,0,1-.28.07.77.77,0,0,1-.39-.12,1.63,1.63,0,0,1-.75-1.29.67.67,0,0,1,.3-.61.53.53,0,0,1,.28-.07Zm0-.46h0a1.1,1.1,0,0,0-.51.13,1.13,1.13,0,0,0-.53,1,2.07,2.07,0,0,0,1,1.69,1.33,1.33,0,0,0,.62.18,1,1,0,0,0,.51-.14,1.13,1.13,0,0,0,.53-1,2.09,2.09,0,0,0-1-1.69,1.2,1.2,0,0,0-.62-.18Z" class="color383838 svgShape"></path><path fill="#ffffff" d="M39.54,198.71a1.13,1.13,0,0,1-.52-.14,1.87,1.87,0,0,1-.86-1.49.88.88,0,0,1,.42-.81.76.76,0,0,1,.39-.1,1.09,1.09,0,0,1,.51.14,1.87,1.87,0,0,1,.86,1.5.88.88,0,0,1-.41.8A.76.76,0,0,1,39.54,198.71Z" class="colorffffff svgShape"></path><path fill="#383838" d="M39,196.4a.78.78,0,0,1,.4.11,1.61,1.61,0,0,1,.74,1.29.67.67,0,0,1-.3.61.52.52,0,0,1-.27.07.76.76,0,0,1-.4-.11,1.63,1.63,0,0,1-.75-1.3.66.66,0,0,1,.3-.6.55.55,0,0,1,.28-.07Zm0-.46a1,1,0,0,0-.51.13,1.12,1.12,0,0,0-.53,1,2.08,2.08,0,0,0,1,1.69,1.23,1.23,0,0,0,.63.18,1,1,0,0,0,.5-.13,1.14,1.14,0,0,0,.53-1,2.08,2.08,0,0,0-1-1.68,1.2,1.2,0,0,0-.62-.18Z" class="color383838 svgShape"></path><path fill="#ffffff" d="M42.46,200.4a1,1,0,0,1-.52-.15,1.84,1.84,0,0,1-.86-1.49.87.87,0,0,1,.42-.8.77.77,0,0,1,.39-.11,1,1,0,0,1,.51.15,1.87,1.87,0,0,1,.86,1.49.91.91,0,0,1-.41.81A.76.76,0,0,1,42.46,200.4Z" class="colorffffff svgShape"></path><path fill="#383838" d="M41.89,198.08a.8.8,0,0,1,.4.12,1.61,1.61,0,0,1,.74,1.29.67.67,0,0,1-.3.61.5.5,0,0,1-.27.07.77.77,0,0,1-.4-.12,1.63,1.63,0,0,1-.75-1.29.67.67,0,0,1,.3-.61.68.68,0,0,1,.28-.07Zm0-.46a1,1,0,0,0-.51.14,1.11,1.11,0,0,0-.52,1,2.08,2.08,0,0,0,1,1.69,1.23,1.23,0,0,0,.63.18,1.06,1.06,0,0,0,.5-.13,1.15,1.15,0,0,0,.53-1,2.11,2.11,0,0,0-1-1.69,1.37,1.37,0,0,0-.63-.18Z" class="color383838 svgShape"></path><path fill="#ffffff" d="M45.38,202.09a1,1,0,0,1-.51-.15,1.83,1.83,0,0,1-.86-1.49.9.9,0,0,1,.41-.81.76.76,0,0,1,.39-.1,1.09,1.09,0,0,1,.51.14,1.87,1.87,0,0,1,.86,1.5.88.88,0,0,1-.41.8A.77.77,0,0,1,45.38,202.09Z" class="colorffffff svgShape"></path><path fill="#383838" d="M44.81,199.77a.89.89,0,0,1,.4.11,1.63,1.63,0,0,1,.74,1.3.71.71,0,0,1-.29.61.68.68,0,0,1-.28.07.77.77,0,0,1-.4-.12,1.63,1.63,0,0,1-.75-1.29.67.67,0,0,1,.3-.61.55.55,0,0,1,.28-.07Zm0-.46a1.1,1.1,0,0,0-.51.13,1.13,1.13,0,0,0-.52,1,2.1,2.1,0,0,0,1,1.69,1.32,1.32,0,0,0,.63.17,1,1,0,0,0,.5-.13,1.1,1.1,0,0,0,.53-1,2.11,2.11,0,0,0-1-1.69,1.26,1.26,0,0,0-.63-.18Z" class="color383838 svgShape"></path><path fill="#ffffff" d="M48.3,203.77a1.06,1.06,0,0,1-.51-.14,1.86,1.86,0,0,1-.87-1.5.88.88,0,0,1,.42-.8.76.76,0,0,1,.39-.1,1.06,1.06,0,0,1,.51.14,1.87,1.87,0,0,1,.86,1.49.9.9,0,0,1-.41.81A.73.73,0,0,1,48.3,203.77Z" class="colorffffff svgShape"></path><path fill="#383838" d="M47.73,201.45a.8.8,0,0,1,.4.12,1.61,1.61,0,0,1,.74,1.29.66.66,0,0,1-.29.61.55.55,0,0,1-.28.07.86.86,0,0,1-.4-.11,1.63,1.63,0,0,1-.75-1.3.66.66,0,0,1,.3-.6.57.57,0,0,1,.28-.08Zm0-.45h0a1,1,0,0,0-.51.13,1.12,1.12,0,0,0-.52,1,2.07,2.07,0,0,0,1,1.69,1.23,1.23,0,0,0,.63.18,1.06,1.06,0,0,0,.5-.13,1.12,1.12,0,0,0,.53-1,2.12,2.12,0,0,0-1-1.69,1.32,1.32,0,0,0-.63-.17Z" class="color383838 svgShape"></path><path fill="#ffffff" d="M51.22,205.46a1,1,0,0,1-.51-.15,1.83,1.83,0,0,1-.87-1.49.92.92,0,0,1,.42-.81.87.87,0,0,1,.39-.1,1,1,0,0,1,.51.15,1.84,1.84,0,0,1,.86,1.49.91.91,0,0,1-.41.81A.87.87,0,0,1,51.22,205.46Z" class="colorffffff svgShape"></path><path fill="#383838" d="M50.65,203.14a.77.77,0,0,1,.4.12,1.61,1.61,0,0,1,.74,1.29.69.69,0,0,1-.29.61.55.55,0,0,1-.28.07.77.77,0,0,1-.4-.12,1.63,1.63,0,0,1-.75-1.29.67.67,0,0,1,.3-.61.55.55,0,0,1,.28-.07Zm0-.46a1,1,0,0,0-.51.14,1.11,1.11,0,0,0-.52,1,2.11,2.11,0,0,0,1,1.69,1.26,1.26,0,0,0,.63.18,1.06,1.06,0,0,0,.5-.13,1.13,1.13,0,0,0,.53-1,2.11,2.11,0,0,0-1-1.69,1.23,1.23,0,0,0-.63-.18Z" class="color383838 svgShape"></path><path fill="#8b39fe" d="M86.06,184.07l27,15.58c3.69,2.14,3.71,5.61,0,7.75a14.9,14.9,0,0,1-13.44,0l-27-15.58c-3.71-2.13-3.71-5.61,0-7.76A14.91,14.91,0,0,1,86.06,184.07Z" class="colorfeda39 svgShape"></path><path fill="#383838" d="M106.3,209.22a14,14,0,0,1-6.81-1.62L72.51,192c-1.86-1.07-2.89-2.51-2.89-4.06s1-3,2.9-4.08a15.19,15.19,0,0,1,13.65,0h0l27,15.58C115,200.54,116,202,116,203.53s-1,3-2.88,4.06A14.13,14.13,0,0,1,106.3,209.22Zm-27-26.53a13.44,13.44,0,0,0-6.59,1.57c-1.73,1-2.68,2.32-2.68,3.7s1,2.69,2.67,3.69l27,15.57a14.71,14.71,0,0,0,13.23,0c1.72-1,2.67-2.3,2.67-3.68s-.95-2.69-2.67-3.69L86,184.26A13.61,13.61,0,0,0,79.33,182.69Z" class="color383838 svgShape"></path><path fill="#ffffff" d="M106.36,206.83c-3.78,0-6.73-1.62-6.73-3.69s3-3.69,6.73-3.69,6.74,1.62,6.74,3.69c0,.06,0,.11,0,.16C112.87,205.31,109.92,206.83,106.36,206.83Z" class="colorffffff svgShape"></path><path fill="#383838" d="M106.36,199.68c3.6,0,6.51,1.55,6.51,3.46a1.36,1.36,0,0,1,0,.2c-.19,1.82-3,3.26-6.49,3.26s-6.51-1.55-6.51-3.46,2.92-3.46,6.51-3.46Zm0-.46c-3.9,0-7,1.72-7,3.92s3.06,3.92,7,3.92c3.74,0,6.72-1.58,7-3.67v0a1.36,1.36,0,0,0,0-.2c0-2.2-3.06-3.92-7-3.92Z" class="color383838 svgShape"></path><polygon fill="#ffffff" points="104.26 201.48 102.58 203.14 110.48 203.14 104.26 201.48" class="colorffffff svgShape"></polygon><polygon fill="#383838" points="110.48 203.37 102.02 203.37 104.1 201.31 104.42 201.64 103.13 202.91 110.48 202.91 110.48 203.37" class="color383838 svgShape"></polygon><path fill="#8b39fe" d="M110.48,203.71h-7.9a.56.56,0,0,1-.53-.35.58.58,0,0,1,.12-.63l1.69-1.66.8.81-.69.69h6.51Z" class="colorfeda39 svgShape"></path><path fill="#383838" d="M110.7,203.93h-8.12a.8.8,0,0,1-.74-.49.78.78,0,0,1,.18-.86l1.84-1.82,1.11,1.13-.47.46h6.2Zm-6.84-2.55-1.53,1.51a.32.32,0,0,0-.08.38.35.35,0,0,0,.33.23h7.68v-.72h-6.82l.92-.9Z" class="color383838 svgShape"></path><polygon fill="#6929c2" points="178.04 141.99 168.93 136.82 167.01 137.87 176.13 143.04 178.04 141.99" class="color969a9f svgShape"></polygon><path fill="#383838" d="M176.13,143.3l-.11-.06-9.47-5.37,2.38-1.31,9.58,5.43Zm-8.65-5.42,8.65,4.9,1.45-.79-8.66-4.9Z" class="color383838 svgShape"></path><polygon fill="#6929c2" points="167.07 135.77 162.52 133.19 160.6 134.24 165.16 136.82 167.07 135.77" class="color969a9f svgShape"></polygon><path fill="#383838" d="M165.16,137.09l-5-2.85,2.38-1.31,5,2.85Zm-4.09-2.85,4.1,2.32,1.44-.79-4.1-2.32Z" class="color383838 svgShape"></path><polygon fill="#6929c2" points="166.47 130.43 162.58 128.22 160.67 129.28 164.55 131.47 166.47 130.43" class="color969a9f svgShape"></polygon><path fill="#383838" d="M164.55,131.74l-4.35-2.47,2.38-1.31,4.36,2.47Zm-3.41-2.46,3.42,1.93,1.44-.79-3.42-1.93Z" class="color383838 svgShape"></path><polygon fill="#6929c2" points="172.97 134.11 168.41 131.53 166.5 132.58 171.06 135.16 172.97 134.11" class="color969a9f svgShape"></polygon><path fill="#383838" d="M171.06,135.43l-5-2.85,2.38-1.31,5,2.85ZM167,132.58l4.09,2.32,1.44-.79-4.09-2.32Z" class="color383838 svgShape"></path><polygon fill="#6929c2" points="184.98 135.92 167.06 125.76 165.15 126.81 183.07 136.97 184.98 135.92" class="color969a9f svgShape"></polygon><path fill="#383838" d="M183.06,137.23l-.11-.06-18.27-10.36,2.38-1.31.11.06,18.28,10.36Zm-17.44-10.42,17.45,9.89,1.44-.79L167.06,126Z" class="color383838 svgShape"></path><polygon fill="#6929c2" points="175.43 125.5 171.54 123.3 169.63 124.35 173.52 126.55 175.43 125.5" class="color969a9f svgShape"></polygon><path fill="#383838" d="M173.51,126.81l-4.35-2.46,2.38-1.31,4.36,2.46Zm-3.41-2.46,3.42,1.94,1.44-.79-3.42-1.94Z" class="color383838 svgShape"></path><polygon fill="#6929c2" points="181.93 129.19 177.38 126.61 175.46 127.65 180.02 130.24 181.93 129.19" class="color969a9f svgShape"></polygon><path fill="#383838" d="M180,130.5l-5-2.85,2.38-1.31,5,2.85Zm-4.09-2.84L180,130l1.43-.79-4.09-2.32Z" class="color383838 svgShape"></path><polygon fill="#6929c2" points="185.87 126.42 176.02 120.84 174.11 121.89 183.96 127.47 185.87 126.42" class="color969a9f svgShape"></polygon><path fill="#383838" d="M184,127.73l-10.32-5.85,2.39-1.31,10.31,5.85Zm-9.38-5.84,9.38,5.32,1.44-.79L176,121.1Z" class="color383838 svgShape"></path><polygon fill="#6929c2" points="192.47 130.16 187.91 127.57 186 128.62 190.55 131.21 192.47 130.16" class="color969a9f svgShape"></polygon><path fill="#383838" d="M190.55,131.47l-5-2.85,2.38-1.31,5,2.85Zm-4.09-2.84,4.1,2.31,1.44-.79-4.1-2.32Z" class="color383838 svgShape"></path><polygon fill="#6929c2" points="199.09 133.91 194.53 131.33 192.62 132.38 197.18 134.96 199.09 133.91" class="color969a9f svgShape"></polygon><path fill="#383838" d="M197.18,135.22l-5-2.84,2.38-1.31,5,2.84Zm-4.09-2.84,4.09,2.32,1.44-.79-4.09-2.32Z" class="color383838 svgShape"></path><polygon fill="#6929c2" points="209.79 139.97 201.16 135.08 199.25 136.13 207.88 141.02 209.79 139.97" class="color969a9f svgShape"></polygon><path fill="#383838" d="M207.87,141.29l-9.09-5.16,2.38-1.31,9.1,5.16Zm-8.15-5.15,8.16,4.62,1.44-.79-8.16-4.62Z" class="color383838 svgShape"></path><polygon fill="#6929c2" points="213.58 132.12 209.02 129.53 207.11 130.58 211.67 133.17 213.58 132.12" class="color969a9f svgShape"></polygon><path fill="#383838" d="M211.66,133.43l-5-2.85,2.38-1.31,5,2.85Zm-4.08-2.84,4.09,2.32,1.44-.8L209,129.8Z" class="color383838 svgShape"></path><polygon fill="#6929c2" points="224.27 138.18 215.65 133.29 213.74 134.34 222.36 139.23 224.27 138.18" class="color969a9f svgShape"></polygon><path fill="#383838" d="M222.36,139.49l-9.09-5.15,2.38-1.31,9.09,5.15Zm-8.16-5.15,8.16,4.63,1.44-.79-8.16-4.63Z" class="color383838 svgShape"></path><polygon fill="#383838" points="189.54 118.5 184.98 115.91 183.07 116.96 187.63 119.55 189.54 118.5" class="color383838 svgShape"></polygon><polygon fill="#6929c2" points="196.17 122.25 191.61 119.67 189.7 120.72 194.26 123.3 196.17 122.25" class="color969a9f svgShape"></polygon><path fill="#383838" d="M194.26,123.56l-5-2.84,2.38-1.31,5,2.84Zm-4.09-2.84,4.09,2.32,1.44-.79-4.09-2.32Z" class="color383838 svgShape"></path><polygon fill="#6929c2" points="206.87 128.31 198.24 123.42 196.33 124.47 204.95 129.36 206.87 128.31" class="color969a9f svgShape"></polygon><path fill="#383838" d="M205,129.63l-9.09-5.16,2.38-1.31.11.06,9,5.1Zm-8.15-5.15L205,129.1l1.44-.79-8.16-4.63Z" class="color383838 svgShape"></path><polygon fill="#6929c2" points="215.57 138.25 211.01 135.66 209.1 136.72 213.66 139.3 215.57 138.25" class="color969a9f svgShape"></polygon><path fill="#383838" d="M213.66,139.56l-5-2.85L211,135.4l5,2.85Zm-4.09-2.84,4.09,2.32,1.44-.79L211,135.93Z" class="color383838 svgShape"></path><polygon fill="#6929c2" points="222.2 142 217.64 139.42 215.73 140.47 220.28 143.06 222.2 142" class="color969a9f svgShape"></polygon><path fill="#383838" d="M220.28,143.32l-5-2.85,2.38-1.31,5,2.85Zm-4.08-2.85,4.09,2.32,1.44-.79-4.09-2.32Z" class="color383838 svgShape"></path><polygon fill="#6929c2" points="192.89 135.08 184.27 130.19 182.36 131.24 190.98 136.13 192.89 135.08" class="color969a9f svgShape"></polygon><path fill="#383838" d="M191,136.39l-9.09-5.15,2.38-1.31,9.09,5.15Zm-8.15-5.15,8.15,4.63,1.44-.79-8.16-4.63Z" class="color383838 svgShape"></path><polygon fill="#6929c2" points="198.5 113.57 193.95 110.99 192.03 112.04 196.59 114.62 198.5 113.57" class="color969a9f svgShape"></polygon><path fill="#383838" d="M196.59,114.88l-5-2.85,2.38-1.31,5,2.85ZM192.5,112l4.1,2.32,1.44-.79L194,111.25Z" class="color383838 svgShape"></path><polygon fill="#6929c2" points="209.2 119.63 200.57 114.74 198.66 115.79 207.29 120.68 209.2 119.63" class="color969a9f svgShape"></polygon><path fill="#383838" d="M207.29,120.94l-9.1-5.15,2.39-1.31,9.09,5.15Zm-8.16-5.14,8.16,4.62,1.44-.79L200.57,115Z" class="color383838 svgShape"></path><polygon fill="#6929c2" points="198.61 143.64 194.05 141.06 192.14 142.11 196.69 144.69 198.61 143.64" class="color969a9f svgShape"></polygon><path fill="#383838" d="M196.69,145l-5-2.85,2.38-1.3,5,2.84Zm-4.08-2.84,4.09,2.32,1.44-.79-4.1-2.32Z" class="color383838 svgShape"></path><polygon fill="#6929c2" points="191.71 139.73 187.15 137.15 185.24 138.2 189.8 140.78 191.71 139.73" class="color969a9f svgShape"></polygon><path fill="#383838" d="M189.8,141.05l-5-2.85,2.39-1.31,5,2.85Zm-4.09-2.85,4.09,2.32,1.44-.79-4.09-2.32Z" class="color383838 svgShape"></path><polygon fill="#383838" points="209.3 149.7 200.67 144.81 198.76 145.86 207.39 150.75 209.3 149.7" class="color383838 svgShape"></polygon><polygon fill="#6929c2" points="184.62 120.7 180.5 118.37 178.59 119.42 182.71 121.75 184.62 120.7" class="color969a9f svgShape"></polygon><path fill="#383838" d="M182.7,122l-4.58-2.6,2.39-1.31,4.58,2.6Zm-3.64-2.59,3.65,2.06,1.44-.79-3.65-2.07Z" class="color383838 svgShape"></path><polygon fill="#6929c2" points="196.81 127.62 186.82 121.95 184.91 123 194.9 128.67 196.81 127.62" class="color969a9f svgShape"></polygon><path fill="#383838" d="M194.9,128.93l-.11-.06L184.44,123l2.38-1.31,10.46,5.93ZM185.38,123l9.52,5.4,1.44-.79-9.53-5.41Z" class="color383838 svgShape"></path><polygon fill="#6929c2" points="209.01 134.53 199.01 128.87 197.1 129.91 207.1 135.58 209.01 134.53" class="color969a9f svgShape"></polygon><path fill="#383838" d="M207.1,135.84l-10.47-5.93L199,128.6l.12.07,10.35,5.86Zm-9.53-5.92,9.53,5.4,1.44-.79-9.53-5.4Z" class="color383838 svgShape"></path><polygon fill="#6929c2" points="215.64 153.29 211.52 150.96 209.61 152.01 213.72 154.34 215.64 153.29" class="color969a9f svgShape"></polygon><path fill="#383838" d="M213.72,154.61l-4.58-2.6,2.38-1.31,4.58,2.6Zm-3.64-2.6,3.65,2.07,1.44-.79-3.65-2.07Z" class="color383838 svgShape"></path><polygon fill="#6929c2" points="189.95 148.71 179.96 143.04 178.04 144.09 188.04 149.76 189.95 148.71" class="color969a9f svgShape"></polygon><path fill="#383838" d="M188,150l-.11-.06-10.35-5.87,2.38-1.31,10.46,5.93Zm-9.53-5.93L188,149.5l1.44-.79L180,143.3Z" class="color383838 svgShape"></path><polygon fill="#6929c2" points="139.55 160.99 130.43 155.82 128.52 156.87 137.64 162.04 139.55 160.99" class="color969a9f svgShape"></polygon><path fill="#383838" d="M137.64,162.3l-.11-.06-9.48-5.37,2.38-1.31L140,161ZM129,156.87l8.65,4.91,1.44-.8-8.65-4.9Z" class="color383838 svgShape"></path><polygon fill="#6929c2" points="128.58 154.77 124.02 152.19 122.11 153.24 126.67 155.82 128.58 154.77" class="color969a9f svgShape"></polygon><path fill="#383838" d="M126.67,156.08l-5-2.85,2.38-1.31,5,2.85Zm-4.09-2.84,4.09,2.32,1.44-.79L124,152.45Z" class="color383838 svgShape"></path><polygon fill="#6929c2" points="127.97 149.42 124.09 147.22 122.18 148.27 126.06 150.47 127.97 149.42" class="color969a9f svgShape"></polygon><path fill="#383838" d="M126.06,150.73l-4.35-2.46,2.38-1.31,4.35,2.46Zm-3.41-2.46,3.41,1.94,1.44-.79-3.41-1.94Z" class="color383838 svgShape"></path><polygon fill="#6929c2" points="134.48 153.11 129.92 150.53 128.01 151.58 132.57 154.16 134.48 153.11" class="color969a9f svgShape"></polygon><path fill="#383838" d="M132.57,154.42l-5-2.85,2.38-1.31,5,2.85Zm-4.09-2.84,4.09,2.32,1.44-.79-4.09-2.32Z" class="color383838 svgShape"></path><polygon fill="#6929c2" points="146.48 154.91 128.57 144.76 126.66 145.81 144.57 155.96 146.48 154.91" class="color969a9f svgShape"></polygon><path fill="#383838" d="M144.57,156.22l-.11-.06L126.19,145.8l2.38-1.3.11.06L147,154.92Zm-17.44-10.41,17.45,9.89,1.43-.79L128.57,145Z" class="color383838 svgShape"></path><polygon fill="#6929c2" points="164.18 169.52 159.62 166.94 157.71 167.99 162.27 170.57 164.18 169.52" class="color969a9f svgShape"></polygon><path fill="#383838" d="M162.27,170.83l-5-2.85,2.38-1.3,5,2.84ZM158.18,168l4.09,2.32,1.44-.79-4.09-2.32Z" class="color383838 svgShape"></path><polygon fill="#6929c2" points="145.16 159.3 136.54 154.41 134.63 155.46 143.25 160.35 145.16 159.3" class="color969a9f svgShape"></polygon><path fill="#383838" d="M143.25,160.62l-9.09-5.16,2.38-1.31.11.06,9,5.1Zm-8.16-5.15,8.16,4.62,1.44-.79-8.16-4.63Z" class="color383838 svgShape"></path><polygon fill="#6929c2" points="151.46 167.71 141.46 162.04 139.55 163.09 149.55 168.75 151.46 167.71" class="color969a9f svgShape"></polygon><path fill="#383838" d="M149.55,169l-10.47-5.93,2.38-1.31,10.47,5.93ZM140,163.09l9.53,5.4,1.44-.79-9.53-5.4Z" class="color383838 svgShape"></path><polygon fill="#8b39fe" points="199.55 119.17 189.56 113.5 187.64 114.55 197.64 120.22 199.55 119.17" class="colorfeda39 svgShape"></polygon><path fill="#383838" d="M197.64,120.46l-.11-.06-10.33-5.85,2.36-1.3.1.06L200,119.17Zm-9.55-5.91,9.55,5.42,1.47-.81-9.56-5.41Z" class="color383838 svgShape"></path><polygon fill="#6929c2" points="204.82 122.15 201.75 120.41 199.84 121.46 202.91 123.2 204.82 122.15" class="color969a9f svgShape"></polygon><path fill="#383838" d="M202.91,123.47l-3.54-2,2.38-1.31,3.54,2Zm-2.6-2,2.6,1.47,1.44-.79-2.6-1.48Z" class="color383838 svgShape"></path><polygon fill="#6929c2" points="210.1 125.15 207.03 123.41 205.12 124.46 208.19 126.2 210.1 125.15" class="color969a9f svgShape"></polygon><path fill="#383838" d="M208.19,126.46l-3.54-2,2.38-1.31,3.54,2Zm-2.6-2,2.61,1.47,1.43-.79-2.6-1.47Z" class="color383838 svgShape"></path><polygon fill="#6929c2" points="219.87 130.68 212.31 126.4 210.4 127.45 217.96 131.73 219.87 130.68" class="color969a9f svgShape"></polygon><path fill="#383838" d="M218,132l-.12-.06-7.91-4.48,2.39-1.31,8,4.54Zm-7.09-4.54,7.09,4,1.44-.79-7.09-4Z" class="color383838 svgShape"></path><polygon fill="#6929c2" points="214.89 142.86 211.81 141.12 209.9 142.17 212.97 143.91 214.89 142.86" class="color969a9f svgShape"></polygon><path fill="#383838" d="M213,144.17l-3.54-2,2.39-1.31,3.53,2Zm-2.6-2,2.61,1.47,1.44-.79-2.61-1.48Z" class="color383838 svgShape"></path><polygon fill="#6929c2" points="224.65 148.4 217.1 144.12 215.19 145.17 222.74 149.45 224.65 148.4" class="color969a9f svgShape"></polygon><path fill="#383838" d="M222.74,149.71l-8-4.55,2.38-1.31.11.07,7.91,4.48Zm-7.09-4.54,7.09,4,1.44-.79-7.09-4Z" class="color383838 svgShape"></path><polygon fill="#6929c2" points="218.62 124.93 211.06 120.65 209.15 121.7 216.7 125.98 218.62 124.93" class="color969a9f svgShape"></polygon><path fill="#383838" d="M216.7,126.24l-8-4.55,2.38-1.3,8,4.54Zm-7.08-4.54,7.09,4,1.44-.79-7.09-4Z" class="color383838 svgShape"></path><polygon fill="#6929c2" points="118.88 191.01 100.97 180.86 99.06 181.91 116.97 192.06 118.88 191.01" class="color969a9f svgShape"></polygon><path fill="#383838" d="M117,192.32l-.11-.06L98.59,181.9l2.38-1.31.11.07L119.35,191ZM99.53,181.91,117,191.8l1.44-.79L101,181.12Z" class="color383838 svgShape"></path><polygon fill="#6929c2" points="106.6 173.75 102.05 171.16 100.13 172.21 104.69 174.8 106.6 173.75" class="color969a9f svgShape"></polygon><path fill="#383838" d="M104.69,175.06l-5-2.85,2.39-1.31,5,2.85Zm-4.09-2.84,4.09,2.32,1.45-.79-4.1-2.32Z" class="color383838 svgShape"></path><polygon fill="#6929c2" points="113.74 177.79 109.18 175.21 107.27 176.26 111.83 178.84 113.74 177.79" class="color969a9f svgShape"></polygon><path fill="#383838" d="M111.82,179.1l-5-2.85,2.38-1.31,5,2.85Zm-4.08-2.84,4.09,2.32,1.44-.79-4.09-2.32Z" class="color383838 svgShape"></path><polygon fill="#6929c2" points="124.43 183.85 115.81 178.96 113.89 180.01 122.52 184.9 124.43 183.85" class="color969a9f svgShape"></polygon><path fill="#383838" d="M122.52,185.16l-.11-.06-9-5.09,2.39-1.31.11.06,9,5.09ZM114.36,180l8.16,4.62,1.44-.79-8.16-4.63Z" class="color383838 svgShape"></path><polygon fill="#6929c2" points="124.01 178.61 119.45 176.03 117.54 177.08 122.1 179.66 124.01 178.61" class="color969a9f svgShape"></polygon><path fill="#383838" d="M122.1,179.92l-5-2.84,2.38-1.31,5,2.85ZM118,177.08l4.09,2.32,1.44-.79-4.09-2.32Z" class="color383838 svgShape"></path><polygon fill="#6929c2" points="134.71 184.67 126.08 179.78 124.17 180.83 132.79 185.72 134.71 184.67" class="color969a9f svgShape"></polygon><path fill="#383838" d="M132.79,186l-.11-.07-9-5.09,2.38-1.31.11.07,9,5.09Zm-8.15-5.15,8.16,4.62,1.44-.79-8.16-4.62Z" class="color383838 svgShape"></path><polygon fill="#6929c2" points="116.75 169.5 106.91 163.91 104.99 164.96 114.84 170.55 116.75 169.5" class="color969a9f svgShape"></polygon><path fill="#383838" d="M114.84,170.81,104.52,165l2.39-1.31,10.31,5.85ZM105.46,165l9.39,5.32,1.44-.8-9.39-5.31Z" class="color383838 svgShape"></path><polygon fill="#6929c2" points="123.35 173.23 118.79 170.65 116.88 171.7 121.44 174.28 123.35 173.23" class="color969a9f svgShape"></polygon><path fill="#383838" d="M121.43,174.55l-5-2.85,2.38-1.31,5,2.85Zm-4.08-2.85,4.09,2.32,1.44-.79-4.09-2.32Z" class="color383838 svgShape"></path><polygon fill="#6929c2" points="129.97 176.99 125.42 174.41 123.5 175.46 128.06 178.04 129.97 176.99" class="color969a9f svgShape"></polygon><path fill="#383838" d="M128.06,178.3l-5-2.85,2.39-1.31,5,2.85ZM124,175.46l4.09,2.32,1.45-.79-4.1-2.32Z" class="color383838 svgShape"></path><polygon fill="#6929c2" points="140.67 183.05 132.04 178.16 130.13 179.21 138.76 184.1 140.67 183.05" class="color969a9f svgShape"></polygon><path fill="#383838" d="M138.76,184.36l-.12-.06-9-5.09L132,177.9l.11.06,9,5.09Zm-8.16-5.14,8.16,4.62,1.44-.79L132,178.42Z" class="color383838 svgShape"></path><polygon fill="#6929c2" points="147.51 186.93 142.95 184.34 141.04 185.4 145.6 187.98 147.51 186.93" class="color969a9f svgShape"></polygon><path fill="#383838" d="M145.6,188.24l-5-2.85,2.38-1.31,5,2.85Zm-4.09-2.84,4.09,2.32,1.44-.79L143,184.61Z" class="color383838 svgShape"></path><polygon fill="#383838" points="98.16 178.83 89.53 173.94 87.62 174.99 96.25 179.88 98.16 178.83" class="color383838 svgShape"></polygon><polygon fill="#6929c2" points="136.02 170.41 131.46 167.82 129.55 168.88 134.1 171.46 136.02 170.41" class="color969a9f svgShape"></polygon><path fill="#383838" d="M134.1,171.72l-5-2.85,2.38-1.31,5,2.85ZM130,168.88l4.09,2.32,1.44-.79-4.09-2.32Z" class="color383838 svgShape"></path><polygon fill="#6929c2" points="146.71 176.47 138.08 171.58 136.17 172.63 144.8 177.52 146.71 176.47" class="color969a9f svgShape"></polygon><path fill="#383838" d="M144.8,177.78l-9.1-5.15,2.39-1.31,9.09,5.15Zm-8.16-5.15,8.16,4.63,1.44-.79-8.16-4.63Z" class="color383838 svgShape"></path><polygon fill="#6929c2" points="112.2 156.91 107.65 154.33 105.73 155.38 110.29 157.96 112.2 156.91" class="color969a9f svgShape"></polygon><path fill="#383838" d="M110.29,158.22l-5-2.84,2.38-1.31,5,2.85Zm-4.09-2.84,4.1,2.32,1.44-.79-4.1-2.32Z" class="color383838 svgShape"></path><polygon fill="#6929c2" points="118.83 160.67 114.27 158.09 112.36 159.14 116.92 161.72 118.83 160.67" class="color969a9f svgShape"></polygon><path fill="#383838" d="M116.92,162l-5-2.85,2.38-1.31,5,2.85Zm-4.09-2.84,4.09,2.32,1.44-.79-4.09-2.32Z" class="color383838 svgShape"></path><polygon fill="#8b39fe" points="129.53 166.73 120.9 161.84 118.99 162.89 127.61 167.78 129.53 166.73" class="colorfeda39 svgShape"></polygon><path fill="#383838" d="M127.61,168l-.1-.06-9-5.08,2.36-1.3.11.06,9,5.08Zm-8.18-5.14,8.19,4.64,1.46-.8-8.18-4.64Z" class="color383838 svgShape"></path><polygon fill="#6929c2" points="115.5 163.78 111.39 161.45 109.48 162.5 113.59 164.83 115.5 163.78" class="color969a9f svgShape"></polygon><path fill="#383838" d="M113.59,165.09,109,162.5l2.38-1.31,4.58,2.6ZM110,162.51l3.64,2.06,1.44-.79-3.65-2.07Z" class="color383838 svgShape"></path><polygon fill="#6929c2" points="127.7 170.7 117.7 165.03 115.79 166.08 125.79 171.75 127.7 170.7" class="color969a9f svgShape"></polygon><path fill="#383838" d="M125.78,172l-10.46-5.93,2.38-1.31.11.06,10.36,5.87Zm-9.52-5.93,9.53,5.4,1.44-.79-9.53-5.4Z" class="color383838 svgShape"></path><polygon fill="#6929c2" points="139.89 177.61 129.9 171.94 127.98 172.99 137.98 178.66 139.89 177.61" class="color969a9f svgShape"></polygon><path fill="#383838" d="M138,178.92,127.52,173l2.38-1.31.11.06,10.35,5.87ZM128.45,173l9.53,5.4,1.44-.79-9.53-5.41Z" class="color383838 svgShape"></path><polygon fill="#6929c2" points="130.95 197.73 120.96 192.06 119.05 193.11 129.04 198.78 130.95 197.73" class="color969a9f svgShape"></polygon><path fill="#383838" d="M129,199l-.11-.06-10.35-5.87L121,191.8l.11.06,10.35,5.87Zm-9.52-5.92,9.53,5.4,1.44-.79L121,192.32Z" class="color383838 svgShape"></path><polygon fill="#6929c2" points="119.42 156 116.35 154.26 114.44 155.31 117.51 157.05 119.42 156" class="color969a9f svgShape"></polygon><path fill="#383838" d="M117.51,157.31l-3.54-2,2.38-1.31,3.54,2Zm-2.6-2,2.6,1.48L119,156l-2.6-1.48Z" class="color383838 svgShape"></path><polygon fill="#6929c2" points="124.7 158.99 121.63 157.25 119.72 158.3 122.79 160.04 124.7 158.99" class="color969a9f svgShape"></polygon><path fill="#383838" d="M122.79,160.31l-3.54-2,2.38-1.31,3.54,2Zm-2.6-2,2.6,1.47,1.44-.79-2.6-1.48Z" class="color383838 svgShape"></path><polygon fill="#6929c2" points="134.47 164.53 126.91 160.25 125 161.3 132.56 165.58 134.47 164.53" class="color969a9f svgShape"></polygon><path fill="#383838" d="M132.55,165.84l-8-4.55,2.38-1.31.11.07,7.91,4.48Zm-7.08-4.54,7.09,4,1.44-.79-7.09-4Z" class="color383838 svgShape"></path><polygon fill="#6929c2" points="146.46 171.56 138.91 167.28 137 168.33 144.55 172.61 146.46 171.56" class="color969a9f svgShape"></polygon><path fill="#383838" d="M144.55,172.87l-8-4.54,2.38-1.31,8,4.55Zm-7.09-4.54,7.09,4,1.44-.79-7.09-4Z" class="color383838 svgShape"></path><polygon fill="#6929c2" points="97.41 163.54 94.34 161.8 92.43 162.85 95.5 164.59 97.41 163.54" class="color969a9f svgShape"></polygon><path fill="#383838" d="M95.5,164.85l-3.54-2,2.39-1.31,3.53,2Zm-2.6-2,2.6,1.48,1.45-.8-2.61-1.47Z" class="color383838 svgShape"></path><polygon fill="#6929c2" points="107.18 169.07 99.63 164.79 97.71 165.84 105.27 170.12 107.18 169.07" class="color969a9f svgShape"></polygon><path fill="#383838" d="M105.27,170.38l-8-4.54,2.39-1.31,8,4.54Zm-7.09-4.54,7.09,4,1.44-.79-7.09-4Z" class="color383838 svgShape"></path><polygon fill="#8b39fe" points="117.16 174.73 109.6 170.44 107.69 171.49 115.24 175.78 117.16 174.73" class="colorfeda39 svgShape"></polygon><path fill="#383838" d="M115.24,176l-.1-.06-7.9-4.48,2.36-1.29.11.06,7.89,4.47Zm-7.1-4.53,7.11,4,1.46-.81-7.11-4Z" class="color383838 svgShape"></path><polygon fill="#6929c2" points="106.17 178.37 101.61 175.79 99.7 176.84 104.26 179.42 106.17 178.37" class="color969a9f svgShape"></polygon><path fill="#383838" d="M104.26,179.69l-5-2.85,2.38-1.31,5,2.85Zm-4.09-2.85,4.09,2.32,1.44-.79-4.09-2.32Z" class="color383838 svgShape"></path><polygon fill="#6929c2" points="116.86 184.44 108.24 179.54 106.33 180.6 114.95 185.49 116.86 184.44" class="color969a9f svgShape"></polygon><path fill="#383838" d="M115,185.75l-9.09-5.16,2.38-1.31,9.09,5.16Zm-8.16-5.15,8.16,4.62,1.44-.79-8.15-4.62Z" class="color383838 svgShape"></path><polygon fill="#383838" points="149.38 182.99 141.83 178.71 139.92 179.76 147.47 184.04 149.38 182.99" class="color383838 svgShape"></polygon><polygon fill="#6929c2" points="99.31 174.49 91.76 170.21 89.85 171.26 97.4 175.54 99.31 174.49" class="color969a9f svgShape"></polygon><path fill="#383838" d="M97.4,175.8l-8-4.55,2.38-1.31.11.07,7.91,4.48Zm-7.08-4.54,7.08,4,1.44-.8-7.08-4Z" class="color383838 svgShape"></path><polygon fill="#6929c2" points="170.27 162.91 152.35 152.75 150.44 153.81 168.35 163.96 170.27 162.91" class="color969a9f svgShape"></polygon><path fill="#383838" d="M168.35,164.22l-.11-.06L150,153.8l2.38-1.31.11.07,18.28,10.35Zm-17.44-10.41,17.45,9.89,1.44-.79L152.35,153Z" class="color383838 svgShape"></path><polygon fill="#6929c2" points="157.99 145.65 153.43 143.06 151.52 144.11 156.08 146.69 157.99 145.65" class="color969a9f svgShape"></polygon><path fill="#383838" d="M156.08,147l-5-2.85,2.38-1.31,5,2.85ZM152,144.12l4.09,2.31,1.44-.79-4.09-2.32Z" class="color383838 svgShape"></path><polygon fill="#8b39fe" points="165.12 149.69 160.56 147.1 158.65 148.15 163.21 150.74 165.12 149.69" class="colorfeda39 svgShape"></polygon><path fill="#383838" d="M163.21,151l-5-2.84,2.36-1.29,5,2.83Zm-4.11-2.83,4.11,2.33,1.46-.8-4.11-2.34Z" class="color383838 svgShape"></path><polygon fill="#6929c2" points="175.81 155.75 167.19 150.86 165.28 151.91 173.9 156.8 175.81 155.75" class="color969a9f svgShape"></polygon><path fill="#383838" d="M173.9,157.06l-.11-.06-9-5.09,2.38-1.31.11.06,9,5.09Zm-8.15-5.15,8.16,4.63,1.44-.79-8.16-4.63Z" class="color383838 svgShape"></path><polygon fill="#6929c2" points="175.4 150.51 170.84 147.93 168.93 148.98 173.48 151.56 175.4 150.51" class="color969a9f svgShape"></polygon><path fill="#383838" d="M173.48,151.82l-5-2.85,2.38-1.3,5,2.84ZM169.39,149l4.1,2.32,1.44-.79-4.1-2.32Z" class="color383838 svgShape"></path><polygon fill="#6929c2" points="168.14 141.4 158.29 135.81 156.38 136.86 166.23 142.44 168.14 141.4" class="color969a9f svgShape"></polygon><path fill="#383838" d="M166.23,142.71l-10.32-5.85,2.38-1.31,10.32,5.85Zm-9.38-5.84,9.38,5.31,1.44-.79-9.38-5.32Z" class="color383838 svgShape"></path><polygon fill="#6929c2" points="174.73 145.13 170.17 142.55 168.26 143.6 172.82 146.18 174.73 145.13" class="color969a9f svgShape"></polygon><path fill="#383838" d="M172.82,146.44l-5-2.85,2.38-1.3,5,2.84Zm-4.09-2.84,4.09,2.32,1.44-.79-4.09-2.32Z" class="color383838 svgShape"></path><polygon fill="#6929c2" points="149.54 150.73 140.91 145.84 139 146.89 147.63 151.78 149.54 150.73" class="color969a9f svgShape"></polygon><path fill="#383838" d="M147.63,152l-9.1-5.15,2.38-1.31.12.06,9,5.09Zm-8.16-5.14,8.16,4.62,1.44-.79-8.16-4.63Z" class="color383838 svgShape"></path><polygon fill="#6929c2" points="182.34 169.63 172.34 163.96 170.43 165.01 180.43 170.68 182.34 169.63" class="color969a9f svgShape"></polygon><path fill="#383838" d="M180.43,170.94,170,165l2.38-1.31.11.06,10.36,5.87ZM170.9,165l9.53,5.41,1.44-.8-9.53-5.4Z" class="color383838 svgShape"></path><polygon fill="#6929c2" points="148.8 135.44 145.73 133.69 143.82 134.74 146.89 136.49 148.8 135.44" class="color969a9f svgShape"></polygon><path fill="#383838" d="M146.88,136.75l-3.53-2,2.38-1.31,3.54,2Zm-2.59-2,2.6,1.47,1.44-.79L145.72,134Z" class="color383838 svgShape"></path><polygon fill="#8b39fe" points="158.56 140.97 151.01 136.69 149.1 137.74 156.65 142.02 158.56 140.97" class="colorfeda39 svgShape"></polygon><path fill="#383838" d="M156.65,142.27l-.11-.06-7.89-4.47,2.36-1.3.11.06L159,141Zm-7.11-4.53,7.11,4,1.47-.8-7.11-4Z" class="color383838 svgShape"></path><polygon fill="#6929c2" points="168.54 146.62 160.98 142.34 159.07 143.39 166.63 147.67 168.54 146.62" class="color969a9f svgShape"></polygon><path fill="#383838" d="M166.63,147.94l-8-4.55,2.39-1.31.11.06,7.91,4.49Zm-7.09-4.54,7.09,4,1.44-.79-7.09-4Z" class="color383838 svgShape"></path><polygon fill="#6929c2" points="157.55 150.27 152.99 147.69 151.08 148.74 155.64 151.32 157.55 150.27" class="color969a9f svgShape"></polygon><path fill="#383838" d="M155.64,151.58l-5-2.84,2.39-1.31,5,2.84Zm-4.09-2.84,4.09,2.32,1.44-.79L153,148Z" class="color383838 svgShape"></path><polygon fill="#6929c2" points="168.25 156.33 159.62 151.44 157.71 152.49 166.34 157.38 168.25 156.33" class="color969a9f svgShape"></polygon><path fill="#383838" d="M166.33,157.65l-9.09-5.16,2.38-1.31.11.06,9,5.1Zm-8.15-5.15,8.16,4.62,1.44-.79-8.16-4.62Z" class="color383838 svgShape"></path><polygon fill="#6929c2" points="150.7 146.38 143.14 142.1 141.23 143.15 148.78 147.44 150.7 146.38" class="color969a9f svgShape"></polygon><path fill="#383838" d="M148.78,147.7l-8-4.55,2.38-1.31,8,4.55Zm-7.08-4.54,7.09,4,1.44-.79-7.09-4Z" class="color383838 svgShape"></path><polygon fill="#6929c2" points="193.66 105.82 190.59 104.08 188.68 105.13 191.75 106.87 193.66 105.82" class="color969a9f svgShape"></polygon><path fill="#383838" d="M191.75,107.13l-3.54-2,2.38-1.31,3.54,2Zm-2.6-2,2.6,1.48,1.44-.79-2.6-1.48Z" class="color383838 svgShape"></path><polygon fill="#6929c2" points="203.43 111.36 195.87 107.08 193.96 108.13 201.52 112.41 203.43 111.36" class="color969a9f svgShape"></polygon><path fill="#383838" d="M201.51,112.67l-8-4.55,2.38-1.31.12.07,7.91,4.48Zm-7.08-4.54,7.09,4,1.44-.8-7.09-4Z" class="color383838 svgShape"></path><polygon fill="#8b39fe" points="213.4 117.01 205.85 112.73 203.94 113.78 211.49 118.06 213.4 117.01" class="colorfeda39 svgShape"></polygon><path fill="#383838" d="M211.49,118.31l-.1-.06-7.9-4.47,2.36-1.3.11.06,7.89,4.47Zm-7.1-4.53,7.1,4L213,117l-7.11-4Z" class="color383838 svgShape"></path><path fill="#383838" d="M221.67,70.61c0,9-1.12,33.76-13,43.31l-5.91,5.15-.53-1.91a20.91,20.91,0,0,1-10.07-.08l-.53-.11c-9.6-8.62-16.86-19.47-22.34-30.62-7.87-16.06-12.05-32.7-14.19-44.12l-.21-.2-9.28-7.81v0L153,27.74c17.94,6.93,27.72,2.24,31.39-.41l0,0A12.86,12.86,0,0,0,186,25.9l.06-.06A131.89,131.89,0,0,0,214,61c2.38,2.14,4.93,4.26,7.62,6.32C221.61,67.33,221.67,68.55,221.67,70.61Z" class="color383838 svgShape"></path><path fill="#383838" d="M221.61,67.33l-7.44,6.48-4.83.84-16.13,2.83-1.53-2.18-8.34-11.9-3.42-22.7-1.25-8.4,5.71-5,0,0L186,25.9l.06-.06A131.89,131.89,0,0,0,214,61C216.37,63.15,218.92,65.27,221.61,67.33Z" class="color383838 svgShape"></path><path fill="#6929c2" d="M202.71,119.07c-4.36,4.27-10.35,6.39-18.55,4.39-10.26-9.22-17.84-21-23.43-32.91C148,63.33,145.63,35.18,145.56,34.22v0c23.66,9.15,33.11-1.9,33.11-1.9a129.89,129.89,0,0,0,28.24,35.48c2.27,2.06,4.69,4.06,7.26,6C214.17,73.81,215.74,106.23,202.71,119.07Z" class="color969a9f svgShape"></path><path fill="#383838" d="M190.08,124.45a25.21,25.21,0,0,1-6-.77l-.1-.05c-9.2-8.27-17.11-19.37-23.49-33-12.69-27.13-15.1-55.23-15.19-56.41l0-.36.34.11c23.22,9,32.76-1.73,32.85-1.84l.23-.27.15.32a131.21,131.21,0,0,0,28.19,35.41c2.25,2,4.69,4.06,7.25,6l.08.06v.11c0,.32,1.42,32.67-11.53,45.43h0A17.65,17.65,0,0,1,190.08,124.45Zm-5.81-1.2c7.37,1.79,13.52.32,18.28-4.35C215,106.65,214,76,214,73.92c-2.54-1.94-5-4-7.2-6a132.93,132.93,0,0,1-28.14-35.26c-1.6,1.56-11.47,10-32.8,1.85.32,3.49,3.06,30.14,15.12,55.91C167.28,104,175.13,115,184.27,123.25Z" class="color383838 svgShape"></path><path fill="#8b39fe" d="M179.06,39.05s-8.05,9.43-28.24,1.63c0,0,3.87,50,32.91,76.09,28,6.81,25.6-42.33,25.6-42.33A112.28,112.28,0,0,1,179.06,39.05Z" class="colorfeda39 svgShape"></path><path fill="#383838" d="M188.79,117.63a21.37,21.37,0,0,1-5.11-.65l-.09,0c-28.78-25.85-33-75.73-33-76.23l0-.35.32.13c19.81,7.65,27.91-1.47,28-1.57l.22-.25.14.3a113.3,113.3,0,0,0,30.21,35.31l.08.06v.1c0,.3,1.29,29.63-11,39.75A14.94,14.94,0,0,1,188.79,117.63Zm-4.95-1.06c5.74,1.39,10.61.47,14.47-2.73,11.73-9.68,10.88-37.39,10.81-39.29A114.06,114.06,0,0,1,179,39.42c-1.43,1.4-9.86,8.45-27.93,1.59C151.49,45.48,156.49,92,183.84,116.57Z" class="color383838 svgShape"></path><path fill="#6929c2" d="M184.74,79.53a2,2,0,0,0,1.11-2,7.73,7.73,0,0,0-3.74-5.9c-2.06-1.19-3.73-.48-3.73,1.58A6.78,6.78,0,0,0,179.84,77a.57.57,0,0,1,.11.42l-1.46,8.74a.57.57,0,0,0,.28.59l6,3.57a.58.58,0,0,0,.87-.58l-1.33-9.59A.61.61,0,0,1,184.74,79.53Z" class="color969a9f svgShape"></path><path fill="#383838" d="M185.07,90.64a.78.78,0,0,1-.41-.12l-6-3.56a.81.81,0,0,1-.38-.83l1.45-8.74a.37.37,0,0,0-.06-.25,6.94,6.94,0,0,1-1.51-3.94,2.32,2.32,0,0,1,1-2.12,3.11,3.11,0,0,1,3.06.34,8,8,0,0,1,3.85,6.09,2.24,2.24,0,0,1-1.25,2.23h0a.39.39,0,0,0-.29.39l1.33,9.59a.81.81,0,0,1-.36.78A.79.79,0,0,1,185.07,90.64Zm-4.82-19.37a1.7,1.7,0,0,0-.85.21,1.88,1.88,0,0,0-.79,1.72A6.49,6.49,0,0,0,180,76.87a.77.77,0,0,1,.15.6l-1.45,8.74a.33.33,0,0,0,.16.35l6,3.57a.33.33,0,0,0,.37,0,.34.34,0,0,0,.15-.34l-1.32-9.59a.83.83,0,0,1,.56-.87h0a1.78,1.78,0,0,0,1-1.81A7.5,7.5,0,0,0,182,71.82,3.64,3.64,0,0,0,180.25,71.27Z" class="color383838 svgShape"></path><path fill="#e0dbe7" d="M181.31,87.27a.58.58,0,0,1-.27-.59l1.45-8.74a.56.56,0,0,0-.1-.43,6.73,6.73,0,0,1-1.46-3.8,1.94,1.94,0,0,1,1.24-2l-.06,0c-2.06-1.19-3.73-.48-3.73,1.58A6.78,6.78,0,0,0,179.84,77a.57.57,0,0,1,.11.42l-1.46,8.74a.57.57,0,0,0,.28.59l6,3.57a.57.57,0,0,0,.86-.5Z" class="colordbe1e7 svgShape"></path><path fill="#383838" d="M185.06,90.64a.72.72,0,0,1-.4-.12l-6-3.56a.81.81,0,0,1-.38-.83l1.45-8.74a.37.37,0,0,0-.06-.25,6.94,6.94,0,0,1-1.51-3.94,2.32,2.32,0,0,1,1-2.12,3.11,3.11,0,0,1,3.06.34l.05,0,.37.26-.41.16a1.73,1.73,0,0,0-1.09,1.83,6.51,6.51,0,0,0,1.42,3.67.79.79,0,0,1,.15.59l-1.46,8.75a.35.35,0,0,0,.17.35l4.43,2.63v.13a.81.81,0,0,1-.41.7A.79.79,0,0,1,185.06,90.64Zm-4.81-19.37a1.7,1.7,0,0,0-.85.21,1.88,1.88,0,0,0-.79,1.72A6.49,6.49,0,0,0,180,76.87a.77.77,0,0,1,.15.6l-1.45,8.74a.33.33,0,0,0,.16.35l6,3.57a.35.35,0,0,0,.33,0,.37.37,0,0,0,.16-.19l-4.18-2.48a.82.82,0,0,1-.39-.83l1.46-8.74a.32.32,0,0,0-.07-.25,7,7,0,0,1-1.5-3.94,2.32,2.32,0,0,1,1-2.07A3.41,3.41,0,0,0,180.25,71.27Z" class="color383838 svgShape"></path><path fill="url(#b)" d="M228.66,10.92H143.09V142.35h.11c-.66,6.79,3.44,13.7,12.42,18.88,16.71,9.65,43.8,9.65,60.51,0,9-5.18,13.08-12.09,12.41-18.88h.12Z"></path></g></g></svg>