<svg xmlns="http://www.w3.org/2000/svg" xmlns:xlink="http://www.w3.org/1999/xlink" viewBox="0 0 166.82 129.53" id="Onlineserver"><defs><linearGradient id="a" x1="89.64" x2="127.56" y1="130.79" y2="68.99" gradientUnits="userSpaceOnUse"><stop offset="0" stop-color="#cfccd3" class="stopColorcccfd3 svgShape"></stop><stop offset="1" stop-color="#b4b1b8" stop-opacity="0" class="stopColorb2b1b8 svgShape"></stop></linearGradient><linearGradient id="b" x1="48.68" x2="84.16" y1="96.35" y2="38.53" xlink:href="#a"></linearGradient></defs><g style="isolation:isolate" fill="#000000" class="color000000 svgShape"><g data-name="Layer 1" fill="#000000" class="color000000 svgShape"><path style="mix-blend-mode:multiply" fill="url(#a)" d="m55.81 108.19 37.69 21.04 69.45-40.19-38.01-21.15-69.13 40.3z"></path><path style="mix-blend-mode:multiply" fill="url(#b)" d="m24.74 79.93 20.9 9.63 63.93-36.99-21.2-9.73-63.63 37.09z"></path><path fill="#383838" d="M36.1 101a3.71 3.71 0 0 1-1.83-.48l-10-5.66a2 2 0 0 1-1-1.71 2 2 0 0 1 1-1.72l26.87-15.86.43.73-26.85 15.84a1.14 1.14 0 0 0 0 2l9.94 5.67a2.89 2.89 0 0 0 2.86 0l19.6-11.45a4.61 4.61 0 0 1 4.59 0l19.46 11.07-.42.74-19.46-11.09a3.77 3.77 0 0 0-3.75 0L38 100.48a3.63 3.63 0 0 1-1.9.52Z" class="color383838 svgShape"></path><path fill="#c6c1cc" d="M92.56 78.11a1.83 1.83 0 0 1 1.81 0l26.48 22.31 9.73-.08v6.8a1.78 1.78 0 0 1-.89 1.5l-35.83 20.88a1.81 1.81 0 0 1-1.8 0l-35.57-20.23a1.77 1.77 0 0 1-.91-1.57V93.91l10-.08Z" class="colorc1c8cc svgShape"></path><path fill="#383838" d="M93 129.87a2 2 0 0 1-1-.25l-35.56-20.24a1.87 1.87 0 0 1-1-1.65V93.81l10.09-.08L92.5 78a1.93 1.93 0 0 1 1.92 0l26.47 22.29 9.79-.08v7a1.89 1.89 0 0 1-.94 1.48l-35.83 20.92a1.92 1.92 0 0 1-.91.26ZM55.68 94v13.7a1.71 1.71 0 0 0 .86 1.48l35.57 20.23a1.69 1.69 0 0 0 1.7 0l35.82-20.88a1.68 1.68 0 0 0 .84-1.4v-6.69l-9.66.07L94.3 78.19a1.7 1.7 0 0 0-1.69 0l-27 15.73Z" class="color383838 svgShape"></path><path fill="#6929c2" d="m56.47 92.35 36.09-21a1.83 1.83 0 0 1 1.81 0l35.3 27.4a1.8 1.8 0 0 1 0 3.12l-35.81 20.84a1.78 1.78 0 0 1-1.8 0L56.49 95.48a1.81 1.81 0 0 1-.02-3.13Z" class="color969a9f svgShape"></path><path fill="#383838" d="M93 123.07a2 2 0 0 1-1-.25L56.43 95.56a1.87 1.87 0 0 1-1-1.64 1.91 1.91 0 0 1 1-1.67l36.08-21a1.93 1.93 0 0 1 1.92 0l35.32 27.41a1.87 1.87 0 0 1 .94 1.64 1.9 1.9 0 0 1-1 1.66l-35.78 20.85a1.92 1.92 0 0 1-.91.26ZM56.53 92.44a1.7 1.7 0 0 0-.85 1.48 1.72 1.72 0 0 0 .86 1.47l35.58 27.25a1.7 1.7 0 0 0 1.69 0l35.82-20.88a1.67 1.67 0 0 0 .84-1.47 1.69 1.69 0 0 0-.85-1.47L94.31 71.39a1.74 1.74 0 0 0-1.7 0Z" class="color383838 svgShape"></path><path fill="#e0dbe7" d="m128.22 100.25-35.23 20.54-35.06-26.86 35.5-20.69 34.79 27.01z" class="colordbe1e7 svgShape"></path><path fill="#383838" d="M93 120.91h-.06l-35.2-26.99.14-.08 35.56-20.73 35 27.15Zm-34.86-27L93 120.66l35-20.43-34.58-26.86Z" class="color383838 svgShape"></path><path fill="#ffffff" d="M85.29 112.23 115 94.94a.75.75 0 0 1 .85 0l5.75 4.46a.76.76 0 0 1-.08 1.26L91.7 118.07a.77.77 0 0 1-.86-.06l-5.64-4.53a.76.76 0 0 1 .09-1.25Z" class="colorffffff svgShape"></path><path fill="#383838" d="M91.32 118.28a.89.89 0 0 1-.54-.19l-5.65-4.52a.89.89 0 0 1-.32-.75.85.85 0 0 1 .43-.68l29.67-17.29a.86.86 0 0 1 1 .06l5.75 4.46a.84.84 0 0 1 .33.74.85.85 0 0 1-.43.69l-29.8 17.36a.88.88 0 0 1-.44.12Zm24-23.34a.69.69 0 0 0-.32.06l-29.65 17.32a.66.66 0 0 0-.33.52.67.67 0 0 0 .25.56l5.64 4.52a.67.67 0 0 0 .74.06l29.78-17.36a.63.63 0 0 0 .32-.52.65.65 0 0 0-.25-.57l-5.75-4.45a.61.61 0 0 0-.4-.14Z" class="color383838 svgShape"></path><path fill="#383838" d="m117.88 99.38-4.76 2.78-1.59-1.23 4.74-2.76 1.61 1.21z" class="color383838 svgShape"></path><path fill="#383838" d="m117.47 99.36-4.34 2.52-1.19-.92 4.31-2.52 1.22.92z" class="color383838 svgShape"></path><path fill="#8b39fe" d="m117.47 99.36-4.34 2.52-.5-.36 4.32-2.52.52.36z" class="colorfeda39 svgShape"></path><path fill="#383838" d="m110.49 103.73-4.76 2.77-1.58-1.22 4.74-2.76 1.6 1.21z" class="color383838 svgShape"></path><path fill="#383838" d="m110.08 103.7-4.33 2.53-1.19-.92 4.31-2.52 1.21.91z" class="color383838 svgShape"></path><path fill="#8b39fe" d="m110.08 103.7-4.33 2.53-.5-.37 4.32-2.51.51.35z" class="colorfeda39 svgShape"></path><path fill="#383838" d="m103.11 108.08-4.76 2.77-1.58-1.22 4.74-2.76 1.6 1.21z" class="color383838 svgShape"></path><path fill="#383838" d="m102.7 108.05-4.33 2.53-1.2-.92 4.32-2.52 1.21.91z" class="color383838 svgShape"></path><path fill="#8b39fe" d="m102.7 108.05-4.33 2.53-.5-.37 4.32-2.52.51.36z" class="colorfeda39 svgShape"></path><path fill="#383838" d="m95.73 112.42-4.76 2.78-1.58-1.22 4.73-2.77 1.61 1.21z" class="color383838 svgShape"></path><path fill="#383838" d="m95.32 112.4-4.33 2.53-1.2-.93 4.32-2.51 1.21.91z" class="color383838 svgShape"></path><path fill="#8b39fe" d="m95.32 112.4-4.33 2.53-.5-.37 4.31-2.52.52.36z" class="colorfeda39 svgShape"></path><path fill="#383838" d="m128.22 100.25-1.59.93-33.2-25.76-33.89 19.75-1.61-1.24 35.5-20.69 34.79 27.01z" class="color383838 svgShape"></path><path fill="#383838" d="m93.79 81.88-.66.38-.68-.52.67-.39.67.53zM92.22 82.79l-.66.38-.68-.52.67-.39.67.53zM90.65 83.7l-.66.38-.68-.52.66-.39.68.53zM89.08 84.61l-.66.38-.68-.52.66-.39.68.53zM87.51 85.52l-.67.39-.67-.53.66-.38.68.52zM85.94 86.43l-.67.39-.68-.53.67-.38.68.52zM84.36 87.34l-.66.39-.68-.52.67-.39.67.52zM82.79 88.25l-.66.39-.68-.52.67-.39.67.52zM81.22 89.16l-.66.39-.68-.52.67-.39.67.52zM79.65 90.07l-.66.39-.68-.52.66-.39.68.52zM78.08 90.98l-.66.39-.68-.52.66-.39.68.52zM76.51 91.9l-.66.38-.68-.52.66-.39.68.53zM74.94 92.81l-.66.38-.69-.52.67-.39.68.53zM73.37 93.72l-.67.38-.68-.52.67-.39.68.53zM71.79 94.63l-.66.38-.68-.52.67-.38.67.52zM70.22 95.54l-.66.39-.68-.52.67-.39.67.52zM68.65 96.45l-.66.39-.68-.53.67-.38.67.52zM95.14 82.91l-.67.39-.68-.52.67-.39.68.52zM93.56 83.82l-.66.39-.68-.52.67-.39.67.52zM91.99 84.73l-.66.39-.68-.52.67-.39.67.52zM90.42 85.65l-.66.38-.68-.52.67-.39.67.53zM88.85 86.56l-.66.38-.68-.52.66-.39.68.53zM87.28 87.47l-.66.38-.68-.52.66-.39.68.53zM85.71 88.38l-.66.39-.69-.53.67-.38.68.52zM84.14 89.29l-.67.38-.68-.52.67-.38.68.52zM82.56 90.2l-.66.39-.68-.52.67-.39.67.52zM80.99 91.11l-.66.39-.68-.52.67-.39.67.52zM79.42 92.02l-.66.39-.68-.52.67-.39.67.52zM77.85 92.93l-.66.39-.68-.52.66-.39.68.52zM76.28 93.84l-.66.39-.68-.52.66-.39.68.52zM74.71 94.75l-.66.39-.68-.52.66-.39.68.52zM73.14 95.67l-.67.38-.68-.52.67-.39.68.53zM71.56 96.58l-.66.38-.68-.52.67-.39.67.53zM69.99 97.49l-.66.38-.68-.52.67-.39.67.53zM96.48 83.95l-.67.39-.67-.53.66-.38.68.52zM94.91 84.86l-.67.39-.68-.52.67-.39.68.52zM93.33 85.77l-.66.39-.68-.52.67-.39.67.52zM91.76 86.68l-.66.39-.68-.52.67-.39.67.52zM90.19 87.59l-.66.39-.68-.52.67-.39.67.52zM88.62 88.51l-.66.38-.68-.52.66-.39.68.53zM87.05 89.42l-.66.38-.68-.52.66-.39.68.53zM85.48 90.33l-.66.38-.68-.52.66-.39.68.53zM83.91 91.24l-.67.38-.68-.52.67-.39.68.53zM82.33 92.15l-.66.39-.68-.53.67-.38.67.52zM80.76 93.06l-.66.39-.68-.53.67-.38.67.52zM79.19 93.97l-.66.39-.68-.52.67-.39.67.52zM77.62 94.88l-.66.39-.68-.52.67-.39.67.52zM76.05 95.79l-.66.39-.68-.52.67-.39.67.52zM74.48 96.7l-.66.39-.68-.52.66-.39.68.52zM72.91 97.62l-.66.38-.69-.52.67-.39.68.53zM71.34 98.53l-.67.38-.68-.52.67-.39.68.53zM97.82 84.99l-.66.38-.68-.52.66-.39.68.53zM96.25 85.9l-.66.39-.68-.53.66-.38.68.52zM94.68 86.81l-.67.39-.68-.53.67-.38.68.52zM93.11 87.72l-.67.39-.68-.52.67-.39.68.52zM91.53 88.63l-.66.39-.68-.52.67-.39.67.52zM89.96 89.54l-.66.39-.68-.52.67-.39.67.52zM88.39 90.46l-.66.38-.68-.52.67-.39.67.53zM86.82 91.37l-.66.38-.68-.52.66-.39.68.53zM85.25 92.28l-.66.38-.68-.52.66-.39.68.53zM83.68 93.19l-.66.38-.69-.52.67-.39.68.53zM82.11 94.1l-.67.38-.68-.52.67-.38.68.52zM80.53 95.01l-.66.39-.68-.53.67-.38.67.52zM78.96 95.92l-.66.39-.68-.52.67-.39.67.52zM77.39 96.83l-.66.39-.68-.52.67-.39.67.52zM75.82 97.74l-.66.39-.68-.52.67-.39.67.52zM74.25 98.65l-.66.39-.68-.52.67-.39.67.52zM72.68 99.56l-.66.39-.68-.52.66-.39.68.52zM99.16 86.03l-.66.38-.68-.52.67-.39.67.53zM97.59 86.94l-.66.38-.68-.52.67-.38.67.52zM96.02 87.85l-.66.38-.68-.52.66-.38.68.52zM94.45 88.76l-.67.39-.67-.53.66-.38.68.52zM92.88 89.67l-.67.39-.68-.52.67-.39.68.52zM91.31 90.58l-.67.39-.68-.52.67-.39.68.52zM89.73 91.49l-.66.39-.68-.52.67-.39.67.52zM88.16 92.4l-.66.39-.68-.52.67-.39.67.52zM86.59 93.31l-.66.39-.68-.52.67-.39.67.52zM85.02 94.23l-.66.38-.68-.52.66-.39.68.53zM83.45 95.14l-.66.38-.68-.52.66-.39.68.53zM81.88 96.05l-.66.38-.69-.52.67-.39.68.53zM80.31 96.96l-.67.38-.68-.52.67-.38.68.52zM78.73 97.87l-.66.39-.68-.53.67-.38.67.52zM77.16 98.78l-.66.39-.68-.52.67-.39.67.52zM75.59 99.69l-.66.39-.68-.52.67-.39.67.52zM74.02 100.6l-.66.39-.68-.52.67-.39.67.52zM100.5 87.07l-.66.38-.68-.52.67-.39.67.53zM98.93 87.98l-.66.38-.68-.52.67-.39.67.53zM97.36 88.89l-.66.38-.68-.52.67-.39.67.53zM95.79 89.8l-.66.38-.68-.52.66-.39.68.53zM94.22 90.71l-.66.38-.68-.52.66-.39.68.53zM92.65 91.62l-.67.39-.67-.53.66-.38.68.52zM91.08 92.53l-.67.39-.68-.52.67-.39.68.52zM89.5 93.44l-.66.39-.68-.52.67-.39.67.52zM87.93 94.35l-.66.39-.68-.52.67-.39.67.52zM86.36 95.26l-.66.39-.68-.52.67-.39.67.52zM84.79 96.17l-.66.39-.68-.52.67-.39.67.52zM83.22 97.09l-.66.38-.68-.52.66-.39.68.53zM81.65 98l-.66.38-.68-.52.66-.39.68.53zM80.08 98.91l-.66.38-.69-.52.67-.39.68.53zM78.51 99.82l-.67.38-.68-.52.67-.39.68.53zM76.93 100.73l-.66.39-.68-.53.67-.38.67.52zM75.36 101.64l-.66.39-.68-.52.67-.39.67.52zM101.85 88.1l-.67.39-.68-.52.67-.39.68.52zM100.28 89.01l-.67.39-.68-.52.67-.39.68.52zM98.7 89.92l-.66.39-.68-.52.67-.39.67.52zM97.13 90.84l-.66.38-.68-.52.67-.39.67.53zM95.56 91.75l-.66.38-.68-.52.67-.39.67.53zM93.99 92.66l-.66.38-.68-.52.66-.39.68.53zM92.42 93.57l-.66.39-.68-.53.66-.38.68.52zM90.85 94.48l-.66.39-.69-.53.67-.38.68.52zM89.28 95.39l-.67.39-.68-.52.67-.39.68.52zM87.7 96.3l-.66.39-.68-.52.67-.39.67.52zM86.13 97.21l-.66.39-.68-.52.67-.39.67.52zM84.56 98.12l-.66.39-.68-.52.67-.39.67.52zM82.99 99.03l-.66.39-.68-.52.67-.39.67.52zM81.42 99.95l-.66.38-.68-.52.66-.39.68.53zM79.85 100.86l-.66.38-.68-.52.66-.39.68.53zM78.28 101.77l-.67.39-.68-.53.67-.39.68.53zM76.7 102.68l-.66.38-.68-.52.67-.38.67.52zM103.19 89.14l-.66.39-.68-.52.66-.39.68.52zM101.62 90.05l-.67.39-.67-.52.66-.39.68.52zM100.05 90.96l-.67.39-.68-.52.67-.39.68.52zM98.47 91.87l-.66.39-.68-.52.67-.39.67.52zM96.9 92.79l-.66.38-.68-.52.67-.39.67.53zM95.33 93.7l-.66.38-.68-.52.67-.39.67.53zM93.76 94.61l-.66.38-.68-.52.67-.39.67.53zM92.19 95.52l-.66.39-.68-.53.66-.38.68.52zM90.62 96.43l-.66.38-.68-.52.66-.38.68.52zM89.05 97.34l-.66.39-.69-.52.67-.39.68.52zM87.47 98.25l-.66.39-.68-.52.67-.39.67.52zM85.9 99.16l-.66.39-.68-.52.67-.39.67.52zM84.33 100.07l-.66.39-.68-.52.67-.39.67.52zM82.76 100.98l-.66.39-.68-.52.67-.39.67.52zM81.19 101.9l-.66.38-.68-.52.67-.39.67.53zM79.62 102.81l-.66.38-.68-.52.66-.39.68.53zM78.05 103.72l-.66.38-.69-.52.67-.39.68.53zM104.53 90.18l-.66.39-.68-.53.67-.38.67.52zM102.96 91.09l-.66.39-.68-.53.66-.38.68.52zM101.39 92l-.66.39-.68-.52.66-.39.68.52zM99.82 92.91l-.66.39-.69-.52.67-.39.68.52zM98.25 93.82l-.67.39-.68-.52.67-.39.68.52zM96.67 94.73l-.66.39-.68-.52.67-.39.67.52zM95.1 95.64l-.66.39-.68-.52.67-.39.67.52zM93.53 96.56l-.66.38-.68-.52.67-.39.67.53zM91.96 97.47l-.66.38-.68-.52.66-.39.68.53zM90.39 98.38l-.66.38-.68-.52.66-.39.68.53zM88.82 99.29l-.66.38-.69-.52.67-.38.68.52zM87.25 100.2l-.67.39-.68-.53.67-.38.68.52zM85.67 101.11l-.66.39-.68-.52.67-.39.67.52zM84.1 102.02l-.66.39-.68-.52.67-.39.67.52zM82.53 102.93l-.66.39-.68-.52.67-.39.67.52zM80.96 103.84l-.66.39-.68-.52.67-.39.67.52zM79.39 104.75l-.66.39-.68-.52.67-.39.67.52zM105.87 91.22l-.66.38-.68-.52.67-.39.67.53zM104.3 92.13l-.66.38-.68-.52.67-.39.67.53zM102.73 93.04l-.66.38-.68-.52.67-.38.67.52zM101.16 93.95l-.66.39-.68-.52.66-.39.68.52zM99.59 94.86l-.66.39-.68-.52.66-.39.68.52zM98.02 95.77l-.67.39-.68-.52.67-.39.68.52zM96.44 96.68l-.66.39-.68-.52.67-.39.67.52zM94.87 97.59l-.66.39-.68-.52.67-.39.67.52zM93.3 98.5l-.66.39-.68-.52.67-.39.67.52zM91.73 99.42l-.66.38-.68-.52.67-.39.67.53zM90.16 100.33l-.66.38-.68-.52.66-.39.68.53zM88.59 101.24l-.66.38-.68-.52.66-.39.68.53zM87.02 102.15l-.66.39-.69-.53.67-.38.68.52zM85.45 103.06l-.67.39-.68-.53.67-.38.68.52zM83.88 103.97l-.67.39-.68-.52.67-.39.68.52zM82.3 104.88l-.66.39-.68-.52.67-.39.67.52zM80.73 105.79l-.66.39-.68-.52.67-.39.67.52zM28.36 81.52l-1.05.32 7.59 4.21a6.66 6.66 0 0 0 6.62 0l17.28-9.72a2.59 2.59 0 0 0 1.31-2.25v-.33l-31.27 7.73Z" class="color383838 svgShape"></path><path fill="#c6c1cc" d="m59.44 72.6-17.95 1.34-13.13 7.58 7 3.83a5.65 5.65 0 0 0 5.65 0l18.43-10.44a1.33 1.33 0 0 0 0-2.31Z" class="colorc1c8cc svgShape"></path><path fill="#383838" d="M38.21 86.28a5.84 5.84 0 0 1-2.92-.78l-7.3-4 13.49-7.76 18-1.34h.05a1.52 1.52 0 0 1 0 2.63L41.12 85.5a5.83 5.83 0 0 1-2.91.78Zm-9.49-4.77 6.75 3.68a5.46 5.46 0 0 0 5.47 0l18.41-10.43a1.16 1.16 0 0 0 0-2l-17.8 1.35Z" class="color383838 svgShape"></path><path fill="#383838" d="m34.59 76.64.11 9.33 1.04-.32 22.61-22.44-23.13 13.01-.63.42z" class="color383838 svgShape"></path><path fill="#c6c1cc" d="m35.75 85.64 23.23-13.22v-9.63L35.75 76.33v9.31z" class="colorc1c8cc svgShape"></path><path fill="#383838" d="M35.58 86v-9.78h.08l23.5-13.69v10h-.09Zm.35-9.52v8.91l22.88-13V63.1Z" class="color383838 svgShape"></path><path fill="#383838" d="m35.74 85.65-1 .32 5.61 3.13a6.64 6.64 0 0 0 6.61 0l17.29-9.74a2.6 2.6 0 0 0 1.3-2.25v-.31l-29.33 8.81Z" class="color383838 svgShape"></path><path fill="#e0dbe7" d="M64.85 75.65 59 72.42 35.74 85.65l5 2.75a5.65 5.65 0 0 0 5.65 0L64.85 78a1.34 1.34 0 0 0 0-2.35Z" class="colordbe1e7 svgShape"></path><path fill="#383838" d="M43.61 89.33a5.89 5.89 0 0 1-2.91-.77l-5.32-2.91L59 72.22l6 3.28a1.52 1.52 0 0 1 0 2.62L46.52 88.56a5.87 5.87 0 0 1-2.91.77Zm-7.5-3.69 4.76 2.6a5.5 5.5 0 0 0 5.48 0l18.41-10.43a1.15 1.15 0 0 0 0-2L59 72.63ZM66.56 0a15.53 15.53 0 0 0-2.85-.35 4.21 4.21 0 0 0-1.8.62L7.53 32.43C5.05 33.86 3.3 37.53 4.05 42L10 88.72c.27 4.27 2 4.93 2 4.93l54.68-31.39c2.49-1.44 4.25-5.72 3.94-9.56Z" class="color383838 svgShape"></path><path fill="#e0dbe7" d="M65.69 0a3.25 3.25 0 0 0-1.37.45l-55.1 32C6.74 33.87 4.47 37.22 5.29 42L12 93.65l64-36.86-6.66-52C69.13 1.67 67.59-.2 65.69 0Z" class="colordbe1e7 svgShape"></path><path fill="#383838" d="M11.82 93.94 5.11 42c-.85-5 1.63-8.36 4-9.74l55.1-32a3.36 3.36 0 0 1 1.45-.48 2.76 2.76 0 0 1 2.07.68 6.22 6.22 0 0 1 1.81 4.3l6.67 52.12h-.1ZM65.93.13h-.22a3 3 0 0 0-1.3.44l-55.1 32C7 33.91 4.64 37.16 5.46 42l6.65 51.39 63.74-36.7L69.2 4.81A5.81 5.81 0 0 0 67.52.74a2.44 2.44 0 0 0-1.59-.61Z" class="color383838 svgShape"></path><path fill="#8b39fe" d="M67.6 2.69a2 2 0 0 0-2.36-.32L9.41 34.8c-3 1.77-3 3.8-2.57 7.5l5.86 43.34 61.51-35.72-6.07-46.08a1.94 1.94 0 0 0-.54-1.15Z" class="colorfeda39 svgShape"></path><path fill="#383838" d="m12.56 85.93-5.89-43.6c-.46-3.66-.56-5.82 2.65-7.68L65.15 2.22a2.12 2.12 0 0 1 2.57.34 2.13 2.13 0 0 1 .6 1.26L74.4 50l-.11.06ZM66.21 2.29a1.73 1.73 0 0 0-.88.23L9.5 35c-2.86 1.62-2.95 3.47-2.5 7.28l5.82 43.08L74 49.83 68 3.87a1.75 1.75 0 0 0-.49-1.06 1.79 1.79 0 0 0-1.3-.52Z" class="color383838 svgShape"></path><path fill="#383838" d="m14.39 40.75-4.11 2.51.11 1.01 4.11-2.52-.11-1zM12.54 46.46l-1.81 1.11.1 1.01 1.82-1.11-.11-1.01zM17.91 40.88l-7.4 4.54.1 1 7.41-4.53-.11-1.01zM21.82 37.26l-.1-1-6.62 4.05.1 1.01 6.62-4.06zM26.74 34.25l-.1-1-4.21 2.58.1 1 4.21-2.58zM18.62 40.45l.1 1.01 6.62-4.06-.1-1.01-6.62 4.06zM12.26 56.2l.1 1.01 6.97-4.27-.11-1-6.96 4.26zM25.95 35.96l.1 1.01 1.65-1.01-.11-1.01-1.64 1.01zM20.58 41.54l.1 1.01 2.95-1.81-.11-1-2.94 1.8zM13.25 46.03l.11 1 6.62-4.05-.11-1.01-6.62 4.06zM22.76 58.66l.11 1 2.94-1.8-.11-1.01-2.94 1.81zM20.8 57.56l.11 1.01 6.62-4.05-.11-1.01-6.62 4.05zM15.44 63.14l.1 1.01 6.62-4.06-.1-1-6.62 4.05zM24.61 52.94l.11 1.01 4.21-2.58-.11-1.01-4.21 2.58zM17.29 57.43l.1 1 6.62-4.05-.1-1.01-6.62 4.06zM28.13 53.08l.1 1 1.65-1.01-.1-1-1.65 1.01zM12.47 60.38l.1 1 4.11-2.51-.1-1.01-4.11 2.52zM14.44 73.32l.11 1 6.96-4.26-.1-1.01-6.97 4.27zM22.26 69.7l4.95-3.03V65.6l-5.05 3.1.1 1zM14.68 76.05l4.73-2.9v-1.07l-4.84 2.96.11 1.01zM22.39 71.42l3.54-2.16v-1.07l-3.64 2.23.1 1zM12.91 64.69l.11 1 1.81-1.11-.1-1-1.82 1.11zM12.69 62.53l.11 1.01L20.2 59l-.1-1-7.41 4.53zM34.18 29.1l-4.11 2.52.1 1 4.11-2.52-.1-1zM37.7 29.23l-7.41 4.54.1 1 7.41-4.53-.1-1.01zM46.52 22.6l-.1-1-4.21 2.58.1 1 4.21-2.58zM32.33 34.81l-1.82 1.11.11 1.01 1.81-1.11-.1-1.01zM41.61 25.62l-.11-1.01-6.62 4.05.11 1.01 6.62-4.05zM33.03 34.38l.11 1.01 6.62-4.06-.11-1.01-6.62 4.06zM45.73 24.31l.1 1.01 1.65-1.01-.1-1.01-1.65 1.01zM32.04 44.55l.11 1.01 6.96-4.27-.1-1-6.97 4.26zM38.4 28.8l.11 1.01 6.62-4.06-.11-1-6.62 4.05zM40.36 29.89l.1 1.01 2.95-1.81-.11-1-2.94 1.8zM42.54 47.01l.11 1 2.94-1.8-.1-1-2.95 1.8zM40.59 45.92l.1 1 6.62-4.05-.1-1.01-6.62 4.06zM35.22 51.49l.1 1.01 6.62-4.05-.1-1.01-6.62 4.05zM44.39 41.29l.11 1.01 4.21-2.58-.11-1.01-4.21 2.58zM37.07 45.78l.1 1.01 6.62-4.06-.1-1-6.62 4.05zM47.91 41.43l.11 1 1.64-1.01-.1-1-1.65 1.01zM32.25 48.73l.1 1.01 4.11-2.52-.1-1.01-4.11 2.52zM34.23 61.67l.1 1 6.96-4.26-.1-1.01-6.96 4.27zM42.05 58.05l4.94-3.03v-1.07l-5.05 3.1.11 1zM34.46 64.4l4.73-2.9v-1.07l-4.83 2.96.1 1.01zM42.18 59.78l3.53-2.17v-1.07l-3.64 2.23.11 1.01zM32.7 53.04l.1 1 1.82-1.11-.11-1-1.81 1.11zM32.47 50.88l.11 1.01 7.4-4.54-.1-1-7.41 4.53zM57.48 17.59l-7.41 4.53.1 1.01 7.41-4.54-.1-1zM53.96 17.45l-4.11 2.52.1 1 4.11-2.51-.1-1.01zM66.31 10.96l-.11-1.01-4.21 2.58.1 1.01 4.22-2.58zM65.51 12.66l.1 1.01 1.65-1.01-.1-1-1.65 1zM61.39 13.97l-.11-1.01-6.62 4.06.11 1 6.62-4.05zM52.11 23.16l-1.82 1.12.11 1 1.81-1.11-.1-1.01zM58.18 17.15l.11 1.01 6.62-4.06-.11-1-6.62 4.05zM60.14 18.25l.11 1 2.94-1.8-.1-1.01-2.95 1.81zM51.82 32.91l.11 1 6.96-4.27-.1-1-6.97 4.27zM52.81 22.73l.11 1.01 6.62-4.06-.1-1-6.63 4.05zM62.33 35.36l.1 1.01 2.94-1.81-.1-1-2.94 1.8zM60.37 34.27l.1 1 6.62-4.05-.1-1.01-6.62 4.06zM55 39.85l.1 1 6.62-4.05-.1-1.01L55 39.85zM64.18 29.64l.1 1.01 4.21-2.58-.1-1-4.21 2.57zM56.85 34.13l.1 1.01 6.62-4.06-.1-1-6.62 4.05zM67.69 29.78l.11 1.01 1.65-1.01-.11-1.01-1.65 1.01zM52.03 37.08l.11 1.01 4.11-2.52-.11-1.01-4.11 2.52zM54.01 50.02l.1 1 6.97-4.26-.11-1.01-6.96 4.27zM61.83 46.4l4.95-3.03V42.3l-5.06 3.1.11 1zM54.24 52.75l4.73-2.9v-1.06l-4.83 2.96.1 1zM61.96 48.13l3.53-2.16V44.9l-3.64 2.22.11 1.01zM52.48 41.39l.1 1.01 1.82-1.11-.11-1.01-1.81 1.11zM52.26 39.24l.1 1 7.41-4.53-.11-1.01-7.4 4.54z" class="color383838 svgShape"></path></g></g></svg>