<svg xmlns="http://www.w3.org/2000/svg" viewBox="0 0 400 250" id="PasswordProtection"><defs><clipPath id="a"><path fill="#e0dbe7" d="M120.3 497.14a12.17 12.17 0 0 0 .34 2.44 1.17 1.17 0 0 0 .06.2 2.83 2.83 0 0 0 .13.5 3.09 3.09 0 0 0 .14.46c.06.14.11.29.17.44s.2.4.32.59.17.3.25.44l.09.13a4.51 4.51 0 0 0 .47.59 4.36 4.36 0 0 0 .43.43l.21.2a2.31 2.31 0 0 0 .24.2c2.21 1.63 5.46 1.63 9.11-.39l1.12-.61 14.75-8.21 1.93-1.06 3.19-1.77 8.07-4.49 12.11-6.73 2.72-1.51 6.35-3.53 4.52-2.52a17.81 17.81 0 0 0 2.58-1.72l.54-.42c.4-.36.8-.71 1.18-1.08a24.89 24.89 0 0 0 2.16-2.41A26.61 26.61 0 0 0 198.9 456a17.35 17.35 0 0 0 .34-3.26V285.27c0-3.68-1.24-6.28-3.35-7.54a4.58 4.58 0 0 0-.54-.28 2.75 2.75 0 0 0-.5-.2.34.34 0 0 0-.14-.05 4.5 4.5 0 0 0-.71-.2 4.72 4.72 0 0 0-.64-.1 5.64 5.64 0 0 0-.73 0 11.25 11.25 0 0 0-5.34 1.56L165 290.7l-10.58 5.83-7.71 4.25-13.31 7.32c-.37.19-.72.42-1.08.64-.21.13-.43.28-.64.43a.55.55 0 0 0-.17.13c-.2.13-.39.26-.57.4-.44.33-.87.69-1.3 1.05l-.51.49-.52.48v.06c-.17.19-.36.37-.53.54s-.51.55-.74.84a20.84 20.84 0 0 0-1.34 1.64 24 24 0 0 0-4.76 13.48s0 .7 0 2V334.74c0 7.9-.12 22.34-.22 39.45 0 8.79-.08 18.29-.14 28v1.83c-.05 8.9-.09 17.95-.13 26.71v2.91c-.17 30.9-.31 57.82-.32 62.72v.29c-.13.35-.13.49-.13.49Z" class="colordbe1e7 svgShape"></path></clipPath><clipPath id="b"><path fill="#383838" d="M126.92 505.15a6.46 6.46 0 0 1-3.9-1.21 1.86 1.86 0 0 1-.26-.23l-.2-.18c-.16-.14-.3-.29-.45-.45a5 5 0 0 1-.49-.62l-.09-.13c-.1-.16-.18-.3-.27-.46a6.28 6.28 0 0 1-.31-.58c-.07-.19-.12-.33-.18-.47a3.82 3.82 0 0 1-.15-.48 2.78 2.78 0 0 1-.13-.5.9.9 0 0 1-.06-.22 11.86 11.86 0 0 1-.35-2.47s0-.19 0-.52v-.28c0-4.42.14-28.46.33-62.72v-2.91l.13-26.71v-1.83c0-7.64.08-15.15.12-22.29v-8.9c.09-15.47.17-28.84.2-36.24V328.29a24.2 24.2 0 0 1 4.81-13.61 20 20 0 0 1 1.35-1.66c.23-.28.49-.56.75-.83s.34-.35.5-.53l.07-.08.26-.25.26-.24.51-.48c.43-.37.87-.74 1.32-1.07.18-.14.36-.26.55-.39a1 1 0 0 1 .22-.16c.19-.14.41-.29.63-.42a11 11 0 0 1 1.1-.65l53.83-29.67a11.56 11.56 0 0 1 5.45-1.59h.76c.24 0 .42.06.63.1h.14a5.69 5.69 0 0 1 .68.18.7.7 0 0 1 .19.06 3.89 3.89 0 0 1 .49.2 4.58 4.58 0 0 1 .54.28h.05c2.26 1.35 3.48 4.09 3.46 7.74v167.55a17.26 17.26 0 0 1-.35 3.3 26.54 26.54 0 0 1-5.46 11.38 28.4 28.4 0 0 1-2.17 2.43c-.29.28-.59.54-.89.81l-.3.27-.56.44a18.32 18.32 0 0 1-2.61 1.73l-54.75 30.43a11.4 11.4 0 0 1-5.4 1.59Zm-6.4-8a11.25 11.25 0 0 0 .33 2.39v.21a2.93 2.93 0 0 0 .12.47c0 .16.09.31.14.45s.12.29.18.45.18.37.29.55l.25.43.09.13a4.76 4.76 0 0 0 .45.56 5.48 5.48 0 0 0 .41.42 1.29 1.29 0 0 1 .21.2l.22.18c2.23 1.65 5.47 1.5 8.89-.4l54.75-30.43a16.34 16.34 0 0 0 2.55-1.7l.54-.42.3-.27c.3-.26.59-.52.87-.8a26 26 0 0 0 2.14-2.38 26.25 26.25 0 0 0 5.43-11.19 16.6 16.6 0 0 0 .34-3.23v-167.5c0-3.46-1.12-6.07-3.22-7.34h-.05c-.16-.1-.34-.19-.52-.28l-.48-.19h-.14a4.69 4.69 0 0 0-.6-.17h-.09a4.46 4.46 0 0 0-.59-.09 10.22 10.22 0 0 0-6 1.49l-53.84 29.67a10.43 10.43 0 0 0-1.07.64c-.22.13-.42.27-.63.42a1.26 1.26 0 0 0-.13.08l-.05.06a5.58 5.58 0 0 0-.56.39c-.44.32-.87.69-1.29 1l-.51.48-.25.24-.26.24c-.2.23-.39.42-.56.59s-.51.54-.73.82a19.15 19.15 0 0 0-1.33 1.64 23.73 23.73 0 0 0-4.72 13.35s0 .7 0 2V334.77c0 7.4-.1 20.77-.19 36.24l-.05 8.9c0 7.14-.07 14.66-.11 22.29v1.84l-.13 26.7v2.91c-.19 34.26-.32 58.3-.33 62.72v.29c-.07.28-.07.46-.07.48Z" clip-path="url(#a)" data-name="SVGID" class="color383838 svgShape"></path></clipPath><linearGradient id="c" x1="173.61" x2="226.68" y1="211.61" y2="119.68" gradientUnits="userSpaceOnUse"><stop offset="0" stop-color="#cfccd3" class="stopColorcccfd3 svgShape"></stop><stop offset="1" stop-color="#b4b1b8" stop-opacity="0" class="stopColorb2b1b8 svgShape"></stop></linearGradient></defs><g style="isolation:isolate" fill="#000000" class="color000000 svgShape"><g data-name="Layer 1" fill="#000000" class="color000000 svgShape"><path fill="#e0dbe7" d="M120.3 497.14a12.17 12.17 0 0 0 .34 2.44 1.17 1.17 0 0 0 .06.2 2.83 2.83 0 0 0 .13.5 3.09 3.09 0 0 0 .14.46c.06.14.11.29.17.44s.2.4.32.59.17.3.25.44l.09.13a4.51 4.51 0 0 0 .47.59 4.36 4.36 0 0 0 .43.43l.21.2a2.31 2.31 0 0 0 .24.2c2.21 1.63 5.46 1.63 9.11-.39l1.12-.61 14.75-8.21 1.93-1.06 3.19-1.77 8.07-4.49 12.11-6.73 2.72-1.51 6.35-3.53 4.52-2.52a17.81 17.81 0 0 0 2.58-1.72l.54-.42c.4-.36.8-.71 1.18-1.08a24.89 24.89 0 0 0 2.16-2.41A26.61 26.61 0 0 0 198.9 456a17.35 17.35 0 0 0 .34-3.26V285.27c0-3.68-1.24-6.28-3.35-7.54a4.58 4.58 0 0 0-.54-.28 2.75 2.75 0 0 0-.5-.2.34.34 0 0 0-.14-.05 4.5 4.5 0 0 0-.71-.2 4.72 4.72 0 0 0-.64-.1 5.64 5.64 0 0 0-.73 0 11.25 11.25 0 0 0-5.34 1.56L165 290.7l-10.58 5.83-7.71 4.25-13.31 7.32c-.37.19-.72.42-1.08.64-.21.13-.43.28-.64.43a.55.55 0 0 0-.17.13c-.2.13-.39.26-.57.4-.44.33-.87.69-1.3 1.05l-.51.49-.52.48v.06c-.17.19-.36.37-.53.54s-.51.55-.74.84a20.84 20.84 0 0 0-1.34 1.64 24 24 0 0 0-4.76 13.48s0 .7 0 2V334.74c0 7.9-.12 22.34-.22 39.45 0 8.79-.08 18.29-.14 28v1.83c-.05 8.9-.09 17.95-.13 26.71v2.91c-.17 30.9-.31 57.82-.32 62.72v.29c-.13.35-.13.49-.13.49Z" data-name="SVGID" class="colordbe1e7 svgShape"></path><path fill="#383838" d="M126.92 505.15a6.46 6.46 0 0 1-3.9-1.21 1.86 1.86 0 0 1-.26-.23l-.2-.18c-.16-.14-.3-.29-.45-.45a5 5 0 0 1-.49-.62l-.09-.13c-.1-.16-.18-.3-.27-.46a6.28 6.28 0 0 1-.31-.58c-.07-.19-.12-.33-.18-.47a3.82 3.82 0 0 1-.15-.48 2.78 2.78 0 0 1-.13-.5.9.9 0 0 1-.06-.22 11.86 11.86 0 0 1-.35-2.47s0-.19 0-.52v-.28c0-4.42.14-28.46.33-62.72v-2.91l.13-26.71v-1.83c0-7.64.08-15.15.12-22.29v-8.9c.09-15.47.17-28.84.2-36.24V328.29a24.2 24.2 0 0 1 4.81-13.61 20 20 0 0 1 1.35-1.66c.23-.28.49-.56.75-.83s.34-.35.5-.53l.07-.08.26-.25.26-.24.51-.48c.43-.37.87-.74 1.32-1.07.18-.14.36-.26.55-.39a1 1 0 0 1 .22-.16c.19-.14.41-.29.63-.42a11 11 0 0 1 1.1-.65l53.83-29.67a11.56 11.56 0 0 1 5.45-1.59h.76c.24 0 .42.06.63.1h.14a5.69 5.69 0 0 1 .68.18.7.7 0 0 1 .19.06 3.89 3.89 0 0 1 .49.2 4.58 4.58 0 0 1 .54.28h.05c2.26 1.35 3.48 4.09 3.46 7.74v167.55a17.26 17.26 0 0 1-.35 3.3 26.54 26.54 0 0 1-5.46 11.38 28.4 28.4 0 0 1-2.17 2.43c-.29.28-.59.54-.89.81l-.3.27-.56.44a18.32 18.32 0 0 1-2.61 1.73l-54.75 30.43a11.4 11.4 0 0 1-5.4 1.59Zm-6.4-8a11.25 11.25 0 0 0 .33 2.39v.21a2.93 2.93 0 0 0 .12.47c0 .16.09.31.14.45s.12.29.18.45.18.37.29.55l.25.43.09.13a4.76 4.76 0 0 0 .45.56 5.48 5.48 0 0 0 .41.42 1.29 1.29 0 0 1 .21.2l.22.18c2.23 1.65 5.47 1.5 8.89-.4l54.75-30.43a16.34 16.34 0 0 0 2.55-1.7l.54-.42.3-.27c.3-.26.59-.52.87-.8a26 26 0 0 0 2.14-2.38 26.25 26.25 0 0 0 5.43-11.19 16.6 16.6 0 0 0 .34-3.23v-167.5c0-3.46-1.12-6.07-3.22-7.34h-.05c-.16-.1-.34-.19-.52-.28l-.48-.19h-.14a4.69 4.69 0 0 0-.6-.17h-.09a4.46 4.46 0 0 0-.59-.09 10.22 10.22 0 0 0-6 1.49l-53.84 29.67a10.43 10.43 0 0 0-1.07.64c-.22.13-.42.27-.63.42a1.26 1.26 0 0 0-.13.08l-.05.06a5.58 5.58 0 0 0-.56.39c-.44.32-.87.69-1.29 1l-.51.48-.25.24-.26.24c-.2.23-.39.42-.56.59s-.51.54-.73.82a19.15 19.15 0 0 0-1.33 1.64 23.73 23.73 0 0 0-4.72 13.35s0 .7 0 2V334.77c0 7.4-.1 20.77-.19 36.24l-.05 8.9c0 7.14-.07 14.66-.11 22.29v1.84l-.13 26.7v2.91c-.19 34.26-.32 58.3-.33 62.72v.29c-.07.28-.07.46-.07.48Z" data-name="SVGID" class="color383838 svgShape"></path><g clip-path="url(#b)" fill="#000000" class="color000000 svgShape"><path fill="#383838" d="m240.19 348 6.51-13.25c16.62-10.27 30.38-39.83 31-67.23.61-26.08-10.87-41.22-26.25-36.16l-.39.95c15.29-5.3 26.75 9.64 26.14 35.47-.65 27.84-15.06 57.94-32.12 67.09s-30.41-6.05-29.76-33.89a100.45 100.45 0 0 1 5.74-30.45l-.51.11a101.83 101.83 0 0 0-5.74 30.61c-.66 28.29 12.91 43.74 30.25 34.44l.87-.5L240 347.3l-29.53 15.84.47-19.83-27.81 14.92a.22.22 0 0 0-.31-.08 1.09 1.09 0 0 0-.43.88c0 .37.17.57.4.44a.8.8 0 0 0 .32-.42l27.31-14.65-.42 19.83Z" opacity=".5" class="color383838 svgShape"></path></g><path d="m188.84 83.55-122 73.26a2.72 2.72 0 0 0 0 4.72L162 210.67c.84.49 7.13-1.44 8-1.93l31.39-18.81 37.47 41.85c.85.49 7.14-1.43 8-1.93l90.76-61.78Z" style="mix-blend-mode:multiply" fill="url(#c)"></path><path fill="#7028d5" d="M135.58 104.58a11.52 11.52 0 0 0 6.66-3.51c4.76-4.79-9.33-7.07-9.33-7.07l-3.16 6.07Z" class="colord58228 svgShape"></path><path fill="#6929c2" d="M142.54 99.93a2.78 2.78 0 0 0 .64-2v-.65l-.18-31.6a9.66 9.66 0 0 0-4.9-8.33l-30.8-17.48a9.06 9.06 0 0 1-4.3-7.48 5.43 5.43 0 0 0-2.75-4.69l-14.33-8.12c-3.6-2-7.07.07-7 4.3l.33 40.28a9 9 0 0 0 4.33 7.48l47 26.67-.7 1.36 5.47 3s1.55 1.46 5.36-.93a11.1 11.1 0 0 0 1.83-1.81Z" class="color969a9f svgShape"></path><path fill="#383838" d="M136.77 103.34a2.37 2.37 0 0 1-1.64-.49l-5.6-3.11.7-1.35-46.79-26.58A9.26 9.26 0 0 1 79 64.17l-.32-40.29a5.13 5.13 0 0 1 2.32-4.7 4.93 4.93 0 0 1 5 .23l14.29 8.12a5.65 5.65 0 0 1 2.86 4.86 8.8 8.8 0 0 0 4.24 7.31l30.77 17.48a9.9 9.9 0 0 1 5 8.5l.25 31.57a5 5 0 0 1 0 .67v.31c0 .56 0 .75-.65 1.8a5.82 5.82 0 0 1-1.26 1.29l-.69.6a7.7 7.7 0 0 1-4.04 1.42ZM130 99.59l5.31 3c.05 0 1.55 1.34 5.17-.92.22-.21.46-.41.67-.6a6 6 0 0 0 1.19-1.19c.59-1 .59-1.13.6-1.6v-.98l-.24-31.57a9.53 9.53 0 0 0-4.8-8.17L107.21 40a9.24 9.24 0 0 1-4.44-7.65 5.23 5.23 0 0 0-2.66-4.52l-14.29-8.08a4.56 4.56 0 0 0-4.63-.24 4.77 4.77 0 0 0-2.11 4.36l.32 40.29a8.82 8.82 0 0 0 4.23 7.31l47.12 26.77Z" class="color383838 svgShape"></path><path fill="#ffffff" d="M133.16 44 84.8 17.17a1.46 1.46 0 0 0-2.17 1.28v56.26a1.48 1.48 0 0 0 .75 1.29l48.36 26.8a1.47 1.47 0 0 0 2.18-1.28V45.26a1.46 1.46 0 0 0-.76-1.26Z" class="colorffffff svgShape"></path><path fill="#383838" d="M132.45 103.22a1.63 1.63 0 0 1-.82-.22L83.27 76.2a1.69 1.69 0 0 1-.88-1.49V18.45A1.7 1.7 0 0 1 84.92 17l48.36 26.81a1.71 1.71 0 0 1 .88 1.49v56.25a1.72 1.72 0 0 1-1.71 1.71Zm-48.36-86a1.29 1.29 0 0 0-.62.17 1.21 1.21 0 0 0-.6 1.05v56.27a1.2 1.2 0 0 0 .63 1.06l48.36 26.81a1.22 1.22 0 0 0 1.81-1.07V45.26a1.23 1.23 0 0 0-.63-1.07L84.68 17.38a1.23 1.23 0 0 0-.59-.15Z" class="color383838 svgShape"></path><path fill="#c6c1cc" d="m98.87 79.52-9.95-5.65v2.35l9.95 5.65v-2.35z" class="colorc1c8cc svgShape"></path><path fill="#383838" d="m99.1 82.26-10.41-5.91v-2.87l10.41 5.91Zm-9.95-6.17 9.49 5.4v-1.84l-9.49-5.39Z" class="color383838 svgShape"></path><path fill="#c6c1cc" d="m122.03 92.89-9.95-5.65v2.35l9.95 5.65v-2.35z" class="colorc1c8cc svgShape"></path><path fill="#383838" d="m122.25 95.63-10.4-5.91v-2.87l10.4 5.91Zm-10-6.17 9.5 5.4V93l-9.5-5.39Z" class="color383838 svgShape"></path><path fill="#c6c1cc" d="m110.36 86.11-9.95-5.65v2.35l9.95 5.66v-2.36z" class="colorc1c8cc svgShape"></path><path fill="#383838" d="m110.59 88.85-10.4-5.91v-2.87l10.4 5.93Zm-10-6.17 9.5 5.4v-1.83l-9.5-5.4Z" class="color383838 svgShape"></path><path fill="#c6c1cc" d="m110.63 67.2 3.77 2.15v-.88l-3.77-2.15v.88z" class="colorc1c8cc svgShape"></path><path fill="#383838" d="m114.62 69.74-4.21-2.41v-1.4l4.21 2.41Zm-3.76-2.67 3.31 1.93v-.4l-3.31-1.9Z" class="color383838 svgShape"></path><path fill="#c6c1cc" d="m105.3 64.15 4.62 2.64v-.88l-4.62-2.65v.89z" class="colorc1c8cc svgShape"></path><path fill="#383838" d="m110.15 67.18-5.08-2.9v-1.4l5.08 2.9ZM105.52 64l4.18 2.39V66l-4.18-2.39Z" class="color383838 svgShape"></path><path fill="#c6c1cc" d="m100.36 61.32 3.52 2.02v-.89l-3.52-2.01v.88z" class="colorc1c8cc svgShape"></path><path fill="#383838" d="m104.1 63.72-4-2.27v-1.4l4 2.27Zm-3.52-2.53 3.07 1.81v-.37l-3.07-1.75Z" class="color383838 svgShape"></path><path fill="#c6c1cc" d="m92.37 56.75 6.91 3.95v-.88l-6.91-3.95v.88z" class="colorc1c8cc svgShape"></path><path fill="#383838" d="m99.5 61.09-7.35-4.2v-1.41l7.35 4.21Zm-6.9-4.47 6.45 3.7V60l-6.45-3.74Z" class="color383838 svgShape"></path><path fill="#c6c1cc" d="m115.47 69.96 13.76 7.75v-.88l-13.76-7.75v.88z" class="colorc1c8cc svgShape"></path><path fill="#383838" d="m129.45 78.1-14.21-8v-1.4l14.21 8Zm-13.75-8.27 13.3 7.49V77l-13.3-7.5Z" class="color383838 svgShape"></path><path fill="#c6c1cc" d="m94.2 59.79 3.44 1.96v-.88l-3.44-1.96v.88z" class="colorc1c8cc svgShape"></path><path fill="#383838" d="M97.86 62.14 94 59.92v-1.4l3.88 2.22Zm-3.43-2.48 3 1.7V61l-3-1.71Z" class="color383838 svgShape"></path><path fill="#c6c1cc" d="m88.83 56.72 3.64 2.08v-.89l-3.64-2.08v.89z" class="colorc1c8cc svgShape"></path><path fill="#383838" d="m92.7 59.19-4.1-2.34v-1.41l4.1 2.34Zm-3.65-2.6 3.19 1.82v-.36l-3.19-1.83Z" class="color383838 svgShape"></path><path fill="#c6c1cc" d="m116.24 72.39 12.99 7.31v-.88l-12.99-7.32v.89z" class="colorc1c8cc svgShape"></path><path fill="#383838" d="M129.45 80.09 116 72.52v-1.4l13.43 7.57Zm-13-7.83L129 79.32V79l-12.53-7.06Z" class="color383838 svgShape"></path><path fill="#c6c1cc" d="m112.18 70.09 3.35 1.89v-.88l-3.35-1.89v.88z" class="colorc1c8cc svgShape"></path><path fill="#383838" d="M115.75 72.37 112 70.22v-1.4l3.8 2.15ZM112.4 70l2.9 1.64v-.37l-2.9-1.64Z" class="color383838 svgShape"></path><path fill="#c6c1cc" d="m87.34 51.9 10.43 5.96v-.88l-10.43-5.96v.88z" class="colorc1c8cc svgShape"></path><path fill="#383838" d="M98 58.25 87.12 52v-1.4L98 56.84Zm-10.43-6.48 10 5.7v-.36l-10-5.71Z" class="color383838 svgShape"></path><path fill="#c6c1cc" d="m116.24 68.42 12.99 7.31v-.88l-12.99-7.32v.89z" class="colorc1c8cc svgShape"></path><path fill="#383838" d="M129.45 76.12 116 68.55v-1.4l13.43 7.57Zm-13-7.83L129 75.35V75l-12.53-7.06Z" class="color383838 svgShape"></path><path fill="#c6c1cc" d="m112.18 66.12 3.35 1.89v-.88l-3.35-1.9v.89z" class="colorc1c8cc svgShape"></path><path fill="#383838" d="M115.75 68.4 112 66.25v-1.4l3.8 2.15ZM112.4 66l2.9 1.64v-.37l-2.9-1.64Z" class="color383838 svgShape"></path><path fill="#c6c1cc" d="m101.17 55.84 11.31 6.47v-.88l-11.31-6.47v.88z" class="colorc1c8cc svgShape"></path><path fill="#383838" d="M112.7 62.7 100.94 56v-1.4l11.76 6.7Zm-11.31-7 10.86 6.22v-.37l-10.86-6.21Z" class="color383838 svgShape"></path><path fill="#c6c1cc" d="m123.95 70.74 5.28 3.01v-.89l-5.28-3v.88z" class="colorc1c8cc svgShape"></path><path fill="#383838" d="m129.45 74.14-5.72-3.26v-1.41l5.72 3.26Zm-5.27-3.53 4.82 2.75V73l-4.82-2.75Z" class="color383838 svgShape"></path><path fill="#c6c1cc" d="m118.27 67.51 4.3 2.45v-.88l-4.3-2.45v.88z" class="colorc1c8cc svgShape"></path><path fill="#383838" d="m122.8 70.35-4.75-2.71v-1.4L122.8 69Zm-4.3-3 3.85 2.19v-.36L118.5 67Z" class="color383838 svgShape"></path><path fill="#c6c1cc" d="m110.59 63.14 6.48 3.69v-.89l-6.48-3.69v.89z" class="colorc1c8cc svgShape"></path><path fill="#383838" d="m117.3 67.22-6.94-3.95v-1.4l6.94 3.94ZM110.82 63l6 3.43v-.36l-6-3.44Z" class="color383838 svgShape"></path><path fill="#c6c1cc" d="m103.48 59.09 6.22 3.54v-.88l-6.22-3.54v.88z" class="colorc1c8cc svgShape"></path><path fill="#383838" d="m109.93 63-6.67-3.8v-1.4l6.67 3.8Zm-6.22-4 5.77 3.28v-.36l-5.77-3.29Z" class="color383838 svgShape"></path><path fill="#c6c1cc" d="m96.29 54.99 6.04 3.44v-.88l-6.04-3.44v.88z" class="colorc1c8cc svgShape"></path><path fill="#383838" d="m102.55 58.82-6.49-3.69v-1.41l6.49 3.7Zm-6-4 5.59 3.19v-.37l-5.63-3.14Z" class="color383838 svgShape"></path><path fill="#c6c1cc" d="m90.15 51.5 5.03 2.86v-.88l-5.03-2.86v.88z" class="colorc1c8cc svgShape"></path><path fill="#383838" d="m95.4 54.75-5.47-3.12v-1.4l5.47 3.12Zm-5-3.38L95 54v-.37L90.38 51Z" class="color383838 svgShape"></path><path fill="#c6c1cc" d="m105.3 76.27 9.1 5.2v-.88l-9.1-5.21v.89z" class="colorc1c8cc svgShape"></path><path fill="#383838" d="m114.62 81.86-9.55-5.46V75l9.55 5.47Zm-9.1-5.73 8.65 5v-.36l-8.65-5Z" class="color383838 svgShape"></path><path fill="#c6c1cc" d="m92.37 68.87 11.51 6.58v-.88l-11.51-6.58v.88z" class="colorc1c8cc svgShape"></path><path fill="#383838" d="M104.1 75.84 92.15 69v-1.4l11.95 6.84Zm-11.5-7.1 11.05 6.32v-.36L92.6 68.38Z" class="color383838 svgShape"></path><path fill="#c6c1cc" d="m87.32 65.98 3.81 2.18v-.88l-3.81-2.18v.88z" class="colorc1c8cc svgShape"></path><path fill="#383838" d="m91.36 68.55-4.27-2.44v-1.4l4.27 2.44Zm-3.82-2.7 3.36 1.92v-.36l-3.36-1.93Z" class="color383838 svgShape"></path><path fill="#c6c1cc" d="m115.47 82.08 9.61 5.41v-.88l-9.61-5.42v.89z" class="colorc1c8cc svgShape"></path><path fill="#383838" d="m125.3 87.88-10.06-5.67v-1.4l10.06 5.66Zm-9.6-5.94 9.15 5.16v-.36l-9.15-5.16Z" class="color383838 svgShape"></path><path fill="#c6c1cc" d="m98.97 74.63 8.59 4.91v-.88l-8.59-4.91v.88z" class="colorc1c8cc svgShape"></path><path fill="#383838" d="m107.79 79.93-9.05-5.17v-1.4l9.05 5.17Zm-8.6-5.43 8.14 4.66v-.37l-8.14-4.65Z" class="color383838 svgShape"></path><path fill="#c6c1cc" d="m108.25 79.94 3.17 1.81v-.88l-3.17-1.81v.88z" class="colorc1c8cc svgShape"></path><path fill="#383838" d="M111.65 82.14 108 80.07v-1.4l3.63 2.07Zm-3.17-2.33 2.72 1.55V81l-2.72-1.56Z" class="color383838 svgShape"></path><path fill="#c6c1cc" d="m94 71.79 3.64 2.08v-.88L94 70.91v.88z" class="colorc1c8cc svgShape"></path><path fill="#383838" d="m97.86 74.26-4.08-2.34v-1.4l4.08 2.34Zm-3.63-2.6 3.18 1.82v-.36l-3.18-1.82Z" class="color383838 svgShape"></path><path fill="#c6c1cc" d="m89.16 69.03 4.12 2.35v-.88l-4.12-2.36v.89z" class="colorc1c8cc svgShape"></path><path fill="#383838" d="m93.5 71.77-4.57-2.61v-1.41l4.57 2.62Zm-4.11-2.88L93.05 71v-.36l-3.66-2.1Z" class="color383838 svgShape"></path><path fill="#c6c1cc" d="m112.18 82.21 3.35 1.89v-.88l-3.35-1.9v.89z" class="colorc1c8cc svgShape"></path><path fill="#383838" d="M115.75 84.49 112 82.34v-1.4l3.8 2.15Zm-3.35-2.41 2.9 1.63v-.36l-2.9-1.64Z" class="color383838 svgShape"></path><path fill="#c6c1cc" d="m93.67 67.63 4.1 2.35v-.89l-4.1-2.34v.88z" class="colorc1c8cc svgShape"></path><path fill="#383838" d="m98 70.36-4.56-2.6v-1.4L98 69Zm-4.11-2.86 3.65 2.09v-.37l-3.65-2.08Z" class="color383838 svgShape"></path><path fill="#c6c1cc" d="m88.72 64.8 3.35 1.92v-.89l-3.35-1.91v.88z" class="colorc1c8cc svgShape"></path><path fill="#383838" d="m92.29 67.11-3.8-2.18v-1.4l3.8 2.17Zm-3.35-2.44 2.9 1.66V66l-2.9-1.66Z" class="color383838 svgShape"></path><path fill="#c6c1cc" d="m116.24 80.53 12.99 7.32v-.88l-12.99-7.32v.88z" class="colorc1c8cc svgShape"></path><path fill="#383838" d="M129.45 88.24 116 80.67v-1.4l13.43 7.56Zm-13-7.84L129 87.46v-.36L116.47 80Z" class="color383838 svgShape"></path><path fill="#c6c1cc" d="m112.18 78.24 3.35 1.89v-.88l-3.35-1.9v.89z" class="colorc1c8cc svgShape"></path><path fill="#383838" d="M115.75 80.52 112 78.37V77l3.8 2.15Zm-3.35-2.41 2.9 1.63v-.36l-2.9-1.64Z" class="color383838 svgShape"></path><path fill="#c6c1cc" d="m107.5 69.51 17.52 9.97v-.88l-17.52-9.98v.89z" class="colorc1c8cc svgShape"></path><path fill="#383838" d="m125.24 79.87-18-10.23v-1.4l18 10.23Zm-17.52-10.49 17.07 9.72v-.37L107.72 69Z" class="color383838 svgShape"></path><path fill="#c6c1cc" d="m101.04 65.83 4.52 2.58v-.88l-4.52-2.58v.88z" class="colorc1c8cc svgShape"></path><path fill="#383838" d="m105.79 68.8-5-2.84v-1.4l5 2.83Zm-4.53-3.1 4.08 2.3v-.36l-4.08-2.33Z" class="color383838 svgShape"></path><path fill="#c6c1cc" d="m91.64 60.48 8.22 4.68v-.84h.08l-8.3-4.72v.88z" class="colorc1c8cc svgShape"></path><path fill="#383838" d="m100.09 65.55-8.68-4.94v-1.4l9.38 5.34h-.7Zm-8.22-5.2 7.77 4.43v-.37L91.87 60Z" class="color383838 svgShape"></path><path fill="#c6c1cc" d="m101.17 67.96 11.31 6.47v-.88l-11.31-6.48v.89z" class="colorc1c8cc svgShape"></path><path fill="#383838" d="m112.7 74.82-11.76-6.73v-1.41l11.76 6.74Zm-11.31-7L112.25 74v-.36l-10.86-6.22Z" class="color383838 svgShape"></path><path fill="#c6c1cc" d="m87.38 60.07 12.1 6.92v-.88l-12.1-6.93v.89z" class="colorc1c8cc svgShape"></path><path fill="#383838" d="M99.71 67.38 87.16 60.2v-1.4L99.71 66Zm-12.1-7.44 11.64 6.66v-.36l-11.64-6.67Z" class="color383838 svgShape"></path><path fill="#c6c1cc" d="m116.58 76.75 12.65 7.12v-.88l-12.65-7.13v.89z" class="colorc1c8cc svgShape"></path><path fill="#383838" d="m129.45 84.26-13.1-7.38v-1.4l13.1 7.38Zm-12.65-7.65 12.2 6.88v-.37l-12.2-6.87Z" class="color383838 svgShape"></path><path fill="#c6c1cc" d="m113.94 75.26 2.01 1.13v-.89l-2.01-1.12v.88z" class="colorc1c8cc svgShape"></path><path fill="#383838" d="m116.17 76.78-2.45-1.39V74l2.45 1.38Zm-2-1.65 1.55.87v-.36l-1.55-.88Z" class="color383838 svgShape"></path><path fill="#c6c1cc" d="m123.95 82.86 5.28 3.01v-.89l-5.28-3v.88z" class="colorc1c8cc svgShape"></path><path fill="#383838" d="M129.45 86.26 123.73 83v-1.4l5.72 3.26Zm-5.27-3.53 4.82 2.75v-.37l-4.82-2.74Z" class="color383838 svgShape"></path><path fill="#c6c1cc" d="m119.09 80.09 3.48 1.99v-.89l-3.48-1.98v.88z" class="colorc1c8cc svgShape"></path><path fill="#383838" d="m122.8 82.47-3.94-2.25v-1.4l3.94 2.24ZM119.31 80l3 1.73v-.36l-3-1.73Z" class="color383838 svgShape"></path><path fill="#c6c1cc" d="m108.61 74.13 9.62 5.48v-.89l-9.62-5.47v.88z" class="colorc1c8cc svgShape"></path><path fill="#383838" d="m118.46 80-10.07-5.73v-1.4l10.07 5.73Zm-9.62-6 9.16 5.22v-.37l-9.17-5.22Z" class="color383838 svgShape"></path><path fill="#c6c1cc" d="m97.4 67.74 4.63 2.64v-.88l-4.63-2.64v.88z" class="colorc1c8cc svgShape"></path><path fill="#383838" d="m102.25 70.77-5.08-2.9v-1.4l5.08 2.9Zm-4.63-3.16L101.8 70v-.36l-4.18-2.38Z" class="color383838 svgShape"></path><path fill="#c6c1cc" d="m90.15 63.62 3.94 2.24v-.88l-3.94-2.25v.89z" class="colorc1c8cc svgShape"></path><path fill="#383838" d="m94.32 66.25-4.39-2.5v-1.4l4.39 2.5Zm-3.94-2.76 3.49 2v-.36l-3.49-2Z" class="color383838 svgShape"></path><path fill="#c6c1cc" d="m94.69 66.2 1.99 1.13v-.88l-1.99-1.13v.88z" class="colorc1c8cc svgShape"></path><path fill="#383838" d="m96.9 67.72-2.43-1.39v-1.4l2.43 1.39Zm-2-1.65 1.53.88v-.37l-1.53-.87Z" class="color383838 svgShape"></path><path fill="#c6c1cc" d="m103.11 71 4.73 2.69v-.88l-4.73-2.7V71z" class="colorc1c8cc svgShape"></path><path fill="#383838" d="m108.07 74.08-5.19-3v-1.36l5.19 3Zm-4.73-3.21 4.28 2.43v-.36l-4.28-2.44ZM85.58 45.34l-.49-.48h.55v.22l.16-.16-.16.16.08.21-.14.05z" class="color383838 svgShape"></path><path fill="#c6c1cc" d="M139.05 99.63a6 6 0 0 1-.62 2.81 4.13 4.13 0 0 1-1.44 1.62 4.68 4.68 0 0 1-5-.14l-10.3-5.86-42.46-24.13a9.07 9.07 0 0 1-4.23-7.4l-.32-40.29a7.34 7.34 0 0 1 .09-1.18A4.24 4.24 0 0 1 80 21.27a6.08 6.08 0 0 1 1.75.68l14.29 8.12a4.89 4.89 0 0 1 .72.5 4.59 4.59 0 0 1 .41.36 6.11 6.11 0 0 1 .86 1.11 5.42 5.42 0 0 1 .75 2.72 9 9 0 0 0 4.34 7.47l15.9 9 10.3 5.84 4.57 2.6a9.68 9.68 0 0 1 4.9 8.33Z" class="colorc1c8cc svgShape"></path><path fill="#383838" d="M134.78 104.93a5.79 5.79 0 0 1-2.87-.82l-52.79-30a9.32 9.32 0 0 1-4.3-7.59l-.33-40.29a7.77 7.77 0 0 1 .09-1.23 4.63 4.63 0 0 1 2.91-3.82 4.7 4.7 0 0 1 2.56-.18 6.29 6.29 0 0 1 1.82.72l14.29 8.11a4.72 4.72 0 0 1 .75.53 3.39 3.39 0 0 1 .43.37 5.92 5.92 0 0 1 .9 1.16 5.67 5.67 0 0 1 .76 2.87 8.76 8.76 0 0 0 4.25 7.24L134 59.52a9.94 9.94 0 0 1 5 8.53l.25 31.57a6.1 6.1 0 0 1-.65 2.92 4.48 4.48 0 0 1-1.51 1.71 4.21 4.21 0 0 1-2.31.68ZM79 21.39a4 4 0 0 0-1.38.24A4.21 4.21 0 0 0 75 25.1a6.93 6.93 0 0 0-.09 1.14l.33 40.29a8.86 8.86 0 0 0 4.07 7.21l52.79 30a4.45 4.45 0 0 0 4.74.15 3.93 3.93 0 0 0 1.36-1.54 5.57 5.57 0 0 0 .6-2.7l-.25-31.58a9.48 9.48 0 0 0-4.79-8.14L103 42.44a9.26 9.26 0 0 1-4.45-7.67 5.21 5.21 0 0 0-.73-2.61A5.27 5.27 0 0 0 97 31.1a4.83 4.83 0 0 0-.39-.35 6.05 6.05 0 0 0-.7-.49l-14.3-8.11a5.54 5.54 0 0 0-1.61-.66 4.2 4.2 0 0 0-1-.1Z" class="color383838 svgShape"></path><path fill="#ffffff" d="M108.92 63.07V58a7.76 7.76 0 0 0-3.87-6.07 3.45 3.45 0 0 0-3.18-.35 2.47 2.47 0 0 0-1.25 2.37v4.64L97.74 57l-.29 14c0 3 3 7.12 6.78 9.18s6.94 1.29 7-1.72l.29-14Zm-3.33 10.07a.21.21 0 0 1-.31.2l-2.17-1.29a.19.19 0 0 1-.1-.21l.53-3.15a.29.29 0 0 0 0-.16 2.35 2.35 0 0 1-.54-1.36c0-.75.61-1 1.36-.58a2.84 2.84 0 0 1 1.35 2.13.74.74 0 0 1-.4.73.21.21 0 0 0-.16.22Zm1.71-10.94-5.08-2.75v-5.19a1.24 1.24 0 0 1 .57-1.2 1.91 1.91 0 0 1 1.7.26 5.77 5.77 0 0 1 2.81 4.36Z" class="colorffffff svgShape"></path><path fill="#383838" d="M108.15 81.55a8.8 8.8 0 0 1-4-1.18c-3.86-2.09-7-6.31-6.9-9.4l.29-14.36 2.87 1.56v-4.23a2.72 2.72 0 0 1 1.39-2.59 3.69 3.69 0 0 1 3.4.36 8 8 0 0 1 4 6.28v4.94l2.6 1.41-.29 14.11a2.94 2.94 0 0 1-1.41 2.64 3.75 3.75 0 0 1-1.95.46ZM98 57.42 97.69 71c0 2.93 2.93 7 6.65 9 2.19 1.18 4.23 1.45 5.48.73a2.48 2.48 0 0 0 1.18-2.29l.29-13.82-2.59-1.4V58a7.49 7.49 0 0 0-3.75-5.85 3.2 3.2 0 0 0-3-.35 2.24 2.24 0 0 0-1.12 2.15V59Zm7.41 16.19a.39.39 0 0 1-.23-.07L103 72.26a.44.44 0 0 1-.21-.45l.53-3.16a2.52 2.52 0 0 1-.58-1.48 1 1 0 0 1 .46-.91 1.27 1.27 0 0 1 1.26.12 3.05 3.05 0 0 1 1.47 2.34 1 1 0 0 1-.54 1l.46 3.44a.46.46 0 0 1-.2.43.55.55 0 0 1-.27.02Zm-1.74-7a.4.4 0 0 0-.22.05.53.53 0 0 0-.21.49 2.15 2.15 0 0 0 .48 1.21.54.54 0 0 1 .09.31l-.53 3.19 2.09 1.21-.47-3.39a.46.46 0 0 1 .32-.48c.15-.07.23-.24.23-.5a2.59 2.59 0 0 0-1.23-1.92 1.19 1.19 0 0 0-.58-.15Zm3.91-4-5.57-3v-5.35a1.47 1.47 0 0 1 .7-1.41 2.13 2.13 0 0 1 1.93.26 6.05 6.05 0 0 1 2.94 4.57Zm-5.09-3.3 4.6 2.48v-4.11a5.57 5.57 0 0 0-2.69-4.15 1.72 1.72 0 0 0-1.47-.25 1 1 0 0 0-.44 1Z" class="color383838 svgShape"></path><path fill="#8b39fe" d="m276.37 171.41-72.42-36.9V88.7l72.42 36.89v45.82z" class="colorfeda39 svgShape"></path><path fill="#383838" d="m276.59 171.77-.33-.16-72.53-37V88.33l.33.17 72.53 37Zm-72.41-37.4 72 36.67v-45.31l-72-36.66Z" class="color383838 svgShape"></path><path fill="#8b39fe" d="m276.37 125.59-13.15 3.75-2.12.59-1.77.51-1.06.31-.44.12-1.77.5-1.14.33-14.35 4.08-.41.11-16.5-21.5-1.6-2.1-.17-.21-1.48-1.94-1.77-2.31-4.11-5.34-10.57-13.79 21.82 11.11 14.38 7.33 23.06 11.75 13.15 6.7z" class="colorfeda39 svgShape"></path><path fill="#383838" d="m240.08 136.15-36.91-48.1 73.83 37.6-22 6.26Zm-35.34-46.8 35.51 46.29.26-.08 35.25-10Z" class="color383838 svgShape"></path><path fill="#8b39fe" d="m240.16 78.88 36.21 46.71-36.21-18.44-36.21-18.45 36.21-9.82z" class="colorfeda39 svgShape"></path><path fill="#383838" d="m277.16 126.25-73.83-37.62.56-.15 36.36-9.85.09.11Zm-72.58-37.49 71 36.18-35.5-45.8Z" class="color383838 svgShape"></path><path fill="#8b39fe" d="m240.16 127.21 18.1 22.1 18.11 22.1-36.21-18.45-36.21-18.45 18.11-3.65 18.1-3.65z" class="colorfeda39 svgShape"></path><path fill="#383838" d="m277.22 172.09-74-37.67 37-7.46.08.11Zm-72.59-37.49 70.88 36.12-35.44-43.26Z" class="color383838 svgShape"></path><path fill="#010101" d="m258.02 101.92-32.24-16.6v31.17l14.79 19.29 14.35-4.08 1.14-.33 1.77-.5.44-.12 1.06-.31 1.77-.51 2.12-.59v-20.72l-5.2-6.7z" opacity=".16" class="color010101 svgShape"></path><path fill="#ffffff" d="M261.1 102.5v27.43l-1.74.5-.03.01-1.06.31-.44.12-1.77.5-1.14.33-14.76 4.19-16.5-21.5V83.22l35.7 18.38 1.74.9z" class="colorffffff svgShape"></path><path fill="#383838" d="M240.07 136.17 240 136l-16.55-21.57V82.82l.36.18 37.57 19.35v27.77Zm-16.16-21.87 16.35 21.32 20.6-5.87v-27.11l-1.61-.83-35.34-18.19Z" class="color383838 svgShape"></path><path fill="#010101" d="M259.36 101.6v28.83l-.03.01-1.06.31-.44.12-1.77.5-1.14.33-14.76 4.19-16.5-21.5V83.22l35.7 18.38z" opacity=".16" class="color010101 svgShape"></path><path fill="#ffffff" d="M257.83 94.67v36.2l-1.77.5-1.14.33-14.76 4.19-18.1-23.6-.17-.21-1.48-1.94V75.39l37.42 19.28z" class="colorffffff svgShape"></path><path fill="#383838" d="M240.07 136.17 240 136l-19.81-25.82V75l.36.19 37.56 19.34v36.54l-3.09.87Zm-19.42-26.11 19.61 25.56 17.33-4.93V94.82l-36.94-19Z" class="color383838 svgShape"></path><path fill="#010101" d="m241.21 134.18-18.11-23.6-.16-.22-2.53-3.29v3.07l1.48 1.94.17.21 18.1 23.6 14.76-4.19 1.14-.33 1.77-.5v-1.33l-16.62 4.64z" opacity=".11" class="color010101 svgShape"></path><path fill="#383838" d="M217.74 112v84.68c0 1.8-2.29 2.79-4.18 1.8l-7.29-3.85-82.48-43.3a6.44 6.44 0 0 1-3.73-5.55V61.06c0-1.79 2.31-2.79 4.2-1.81L214 106.41a6.54 6.54 0 0 1 3.74 5.59Z" class="color383838 svgShape"></path><path fill="#383838" d="M217.74 112v9.45l-2.4 1.56-92.26-53.66L120 67v-6c0-1.79 2.31-2.79 4.2-1.81l89.8 47.22a6.54 6.54 0 0 1 3.74 5.59Z" class="color383838 svgShape"></path><path fill="#e0dbe7" d="M215.34 113.24v84.68c0 1.78-2.3 2.79-4.19 1.8l-7.28-3.85-82.49-43.3a7.45 7.45 0 0 1-1.4-.94 6.07 6.07 0 0 1-2.33-4.61V62.33c0-1.78 2.32-2.78 4.2-1.8l89.77 47.16a6.46 6.46 0 0 1 3.72 5.55Z" class="colordbe1e7 svgShape"></path><path fill="#383838" d="M212.72 200.35a3.59 3.59 0 0 1-1.69-.42l-7.28-3.85-82.49-43.29a8 8 0 0 1-1.45-1 6.3 6.3 0 0 1-2.41-4.79V62.33a2.33 2.33 0 0 1 1.2-2 3.47 3.47 0 0 1 3.35 0l89.77 47.15a6.75 6.75 0 0 1 3.86 5.77v84.68a2.3 2.3 0 0 1-1.18 2 3.22 3.22 0 0 1-1.68.42Zm-92.45-140a2.74 2.74 0 0 0-1.42.38 1.82 1.82 0 0 0-1 1.57V147a5.82 5.82 0 0 0 2.24 4.42 6.85 6.85 0 0 0 1.37.92L204 195.66l7.28 3.84a3 3 0 0 0 2.89 0 1.85 1.85 0 0 0 1-1.57v-84.69a6.26 6.26 0 0 0-3.6-5.34l-89.84-47.15a3.15 3.15 0 0 0-1.46-.36Z" class="color383838 svgShape"></path><path fill="#383838" d="m200.58 146.26-3.22 2-1.07-1.64a10.28 10.28 0 0 1-2.35-1c-4.92-2.83-8.87-9.41-8.84-14.7a10 10 0 0 1 .11-1.27l-1.12-1.72 3-1.82a4.09 4.09 0 0 1 .82-.5c1.61-.73 3.79-.5 6.19.87 4.91 2.83 8.87 9.41 8.84 14.7-.02 2.47-.94 4.21-2.36 5.08ZM181.88 157.65a11.32 11.32 0 0 1 1.11-5l-.42-1.16 3.16-1.95.38-.23c2.1-1.11 4.81-1.07 7.78.64 6.61 3.79 12 14.33 11.9 21.42l-3.47 2.15-7.69-7.15 1.52-.53Z" class="color383838 svgShape"></path><path fill="#8b39fe" d="M190.64 128.62c4.92 2.83 8.88 9.41 8.84 14.7s-4.06 7.29-9 4.46-8.88-9.41-8.84-14.7 4.08-7.28 9-4.46Z" class="colorfeda39 svgShape"></path><path fill="#383838" d="M194.71 149.28a8.84 8.84 0 0 1-4.33-1.31c-5-2.85-9-9.53-9-14.89 0-2.51.93-4.41 2.56-5.34s4.24-.77 6.78.69c5 2.86 9 9.54 9 14.89 0 2.52-.93 4.42-2.56 5.35a4.83 4.83 0 0 1-2.45.61Zm-8.28-21.71a4.45 4.45 0 0 0-2.23.56c-1.48.85-2.3 2.61-2.32 5 0 5.21 3.88 11.72 8.72 14.5 2.4 1.38 4.7 1.63 6.33.7 1.48-.85 2.31-2.61 2.33-5 0-5.21-3.88-11.71-8.73-14.5a8.39 8.39 0 0 0-4.1-1.26Z" class="color383838 svgShape"></path><path fill="#8b39fe" d="M190.43 152.1c6.61 3.79 11.95 14.33 11.89 21.43l-23.91-13.73c.06-7.09 5.42-11.49 12.02-7.7Z" class="colorfeda39 svgShape"></path><path fill="#383838" d="m202.55 173.92-24.36-14v-.13c0-3.81 1.58-7 4.15-8.43 2.34-1.35 5.26-1.16 8.2.54 6.94 4 12.06 14.69 12 21.62Zm-23.91-14.25 23.45 13.47c-.14-6.69-5.21-17.08-11.77-20.84-2.8-1.61-5.56-1.8-7.76-.54-2.4 1.37-3.86 4.33-3.92 7.91ZM149.63 108.84l3.62 2.07v-.85l-3.62-2.07v.85zM144.49 105.9l4.46 2.55v-.85l-4.46-2.55v.85zM139.74 103.18l3.39 1.94v-.85l-3.39-1.94v.85zM132.05 98.78l6.65 3.81v-.85l-6.65-3.8v.84zM154.28 111.5l13.25 7.45v-.85l-13.25-7.46v.86zM133.81 101.7l3.31 1.9v-.85l-3.31-1.89v.84zM128.64 98.75l3.51 2v-.85l-3.51-2v.85zM155.03 113.83l12.5 7.04v-.85l-12.5-7.04v.85zM151.11 111.62l3.23 1.82v-.85l-3.23-1.82v.85zM127.21 94.11l10.04 5.74V99l-10.04-5.74v.85zM155.03 110.01l12.5 7.04v-.85l-12.5-7.04v.85zM151.11 107.8l3.23 1.82v-.85l-3.23-1.82v.85zM140.52 97.91l10.88 6.23v-.86l-10.88-6.23v.86zM162.45 112.25l5.08 2.89v-.85l-5.08-2.89v.85zM156.98 109.14l4.14 2.36v-.85l-4.14-2.36v.85zM149.59 104.93l6.24 3.55v-.85l-6.24-3.55v.85zM142.75 101.03l5.98 3.41v-.85l-5.98-3.41v.85zM135.82 97.09l5.81 3.31v-.85l-5.81-3.31v.85zM129.91 93.73l4.84 2.75v-.85l-4.84-2.75v.85zM144.49 117.56l8.76 5.01v-.85l-8.76-5.01v.85zM132.05 110.45l11.08 6.33v-.85l-11.08-6.33v.85zM127.19 107.67l3.67 2.09v-.85l-3.67-2.1v.86zM154.28 123.16l9.25 5.21v-.85l-9.25-5.21v.85zM138.4 115.99l8.27 4.73v-.85l-8.27-4.73v.85zM147.34 121.1l3.05 1.74V122l-3.05-1.75v.85zM133.62 113.26l3.5 2v-.85l-3.5-2v.85zM128.96 110.59l3.97 2.27v-.85l-3.97-2.27v.85zM151.11 123.28l3.23 1.83v-.85l-3.23-1.83v.85zM133.3 109.26l3.95 2.25v-.85l-3.95-2.26v.86zM128.53 106.53l3.23 1.85v-.86l-3.23-1.84v.85zM155.03 121.67l12.5 7.05v-.86l-12.5-7.03v.84zM151.11 119.46l3.23 1.82v-.84l-3.23-1.83v.85zM146.61 111.06l16.86 9.6v-.85l-16.86-9.6v.85zM140.39 107.52l4.36 2.48v-.85l-4.36-2.48v.85zM131.35 102.37l7.91 4.51v-.81h.08l-7.99-4.55v.85zM140.52 109.57l10.88 6.23v-.85l-10.88-6.23v.85zM127.25 101.97l11.64 6.67v-.85l-11.64-6.67v.85zM155.35 118.03l12.18 6.86v-.85l-12.18-6.86v.85zM152.82 116.6l1.92 1.08v-.85l-1.92-1.08v.85zM162.45 123.91l5.08 2.9v-.85l-5.08-2.9v.85zM157.77 121.25l3.35 1.91v-.85l-3.35-1.91v.85zM147.68 115.51l9.26 5.27v-.85l-9.26-5.27v.85zM136.89 109.36l4.46 2.54v-.85l-4.46-2.54v.85zM129.91 105.39l3.8 2.16v-.85l-3.8-2.16v.85zM134.28 107.88l1.91 1.09v-.85l-1.91-1.09v.85zM142.39 112.49l4.55 2.6v-.85l-4.55-2.6v.85zM149.63 143.12l3.62 2.07v-.85l-3.62-2.07v.85zM144.49 140.18l4.46 2.55v-.85l-4.46-2.55v.85zM139.74 137.46l3.39 1.94v-.85l-3.39-1.94v.85zM132.05 133.06l6.65 3.8v-.85l-6.65-3.8v.85zM154.28 145.77l13.25 7.46v-.85l-13.25-7.46v.85zM133.81 135.98l3.31 1.89v-.85l-3.31-1.89v.85zM128.64 133.03l3.51 2v-.85l-3.51-2v.85zM155.03 148.11l12.5 7.04v-.85l-12.5-7.04v.85zM151.11 145.9l3.23 1.82v-.85l-3.23-1.82v.85zM127.21 128.39l10.04 5.74v-.85l-10.04-5.74v.85zM155.03 144.29l12.5 7.04v-.85l-12.5-7.04v.85zM151.11 142.08l3.23 1.82v-.85l-3.23-1.82v.85zM140.52 132.18l10.88 6.23v-.85l-10.88-6.23v.85zM162.45 146.53l5.08 2.89v-.85l-5.08-2.89v.85zM156.98 143.42l4.14 2.35v-.85l-4.14-2.35v.85zM149.59 139.21l6.24 3.55v-.85l-6.24-3.55v.85zM142.75 135.31l5.98 3.41v-.85l-5.98-3.41v.85zM135.82 131.37l5.81 3.31v-.85l-5.81-3.31v.85zM129.91 128.01l4.84 2.75v-.85l-4.84-2.75v.85zM146.61 145.34l16.86 9.6v-.85l-16.86-9.6v.85zM140.39 141.8l4.36 2.48v-.85l-4.36-2.48v.85zM131.35 136.65l7.91 4.51v-.81h.08l-7.99-4.55v.85zM140.52 143.85l10.88 6.23v-.85L140.52 143v.85zM127.25 136.25l11.64 6.67v-.86l-11.64-6.66v.85zM155.35 152.3l12.18 6.87v-.85l-12.18-6.87v.85zM152.82 150.88l1.92 1.08v-.85l-1.92-1.08v.85zM162.45 158.19l5.08 2.9v-.86l-5.08-2.89v.85zM157.77 155.53l3.35 1.91v-.85l-3.35-1.91v.85zM147.68 149.79l9.26 5.27v-.85l-9.26-5.27v.85zM136.89 143.64l4.46 2.54v-.85l-4.46-2.54v.85zM129.91 139.67l3.8 2.16v-.85l-3.8-2.16v.85zM134.28 142.16l1.91 1.08v-.85l-1.91-1.08v.85zM142.39 146.77l4.55 2.6v-.86l-4.55-2.59v.85zM144.49 129.45l8.76 5.01v-.85l-8.76-5.01v.85zM132.05 122.34l11.08 6.33v-.85l-11.08-6.34v.86zM127.19 119.55l3.67 2.1v-.85l-3.67-2.1v.85zM154.28 135.05l9.25 5.21v-.85l-9.25-5.22v.86zM138.4 127.88l8.27 4.73v-.85l-8.27-4.73v.85zM147.34 132.99l3.05 1.74v-.85l-3.05-1.74v.85zM133.62 125.15l3.5 2v-.85l-3.5-2v.85zM128.96 122.48l3.97 2.27v-.85l-3.97-2.27v.85zM151.11 135.17l3.23 1.82v-.85l-3.23-1.82v.85zM133.3 121.14l3.95 2.26v-.85l-3.95-2.26v.85zM128.53 118.42l3.23 1.84v-.85l-3.23-1.84v.85zM155.03 133.56l12.5 7.04v-.85l-12.5-7.04v.85zM151.11 131.35l3.23 1.82v-.85l-3.23-1.82v.85zM146.61 122.95l16.86 9.6v-.85l-16.86-9.6v.85zM140.52 121.45l10.88 6.24v-.85l-10.88-6.23v.84zM127.25 113.86l11.64 6.67v-.86l-11.64-6.66v.85zM155.35 129.91l12.18 6.87v-.85l-12.18-6.87v.85zM152.82 128.49l1.92 1.08v-.85l-1.92-1.08v.85zM162.45 135.8l5.08 2.89v-.85l-5.08-2.89v.85zM157.77 133.14l3.35 1.91v-.85l-3.35-1.91v.85zM147.68 127.4l9.26 5.27v-.85l-9.26-5.27v.85zM136.89 121.25l4.46 2.54v-.85l-4.46-2.54v.85zM129.91 117.28l3.8 2.16v-.85l-3.8-2.16v.85zM134.28 119.77l1.91 1.09V120l-1.91-1.08v.85zM142.39 124.38l4.55 2.59v-.85l-4.55-2.59v.85z" class="color383838 svgShape"></path><path fill="#6929c2" d="M215.34 113.24V123l-97.7-51.61v-9c0-1.79 2.31-2.78 4.2-1.8l89.76 47.16a6.49 6.49 0 0 1 3.74 5.49Z" class="color969a9f svgShape"></path><path fill="#383838" d="m215.52 123.29-98.08-51.81v-9.15a2.3 2.3 0 0 1 1.18-1.94 3.39 3.39 0 0 1 3.3 0l89.77 47.16a6.68 6.68 0 0 1 3.84 5.72Zm-97.69-52.05 97.31 51.41v-9.41a6.28 6.28 0 0 0-3.63-5.38L121.75 60.7a3.07 3.07 0 0 0-2.93 0 1.91 1.91 0 0 0-1 1.61Z" class="color383838 svgShape"></path><path fill="#ffffff" d="M189.09 106.61a.75.75 0 0 1-.36-.11l-8.82-4.81a1.13 1.13 0 0 1-.58-.88.44.44 0 0 1 .46-.46.76.76 0 0 1 .36.1l8.82 4.81a1.13 1.13 0 0 1 .58.88.45.45 0 0 1-.46.47Z" class="colorffffff svgShape"></path><path fill="#383838" d="M179.79 100.59a.49.49 0 0 1 .24.07l8.82 4.81a.88.88 0 0 1 .46.67.2.2 0 0 1-.22.22.49.49 0 0 1-.24-.07l-8.85-4.81a.88.88 0 0 1-.46-.67.2.2 0 0 1 .22-.22Zm0-.48a.67.67 0 0 0-.7.7 1.36 1.36 0 0 0 .71 1.09l8.82 4.81a.94.94 0 0 0 .47.14.68.68 0 0 0 .7-.71 1.37 1.37 0 0 0-.71-1.09l-8.82-4.81a1 1 0 0 0-.47-.13Z" class="color383838 svgShape"></path><path fill="#ffffff" d="M209.94 118a.73.73 0 0 1-.36-.1 1.18 1.18 0 0 1-.44-.42l-2.34-3.77-2.28 1.16a.4.4 0 0 1-.22 0 .76.76 0 0 1-.36-.1 1.22 1.22 0 0 1-.37-.32.83.83 0 0 1-.2-.67.46.46 0 0 1 .22-.3l2.35-1.2-2.42-3.91a.69.69 0 0 1-.1-.65.43.43 0 0 1 .32-.25h.1a1 1 0 0 1 .8.53l2.34 3.76 2.27-1.16a.59.59 0 0 1 .22 0 1 1 0 0 1 .74.42.84.84 0 0 1 .2.67.43.43 0 0 1-.22.3l-2.35 1.2 2.42 3.91a.69.69 0 0 1 .1.65.44.44 0 0 1-.32.26Z" class="colorffffff svgShape"></path><path fill="#383838" d="M203.84 107.74a.83.83 0 0 1 .6.41l2.45 4 2.47-1.26a.23.23 0 0 1 .11 0 .8.8 0 0 1 .55.33c.19.25.22.52.06.61l-2.59 1.32 2.57 4.13c.16.26.13.5-.07.54h-.05a.47.47 0 0 1-.24-.07.9.9 0 0 1-.36-.34l-2.45-4-2.47 1.26a.25.25 0 0 1-.12 0 .47.47 0 0 1-.24-.07.91.91 0 0 1-.3-.26c-.19-.25-.22-.52-.06-.6l2.59-1.32-2.57-4.13c-.16-.27-.13-.51.06-.55Zm0-.48h-.14a.67.67 0 0 0-.5.39 1 1 0 0 0 .11.88l2.29 3.69-2.12 1.08a.69.69 0 0 0-.35.46 1.07 1.07 0 0 0 .25.87 1.47 1.47 0 0 0 .45.38.94.94 0 0 0 .47.14.73.73 0 0 0 .33-.08l2.08-1.06 2.22 3.57a1.39 1.39 0 0 0 .54.51 1 1 0 0 0 .47.14h.14a.65.65 0 0 0 .5-.39 1 1 0 0 0-.11-.88l-2.29-3.68 2.11-1.08a.69.69 0 0 0 .36-.47 1.11 1.11 0 0 0-.25-.87 1.26 1.26 0 0 0-.93-.51.71.71 0 0 0-.32.07l-2.08 1.07-2.22-3.58a1.3 1.3 0 0 0-1-.64Z" class="color383838 svgShape"></path><path fill="#ffffff" d="M198.26 111.19a4.69 4.69 0 0 1-2.16-.63c-2.21-1.21-4-3.79-4-5.76a2 2 0 0 1 2.09-2.14 4.69 4.69 0 0 1 2.16.63c2.21 1.21 4 3.79 4 5.76a2 2 0 0 1-2.09 2.14Zm-3.57-7.09a1.08 1.08 0 0 0-1.17 1.21 5.37 5.37 0 0 0 2.82 4 3.1 3.1 0 0 0 1.44.43 1.09 1.09 0 0 0 1.17-1.21 5.36 5.36 0 0 0-2.83-4 3.09 3.09 0 0 0-1.43-.43Z" class="colorffffff svgShape"></path><path fill="#383838" d="M194.2 102.9a4.32 4.32 0 0 1 2 .6c2.14 1.17 3.88 3.66 3.87 5.55a1.73 1.73 0 0 1-1.85 1.9 4.36 4.36 0 0 1-2-.6c-2.14-1.17-3.88-3.66-3.87-5.55a1.73 1.73 0 0 1 1.85-1.9Zm3.58 7.09a1.33 1.33 0 0 0 1.41-1.45 5.64 5.64 0 0 0-2.95-4.22 3.33 3.33 0 0 0-1.55-.46 1.33 1.33 0 0 0-1.42 1.45 5.64 5.64 0 0 0 2.95 4.22 3.34 3.34 0 0 0 1.56.46Zm-3.58-7.57a2.21 2.21 0 0 0-2.33 2.38c0 2.08 1.8 4.7 4.12 6a4.89 4.89 0 0 0 2.27.66 2.22 2.22 0 0 0 2.34-2.38c0-2.08-1.81-4.7-4.13-6a4.89 4.89 0 0 0-2.27-.66Zm3.58 7.09a2.9 2.9 0 0 1-1.33-.4 5.18 5.18 0 0 1-2.69-3.8.85.85 0 0 1 .93-1 2.9 2.9 0 0 1 1.32.4 5.22 5.22 0 0 1 2.7 3.8.86.86 0 0 1-.93 1Z" class="color383838 svgShape"></path><path fill="#7028d5" d="M241.5 233a9.2 9.2 0 0 0 5.35-2.82c3.79-3.85-7.5-5.67-7.5-5.67l-2.54 4.88Z" class="colord58228 svgShape"></path><path fill="#383838" d="M247.09 229.22a2.22 2.22 0 0 0 .51-1.63 4.41 4.41 0 0 0 0-.52l-.2-25.36a7.78 7.78 0 0 0-3.93-6.7l-24.72-14a7.26 7.26 0 0 1-3.49-6 4.38 4.38 0 0 0-2.21-3.78l-11.48-6.52c-2.89-1.64-5.68.06-5.65 3.45l.26 32.37a7.27 7.27 0 0 0 3.48 6l37.72 21.43-.57 1.08 4.4 2.45s1.25 1.17 4.31-.75a8.85 8.85 0 0 0 1.57-1.52Z" class="color383838 svgShape"></path><path fill="#ffffff" d="m239.56 184.28-38.86-21.54a1.17 1.17 0 0 0-1.74 1V209a1.18 1.18 0 0 0 .6 1l38.86 21.53a1.17 1.17 0 0 0 1.74-1V185.3a1.17 1.17 0 0 0-.6-1.02Z" class="colorffffff svgShape"></path><path fill="#383838" d="M239 231.87a1.35 1.35 0 0 1-.67-.18l-38.85-21.53a1.36 1.36 0 0 1-.71-1.2v-45.19a1.37 1.37 0 0 1 2-1.2l38.85 21.54a1.36 1.36 0 0 1 .71 1.19v45.2a1.37 1.37 0 0 1-.68 1.18 1.33 1.33 0 0 1-.65.19Zm-38.86-69.09a1 1 0 0 0-.49.14 1 1 0 0 0-.49.85V209a1 1 0 0 0 .51.86l38.85 21.53a1 1 0 0 0 1.46-.85V185.3a1 1 0 0 0-.51-.85l-38.85-21.54a1 1 0 0 0-.49-.13Z" class="color383838 svgShape"></path><path fill="#c6c1cc" d="m212.01 212.83-8-4.54v1.89l8 4.54v-1.89z" class="colorc1c8cc svgShape"></path><path fill="#383838" d="m212.19 215-8.36-4.75V208l8.36 4.75Zm-8-5 7.63 4.34v-1.47l-7.63-4.34Z" class="color383838 svgShape"></path><path fill="#c6c1cc" d="m230.61 223.57-7.99-4.54v1.89l7.99 4.54v-1.89z" class="colorc1c8cc svgShape"></path><path fill="#383838" d="m230.79 225.77-8.36-4.77v-2.3l8.36 4.75Zm-8-5 7.63 4.34v-1.47l-7.63-4.34Z" class="color383838 svgShape"></path><path fill="#c6c1cc" d="m221.24 218.13-7.99-4.54v1.88l7.99 4.54v-1.88z" class="colorc1c8cc svgShape"></path><path fill="#383838" d="m221.42 220.33-8.36-4.75v-2.31l8.36 4.75Zm-8-5 7.63 4.33v-1.47l-7.63-4.33Z" class="color383838 svgShape"></path><path fill="#c6c1cc" d="m221.46 202.93 3.02 1.73v-.71l-3.02-1.73v.71z" class="colorc1c8cc svgShape"></path><path fill="#383838" d="m224.66 205-3.38-2v-1.13l3.38 1.94Zm-3-2.14 2.66 1.52v-.29l-2.66-1.53Z" class="color383838 svgShape"></path><path fill="#c6c1cc" d="m217.17 200.48 3.72 2.12v-.71l-3.72-2.12v.71z" class="colorc1c8cc svgShape"></path><path fill="#383838" d="m221.07 202.92-4.07-2.34v-1.12l4.08 2.33Zm-3.72-2.55 3.35 1.92V202l-3.35-1.92Z" class="color383838 svgShape"></path><path fill="#c6c1cc" d="m213.2 198.21 2.83 1.61v-.7l-2.83-1.62v.71z" class="colorc1c8cc svgShape"></path><path fill="#383838" d="m216.21 200.14-3.21-1.83v-1.12l3.19 1.82Zm-2.83-2 2.47 1.41v-.29l-2.47-1.41Z" class="color383838 svgShape"></path><path fill="#c6c1cc" d="m206.79 194.54 5.54 3.17V197l-5.54-3.17v.71z" class="colorc1c8cc svgShape"></path><path fill="#383838" d="m212.51 198-5.91-3.38v-1.12l5.91 3.38Zm-5.51-3.57 5.18 3v-.29l-5.18-3Z" class="color383838 svgShape"></path><path fill="#c6c1cc" d="m225.34 205.15 11.06 6.23v-.72l-11.06-6.22v.71z" class="colorc1c8cc svgShape"></path><path fill="#383838" d="m236.58 211.69-11.42-6.44v-1.12l11.42 6.43ZM225.52 205l10.69 6v-.29l-10.69-6Z" class="color383838 svgShape"></path><path fill="#c6c1cc" d="m208.25 196.98 2.76 1.57v-.71l-2.76-1.57v.71z" class="colorc1c8cc svgShape"></path><path fill="#383838" d="m211.2 198.87-3.13-1.79V196l3.13 1.78Zm-2.76-2 2.39 1.37V198l-2.39-1.37Z" class="color383838 svgShape"></path><path fill="#c6c1cc" d="m203.94 194.51 2.92 1.67v-.71l-2.92-1.67v.71z" class="colorc1c8cc svgShape"></path><path fill="#383838" d="m207.05 196.49-3.29-1.88v-1.12l3.29 1.88Zm-2.93-2.09 2.56 1.47v-.29l-2.56-1.47Z" class="color383838 svgShape"></path><path fill="#c6c1cc" d="m225.96 207.1 10.44 5.87v-.7l-10.44-5.88v.71z" class="colorc1c8cc svgShape"></path><path fill="#383838" d="m236.58 213.29-10.8-6.09v-1.12l10.8 6.08ZM226.14 207l10.07 5.68v-.3l-10.07-5.67Z" class="color383838 svgShape"></path><path fill="#c6c1cc" d="m222.7 205.25 2.69 1.52v-.71l-2.69-1.52v.71z" class="colorc1c8cc svgShape"></path><path fill="#383838" d="m225.57 207.08-3.06-1.72v-1.13l3.06 1.73Zm-2.69-1.93 2.33 1.31v-.29l-2.33-1.32Z" class="color383838 svgShape"></path><path fill="#c6c1cc" d="m202.75 190.64 8.37 4.79v-.71l-8.37-4.79v.71z" class="colorc1c8cc svgShape"></path><path fill="#383838" d="m211.3 195.74-8.74-5v-1.12l8.74 5Zm-8.37-5.21 8 4.58v-.29l-8-4.58Z" class="color383838 svgShape"></path><path fill="#c6c1cc" d="m225.96 203.91 10.44 5.88v-.72l-10.44-5.87v.71z" class="colorc1c8cc svgShape"></path><path fill="#383838" d="m236.58 210.1-10.8-6.1v-1.13l10.8 6.08Zm-10.44-6.3 10.07 5.68v-.3l-10.07-5.67Z" class="color383838 svgShape"></path><path fill="#c6c1cc" d="m222.7 202.06 2.69 1.52v-.7l-2.69-1.53v.71z" class="colorc1c8cc svgShape"></path><path fill="#383838" d="m225.57 203.89-3.06-1.72V201l3.06 1.73Zm-2.69-1.89 2.33 1.31V203l-2.33-1.32Z" class="color383838 svgShape"></path><path fill="#c6c1cc" d="m213.85 193.8 9.09 5.2v-.71l-9.09-5.2v.71z" class="colorc1c8cc svgShape"></path><path fill="#383838" d="m223.12 199.32-9.45-5.41v-1.13l9.45 5.41ZM214 193.7l8.73 5v-.29l-8.73-5Z" class="color383838 svgShape"></path><path fill="#c6c1cc" d="m232.16 205.78 4.24 2.41v-.71l-4.24-2.41v.71z" class="colorc1c8cc svgShape"></path><path fill="#383838" d="m236.58 208.5-4.58-2.62v-1.12l4.61 2.62Zm-4.24-2.83 3.87 2.21v-.29l-3.87-2.21Z" class="color383838 svgShape"></path><path fill="#c6c1cc" d="m227.59 203.18 3.46 1.97v-.71l-3.46-1.97v.71z" class="colorc1c8cc svgShape"></path><path fill="#383838" d="m231.23 205.46-3.82-2.17v-1.13l3.82 2.17Zm-3.45-2.38 3.09 1.76v-.3l-3.09-1.76Z" class="color383838 svgShape"></path><path fill="#c6c1cc" d="m221.42 199.67 5.21 2.96v-.71l-5.21-2.96v.71z" class="colorc1c8cc svgShape"></path><path fill="#383838" d="m226.81 202.94-5.57-3.17v-1.12l5.57 3.17Zm-5.21-3.38 4.85 2.76V202l-4.85-2.76Z" class="color383838 svgShape"></path><path fill="#c6c1cc" d="m215.71 196.42 5 2.84v-.71l-5-2.84v.71z" class="colorc1c8cc svgShape"></path><path fill="#383838" d="m220.89 199.57-5.36-3v-1.13l5.36 3.06Zm-5-3.26 4.64 2.64v-.29l-4.64-2.66Z" class="color383838 svgShape"></path><path fill="#c6c1cc" d="m209.93 193.13 4.85 2.76v-.71l-4.85-2.77v.72z" class="colorc1c8cc svgShape"></path><path fill="#383838" d="m215 196.2-5.22-3v-1.1l5.22 3Zm-4.89-3.2 4.49 2.56v-.3l-4.49-2.55Z" class="color383838 svgShape"></path><path fill="#c6c1cc" d="m205 190.32 4.04 2.3v-.71l-4.04-2.3v.71z" class="colorc1c8cc svgShape"></path><path fill="#383838" d="m209.22 192.93-4.4-2.51v-1.12l4.4 2.5Zm-4-2.72 3.68 2.1V192l-3.68-2.09Z" class="color383838 svgShape"></path><path fill="#c6c1cc" d="m217.17 210.21 7.31 4.19v-.71l-7.31-4.19v.71z" class="colorc1c8cc svgShape"></path><path fill="#383838" d="m224.66 214.71-7.66-4.39v-1.13l7.67 4.39Zm-7.31-4.6 7 4v-.29l-7-4Z" class="color383838 svgShape"></path><path fill="#c6c1cc" d="m206.79 204.27 9.24 5.29v-.71l-9.24-5.29v.71z" class="colorc1c8cc svgShape"></path><path fill="#383838" d="m216.21 209.87-9.61-5.49v-1.13l9.61 5.5Zm-9.24-5.7 8.88 5.08V209l-8.85-5.12Z" class="color383838 svgShape"></path><path fill="#c6c1cc" d="m202.72 201.95 3.07 1.75v-.71l-3.07-1.75v.71z" class="colorc1c8cc svgShape"></path><path fill="#383838" d="m206 204-3.43-2v-1.13l3.43 2Zm-3.06-2.17 2.7 1.54v-.29l-2.7-1.55Z" class="color383838 svgShape"></path><path fill="#c6c1cc" d="m225.34 214.88 7.72 4.35v-.71l-7.72-4.35v.71z" class="colorc1c8cc svgShape"></path><path fill="#383838" d="m233.24 219.54-8.08-4.54v-1.13l8.08 4.56Zm-7.72-4.76 7.36 4.14v-.29l-7.36-4.15Z" class="color383838 svgShape"></path><path fill="#c6c1cc" d="m212.09 208.9 6.9 3.95v-.71l-6.9-3.95v.71z" class="colorc1c8cc svgShape"></path><path fill="#383838" d="M219.17 213.16 211.9 209v-1.13l7.27 4.15Zm-6.9-4.36 6.54 3.74v-.3l-6.54-3.74Z" class="color383838 svgShape"></path><path fill="#c6c1cc" d="m219.54 213.16 2.55 1.46v-.71l-2.55-1.45v.7z" class="colorc1c8cc svgShape"></path><path fill="#383838" d="m222.27 214.93-2.91-1.66v-1.13l2.91 1.67Zm-2.55-1.87 2.19 1.25V214l-2.19-1.25Z" class="color383838 svgShape"></path><path fill="#c6c1cc" d="m208.09 206.62 2.92 1.67v-.71l-2.92-1.67v.71z" class="colorc1c8cc svgShape"></path><path fill="#383838" d="m211.2 208.6-3.29-1.88v-1.12l3.29 1.87Zm-2.92-2.09 2.55 1.47v-.3l-2.55-1.46Z" class="color383838 svgShape"></path><path fill="#c6c1cc" d="m204.21 204.4 3.3 1.89v-.71l-3.3-1.89v.71z" class="colorc1c8cc svgShape"></path><path fill="#383838" d="m207.7 206.6-3.7-2.1v-1.13l3.68 2.1Zm-3.31-2.31 2.94 1.69v-.3l-2.94-1.68Z" class="color383838 svgShape"></path><path fill="#c6c1cc" d="m222.7 214.99 2.69 1.52v-.71l-2.69-1.52v.71z" class="colorc1c8cc svgShape"></path><path fill="#383838" d="m225.57 216.82-3.06-1.73V214l3.06 1.72Zm-2.69-1.94 2.33 1.32v-.3l-2.33-1.31Z" class="color383838 svgShape"></path><path fill="#c6c1cc" d="m207.83 203.28 3.29 1.88v-.71l-3.29-1.88v.71z" class="colorc1c8cc svgShape"></path><path fill="#383838" d="m211.3 205.47-3.65-2.09v-1.12l3.65 2.09Zm-3.29-2.3 2.93 1.68v-.29l-2.94-1.68Z" class="color383838 svgShape"></path><path fill="#c6c1cc" d="m203.85 201 2.69 1.54v-.71l-2.69-1.54v.71z" class="colorc1c8cc svgShape"></path><path fill="#383838" d="m206.72 202.86-3.05-1.75V200l3.05 1.75Zm-2.69-2 2.33 1.33v-.29l-2.36-1.29Z" class="color383838 svgShape"></path><path fill="#c6c1cc" d="m225.96 213.65 10.44 5.87v-.71l-10.44-5.87v.71z" class="colorc1c8cc svgShape"></path><path fill="#383838" d="m236.58 219.83-10.8-6.08v-1.13l10.8 6.08Zm-10.44-6.29 10.07 5.67v-.29l-10.07-5.67Z" class="color383838 svgShape"></path><path fill="#c6c1cc" d="m222.7 211.8 2.69 1.52v-.71l-2.69-1.52v.71z" class="colorc1c8cc svgShape"></path><path fill="#383838" d="m225.57 213.63-3.06-1.73v-1.12l3.06 1.72Zm-2.69-1.94 2.33 1.32v-.3l-2.33-1.31Z" class="color383838 svgShape"></path><path fill="#c6c1cc" d="m218.94 204.78 14.07 8.02v-.71l-14.07-8.02v.71z" class="colorc1c8cc svgShape"></path><path fill="#383838" d="m233.19 213.11-14.44-8.22v-1.13l14.44 8.24Zm-14.07-8.43 13.71 7.81v-.3l-13.71-7.8Z" class="color383838 svgShape"></path><path fill="#c6c1cc" d="m213.75 201.83 3.63 2.07v-.71l-3.63-2.07v.71z" class="colorc1c8cc svgShape"></path><path fill="#383838" d="m217.57 204.21-4-2.28v-1.12l4 2.28Zm-3.64-2.49 3.27 1.87v-.29l-3.27-1.87Z" class="color383838 svgShape"></path><path fill="#c6c1cc" d="m206.2 197.53 6.6 3.76v-.67h.07l-6.67-3.8v.71z" class="colorc1c8cc svgShape"></path><path fill="#383838" d="m213 201.61-7-4v-1.13l7.53 4.29H213Zm-6.6-4.18 6.24 3.55v-.29l-6.24-3.56Z" class="color383838 svgShape"></path><path fill="#c6c1cc" d="m213.85 203.54 9.09 5.2v-.71l-9.09-5.2v.71z" class="colorc1c8cc svgShape"></path><path fill="#383838" d="m223.12 209.05-9.45-5.41v-1.12l9.45 5.41Zm-9.12-5.62 8.73 5v-.29l-8.73-5Z" class="color383838 svgShape"></path><path fill="#c6c1cc" d="m202.78 197.2 9.72 5.56v-.71l-9.72-5.56v.71z" class="colorc1c8cc svgShape"></path><path fill="#383838" d="m212.68 203.08-10.08-5.77v-1.13l10.08 5.82Zm-9.72-6 9.35 5.35v-.29L203 196.8Z" class="color383838 svgShape"></path><path fill="#c6c1cc" d="m226.23 210.6 10.17 5.73v-.71l-10.17-5.73v.71z" class="colorc1c8cc svgShape"></path><path fill="#383838" d="m236.58 216.64-10.53-5.93v-1.13l10.53 5.93Zm-10.17-6.15 9.8 5.53v-.3l-9.8-5.52Z" class="color383838 svgShape"></path><path fill="#c6c1cc" d="m224.12 209.41 1.61.9v-.71l-1.61-.9v.71z" class="colorc1c8cc svgShape"></path><path fill="#383838" d="m225.91 210.62-2-1.11v-1.12l2 1.11Zm-1.61-1.32 1.24.7v-.29l-1.24-.7Z" class="color383838 svgShape"></path><path fill="#c6c1cc" d="m232.16 215.51 4.24 2.42v-.71l-4.24-2.42v.71z" class="colorc1c8cc svgShape"></path><path fill="#383838" d="m236.58 218.24-4.58-2.62v-1.13l4.61 2.62Zm-4.24-2.83 3.87 2.21v-.3l-3.87-2.2Z" class="color383838 svgShape"></path><path fill="#c6c1cc" d="m228.25 213.29 2.8 1.59v-.71l-2.8-1.59v.71z" class="colorc1c8cc svgShape"></path><path fill="#383838" d="m231.23 215.2-3.16-1.81v-1.12l3.16 1.8Zm-2.8-2 2.44 1.39v-.29l-2.44-1.39Z" class="color383838 svgShape"></path><path fill="#c6c1cc" d="m219.83 208.5 7.73 4.4v-.71l-7.73-4.4v.71z" class="colorc1c8cc svgShape"></path><path fill="#383838" d="m227.74 213.21-8.09-4.61v-1.12l8.09 4.6Zm-7.74-4.82 7.37 4.2v-.3L220 208.1Z" class="color383838 svgShape"></path><path fill="#c6c1cc" d="m210.82 203.37 3.72 2.12v-.71l-3.72-2.12v.71z" class="colorc1c8cc svgShape"></path><path fill="#383838" d="m214.73 205.8-4.09-2.33v-1.12l4.09 2.32Zm-3.73-2.54 3.36 1.91v-.29L211 203Z" class="color383838 svgShape"></path><path fill="#c6c1cc" d="m205 200.05 3.17 1.8v-.7l-3.17-1.81v.71z" class="colorc1c8cc svgShape"></path><path fill="#383838" d="m208.35 202.17-3.53-2V199l3.53 2Zm-3.17-2.17 2.81 1.59v-.29l-2.81-1.6Z" class="color383838 svgShape"></path><path fill="#c6c1cc" d="m208.65 202.13 1.59.91v-.71l-1.59-.91v.71z" class="colorc1c8cc svgShape"></path><path fill="#383838" d="m210.42 203.35-1.95-1.12v-1.12l1.95 1.11Zm-1.59-1.35 1.23.71v-.3l-1.23-.7Z" class="color383838 svgShape"></path><path fill="#c6c1cc" d="m215.41 205.98 3.81 2.17v-.71l-3.81-2.17v.71z" class="colorc1c8cc svgShape"></path><path fill="#383838" d="m219.4 208.46-4.17-2.37V205l4.17 2.37Zm-3.81-2.58 3.45 2v-.3l-3.45-2ZM201.33 185.37l-.39-.39h.44v.18l.12-.13-.12.13.06.17-.11.04z" class="color383838 svgShape"></path><path fill="#6929c2" d="M244.29 229a4.77 4.77 0 0 1-.5 2.26 3.32 3.32 0 0 1-1.15 1.3 3.76 3.76 0 0 1-4-.11l-8.28-4.7-34.13-19.39a7.29 7.29 0 0 1-3.37-5.94L192.6 170a6.94 6.94 0 0 1 .07-.95 3.41 3.41 0 0 1 4.18-3.05 4.78 4.78 0 0 1 1.41.55l11.48 6.52a3.74 3.74 0 0 1 .58.4c.12.09.22.19.33.29a4.93 4.93 0 0 1 .69.89 4.43 4.43 0 0 1 .6 2.18 7.26 7.26 0 0 0 3.49 6l12.77 7.26 8.28 4.7 3.66 2.08a7.75 7.75 0 0 1 3.94 6.69Z" class="color969a9f svgShape"></path><path fill="#383838" d="M240.85 233.26a4.73 4.73 0 0 1-2.31-.66l-42.41-24.09a7.54 7.54 0 0 1-3.46-6.11l-.26-32.4a6.11 6.11 0 0 1 .07-1 3.61 3.61 0 0 1 4.41-3.21 5.15 5.15 0 0 1 1.46.57l11.48 6.52a6.38 6.38 0 0 1 1 .73 4.63 4.63 0 0 1 .72.93 4.47 4.47 0 0 1 .63 2.28 7 7 0 0 0 3.39 5.84l24.72 14a8 8 0 0 1 4 6.86l.2 25.37a5 5 0 0 1-.52 2.35 3.45 3.45 0 0 1-1.22 1.37 3.4 3.4 0 0 1-1.9.65Zm-44.78-67.12a3.16 3.16 0 0 0-1.11.19 3.38 3.38 0 0 0-2.1 2.78 6.67 6.67 0 0 0-.06.92l.26 32.36a7.09 7.09 0 0 0 3.26 5.78l42.41 24.09a3.58 3.58 0 0 0 3.8.12 3.11 3.11 0 0 0 1.09-1.23 4.69 4.69 0 0 0 .48-2.17l-.2-25.37a7.6 7.6 0 0 0-3.84-6.52l-24.72-14a7.45 7.45 0 0 1-3.58-6.18 4.23 4.23 0 0 0-.58-2.08 4.6 4.6 0 0 0-.66-.85 2.8 2.8 0 0 0-.31-.28 3.05 3.05 0 0 0-.57-.39l-11.48-6.52a4.41 4.41 0 0 0-1.35-.53 3.16 3.16 0 0 0-.74-.12Z" class="color383838 svgShape"></path><path fill="#ffffff" d="M220.08 199.62v-4.09a6.23 6.23 0 0 0-3.11-4.87 2.76 2.76 0 0 0-2.55-.29 2 2 0 0 0-1 1.91V196l-2.31-1.25-.24 11.25c-.05 2.42 2.39 5.72 5.44 7.37s5.58 1 5.62-1.38l.23-11.22Zm-2.68 8.08a.17.17 0 0 1-.25.16l-1.74-1a.17.17 0 0 1-.08-.17l.43-2.53a.2.2 0 0 0 0-.13 1.91 1.91 0 0 1-.42-1.09c0-.61.48-.81 1.08-.47a2.27 2.27 0 0 1 1.09 1.71.61.61 0 0 1-.32.59.18.18 0 0 0-.13.18Zm1.38-8.79-4.08-2.2v-4.18a1 1 0 0 1 .45-1 1.59 1.59 0 0 1 1.37.21 4.62 4.62 0 0 1 2.26 3.5Z" class="colorffffff svgShape"></path><path fill="#383838" d="M219.46 214.46a7 7 0 0 1-3.24-1c-3.11-1.68-5.59-5.07-5.55-7.55l.24-11.53 2.31 1.25v-3.4a2.16 2.16 0 0 1 1.11-2.08 3 3 0 0 1 2.73.29 6.45 6.45 0 0 1 3.22 5v4l2.08 1.13v.12l-.23 11.31a2.37 2.37 0 0 1-1.13 2.13 3 3 0 0 1-1.54.33Zm-8.17-19.39-.23 10.9c0 2.35 2.35 5.58 5.34 7.2 1.76 1 3.4 1.17 4.4.58a2 2 0 0 0 .94-1.79l.22-11.1-2.07-1.13v-4.2a6 6 0 0 0-3-4.7 2.54 2.54 0 0 0-2.37-.28 1.8 1.8 0 0 0-.9 1.73v4.05Zm6 13a.41.41 0 0 1-.19-.05l-1.74-1a.36.36 0 0 1-.17-.36l.42-2.55a2 2 0 0 1-.46-1.18.8.8 0 0 1 .37-.74 1 1 0 0 1 1 .11 2.43 2.43 0 0 1 1.18 1.87.78.78 0 0 1-.43.77l.37 2.75a.38.38 0 0 1-.17.35.33.33 0 0 1-.23.04Zm-1.4-5.61a.34.34 0 0 0-.18 0 .44.44 0 0 0-.17.4 1.66 1.66 0 0 0 .39 1 .4.4 0 0 1 .07.24l-.43 2.57 1.68 1-.37-2.72a.37.37 0 0 1 .25-.39c.12-.05.19-.19.19-.4a2.07 2.07 0 0 0-1-1.54.93.93 0 0 0-.48-.15Zm3.14-3.23-4.48-2.42v-4.29a1.19 1.19 0 0 1 .56-1.13 1.73 1.73 0 0 1 1.56.21 4.84 4.84 0 0 1 2.36 3.67Zm-4.09-2.65 3.7 2v-3.3a4.49 4.49 0 0 0-2.16-3.33 1.38 1.38 0 0 0-1.19-.2.82.82 0 0 0-.35.78ZM171.41 178.93v27.35c0 2.56-3.27 4-6 2.56L155 203.36l-83.52-42.83c-3.3-1.73-5.35-4.77-5.33-7.92v-27.35c0-2.56 3.3-4 6-2.59l94 48.34a9.33 9.33 0 0 1 5.26 7.92Z" class="color383838 svgShape"></path><path fill="#383838" d="M171.41 178.93v13.47l-3.41 2.23-97.5-57.55-4.34-3.35v-8.47c0-2.56 3.3-4 6-2.59l94 48.34a9.33 9.33 0 0 1 5.25 7.92Z" class="color383838 svgShape"></path><path fill="#8b39fe" d="M168 180.76V208.1c0 2.55-3.28 4-6 2.57l-10.39-5.49-83.55-42.83a10.82 10.82 0 0 1-2-1.34 8.69 8.69 0 0 1-3.32-6.58v-27.36c0-2.55 3.3-4 6-2.57l93.95 48.34c3.31 1.73 5.31 4.75 5.31 7.92Z" class="colorfeda39 svgShape"></path><path fill="#383838" d="M164.25 211.54a5.06 5.06 0 0 1-2.39-.59l-10.39-5.48-83.56-42.83a11.47 11.47 0 0 1-2.06-1.39 9 9 0 0 1-3.44-6.82v-27.36a3.33 3.33 0 0 1 1.7-2.81 4.91 4.91 0 0 1 4.76 0l93.95 48.33a9.59 9.59 0 0 1 5.5 8.21v27.34a3.27 3.27 0 0 1-1.67 2.81 4.63 4.63 0 0 1-2.4.59Zm-97.77-87.26a4 4 0 0 0-2 .54 2.62 2.62 0 0 0-1.38 2.26v27.35a8.35 8.35 0 0 0 3.21 6.33 10.74 10.74 0 0 0 1.95 1.31l83.56 42.83 10.39 5.48a4.29 4.29 0 0 0 4.14 0 2.64 2.64 0 0 0 1.35-2.26v-27.34a9 9 0 0 0-5.16-7.64l-93.96-48.35a4.61 4.61 0 0 0-2.1-.51Z" class="color383838 svgShape"></path><path fill="#383838" d="M83.66 145.07c.43.49.53 1.21.21 1.52l-2.46 2.48v.07l3.74 1.21a1.49 1.49 0 0 1 .91 1.38v.27a.57.57 0 0 1-.94.51l-3.73-2.29v.07l2.26 4.54c.31.61.18 1.23-.27 1.31l-.32.06c-.43.08-1-.39-1.15-1l-1.38-4.74h-.06l-1.72 3.29c-.23.43-.79.35-1.2-.16l-.2-.23a1.22 1.22 0 0 1-.17-1.5l2.48-2.4v-.07L76 148.17a1.53 1.53 0 0 1-.9-1.39v-.26a.57.57 0 0 1 1-.51l3.6 2.26v-.07l-2.23-4.61c-.29-.6-.16-1.21.28-1.29l.28-.05c.43-.08 1 .38 1.15 1l1.38 4.75h.06l1.64-3.31c.21-.43.75-.38 1.17.1ZM100.8 154.16c.42.49.52 1.21.21 1.52l-2.47 2.48v.07l3.75 1.21a1.5 1.5 0 0 1 .9 1.38v.27a.57.57 0 0 1-.94.51l-3.73-2.29v.07l2.27 4.54c.3.61.17 1.23-.28 1.31l-.31.06c-.44.08-1-.39-1.16-1l-1.37-4.73h-.06l-1.73 3.29c-.22.43-.79.35-1.2-.16l-.19-.24a1.2 1.2 0 0 1-.18-1.49l2.48-2.4v-.07l-3.66-1.19a1.54 1.54 0 0 1-.9-1.39v-.26a.57.57 0 0 1 1-.51l3.6 2.26v-.07l-2.23-4.61c-.29-.6-.16-1.21.29-1.29h.28c.43-.08 1 .38 1.14 1l1.44 4.74h.06l1.63-3.32c.21-.42.75-.37 1.17.11ZM117.93 163.25a1.24 1.24 0 0 1 .21 1.52l-2.47 2.48v.07l3.75 1.2a1.53 1.53 0 0 1 .91 1.39v.27a.58.58 0 0 1-.95.51l-3.73-2.3v.08l2.27 4.54c.3.61.17 1.23-.28 1.31l-.31.06c-.44.08-1-.39-1.15-1l-1.38-4.73h-.06L113 171.9c-.22.42-.78.35-1.2-.16l-.19-.24a1.21 1.21 0 0 1-.17-1.49l2.47-2.4v-.07l-3.65-1.2a1.49 1.49 0 0 1-.9-1.38v-.27a.58.58 0 0 1 1-.5l3.59 2.26v-.07l-2.23-4.61c-.3-.6-.16-1.21.28-1.29h.28c.43-.08 1 .38 1.15 1l1.43 4.74h.06l1.63-3.32c.21-.42.76-.37 1.17.11ZM135.06 172.34a1.21 1.21 0 0 1 .21 1.52l-2.46 2.48v.07l3.74 1.2a1.52 1.52 0 0 1 .91 1.39v.27a.58.58 0 0 1-.95.51l-3.72-2.3v.08l2.21 4.54c.3.61.17 1.23-.27 1.31l-.32.06c-.43.08-1-.39-1.15-1l-1.38-4.73h-.06l-1.69 3.26c-.22.42-.78.35-1.19-.16l-.2-.24a1.21 1.21 0 0 1-.17-1.49l2.47-2.4v-.08l-3.66-1.19a1.51 1.51 0 0 1-.9-1.38v-.27a.57.57 0 0 1 1-.5l3.6 2.26v-.07l-2.23-4.61c-.29-.6-.16-1.21.28-1.29h.28c.43-.08 1 .38 1.15 1l1.43 4.74h.06l1.63-3.32c.21-.42.76-.38 1.18.11ZM152.19 181.42a1.23 1.23 0 0 1 .21 1.53l-2.46 2.48v.07l3.75 1.2a1.51 1.51 0 0 1 .9 1.39v.27a.57.57 0 0 1-.94.51l-3.73-2.3v.07l2.26 4.55c.31.6.18 1.23-.27 1.31l-.31.06c-.44.08-1-.39-1.16-1l-1.37-4.73H149l-1.72 3.29c-.23.42-.79.35-1.2-.16l-.19-.24a1.2 1.2 0 0 1-.18-1.49l2.48-2.41v-.07l-3.66-1.19a1.51 1.51 0 0 1-.9-1.38v-.27a.57.57 0 0 1 1-.5l3.6 2.25v-.06L146 180c-.29-.6-.16-1.21.28-1.29l.28-.06c.43-.08 1 .38 1.15 1l1.43 4.75h.07l1.63-3.32c.21-.43.75-.38 1.17.1Z" class="color383838 svgShape"></path></g></g></svg>