<svg xmlns="http://www.w3.org/2000/svg" xmlns:xlink="http://www.w3.org/1999/xlink" viewBox="0 0 400 250" id="CloudSecurity"><defs><linearGradient id="a" x1="134.8" x2="195.69" y1="211.91" y2="106.45" gradientUnits="userSpaceOnUse"><stop offset="0" stop-color="#cfccd3" class="stopColorcccfd3 svgShape"></stop><stop offset="1" stop-color="#b4b1b8" stop-opacity="0" class="stopColorb2b1b8 svgShape"></stop></linearGradient><linearGradient id="c" x1="165.15" x2="226.44" y1="198.45" y2="92.29" xlink:href="#a"></linearGradient><linearGradient id="b" x1="2193.92" x2="2193.93" y1="38.03" y2="38.02" gradientTransform="matrix(-1 0 0 1 2278.52 0)" gradientUnits="userSpaceOnUse"><stop offset="0" stop-color="#6929c2" class="stopColor2266ab svgShape"></stop><stop offset="1" stop-color="#421c76" class="stopColor1c4076 svgShape"></stop></linearGradient><linearGradient id="d" x1="2068.8" x2="2070.68" y1="77.43" y2="74.17" xlink:href="#b"></linearGradient><linearGradient id="e" x1="-3075.18" x2="-3076.3" y1="62.33" y2="63.14" gradientTransform="translate(3117.27)" xlink:href="#b"></linearGradient><linearGradient id="g" x1="-3031" x2="-2997.12" y1="52.85" y2="169.77" gradientTransform="translate(3117.27)" gradientUnits="userSpaceOnUse"><stop offset="0" stop-color="#5f00e4" class="stopColor00bae4 svgShape"></stop><stop offset="1" stop-color="#5818b2" class="stopColor1872b2 svgShape"></stop></linearGradient><clipPath id="f"><path fill="none" d="M227.62 221.83C185.77 197.67 82 137.77 81.52 137.44c-10.73-6.74-20.79-17.65-28.56-31-8.17-14.16-12.69-29.17-12.69-42.29v-.39a17.43 17.43 0 0 0-3 4.38c5.82-12.3 20.91-11.36 38.22 2.29 1.11-55 54.23-27.77 73.35 14.64 27-6.33 55 36.66 46.56 63.65 19.95 5.15 51.05 53.82 32.22 73.11Z"></path></clipPath></defs><g style="isolation:isolate" fill="#000000" class="color000000 svgShape"><g data-name="Layer 1" fill="#000000" class="color000000 svgShape"><path style="mix-blend-mode:multiply" fill="url(#a)" d="m46.87 175.83 98.29 54.29 133.63-79.22-99.94-56.79-131.98 81.72z"></path><path d="m42.53 119.91 183 106.39a3.21 3.21 0 0 0 3.2 0l141.64-86L183.6 32l-141 82.37a3.18 3.18 0 0 0-.07 5.54Z" style="mix-blend-mode:multiply" fill="url(#c)"></path><path fill="#9a969f" d="M42.31 56.71a18.22 18.22 0 0 1 5-1.59c6-1 13.11.48 20.76 4.91 1.19.68 2.34 1.42 3.5 2.2.92-10.63 4.92-18.45 11-22.9a24.17 24.17 0 0 0-2.91-.18A20 20 0 0 0 71 41Z" class="color969a9f svgShape"></path><path fill="#383838" d="m71.91 62.92-.55-.37a55.66 55.66 0 0 0-3.47-2.19c-7.32-4.23-14.41-5.91-20.5-4.86a18.24 18.24 0 0 0-4.92 1.55l-.35-.68L70.8 40.7a20.47 20.47 0 0 1 8.88-1.93 23.61 23.61 0 0 1 2.95.18l1 .12-.79.57C76.6 44.18 72.85 52 72 62.26ZM51 54.42c5.34 0 11.23 1.79 17.25 5.27.93.54 1.91 1.15 3 1.86 1-9.74 4.52-17.29 10.32-21.94-.62 0-1.26-.07-1.9-.07a19.56 19.56 0 0 0-8.53 1.85L46.42 54.9c.28-.06.56-.12.84-.16a22.1 22.1 0 0 1 3.74-.32Z" class="color383838 svgShape"></path><path fill="#9a969f" d="m229.42 130.51-28.67 15.66c1 .45 1.95 1 2.95 1.53 18.74 10.83 34 37 34 58.55 0 10.91-3.91 18.51-10.21 21.94l28.89-15.78h.08l.23-.13c6-3.56 9.69-11 9.69-21.64 0-21.51-15.2-47.72-33.94-58.54-1.06-.62-2.05-1.1-3.02-1.59Z" class="color969a9f svgShape"></path><path fill="#383838" d="m227.62 228.53-.37-.68c6.44-3.52 10-11.18 10-21.58 0-21.35-15.14-47.46-33.75-58.21-1-.56-1.95-1.07-2.92-1.52l-.69-.32 29.51-16.12.18.08c1.07.51 2 1 3 1.55 18.82 10.87 34.14 37.28 34.14 58.88 0 9.77-3.11 17.25-8.78 21.26h.06l-1.52.9-28.86 15.76Zm-26-82.38c.76.37 1.53.78 2.29 1.22 18.81 10.88 34.09 37.29 34.09 58.88 0 8.3-2.22 14.92-6.34 19.18l24.73-13.53c6.13-3.64 9.5-11.21 9.5-21.31 0-21.35-15.14-47.46-33.75-58.21-.85-.49-1.75-1-2.74-1.44Z" class="color383838 svgShape"></path><path fill="#9a969f" d="M113.11 22.45 85.22 37.68l.54-.28c4.92-2.44 10.86-3 17.45-1.57a47.51 47.51 0 0 1 13.45 5.43c14.07 8.12 26.64 22.74 35 39.09l28.61-15.65c-8.3-16.35-20.87-31-34.94-39.1-12.4-7.16-23.63-7.92-31.8-3.38l-.1.06c-.11.05-.21.12-.32.17Z" class="color969a9f svgShape"></path><path fill="#383838" d="m151.44 80.88-.18-.35c-8.61-17-21.29-31.14-34.79-38.94a47.44 47.44 0 0 0-13.34-5.38c-6.37-1.42-12.32-.88-17.2 1.54l-.53.25-.4-.66 27.9-15.23.2-.11.42-.26c8.62-4.65 20-3.41 31.94 3.52 13.63 7.87 26.42 22.18 35.1 39.25l.17.34-.33.18ZM96.35 34.66a32.11 32.11 0 0 1 7 .8 48 48 0 0 1 13.55 5.46c13.54 7.82 26.25 22 34.92 38.9l28-15.28c-8.61-16.8-21.21-30.86-34.62-38.6-11.86-6.85-23-8-31.42-3.38l-.23.13-.19.1-23 12.58a25.84 25.84 0 0 1 5.99-.71Z" class="color383838 svgShape"></path><path fill="url(#b)" d="m84.41 38.13.37-.22Z"></path><path fill="#9a969f" d="M151.61 80.35c5.23-1.48 11.72-.39 18.76 3.67a47 47 0 0 1 4.19 2.74c15.31 11.18 27.12 33.05 27.12 51.25a33.64 33.64 0 0 1-.93 8.16l28.67-15.66a34.14 34.14 0 0 0 .92-8.15c0-19.84-14-44-31.3-54-7-4.06-13.54-5.15-18.77-3.66Z" class="color969a9f svgShape"></path><path fill="#383838" d="m200.17 146.93.21-.85a33.68 33.68 0 0 0 .91-8.07c0-17.81-11.58-39.71-26.95-50.94-1.43-1-2.83-1.95-4.16-2.72-6.74-3.88-13.12-5.14-18.47-3.63l-3.29.93 31.67-17.29c5.62-1.61 12.21-.33 19.15 3.66 17.36 10 31.49 34.41 31.49 54.34a34.58 34.58 0 0 1-.94 8.24v.16Zm-43.83-67.6c4.39 0 9.22 1.47 14.22 4.36a50.21 50.21 0 0 1 4.23 2.75C190.34 97.81 202.07 120 202.07 138a34.85 34.85 0 0 1-.75 7.41l27.77-15.17a33.88 33.88 0 0 0 .87-7.89c0-19.69-14-43.77-31.11-53.67-6.75-3.89-13.13-5.14-18.47-3.62L154 79.47a19.66 19.66 0 0 1 2.34-.14Z" class="color383838 svgShape"></path><path fill="url(#d)" d="M207.36 74.45c1 .86 1.91 1.76 2.84 2.7-.92-.94-1.87-1.84-2.84-2.7Z"></path><path fill="#451c7d" d="M30.05 81.71c0 24.1 17 53.47 38 65.59.76.44 139.48 80.34 141.34 81 16 6.13 28.22-2.83 28.22-22.1 0-21.51-15.2-47.72-33.94-58.55-1-.57-2-1.07-2.95-1.53a33.64 33.64 0 0 0 .93-8.16c0-18.2-11.81-40.07-27.12-51.25a47 47 0 0 0-4.16-2.71c-7-4.06-13.53-5.15-18.76-3.67-8.31-16.34-20.88-31-35-39.09a47.81 47.81 0 0 0-13.45-5.43c-6.54-1.44-12.48-.81-17.4 1.59-7.87 3.88-13.11 12.45-14.18 24.83-1.16-.78-2.32-1.52-3.5-2.2-7.65-4.43-14.78-5.94-20.75-4.91-10.4 1.77-17.28 11.27-17.28 26.59Z" class="color1c437d svgShape"></path><path fill="#8b39fe" d="M227.62 221.83C185.77 197.67 82 137.77 81.52 137.44c-10.73-6.74-20.79-17.65-28.56-31-8.17-14.16-12.69-29.17-12.69-42.29v-.39a17.43 17.43 0 0 0-3 4.38c5.82-12.3 20.91-11.36 38.22 2.29 1.11-55 54.23-27.77 73.35 14.64 27-6.33 55 36.66 46.56 63.65 19.95 5.15 51.05 53.82 32.22 73.11Z" class="colorfeda39 svgShape"></path><path fill="#383838" d="m227.69 222.31-.26-.15c-42.78-24.7-145.6-84.06-146.12-84.39C70.56 131 60.37 120 52.62 106.61c-8.08-14-12.62-28.82-12.74-41.83a18.08 18.08 0 0 0-2.26 3.53l-.69-.31a14.39 14.39 0 0 1 10-8.41c7.54-1.76 17.55 1.81 28.24 10.09.64-22.07 9.56-28.53 17-30 17.82-3.64 44.39 17.37 57 45 10.21-2.24 21.58 2.42 31.26 12.83 13.56 14.61 20.06 36 15.57 51 13.16 3.73 30.63 25.59 36.15 45.35 2.38 8.53 3.6 20.37-4.14 28.29ZM40.67 63.86a.45.45 0 0 1 0 .11v.18c0 13 4.49 28 12.64 42.07 7.69 13.23 17.79 24.2 28.43 30.89.8.5 103 59.52 145.83 84.23 7.25-7.66 6-19.06 3.74-27.32-5.51-19.74-23-41.57-36-44.92l-.4-.1.12-.39c4.65-14.8-1.78-36.1-15.28-50.63-9.58-10.32-20.81-14.89-30.83-12.54l-.3.08-.13-.29c-12.18-27-39-48.41-56.24-44.86-10.36 2.12-16 12.51-16.38 30.07v.78l-.61-.48c-10.74-8.47-20.75-12.17-28.2-10.42a13 13 0 0 0-6.39 3.54Z" class="color383838 svgShape"></path><path fill="#e7dcf7" d="m40.73 57.57 1.58-.86a12.65 12.65 0 0 0-1.58.86Z" class="colordcf1f7 svgShape"></path><path fill="url(#e)" d="M41.84 62.37a13.61 13.61 0 0 0-1.55 1.4 10.76 10.76 0 0 1 1.55-1.4Z"></path><path fill="#9a969f" d="M228 222a12.05 12.05 0 0 0 .89-1 12.07 12.07 0 0 1-9.92 4.65 22.63 22.63 0 0 1-7.89-1.63 30.12 30.12 0 0 1-3-1.32c-.66-.33-138.7-80-139.22-80.34-8.89-5.6-17.24-14.63-23.67-25.69C38.37 105 34.62 92.57 34.62 81.7c0-8 2-14.15 5.67-17.93v.38c0 13.12 4.52 28.13 12.69 42.27 7.77 13.37 17.83 24.28 28.56 31C82 137.77 186.35 198 228 222Z" class="color969a9f svgShape"></path><path fill="#383838" d="M218.94 226.08a23.09 23.09 0 0 1-8-1.66 28.33 28.33 0 0 1-3-1.34c-.6-.3-137.25-79.15-139.25-80.35-8.94-5.64-17.39-14.81-23.8-25.83C38 105.12 34.24 92.61 34.24 81.7c0-8 2-14.31 5.77-18.2l.67-.69v1a1.34 1.34 0 0 1 0 .2v.18c0 13 4.49 28 12.64 42.07 7.69 13.23 17.79 24.2 28.43 30.89.71.44 81.62 47.16 130 75.07l16.23 9.37c.21-.23.43-.47.65-.75l.61.48a12.55 12.55 0 0 1-10.3 4.76ZM39.89 64.79C36.69 68.58 35 74.39 35 81.7c0 10.78 3.72 23.15 10.47 34.82 6.34 10.91 14.7 20 23.53 25.55 1.86 1.11 138.46 79.94 139.2 80.33a29.86 29.86 0 0 0 3 1.3c6.95 2.62 12.45 2 16.18-1.57l-16.06-9.28c-48.45-28-129.52-74.79-130-75.08C70.56 131 60.37 120 52.62 106.61c-8.08-14-12.62-28.82-12.73-41.82Z" class="color383838 svgShape"></path><path fill="#e7dcf7" d="M203.7 152.81c-1-.57-2-1.08-2.95-1.54a30.54 30.54 0 0 0 .77-4.73c.72.36 1.44.74 2.18 1.16 18.74 10.83 33.94 37 33.94 58.55 0 .86 0 1.69-.08 2.51-1.14-20.99-15.87-45.56-33.86-55.95ZM174.56 91.86a47 47 0 0 0-4.19-2.74c-7-4.06-13.53-5.15-18.76-3.66-8.31-16.35-20.88-31-35-39.1a47.47 47.47 0 0 0-13.45-5.42c-6.59-1.47-12.53-.87-17.45 1.57C77.89 46.38 72.65 55 71.58 67.34c-1.16-.78-2.32-1.53-3.5-2.21-7.65-4.42-14.78-5.94-20.75-4.91-9.82 1.68-16.49 10.25-17.21 24.1 0-.88-.07-1.75-.07-2.61 0-15.32 6.88-24.82 17.28-26.59 6-1 13.1.48 20.75 4.91 1.18.68 2.34 1.42 3.5 2.2 1.07-12.38 6.31-20.95 14.18-24.83 4.92-2.44 10.86-3 17.45-1.57a47.81 47.81 0 0 1 13.45 5.43c14.07 8.12 26.64 22.75 35 39.09 5.23-1.48 11.72-.39 18.76 3.67a47 47 0 0 1 4.19 2.74c15.31 11.18 27.12 33.05 27.12 51.25 0 .86 0 1.69-.09 2.51-1.09-17.65-12.49-38-27.08-48.66Z" class="colordcf1f7 svgShape"></path><path fill="#383838" d="M74.28 150.88c24.8 14.29 115.83 66.68 132.54 76.05 1.91.69 2.24 2.59 12 3.34 34.24-1.5 17.78-66.24-17.05-83.62-2.35-1.26.51-3.83-.1-6.44.27-7.69-.91-13.33-3.47-20.81-6.91-18.86-25.82-43.14-46.56-39.06-9.41-17.84-21.74-32.64-38.91-41.18-19-9.35-38.94-3-41.1 23.07-7.56-5.35-17.63-8.54-24.32-7.11-32.82 6.69-16.04 75.24 26.97 95.76ZM35.17 89.14C31.38 57 51.31 51.34 75.48 70.42c1.12-55 54.23-27.77 73.36 14.65 27-6.33 55 36.65 46.56 63.65 21.07 5.45 54.52 59.35 28.64 76-8.09 3.12-16.26-2.61-15.13-1.9C191 212.74 69.31 142.7 68.82 142.39c-16.07-9.83-31-33.12-33.65-53.25Z" class="color383838 svgShape"></path><g clip-path="url(#f)" fill="#000000" class="color000000 svgShape"><path fill="#383838" d="m199.67 117-14.87-8.62a.5.5 0 0 1-.25-.43V97.9h1v9.78l14.62 8.49Z" class="color383838 svgShape"></path><path fill="#383838" d="M186.92 97.36c0 1.5-.84 2.23-1.88 1.63a4.78 4.78 0 0 1-1.88-3.82c0-1.5.84-2.23 1.88-1.63a4.79 4.79 0 0 1 1.88 3.82ZM205.4 150.34c0 1.5-.84 2.23-1.88 1.63a4.78 4.78 0 0 1-1.88-3.82c0-1.5.84-2.23 1.88-1.63a4.78 4.78 0 0 1 1.88 3.82ZM221.91 190c0 1.5-.84 2.23-1.88 1.63a4.78 4.78 0 0 1-1.89-3.82c0-1.5.85-2.23 1.89-1.63a4.78 4.78 0 0 1 1.88 3.82ZM196.77 142.88c0 1.5-.84 2.23-1.88 1.63a4.8 4.8 0 0 1-1.89-3.82c0-1.5.85-2.23 1.89-1.63a4.78 4.78 0 0 1 1.88 3.82ZM181.06 115.26c0 1.51-.84 2.24-1.88 1.63a4.76 4.76 0 0 1-1.89-3.81c0-1.5.85-2.23 1.89-1.63a4.76 4.76 0 0 1 1.88 3.81ZM173.31 114.67c0 1.5-.84 2.23-1.88 1.62a4.76 4.76 0 0 1-1.88-3.81c0-1.5.84-2.23 1.88-1.63a4.78 4.78 0 0 1 1.88 3.82ZM166.13 115.94c0 1.5-.85 2.23-1.88 1.63a4.78 4.78 0 0 1-1.89-3.82c0-1.5.85-2.23 1.89-1.62a4.78 4.78 0 0 1 1.88 3.81ZM161.81 113.44c0 1.5-.84 2.23-1.88 1.62a4.76 4.76 0 0 1-1.88-3.81c0-1.5.84-2.23 1.88-1.63a4.78 4.78 0 0 1 1.88 3.82ZM190.81 197c0 1.5-.84 2.23-1.88 1.63a4.77 4.77 0 0 1-1.88-3.81c0-1.51.84-2.24 1.88-1.63a4.76 4.76 0 0 1 1.88 3.81ZM170.53 118.5c0 1.5-.84 2.23-1.88 1.62a4.76 4.76 0 0 1-1.88-3.81c0-1.5.84-2.23 1.88-1.63a4.78 4.78 0 0 1 1.88 3.82ZM173.5 126.76c0 1.5-.85 2.23-1.89 1.63a4.76 4.76 0 0 1-1.88-3.81c0-1.51.84-2.24 1.88-1.63a4.76 4.76 0 0 1 1.89 3.81ZM161.26 129.8c0 1.5-.84 2.23-1.88 1.62a4.76 4.76 0 0 1-1.88-3.81c0-1.5.84-2.23 1.88-1.63a4.76 4.76 0 0 1 1.88 3.82ZM159 136c0 1.5-.84 2.23-1.88 1.63a4.78 4.78 0 0 1-1.88-3.82c0-1.5.84-2.23 1.88-1.63A4.79 4.79 0 0 1 159 136ZM160.16 147.89c0 2.28-1.28 3.38-2.85 2.47s-2.86-3.51-2.86-5.79 1.28-3.38 2.86-2.47 2.85 3.51 2.85 5.79ZM130.31 148.14c0 2.28-1.28 3.39-2.86 2.47s-2.85-3.5-2.85-5.78 1.28-3.39 2.85-2.47 2.86 3.5 2.86 5.78ZM144 151.18c0 2.28-1.28 3.39-2.85 2.47s-2.86-3.5-2.86-5.78 1.28-3.38 2.86-2.47 2.85 3.5 2.85 5.78ZM202.92 162.12c0 2.28-1.28 3.39-2.86 2.47s-2.85-3.5-2.85-5.78 1.27-3.38 2.85-2.47 2.86 3.51 2.86 5.78ZM221.63 206.3c0 2.28-1.28 3.38-2.86 2.47s-2.85-3.51-2.85-5.79 1.28-3.38 2.85-2.47 2.86 3.49 2.86 5.79ZM194.26 174.59c0 2.28-1.28 3.39-2.85 2.47s-2.86-3.5-2.86-5.78 1.28-3.38 2.86-2.47 2.85 3.51 2.85 5.78ZM171.11 170.53c0 2.28-1.28 3.38-2.85 2.47s-2.86-3.5-2.86-5.78 1.28-3.39 2.86-2.47 2.85 3.5 2.85 5.78ZM178.27 174.68c0 2.28-1.28 3.39-2.86 2.47s-2.85-3.5-2.85-5.78 1.28-3.38 2.85-2.47 2.86 3.51 2.86 5.78ZM183.91 155.36c0 2.28-1.28 3.38-2.85 2.47s-2.86-3.51-2.86-5.79 1.28-3.38 2.86-2.47 2.85 3.51 2.85 5.79ZM193.73 162c0 2.28-1.28 3.38-2.86 2.47S188 161 188 158.69s1.28-3.38 2.85-2.46 2.88 3.5 2.88 5.77ZM136.37 178.52c0 2.28-1.28 3.38-2.86 2.47s-2.85-3.51-2.85-5.79 1.28-3.38 2.85-2.47 2.86 3.51 2.86 5.79ZM157.45 170.38c0 1.5-.84 2.23-1.88 1.63a4.78 4.78 0 0 1-1.89-3.82c0-1.5.85-2.23 1.89-1.62a4.76 4.76 0 0 1 1.88 3.81ZM161.26 122.86c0 1.51-.84 2.23-1.88 1.63a4.76 4.76 0 0 1-1.88-3.81c0-1.5.84-2.23 1.88-1.63a4.76 4.76 0 0 1 1.88 3.81ZM161.81 165.14c0 1.5-.84 2.23-1.88 1.62a4.76 4.76 0 0 1-1.88-3.81c0-1.5.84-2.23 1.88-1.63a4.78 4.78 0 0 1 1.88 3.82ZM206 195.57c0 1.5-.85 2.23-1.89 1.63a4.77 4.77 0 0 1-1.88-3.81c0-1.51.84-2.24 1.88-1.63a4.76 4.76 0 0 1 1.89 3.81ZM200.33 167.9c0 1.51-.84 2.23-1.88 1.63a4.76 4.76 0 0 1-1.88-3.81c0-1.5.84-2.23 1.88-1.63a4.76 4.76 0 0 1 1.88 3.81ZM209 180.9c0 1.5-.84 2.23-1.88 1.62a4.76 4.76 0 0 1-1.88-3.81c0-1.5.84-2.23 1.88-1.63a4.78 4.78 0 0 1 1.88 3.82ZM185.22 178.72c0 1.5-.84 2.23-1.88 1.63a4.76 4.76 0 0 1-1.88-3.81c0-1.51.84-2.24 1.88-1.63a4.76 4.76 0 0 1 1.88 3.81ZM179.85 101.59c0 1.51-.84 2.24-1.88 1.63a4.76 4.76 0 0 1-1.88-3.81c0-1.5.84-2.23 1.88-1.63a4.77 4.77 0 0 1 1.88 3.81ZM172.42 101.57c0 1.5-.85 2.23-1.89 1.62a4.76 4.76 0 0 1-1.88-3.81c0-1.5.84-2.23 1.88-1.63a4.78 4.78 0 0 1 1.89 3.82Z" class="color383838 svgShape"></path><path fill="#383838" d="m212.4 134.38-25.22-14.64a.43.43 0 0 1-.2-.22l-4.2-9.31-8.16-4.74-2.71 2.34v3h-1v-3.26a.48.48 0 0 1 .17-.37l3.14-2.71a.48.48 0 0 1 .56-.06l8.59 5a.47.47 0 0 1 .2.22l4.21 9.32 25.08 14.56ZM177.29 99.22l-4.76-9.65-17.75-10.3.49-.85 17.88 10.38a.52.52 0 0 1 .19.2l4.83 9.79Z" class="color383838 svgShape"></path><path fill="#383838" d="m169.2 98.92-5.92-12-9.54-5.53.49-.85 9.66 5.61a.55.55 0 0 1 .2.2l6 12.14ZM167.63 145.63h-1v-9.08a.49.49 0 0 1 .17-.36l3.48-3a.49.49 0 0 1 .56-.06l8.33 4.84-.49.84-8-4.66-3.05 2.64ZM195.41 140.62h-1v-7.23l-4-8a.47.47 0 0 1 .1-.57.5.5 0 0 1 .58-.07l18.76 10.89-.49.84-17.37-10.07 3.31 6.68a.54.54 0 0 1 0 .22ZM220.51 187.37h-1v-3.1a.46.46 0 0 1 .17-.36l3.64-3.16a.48.48 0 0 1 .57-.05l8.19 4.75-.5.84-7.88-4.57-3.22 2.78Z" class="color383838 svgShape"></path><path fill="#383838" d="m225 167.72-30.25-17.55-3.1 2.67a.48.48 0 0 1-.56.06l-15-8.69-4.71 4.08a.5.5 0 0 1-.57.06L128 123.45l.49-.84 42.6 24.72 4.72-4.08a.47.47 0 0 1 .56-.05l15 8.68 3.09-2.68a.5.5 0 0 1 .57 0l30.55 17.73Z" class="color383838 svgShape"></path><path fill="#383838" d="M190.3 151.58h-1v-16.52l-9.26-18.78.87-.43 9.32 18.88a.5.5 0 0 1 .05.21ZM160.42 110.3h-1v-4.82l-5.43-11 .88-.43 5.48 11.1a.59.59 0 0 1 0 .22ZM189.42 193.83h-1V189L183 178l.88-.43 5.48 11.1a.54.54 0 0 1 0 .22ZM182.9 147.78l-6.9-14.06a.5.5 0 0 1-.05-.21v-7l-3-6-23.71-13.76.48-.84 23.84 13.83a.51.51 0 0 1 .2.21l3.09 6.26a.54.54 0 0 1 0 .22v7l6.89 14Z" class="color383838 svgShape"></path><path fill="#383838" d="M164.6 132.22a.42.42 0 0 1-.24-.07l-4.76-2.75.5-.85 4.45 2.59 6.74-5.84.64.74-7 6.06a.47.47 0 0 1-.33.12ZM160.48 123.24l-.64-.74 3.92-3.39v-4h1v4.22a.46.46 0 0 1-.17.36Z" class="color383838 svgShape"></path><path fill="#383838" d="M150.29 109.57h.98v25.09h-.98z" transform="rotate(-26.27 150.761 122.12)" class="color383838 svgShape"></path><path fill="#383838" d="M152.55 159.71h.98v8.11h-.98z" transform="rotate(-26.27 153.06 163.778)" class="color383838 svgShape"></path><path fill="#383838" d="m155.37 145.67-20.55-11.93-6.88 5.95v5h-1v-5.26a.52.52 0 0 1 .17-.37l7.31-6.32a.48.48 0 0 1 .56-.06l20.86 12.11ZM134 175.1h-1v-5.26a.46.46 0 0 1 .17-.36l11.61-10.15.64.74-11.44 10Z" class="color383838 svgShape"></path><path fill="#383838" d="M133.08 158.12a.45.45 0 0 1-.25-.07l-11-6.4-4.55 3.94-.64-.74 4.82-4.17a.5.5 0 0 1 .56-.05l11 6.4 17.48-15.12.63.74L133.4 158a.49.49 0 0 1-.32.12Z" class="color383838 svgShape"></path><path fill="#383838" d="m226.9 176.61-42.58-24.71-5.73 5a.48.48 0 0 1-.57 0l-13.44-7.8-15.45 13.37a.47.47 0 0 1-.56.05l-9-5.23-5.66 4.9a.5.5 0 0 1-.57.06l-8.23-4.78v7h-1v-7.89a.47.47 0 0 1 .24-.42.48.48 0 0 1 .49 0l8.67 5 5.67-4.9a.47.47 0 0 1 .56-.05l9 5.23 15.45-13.37a.48.48 0 0 1 .56-.06l13.44 7.8 5.73-5a.5.5 0 0 1 .57-.05l42.88 24.89Z" class="color383838 svgShape"></path><path fill="#383838" d="M160.42 162h-1v-5.35a.52.52 0 0 1 .17-.37l5.45-4.71a.5.5 0 0 1 .56-.05l15.4 8.97 4.19-3.62a.48.48 0 0 1 .56-.06l4.62 2.68-.49.85-4.32-2.51-4.18 3.62a.5.5 0 0 1-.57.06l-15.38-8.93-5 4.33Z" class="color383838 svgShape"></path><path fill="#383838" d="M160.42 188.29h-1v-13.06a.52.52 0 0 1 .17-.37l4.44-3.83v-12.69a.48.48 0 0 1 .17-.37l2.53-2.19a.47.47 0 0 1 .56-.05l16.86 9.78 1.85-1.6a.48.48 0 0 1 .57 0l9.06 5.26 2-1.71.64.74-2.27 1.88a.48.48 0 0 1-.56.06l-9.06-5.27-1.86 1.61a.48.48 0 0 1-.56.05l-16.86-9.78-2.1 1.81v12.69a.48.48 0 0 1-.17.37l-4.43 3.83ZM229.1 181.54l-14.1-8.17-7.75 6.72-.64-.74 8-6.94a.47.47 0 0 1 .56 0l14.38 8.34Z" class="color383838 svgShape"></path><path fill="#383838" d="M227.57 200.89h.97v18.29h-.97z" transform="rotate(-59.87 228.061 210.03)" class="color383838 svgShape"></path><path fill="#383838" d="m238.44 208.77-41.4-24a.48.48 0 0 1-.19-.21l-4.59-9.3.87-.43 4.53 9.17 41.27 24ZM202.67 194.2l-8.56-5a.48.48 0 0 1-.19-.21l-7.32-14.79-14.93-8.66L170 167l-.63-.74 1.95-1.69a.48.48 0 0 1 .57 0l15.36 8.91a.48.48 0 0 1 .19.21l7.32 14.83 8.43 4.89Z" class="color383838 svgShape"></path><path fill="#383838" d="m181.73 177.26-4.33-2.51.49-.85 4.33 2.52-.49.84zM234.72 220.4l-35.17-20.35-6.84 6.07-.65-.73 7.11-6.3a.48.48 0 0 1 .56-.06l35.48 20.52ZM153 179.8h-1v-6.86l-8.57-5-5.28 4.58-.64-.74 5.55-4.8a.48.48 0 0 1 .56-.06l9.12 5.29a.51.51 0 0 1 .24.42ZM178.78 135.75c0 1.51-.84 2.23-1.88 1.63a4.76 4.76 0 0 1-1.88-3.81c0-1.5.84-2.23 1.88-1.63a4.76 4.76 0 0 1 1.88 3.81ZM182 142.22c0 1.5-.84 2.23-1.88 1.62a4.74 4.74 0 0 1-1.88-3.81c0-1.5.84-2.23 1.88-1.63a4.78 4.78 0 0 1 1.88 3.82ZM186.94 201.34l-9.65-16.75-11.07-6.77v9.25h-1V177a.5.5 0 0 1 .25-.43.52.52 0 0 1 .5 0l11.91 7.3a.46.46 0 0 1 .17.17l9.71 16.85Z" class="color383838 svgShape"></path></g><path fill="#746f7c" d="M171.86 123.1C161 148.63 133 162.71 101.73 161.35L99.39 160l-1-.58-15.18-8.75-1-.54-1.85-1.08c-21-12.11-38-41.48-38-65.6 0-11.53 3.88-19.77 10.26-23.86 6.58.54 14.46 4.19 22.87 10.83a62.71 62.71 0 0 1 1-10.66c1.27.59 2.55 1.25 3.86 2S82.7 63.2 83.87 64c1-11.91 5.94-20.32 13.31-24.36 17.29.69 40.39 20.43 51.67 45.45 9.43-2.2 19 1.6 27.09 8.66a57.57 57.57 0 0 1-4.08 29.35Z" opacity=".38" class="color6f737c svgShape"></path><path fill="url(#g)" d="M159.56 121.36c-10.85 25.53-38.87 39.6-70.12 38.24l-21.35-12.3c-21-12.11-38-41.48-38-65.6 0-15.32 6.86-24.8 17.27-26.58 6-1 13.09.47 20.76 4.9a69.9 69.9 0 0 1 3.49 2.21c1.07-12.38 6.32-21 14.18-24.82 4.92-2.44 10.87-3 17.46-1.58a47.83 47.83 0 0 1 13.44 5.42c14.07 8.14 26.64 22.76 35 39.1a19.69 19.69 0 0 1 9.61-.06c4.07 13.71 3.82 27.97-1.74 41.07Z"></path><path fill="#c6c1cc" d="M159.57 121.37c-10.85 25.52-38.87 39.63-70.13 38.22-3-1.73-5.8-3.33-8.28-4.78l-13.07-7.51c-21-12.12-38-41.49-38-65.6 0-15.32 6.86-24.81 17.26-26.58 6-1 13.1.47 20.77 4.9 1.17.7 2.34 1.42 3.49 2.2 1.07-12.37 6.32-21 14.19-24.82 4.91-2.44 10.87-3 17.46-1.56a47.86 47.86 0 0 1 13.43 5.4 77.1 77.1 0 0 1 16.66 13.31 106.92 106.92 0 0 1 18.29 25.8 19.69 19.69 0 0 1 9.61-.06c4.11 13.71 3.88 27.96-1.68 41.08Z" class="colorc1c8cc svgShape"></path><path fill="#383838" d="M93.57 160.07c-1.38 0-2.76 0-4.15-.09h-.18L86 158c-1.77-1-3.44-2-5-2.89l-8.66-5-4.41-2.53C46.85 135.41 29.7 105.83 29.7 81.63c0-15 6.57-25.07 17.59-26.95 6.27-1.09 13.54.62 21 4.94 1.18.71 2.12 1.3 3 1.86C72.43 49.71 77.51 41 85.6 37.05c5-2.49 11.16-3 17.71-1.59a48.2 48.2 0 0 1 13.54 5.45 76.8 76.8 0 0 1 16.75 13.38 107.17 107.17 0 0 1 18.21 25.61 20.05 20.05 0 0 1 9.5 0h.22l.06.22c4.32 14.28 3.74 28.57-1.67 41.34-10.08 23.76-35.85 38.61-66.35 38.61Zm-4-.86c32 1.36 59.27-13.54 69.66-38 5.32-12.54 5.91-26.57 1.71-40.6a19.15 19.15 0 0 0-9.21.1l-.31.08-.14-.28A106.43 106.43 0 0 0 133 54.82a75.82 75.82 0 0 0-16.58-13.24 47.23 47.23 0 0 0-13.31-5.37c-6.38-1.41-12.34-.88-17.21 1.53-8 3.93-13 12.63-14 24.51v.66l-.55-.37c-1-.67-2.06-1.35-3.47-2.19-7.32-4.23-14.4-5.91-20.5-4.85-10.6 1.81-16.94 11.6-16.94 26.19 0 24 17 53.23 37.84 65.28l4.42 2.53 8.65 5 5 2.88Z" class="color383838 svgShape"></path><path fill="#e0dbe7" d="M136.36 76.19c.24 35.93-22.75 66.68-55.2 78.62l-13.07-7.51c-21-12.12-38-41.49-38-65.6 0-15.32 6.86-24.81 17.26-26.58 6-1 13.1.47 20.77 4.9 1.17.7 2.34 1.42 3.49 2.2 1.07-12.37 6.32-21 14.19-24.82 4.91-2.44 10.87-3 17.46-1.56a47.86 47.86 0 0 1 13.43 5.4 77.1 77.1 0 0 1 16.66 13.31 80.56 80.56 0 0 1 3.01 21.64Z" class="colordbe1e7 svgShape"></path><path fill="#383838" d="m81.13 155.24-8.82-5.07-4.41-2.53c-21.08-12.17-38.23-41.75-38.23-65.95 0-15 6.57-25.07 17.59-26.95 6.27-1.09 13.54.62 21 4.94 1.18.71 2.12 1.3 3 1.86C72.43 49.71 77.51 41 85.6 37.05c5-2.49 11.16-3 17.71-1.59a48.2 48.2 0 0 1 13.54 5.45 76.8 76.8 0 0 1 16.75 13.38l.09.16a81.41 81.41 0 0 1 3.06 21.74c.23 35-22.06 66.69-55.46 79ZM51.05 55.19a20.94 20.94 0 0 0-3.66.31c-10.61 1.81-16.95 11.6-16.95 26.19 0 24 17 53.23 37.84 65.28l4.42 2.53 8.5 4.89c33-12.23 55-43.63 54.78-78.2a80.43 80.43 0 0 0-3-21.44 75.93 75.93 0 0 0-16.51-13.17 47.23 47.23 0 0 0-13.31-5.37c-6.38-1.41-12.34-.88-17.21 1.53-8 3.93-13 12.63-14 24.51v.66l-.55-.37c-1-.67-2.06-1.35-3.47-2.19-5.93-3.41-11.68-5.16-16.88-5.16Z" class="color383838 svgShape"></path><path fill="#383838" d="M92.69 103.73 49 167.11a5.36 5.36 0 0 0 1.68 7.8l88.32 55.3c4.35 2.48 14.3-.77 10.56-9.71l-43.18-115.34c-3.06-5.97-10.91-5.48-13.69-1.43Z" class="color383838 svgShape"></path><path fill="#8b39fe" d="M140.1 230.18a5.16 5.16 0 0 1-2.59-.71l-91.2-52.11a5.21 5.21 0 0 1-1.62-7.58L92 104.71a5.2 5.2 0 0 1 9.08 1.23L145 223.13a5.13 5.13 0 0 1-.57 4.76 5.27 5.27 0 0 1-4.3 2.29Z" class="colorfeda39 svgShape"></path><path fill="#383838" d="M96.2 102.71A5 5 0 0 1 101 106l43.87 117.19a5 5 0 0 1-.55 4.62 5.1 5.1 0 0 1-4.22 2.19 5 5 0 0 1-2.51-.69l-91.2-52.12a5 5 0 0 1-1.58-7.35l47.32-65.08a5 5 0 0 1 4.07-2.08Zm0-.3a5.28 5.28 0 0 0-4.31 2.21l-47.32 65.07a5.35 5.35 0 0 0 1.67 7.8l91.19 52.11a5.34 5.34 0 0 0 7.68-6.53l-43.87-117.18a5.32 5.32 0 0 0-5-3.48Z" class="color383838 svgShape"></path><path fill="#383838" d="M140.1 227a2 2 0 0 1-1-.29L47.89 174.6a2 2 0 0 1-1-1.34 2 2 0 0 1 .34-1.61l47.32-65.07a1.92 1.92 0 0 1 1.62-.84 2 2 0 0 1 1.92 1.32L142 224.24a1.94 1.94 0 0 1-.2 1.83 2.16 2.16 0 0 1-1.7.93ZM96.2 106.35a1.35 1.35 0 0 0-1.13.58L47.75 172a1.42 1.42 0 0 0-.24 1.13 1.38 1.38 0 0 0 .68.94l91.2 52.11a1.38 1.38 0 0 0 .71.21 1.52 1.52 0 0 0 1.19-.66 1.31 1.31 0 0 0 .13-1.28L97.55 107.27a1.38 1.38 0 0 0-1.35-.92Z" class="color383838 svgShape"></path><path fill="#383838" d="m92.27 122 8.83 5.25a2.51 2.51 0 0 1 1.2 2.55l-5.08 33.5a2.53 2.53 0 0 1-3.77 1.81l-.87-.51a2.5 2.5 0 0 1-1.26-2l-2.87-38.24a2.53 2.53 0 0 1 3.82-2.36ZM98.64 171.88l-11.85-6.41-4.11-2.23-.41 19.92c-.08 4.3 4.25 10.16 9.67 13.1s9.9 1.85 10-2.45l.41-19.92Zm-2.31-1.25-7.25-3.92Z" class="color383838 svgShape"></path><path fill="#8b39fe" d="M94.08 189.31a.19.19 0 0 1-.1 0l-4.7-2.78a.21.21 0 0 1-.11-.23l1.15-6.82a.76.76 0 0 0-.13-.51 4.93 4.93 0 0 1-1.11-2.81c0-.92.46-1.47 1.24-1.47a2.73 2.73 0 0 1 1.34.42 5.84 5.84 0 0 1 2.81 4.4 1.36 1.36 0 0 1-.73 1.37.7.7 0 0 0-.47.72l1 7.5a.18.18 0 0 1 0 .16.21.21 0 0 1-.19.05Z" class="colorfeda39 svgShape"></path><path fill="#383838" d="M90.32 174.88a2.5 2.5 0 0 1 1.22.4 5.67 5.67 0 0 1 2.7 4.2 1.21 1.21 0 0 1-.55 1.15.93.93 0 0 0-.65 1l1 7.48-4.69-2.77 1.15-6.82v-.08a1.08 1.08 0 0 0-.19-.62 4.64 4.64 0 0 1-1.06-2.66c0-.47.13-1.25 1-1.25Zm0-.45c-.88 0-1.47.6-1.47 1.7a5.22 5.22 0 0 0 1.15 2.94.59.59 0 0 1 .1.34l-1.1 6.83a.41.41 0 0 0 .21.45l4.7 2.78a.38.38 0 0 0 .22.07.46.46 0 0 0 .45-.5l-1-7.5a.47.47 0 0 1 .33-.48 1.58 1.58 0 0 0 .87-1.58 6.1 6.1 0 0 0-2.93-4.6 2.91 2.91 0 0 0-1.45-.45Z" class="color383838 svgShape"></path></g></g></svg>