<svg xmlns="http://www.w3.org/2000/svg" viewBox="0 0 400 290" id="DigitalDocument"><defs><linearGradient id="a" x1="135.5" x2="260.7" y1="261.49" y2="57.45" gradientUnits="userSpaceOnUse"><stop offset="0" stop-color="#cfccd3" class="stopColorcccfd3 svgShape"></stop><stop offset="1" stop-color="#b4b1b8" stop-opacity="0" class="stopColorb2b1b8 svgShape"></stop></linearGradient><clipPath id="b"><path fill="none" d="M279.63 151.07a1.11 1.11 0 0 1 0 1.93l-141.49 81.23c-5.06 2.91-12.71 3.22-17.08.68l-71.81-39.82a1.1 1.1 0 0 1-.14-1.82L191.62 114c5.39-3.1 13.55-3.42 18.21-.72l69.79 37.79Z"></path></clipPath></defs><g style="isolation:isolate" fill="#000000" class="color000000 svgShape"><g data-name="Layer 1" fill="#000000" class="color000000 svgShape"><path d="M50.49 203.23 128.32 241a6.47 6.47 0 0 0 6.47 0L350.7 118.38a6.45 6.45 0 0 0 0-11.17L279 67.13a6.47 6.47 0 0 0-6.4 0L49 193.33c.54 6.37 0 6.67 1.49 9.9Z" style="mix-blend-mode:multiply" fill="url(#a)"></path><path fill="#6929c2" d="M209.84 113.27c-4.67-2.7-12.83-2.38-18.22.73l-143 79.55a4.94 4.94 0 0 0-2.54 4.32 5 5 0 0 0 2.58 4.35l71.2 38.85c4.66 2.7 12.82 2.37 18.21-.73l141.66-81.53a4.43 4.43 0 0 0 2.22-3.85 4.43 4.43 0 0 0-2.32-3.9Z" class="color383838 svgShape"></path><path fill="#8b39fe" d="M279.63 151.07a1.11 1.11 0 0 1 0 1.93l-141.49 81.23c-5.06 2.91-12.71 3.22-17.08.68l-71.81-39.82a1.1 1.1 0 0 1-.14-1.82L191.62 114c5.39-3.1 13.55-3.42 18.21-.72l69.79 37.79Z" class="colorfeda39 svgShape"></path><path fill="#6929c2" d="M128.5 236.94a15.45 15.45 0 0 1-7.59-1.75L49.1 195.36a1.41 1.41 0 0 1-.18-2.34l142.54-79.3c5.48-3.15 13.79-3.47 18.53-.72l69.77 37.78-.13.29.15-.28a1.37 1.37 0 0 1 .73 1.21 1.47 1.47 0 0 1-.73 1.27L138.29 234.5a20.16 20.16 0 0 1-9.79 2.44Zm-79.21-43.42a.85.85 0 0 0-.29.68.78.78 0 0 0 .4.62l71.82 39.82c4.28 2.48 11.8 2.18 16.76-.68l141.49-81.23a.82.82 0 0 0 .41-.72.74.74 0 0 0-.4-.67l-69.79-37.79c-4.57-2.65-12.61-2.33-17.91.73Z" class="color383838 svgShape"></path><g clip-path="url(#b)" fill="#000000" class="color000000 svgShape"><path fill="#ffffff" d="M84.16 251.1c23-12.54 61.51-43.83 82.79-65.48l72.84 27.62s-8.65 8.92-15.94 14.85c-17.41 14.15-45.87 37.11-69.22 55-20.38-5.24-52.35-18.56-70.47-31.99Z" class="colorffffff svgShape"></path><path fill="#6929c2" d="M154.68 283.36h-.12C134 278 102 264.61 84 251.3l-.32-.23.35-.19c23.41-12.78 62.39-44.74 82.73-65.44l.11-.12.16.06 73.2 27.76-.27.28c-.09.09-8.74 9-16 14.87-19.22 15.62-46.84 37.85-69.23 55Zm-70.05-32.23c17.93 13.17 49.53 26.41 69.94 31.68 22.37-17.13 49.93-39.31 69.12-54.92 6.48-5.27 14.12-13 15.64-14.55L167 185.92c-20.28 20.62-58.93 52.31-82.37 65.21Z" class="color383838 svgShape"></path><path fill="#6929c2" d="m130.47 229.7.5-1c.27.14 27.9 14.12 47.26 20.57l-.35 1c-19.43-6.41-47.13-20.43-47.41-20.57ZM126 233.38l.49-1c.28.14 27.91 14.12 47.26 20.58l-.34 1c-19.41-6.43-47.14-20.44-47.41-20.58ZM121.52 237.05l.49-1c.28.14 27.91 14.12 47.27 20.58l-.35 1c-19.44-6.42-47.14-20.44-47.41-20.58ZM117 240.73l.49-1c.28.14 27.91 14.13 47.27 20.58l-.35 1c-19.41-6.42-47.09-20.44-47.41-20.58ZM157.66 208.25l.49-1c.28.14 27.91 14.12 47.27 20.58l-.35 1c-19.43-6.43-47.13-20.44-47.41-20.58ZM153.18 211.92l.5-1c.27.14 27.9 14.12 47.26 20.58l-.35 1c-19.43-6.42-47.13-20.44-47.41-20.58ZM148.7 215.6l.5-1c.27.15 27.9 14.13 47.26 20.58l-.34 1c-19.44-6.42-47.12-20.44-47.42-20.58ZM144.23 219.28l.49-1c.28.14 27.91 14.12 47.26 20.58l-.34 1c-19.44-6.43-47.14-20.44-47.41-20.58Z" class="color383838 svgShape"></path></g><g opacity=".7" fill="#000000" class="color000000 svgShape"><path fill="#8b39fe" d="M279.63 151.07a1.11 1.11 0 0 1 0 1.93l-141.49 81.23c-5.06 2.91-12.71 3.22-17.08.68l-71.81-39.82a1.1 1.1 0 0 1-.14-1.82L191.62 114c5.39-3.1 13.55-3.42 18.21-.72l69.79 37.79Z" class="colorfeda39 svgShape"></path><path fill="#6929c2" d="M128.5 236.94a15.45 15.45 0 0 1-7.59-1.75L49.1 195.36a1.41 1.41 0 0 1-.18-2.34l142.54-79.3c5.48-3.15 13.79-3.47 18.53-.72l69.77 37.78-.13.29.15-.28a1.37 1.37 0 0 1 .73 1.21 1.47 1.47 0 0 1-.73 1.27L138.29 234.5a20.16 20.16 0 0 1-9.79 2.44Zm-79.21-43.42a.85.85 0 0 0-.29.68.78.78 0 0 0 .4.62l71.82 39.82c4.28 2.48 11.8 2.18 16.76-.68l141.49-81.23a.82.82 0 0 0 .41-.72.74.74 0 0 0-.4-.67l-69.79-37.79c-4.57-2.65-12.61-2.33-17.91.73Z" class="color383838 svgShape"></path></g><path fill="#c6c1cc" d="m89.87 219.74-8.18-4.45c-.73-.4-1.32.06-1.3 1a3.17 3.17 0 0 0 1.38 2.5l8.23 4.48c.74.41 1.32-.05 1.3-1a3.18 3.18 0 0 0-1.43-2.53Z" class="colorc1c8cc svgShape"></path><path fill="#6929c2" d="M90.46 223.66a1.25 1.25 0 0 1-.62-.18L81.66 219a3.38 3.38 0 0 1-1.5-2.7 1.37 1.37 0 0 1 .55-1.29 1.07 1.07 0 0 1 1.1.05l8.19 4.48a3.41 3.41 0 0 1 1.5 2.7 1.4 1.4 0 0 1-.55 1.28.9.9 0 0 1-.49.14Zm-9.28-8.28a.46.46 0 0 0-.23.06 1 1 0 0 0-.32.88 3 3 0 0 0 1.25 2.29l8.18 4.45a.64.64 0 0 0 .64.06 1 1 0 0 0 .32-.87 3 3 0 0 0-1.26-2.3l-8.18-4.45a.85.85 0 0 0-.4-.12Z" class="color383838 svgShape"></path><path fill="#e0dbe7" d="M134.33 99.11c22-5.24 61.2-22.58 83.84-35.8l54.44 39.53s-9.22 5.47-16.64 8.76c-17.72 7.85-46.65 20.54-70.16 30.14-15.81-8.98-39.43-27.32-51.48-42.63Z" class="colordbe1e7 svgShape"></path><path fill="#6929c2" d="m185.79 142-.11-.06c-16-9.07-39.6-27.52-51.55-42.69l-.24-.31.38-.09c22.41-5.32 62.13-23.13 83.73-35.76l.14-.08 54.89 39.85-.33.2c-.09 0-9.32 5.51-16.67 8.77C228 124.28 203.71 134.7 185.9 142Zm-51-42.76c12 15 35.26 33.2 51.06 42.21 17.8-7.27 42-17.68 70.05-30.1 6.54-2.89 14.58-7.55 16.29-8.55l-54-39.22c-21.62 12.6-60.96 30.23-83.43 35.68Z" class="color383838 svgShape"></path><path fill="#6929c2" d="m177.78 91.78.63-.7c.2.18 20.06 18.09 34.72 27.86l-.52.79C197.88 109.92 178 92 177.78 91.78ZM173.21 93.83l.63-.71c.2.18 20.06 18.1 34.73 27.87l-.52.79C193.32 112 173.41 94 173.21 93.83ZM168.64 95.87l.64-.7c.2.18 20.05 18.1 34.72 27.87l-.52.78c-14.73-9.82-34.64-27.77-34.84-27.95ZM164.08 97.92l.63-.7c.2.18 20.06 18.1 34.73 27.87l-.53.78c-14.72-9.8-34.63-27.77-34.83-27.95ZM205.3 80.06l.63-.7c.2.18 20.06 18.09 34.73 27.86l-.53.79c-14.72-9.81-34.63-27.77-34.83-27.95ZM200.73 82.11l.63-.7c.2.18 20.06 18.09 34.73 27.86l-.52.79c-14.73-9.81-34.64-27.77-34.84-27.95ZM196.17 84.16l.63-.7c.2.18 20.06 18.09 34.73 27.86l-.53.79c-14.73-9.81-34.63-27.77-34.83-27.95ZM191.6 86.21l.63-.71c.2.19 20.06 18.1 34.73 27.87l-.52.79c-14.73-9.81-34.64-27.77-34.84-27.95Z" class="color383838 svgShape"></path><path fill="#ffffff" d="M84.16 164c23-12.54 61.51-43.83 82.79-65.48l72.84 27.63s-8.65 8.92-15.94 14.84c-17.41 14.16-45.87 37.12-69.22 55-20.38-5.23-52.35-18.54-70.47-31.99Z" class="colorffffff svgShape"></path><path fill="#6929c2" d="M154.68 196.27h-.12C134 191 102 177.53 84 164.22l-.32-.24.35-.19c23.41-12.78 62.39-44.74 82.73-65.43l.11-.12.16.06 73.2 27.76-.27.27c-.09.09-8.74 9-16 14.87-19.24 15.64-46.86 37.88-69.23 55ZM84.63 164c17.93 13.18 49.53 26.41 69.94 31.68 22.35-17.11 49.92-39.3 69.12-54.91 6.48-5.27 14.12-13 15.64-14.55L167 98.83c-20.28 20.62-58.93 52.31-82.37 65.17Z" class="color383838 svgShape"></path><path fill="#6929c2" d="m130.47 142.62.5-1c.27.14 27.9 14.12 47.26 20.58l-.35 1c-19.43-6.43-47.13-20.45-47.41-20.58ZM126 146.29l.49-1c.28.15 27.91 14.13 47.26 20.58l-.34 1c-19.41-6.42-47.14-20.44-47.41-20.58ZM121.52 150l.49-1c.28.14 27.91 14.12 47.27 20.58l-.35 1c-19.44-6.45-47.14-20.47-47.41-20.58ZM117 153.64l.49-1c.28.14 27.91 14.12 47.27 20.58l-.35 1C145 167.8 117.32 153.78 117 153.64ZM157.66 121.16l.49-1c.28.14 27.91 14.12 47.27 20.57l-.35 1c-19.43-6.41-47.13-20.43-47.41-20.57ZM153.18 124.84l.5-1c.27.14 27.9 14.12 47.26 20.58l-.35 1c-19.43-6.42-47.13-20.42-47.41-20.58ZM148.7 128.51l.5-1c.27.14 27.9 14.12 47.26 20.58l-.34 1c-19.44-6.42-47.12-20.44-47.42-20.58ZM144.23 132.19l.49-1c.28.15 27.91 14.13 47.26 20.58l-.34 1c-19.44-6.42-47.14-20.44-47.41-20.58Z" class="color383838 svgShape"></path><path fill="#ffffff" d="M69.65 166.5c11.9-23.32 26.06-70.89 31.41-100.77l75.73-18.29s-2.11 12.24-4.79 21.25c-6.39 21.51-16.94 56.52-26.13 84.46-19.77 7.17-53.68 14.21-76.22 13.35Z" class="colorffffff svgShape"></path><path fill="#6929c2" d="M73.53 166.82c-1.33 0-2.63 0-3.89-.07h-.39l.18-.36c12.12-23.76 26.27-72.14 31.38-100.7v-.16h.16L177.1 47.1l-.06.38c0 .13-2.14 12.36-4.79 21.28-7.06 23.76-17.32 57.7-26.13 84.47v.11H146c-18.88 6.88-50.23 13.48-72.47 13.48Zm-3.47-.56c22.24.77 55.79-6.14 75.62-13.31 8.79-26.74 19-60.61 26.08-84.33 2.38-8 4.33-18.7 4.71-20.84l-75.19 18.16c-5.12 28.47-19.15 76.44-31.22 100.32Z" class="color383838 svgShape"></path><path fill="#6929c2" d="m95.82 122.7-.15-1.08c.31 0 31-4.09 50.64-9.68l.3 1c-19.71 5.66-50.48 9.72-50.79 9.76ZM94.2 128.26l-.15-1.08c.31 0 31-4.09 50.63-9.68l.3 1.06c-19.7 5.61-50.48 9.66-50.78 9.7ZM92.57 133.83l-.14-1.09c.31 0 31-4.08 50.63-9.67l.3 1.05c-19.7 5.61-50.48 9.67-50.79 9.71ZM91 139.39l-.15-1.09c.31 0 31-4.08 50.64-9.67l.3 1.05c-19.79 5.61-50.53 9.67-50.79 9.71ZM106.16 89.65l-.16-1.08c.31 0 31-4.09 50.63-9.68l.3 1c-19.68 5.66-50.46 9.72-50.77 9.76ZM104.54 95.21l-.15-1.08c.31 0 31-4.09 50.64-9.68l.3 1.06c-19.71 5.61-50.49 9.66-50.79 9.7ZM102.92 100.77l-.15-1.08c.31 0 31-4.08 50.63-9.68l.3 1.06c-19.7 5.61-50.48 9.66-50.78 9.7ZM101.29 106.33l-.14-1.08c.31 0 31-4.08 50.63-9.67l.3 1c-19.7 5.66-50.48 9.71-50.79 9.75Z" class="color383838 svgShape"></path></g></g></svg>