<svg xmlns="http://www.w3.org/2000/svg" viewBox="0 0 370 250" id="Smartwearablewatch"><defs><linearGradient id="a" x1="158.39" x2="214.48" y1="227.64" y2="136.23" gradientUnits="userSpaceOnUse"><stop offset="0" stop-color="#cfccd3" class="stopColorcccfd3 svgShape"></stop><stop offset="1" stop-color="#b4b1b8" stop-opacity="0" class="stopColorb2b1b8 svgShape"></stop></linearGradient></defs><g style="isolation:isolate" fill="#000000" class="color000000 svgShape"><g data-name="Layer 1" fill="#000000" class="color000000 svgShape"><path style="mix-blend-mode:multiply" fill="url(#a)" d="m101.22 168.35 77.56 45.24 126.1-72.23-72.33-44.39-131.33 71.38z"></path><path fill="#9a969f" d="M164.64 186c-17.29-10.31-99-72.63-56.48-120.65-45.34 13-41.61 33.2-40 48.9 5.47 54.27 54.63 93.89 96.48 71.75Z" class="color969a9f svgShape"></path><path fill="#383838" d="M139.85 192.49a58.06 58.06 0 0 1-27.5-7.23c-11.54-6.18-21.79-15.92-29.64-28.16a97.83 97.83 0 0 1-14.8-42.81l-.17-1.59c-1.63-15.57-3.66-35 40.35-47.56l.78-.22-.54.6c-9.76 11-13.62 23.68-11.45 37.6 3.17 20.36 18.78 39.91 31.31 52.73 14 14.34 29.54 25.77 36.57 30l.36.22-.37.19a52.91 52.91 0 0 1-24.9 6.23ZM107.46 65.81c-42.84 12.5-40.86 31.53-39.25 46.84l.16 1.59c3 30.15 20.4 57.86 44.2 70.61 17.09 9.15 35.4 9.56 51.59 1.14-6.3-3.82-21.46-14.62-36.31-29.81-12.58-12.87-28.24-32.51-31.43-53-2.15-13.8 1.58-26.37 11.04-37.37Z" class="color383838 svgShape"></path><path fill="#e0dbe7" d="m170.93 178.93-35.23-20.44a2.11 2.11 0 0 0-2.13.18l-33.9 19.47a7.9 7.9 0 0 0-3.31 6.29 2.93 2.93 0 0 0 1.12 2.65l35.33 20.5 33.87-20.08Z" class="colordbe1e7 svgShape"></path><path fill="#383838" d="m132.81 207.86-.12-.07-35.33-20.51a3.14 3.14 0 0 1-1.23-2.85 8.17 8.17 0 0 1 3.42-6.5l33.9-19.47a2.44 2.44 0 0 1 2.25-.24l.11.06 35.42 20.56-4.38 8.82h-.06Zm2.05-49.35a2.42 2.42 0 0 0-1.18.36l-33.89 19.47a7.62 7.62 0 0 0-3.19 6.09 2.72 2.72 0 0 0 1 2.45l35.21 20.43 33.69-20 4.12-8.31-35-20.33a1.48 1.48 0 0 0-.76-.16Z" class="color383838 svgShape"></path><path fill="#b2a9be" d="m137.45 199.86-.12.07a3.92 3.92 0 0 0-1.78 3.06 1.2 1.2 0 0 0 .6 1.17l.69.4 3.78-2.85Z" class="colora9beb7 svgShape"></path><path fill="#3f2562" d="m142.16 200.66-8.5 6.7 38.12-28.65-29.62 21.95z" class="color2a2562 svgShape"></path><path fill="#383838" d="m134.88 207.37 33.89-19.47a7.89 7.89 0 0 0 3.31-6.29c0-2.43-1.47-3.55-3.29-2.5l-33.89 19.47a7.86 7.86 0 0 0-3.31 6.29c-.01 2.42 1.46 3.54 3.29 2.5Z" class="color383838 svgShape"></path><path fill="#8b39fe" d="M118.18 53.29c-11.94 2-28.5 14-39.24 22.6C136.34 69.2 224.72 154.1 181 212.22c10.35-5.81 20.79-11.49 31.07-17.42 53.47-30.59-29.44-152.22-93.89-141.51Z" class="colorfeda39 svgShape"></path><path fill="#383838" d="m180.14 213 .71-.93c15.49-20.61 15.55-46.71.18-73.49-10.23-17.82-27-34.79-46-46.58C115.48 79.83 95.55 74.2 79 76.13l-.85.1.67-.54C95.72 62.19 109 54.57 118.14 53c19.2-3.19 41.61 5.15 63.1 23.48 19.42 16.56 35.63 39.42 43.37 61.15 4.41 12.4 5.86 24 4.17 33.51-1.87 10.6-7.44 18.62-16.55 23.83-6.79 3.92-13.76 7.79-20.5 11.53l-10.57 5.89ZM85.53 75.27c15.24 0 32.65 5.66 49.8 16.31 19 11.83 35.86 28.87 46.12 46.75 15.25 26.57 15.41 52.48.47 73.11q4.79-2.67 9.58-5.33c6.73-3.74 13.7-7.61 20.48-11.53 17.1-9.78 21.53-30.46 12.16-56.75-15.84-44.49-65.56-91-105.92-84.3-9 1.49-21.91 8.9-38.47 22a57.82 57.82 0 0 1 5.78-.26Z" class="color383838 svgShape"></path><path fill="#9a969f" d="M187.33 203.92c1.71-2.3 4.14-10 4.29-10.63-9.42.41-23.41-10.24-23.41-10.24a1.14 1.14 0 0 0-1.4 0l-29.48 16.88a3.86 3.86 0 0 0-1.52 3.17c0 1.13 36.9 20.57 51.52.82Z" class="color969a9f svgShape"></path><path fill="#383838" d="M167.45 213a59.46 59.46 0 0 1-18-3.23c-7.17-2.37-13.91-5.87-13.91-6.63a4.15 4.15 0 0 1 1.64-3.37l29.49-16.89a1.38 1.38 0 0 1 1.67 0c.12.09 13.5 10.2 22.72 10.2H191.89l-.08.31c-.12.48-2.56 8.34-4.32 10.71-4.98 6.74-12.49 8.9-20.04 8.9ZM136 203.05c.78 1.08 15.21 8.69 29.36 9.4 9.79.49 17.12-2.43 21.74-8.67 1.49-2 3.68-8.61 4.16-10.25h-.22c-9.37 0-22.45-9.88-23-10.31a.94.94 0 0 0-1.14 0l-29.48 16.88a3.63 3.63 0 0 0-1.42 2.95Z" class="color383838 svgShape"></path><path fill="#383838" d="M181.73 211.84c8.66-5 13.45-14.85 13.48-27.83v-7.54c.06-28.57-23-65.24-51.47-81.75L119 80.36c-15.35-8.91-30.07-10.62-40.4-4.69a24.4 24.4 0 0 0-9 9c-2.92 5-4.47 11.41-4.49 18.77V111c-.06 22.2 13.88 49.28 33.44 68a5.29 5.29 0 0 1 1.11-.89l2.63-1.51c-19.15-17.91-32.88-44.16-32.83-65.58v-7.55c0-11.35 4-19.88 11.29-24 8.93-5.14 22.07-3.43 36.05 4.67l24.74 14.37c27.24 15.8 49.36 50.79 49.3 78v7.55c0 6.57-1.36 12.2-3.91 16.58a20 20 0 0 1-7.37 7.47c-8.94 5.14-22.08 3.43-36-4.67l-6.07-3.53-.12.07a3.92 3.92 0 0 0-1.78 3.06 1.2 1.2 0 0 0 .6 1.17l5.18 3c15.31 8.85 30.04 10.56 40.36 4.63Z" class="color383838 svgShape"></path><path fill="#c6c1cc" d="m83 71.68 3.34.24a11 11 0 0 1 2.09-1.58L132 45.28a21.07 21.07 0 0 1 21.1 0l61.58 35.81.21.15 4.5.32.1 7.61a9.6 9.6 0 0 1-4.85 8.72l-44.89 25.84a21.77 21.77 0 0 1-21.84 0L88.42 89.14A10.74 10.74 0 0 1 83 80Z" class="colorc1c8cc svgShape"></path><path fill="#383838" d="M158.87 126.91a22 22 0 0 1-11.08-3L88.31 89.34a11 11 0 0 1-5.5-9.34v-8.6l3.49.25a11.28 11.28 0 0 1 2.06-1.54l43.54-25a21.36 21.36 0 0 1 21.32 0L214.8 81l.12.08 4.65.34.1 7.82a9.77 9.77 0 0 1-5 8.92L169.86 124a22 22 0 0 1-10.99 2.91Zm-75.61-55V80a10.53 10.53 0 0 0 5.27 8.91L148 123.54a21.64 21.64 0 0 0 21.61 0l44.9-25.85a9.33 9.33 0 0 0 4.73-8.51l-.1-7.4-4.39-.35-.11-.08-.1-.06L153 45.53a20.87 20.87 0 0 0-20.86-.05L88.58 70.54a10.43 10.43 0 0 0-2 1.55l-.07.07Z" class="color383838 svgShape"></path><path fill="#383838" d="m88.42 81.35 59.49 34.59a21.82 21.82 0 0 0 21.84 0l44.89-25.84a9.7 9.7 0 0 0 0-16.8L153.1 37.54a21.07 21.07 0 0 0-21.1 0L88.46 62.55a10.86 10.86 0 0 0-.04 18.8Z" class="color383838 svgShape"></path><path fill="#ffffff" d="m89.22 78.61 58.95 34.3a20.1 20.1 0 0 0 20.14 0l44.76-25.76a6.72 6.72 0 0 0 0-11.63l-61.84-36a18 18 0 0 0-18 0l-44 25.31a8 8 0 0 0-.01 13.78Z" class="colorffffff svgShape"></path><path fill="#383838" d="M158.28 115.88a20.34 20.34 0 0 1-10.28-2.76l-58.91-34.3a8.2 8.2 0 0 1 0-14.2l44-25.3a18.3 18.3 0 0 1 18.29 0l61.84 36a7 7 0 0 1 0 12.07l-44.76 25.76a20.43 20.43 0 0 1-10.18 2.73ZM142.2 37.39a17.82 17.82 0 0 0-8.86 2.36l-44 25.3a7.7 7.7 0 0 0 0 13.34l58.95 34.3a20 20 0 0 0 19.9 0L213 87a6.47 6.47 0 0 0 0-11.2l-61.84-36a17.75 17.75 0 0 0-8.96-2.41Z" class="color383838 svgShape"></path><path fill="#e0dbe7" d="M115 98.15a4.14 4.14 0 0 1 1.69 3.7c-.12 1.44-1.08 2.11-2.14 1.5a4.16 4.16 0 0 1-1.69-3.71c.14-1.44 1.14-2.1 2.14-1.49Z" class="colordbe1e7 svgShape"></path><path fill="#383838" d="M115.36 103.81a1.78 1.78 0 0 1-.88-.26 4.33 4.33 0 0 1-1.81-3.93 2.09 2.09 0 0 1 1-1.78 1.55 1.55 0 0 1 1.52.1 4.42 4.42 0 0 1 1.81 3.93 2.11 2.11 0 0 1-1 1.78 1.32 1.32 0 0 1-.64.16Zm-1.09-5.66a.87.87 0 0 0-.41.11 1.66 1.66 0 0 0-.73 1.4 3.93 3.93 0 0 0 1.58 3.48 1.08 1.08 0 0 0 1.07.1 1.68 1.68 0 0 0 .72-1.41 3.89 3.89 0 0 0-1.58-3.48 1.29 1.29 0 0 0-.65-.2Z" class="color383838 svgShape"></path><path fill="#6929c2" d="M161.89 72.95z" class="color405aa9 svgShape"></path><path fill="#383838" d="M197.72 102.16a.4.4 0 0 0-.41 0l-7.82 4.52a.91.91 0 0 0-.41.76v2a.47.47 0 0 0 .21.43.37.37 0 0 0 .18 0 .53.53 0 0 0 .23-.06l7.82-4.51a1 1 0 0 0 .41-.77v-2a.48.48 0 0 0-.21-.37Z" class="color383838 svgShape"></path></g></g></svg>