<svg xmlns="http://www.w3.org/2000/svg" xmlns:xlink="http://www.w3.org/1999/xlink" viewBox="0 0 400 250" id="OneTimePassword"><defs><linearGradient id="a" x1="247.6" x2="282.22" y1="236" y2="176.04" gradientUnits="userSpaceOnUse"><stop offset="0" stop-color="#cfccd3" class="stopColorcccfd3 svgShape"></stop><stop offset="1" stop-color="#b4b1b8" stop-opacity="0" class="stopColorb2b1b8 svgShape"></stop></linearGradient><linearGradient id="b" x1="158.12" x2="205.04" y1="237.67" y2="156.42" xlink:href="#a"></linearGradient></defs><g style="isolation:isolate" fill="#000000" class="color000000 svgShape"><g data-name="Layer 1" fill="#000000" class="color000000 svgShape"><polygon points="222.76 219.9 239.96 229.85 308.38 189.84 291.67 179.94 222.76 219.9" style="mix-blend-mode:multiply" fill="url(#a)"></polygon><path d="M66.41,183.08l99.49,58.07a2.69,2.69,0,0,0,2.69,0l169.87-97.07L235.8,84.42l-169.35,94A2.67,2.67,0,0,0,66.41,183.08Z" style="mix-blend-mode:multiply" fill="url(#b)"></path><path fill="#383838" d="M239.13,220.36l-.42-.75,13.77-7.5a3.74,3.74,0,0,0,.06-6.52l-26.89-15.06a3.75,3.75,0,0,0-3.67,0l-16.82,9.27a4.63,4.63,0,0,1-4.52,0L180.19,188a4.61,4.61,0,0,1,.08-8l41.06-22.47.42.76-41.07,22.46a3.75,3.75,0,0,0-.06,6.53L201.07,199a3.75,3.75,0,0,0,3.67,0l16.83-9.26a4.64,4.64,0,0,1,4.51,0L253,204.84a4.6,4.6,0,0,1-.07,8Z" class="color383838 svgShape"></path><g style="mix-blend-mode:multiply" fill="#000000" class="color000000 svgShape"><path fill="#ffffff" d="M63.69,176.73l35.7-20.39a4,4,0,0,1,4.08,0l52.59,29,52.59,29a4.39,4.39,0,0,1-.06,7.55l-38.32,21.42a4,4,0,0,1-2,.53,4.11,4.11,0,0,1-2-.55L115,213.84,63.68,184.29a4.4,4.4,0,0,1,0-7.56Z" class="colorffffff svgShape"></path><path fill="#fafafa" d="M63.76,176.85l35.61-20.34a4.23,4.23,0,0,1,2-.56,3.83,3.83,0,0,1,2,.54l52.47,29,2.75,1.51,49.73,27.46a4.46,4.46,0,0,1,2.18,3.72,4.28,4.28,0,0,1-.32,1.79,4,4,0,0,1-1.69,1.93L170.3,243.24a4.26,4.26,0,0,1-2,.55,3.9,3.9,0,0,1-2-.52l-51.17-29.48-2.72-1.57L64,184.31a4.5,4.5,0,0,1-2.22-3.72,4.28,4.28,0,0,1,.32-1.79A3.94,3.94,0,0,1,63.76,176.85Z" class="colorfafafa svgShape"></path><path fill="#f6f6f7" d="M63.82,177l35.52-20.29a4.58,4.58,0,0,1,2-.59,3.73,3.73,0,0,1,2,.51l52.36,28.91,2.74,1.52,49.62,27.39a4.6,4.6,0,0,1,2.26,3.65,4.42,4.42,0,0,1-.24,1.75,3.62,3.62,0,0,1-1.62,1.93l-38.13,21.32a4.48,4.48,0,0,1-2,.58,3.68,3.68,0,0,1-2-.5l-51.05-29.41-2.72-1.57L64.27,184.32A4.59,4.59,0,0,1,62,180.68a4.3,4.3,0,0,1,.23-1.76A3.66,3.66,0,0,1,63.82,177Z" class="colorf7f6f7 svgShape"></path><path fill="#f3f3f4" d="M63.88,177.09l35.44-20.24a4.71,4.71,0,0,1,2-.62,3.6,3.6,0,0,1,1.94.49l52.24,28.85,2.74,1.51,49.51,27.33a4.75,4.75,0,0,1,2.32,3.57,4.2,4.2,0,0,1-.15,1.71,3.32,3.32,0,0,1-1.54,1.94l-38,21.27a4.84,4.84,0,0,1-2,.61,3.49,3.49,0,0,1-1.91-.48L115.5,213.68l-2.72-1.56L64.56,184.33a4.78,4.78,0,0,1-2.35-3.57,4.22,4.22,0,0,1,.15-1.71A3.36,3.36,0,0,1,63.88,177.09Z" class="colorf4f3f4 svgShape"></path><path fill="#f1f1f1" d="M64,177.21,99.3,157a5,5,0,0,1,2-.64,3.45,3.45,0,0,1,1.9.47l52.13,28.78,2.73,1.51,49.4,27.27c1.09.64,2.41,2.21,2.4,3.5a4.36,4.36,0,0,1-.07,1.66,3.06,3.06,0,0,1-1.46,1.95l-38,21.22a5,5,0,0,1-2,.64,3.52,3.52,0,0,1-1.87-.45l-50.83-29.29L113,212.07,64.85,184.34c-1.09-.63-2.42-2.2-2.42-3.5a4.23,4.23,0,0,1,.07-1.67A3.11,3.11,0,0,1,64,177.21Z" class="colorf1f1f1 svgShape"></path><path fill="#eeeeef" d="M64,177.33l35.27-20.15a5.24,5.24,0,0,1,2-.66,3.23,3.23,0,0,1,1.86.44l52,28.72,2.73,1.5,49.29,27.22c1,.6,2.48,2.19,2.47,3.42,0,.5.21,1.18,0,1.62a2.81,2.81,0,0,1-1.39,1.95l-37.86,21.17a5.43,5.43,0,0,1-2,.67,3.34,3.34,0,0,1-1.84-.43l-50.71-29.22-2.7-1.56-48-27.66c-1-.6-2.48-2.2-2.48-3.43,0-.51-.22-1.19,0-1.63A2.83,2.83,0,0,1,64,177.33Z" class="colorefeeef svgShape"></path><path fill="#ebebec" d="M64.08,177.45l35.18-20.1a5.6,5.6,0,0,1,2-.69,3.07,3.07,0,0,1,1.82.42L155,185.73l2.72,1.51,49.17,27.15c1,.57,2.55,2.18,2.54,3.34,0,.48.29,1.16.1,1.58a2.64,2.64,0,0,1-1.31,2l-37.77,21.11a5.77,5.77,0,0,1-2,.69,3.15,3.15,0,0,1-1.79-.4L116,213.52l-2.7-1.55-47.89-27.6c-1-.57-2.56-2.2-2.56-3.36,0-.48-.29-1.17-.1-1.59A2.6,2.6,0,0,1,64.08,177.45Z" class="colorecebec svgShape"></path><path fill="#e9e9ea" d="M64.14,177.57l35.1-20a5.94,5.94,0,0,1,2-.72,3,3,0,0,1,1.78.4l51.79,28.59,2.71,1.5,49.07,27.09c.91.54,2.62,2.18,2.61,3.27,0,.45.36,1.14.18,1.53a2.47,2.47,0,0,1-1.23,2l-37.68,21.06a6.36,6.36,0,0,1-2,.72,3,3,0,0,1-1.76-.38l-50.48-29.09-2.7-1.55L65.73,184.38c-.92-.53-2.63-2.19-2.63-3.28,0-.45-.36-1.16-.18-1.55A2.43,2.43,0,0,1,64.14,177.57Z" class="colore9e9ea svgShape"></path><path fill="#e7e6e8" d="M64.2,177.69l35-20a6.51,6.51,0,0,1,2-.74,2.79,2.79,0,0,1,1.73.37l51.68,28.53,2.71,1.5,48.95,27c.86.5,2.69,2.17,2.68,3.19,0,.43.44,1.13.27,1.5a2.29,2.29,0,0,1-1.15,2l-37.59,21a6.74,6.74,0,0,1-2,.75,2.79,2.79,0,0,1-1.71-.36l-50.38-29-2.68-1.55L66,184.4c-.86-.5-2.69-2.2-2.69-3.22,0-.42-.44-1.14-.27-1.5A2.26,2.26,0,0,1,64.2,177.69Z" class="colore7e6e8 svgShape"></path><path fill="#e5e4e6" d="M64.27,177.81l34.92-20a7.17,7.17,0,0,1,2-.76,2.68,2.68,0,0,1,1.7.34l51.56,28.47,2.7,1.49,48.85,27c.8.47,2.76,2.17,2.75,3.12,0,.39.51,1.11.35,1.45a2.1,2.1,0,0,1-1.08,2l-37.5,21a7.29,7.29,0,0,1-2,.78,2.67,2.67,0,0,1-1.67-.34l-50.26-29-2.68-1.54L66.31,184.41c-.8-.47-2.76-2.19-2.76-3.14,0-.4-.51-1.13-.35-1.47A2.08,2.08,0,0,1,64.27,177.81Z" class="colore4e4e6 svgShape"></path><path fill="#e2e1e4" d="M64.33,177.92,99.17,158a7.58,7.58,0,0,1,2-.79,2.46,2.46,0,0,1,1.65.32L154.27,186l2.7,1.49,48.73,26.91c.74.44,2.83,2.16,2.83,3.05,0,.36.58,1.09.44,1.4a2,2,0,0,1-1,2l-37.41,20.91a7.8,7.8,0,0,1-2,.8,2.51,2.51,0,0,1-1.64-.31l-50.14-28.89-2.68-1.55L66.61,184.42c-.75-.43-2.84-2.18-2.83-3.07,0-.37-.59-1.1-.44-1.42A2,2,0,0,1,64.33,177.92Z" class="colore2e1e4 svgShape"></path><path fill="#e0dfe1" d="M64.39,178l34.76-19.85a8,8,0,0,1,2-.82,2.38,2.38,0,0,1,1.62.3L154.09,186l2.69,1.49,48.63,26.84c.68.41,2.9,2.15,2.89,3,0,.34.66,1.07.53,1.37a1.88,1.88,0,0,1-.93,2l-37.32,20.86a8.93,8.93,0,0,1-2,.83,2.3,2.3,0,0,1-1.59-.29l-50-28.82-2.68-1.55L66.9,184.43c-.69-.4-2.9-2.18-2.9-3,0-.33-.66-1.08-.52-1.38A1.86,1.86,0,0,1,64.39,178Z" class="colordfdfe1 svgShape"></path><path fill="#dedddf" d="M64.46,178.16l34.67-19.8a8.9,8.9,0,0,1,2-.85,2.23,2.23,0,0,1,1.57.28l51.22,28.27,2.69,1.49,48.51,26.78c.63.37,3,2.15,3,2.9,0,.31.73,1.05.61,1.32a1.76,1.76,0,0,1-.86,2l-37.22,20.81a9.74,9.74,0,0,1-2,.86A2.3,2.3,0,0,1,167,242L117.1,213.2l-2.67-1.54L67.19,184.45c-.63-.37-3-2.18-3-2.93,0-.31-.73-1.07-.6-1.34A1.75,1.75,0,0,1,64.46,178.16Z" class="colordddddf svgShape"></path><path fill="#dbdadd" d="M64.52,178.28l34.59-19.76a10.41,10.41,0,0,1,2-.86,2.09,2.09,0,0,1,1.54.25l51.1,28.21,2.68,1.48,48.4,26.72c.58.34,3.05,2.14,3,2.82,0,.29.81,1,.7,1.28a1.67,1.67,0,0,1-.78,2L170.63,241.2a10.79,10.79,0,0,1-2,.89,2.16,2.16,0,0,1-1.51-.24l-49.81-28.7-2.66-1.54L67.48,184.46c-.57-.33-3-2.18-3-2.86,0-.28-.81-1-.69-1.3A1.65,1.65,0,0,1,64.52,178.28Z" class="colordadadd svgShape"></path><path fill="#d9d8db" d="M64.58,178.4l34.51-19.71a10.93,10.93,0,0,1,2-.89,2,2,0,0,1,1.49.22l51,28.15,2.68,1.48,48.29,26.66c.51.31,3.12,2.14,3.11,2.75,0,.25.88,1,.78,1.24a1.58,1.58,0,0,1-.7,2L170.66,241a12,12,0,0,1-2,.91,2,2,0,0,1-1.47-.21L117.45,213.1l-2.66-1.54-47-27.09c-.51-.3-3.1-2.17-3.1-2.78,0-.26-.88-1-.77-1.26A1.58,1.58,0,0,1,64.58,178.4Z" class="colord8d8db svgShape"></path><path fill="#d7d5d9" d="M64.65,178.52l34.41-19.66a12.6,12.6,0,0,1,2-.92,1.93,1.93,0,0,1,1.46.2l50.87,28.09,2.68,1.48,48.17,26.6c.46.26,3.19,2.12,3.19,2.67,0,.22,1,1,.86,1.19a1.51,1.51,0,0,1-.62,2l-37,20.66a14,14,0,0,1-2.05.94,1.92,1.92,0,0,1-1.44-.19L117.63,213,115,211.51l-46.9-27c-.46-.26-3.18-2.16-3.18-2.71,0-.23-.94-1-.85-1.22A1.5,1.5,0,0,1,64.65,178.52Z" class="colord5d6d9 svgShape"></path><path fill="#d5d3d7" d="M64.71,178.64,99,159a14.93,14.93,0,0,1,2-.95,1.76,1.76,0,0,1,1.41.18l50.76,28,2.67,1.48,48.07,26.54c.4.23,3.26,2.12,3.25,2.59,0,.2,1,1,.95,1.15a1.44,1.44,0,0,1-.55,2l-36.86,20.61a16,16,0,0,1-2.06,1,1.75,1.75,0,0,1-1.39-.17L117.81,213l-2.65-1.53-46.8-27c-.4-.24-3.24-2.17-3.24-2.65,0-.19-1-1-1-1.17A1.45,1.45,0,0,1,64.71,178.64Z" class="colord3d3d7 svgShape"></path><path fill="#d2d0d5" d="M64.77,178.76,99,159.19a17.17,17.17,0,0,1,2-1,1.66,1.66,0,0,1,1.37.15l50.64,28,2.67,1.47,47.95,26.48c.35.2,3.33,2.11,3.33,2.52,0,.17,1.1,1,1,1.11a1.38,1.38,0,0,1-.47,2l-36.78,20.56a17.78,17.78,0,0,1-2.06,1,1.69,1.69,0,0,1-1.35-.15L118,212.94l-2.64-1.53-46.69-26.9c-.34-.2-3.31-2.16-3.31-2.57,0-.17-1.09-1-1-1.13A1.41,1.41,0,0,1,64.77,178.76Z" class="colord0d1d5 svgShape"></path><path fill="#d0ced3" d="M64.84,178.88,99,159.36a20.15,20.15,0,0,1,2-1,1.53,1.53,0,0,1,1.33.13l50.53,27.89,2.66,1.47,47.85,26.42c.28.17,3.4,2.1,3.39,2.45,0,.14,1.18.94,1.12,1.06a1.34,1.34,0,0,1-.39,2.05l-36.69,20.51a22,22,0,0,1-2.06,1,1.55,1.55,0,0,1-1.31-.13l-49.24-28.37-2.64-1.52L68.94,184.52c-.28-.16-3.38-2.16-3.38-2.5,0-.14-1.16-1-1.11-1.09A1.35,1.35,0,0,1,64.84,178.88Z" class="colorcecfd3 svgShape"></path><path fill="#ceccd1" d="M64.9,179,99,159.53c.1-.06,1.84-1,2-1a1.47,1.47,0,0,1,1.29.1l50.41,27.84,2.66,1.46L203,214.27c.23.13,3.47,2.1,3.47,2.37,0,.11,1.25.93,1.21,1a1.3,1.3,0,0,1-.33,2.05L170.8,240.18c-.11.06-2,1-2.07,1a1.46,1.46,0,0,1-1.27-.1l-49.12-28.3-2.64-1.52L69.24,184.54c-.23-.14-3.45-2.16-3.45-2.43s-1.24-1-1.2-1.05A1.31,1.31,0,0,1,64.9,179Z" class="colorcccdd1 svgShape"></path><path fill="#ccc9cf" d="M65,179.11,99,159.7c.08,0,1.87-1,2-1a1.41,1.41,0,0,1,1.25.08l50.3,27.77,2.65,1.47,47.63,26.29a32.16,32.16,0,0,1,3.54,2.3c0,.08,1.32.91,1.29,1a1.28,1.28,0,0,1-.25,2.06L170.83,240c-.08.05-2,1.08-2.07,1.08a1.39,1.39,0,0,1-1.24-.08l-49-28.23-2.63-1.52L69.53,184.55A33.71,33.71,0,0,1,66,182.19c0-.08-1.31-.93-1.28-1A1.28,1.28,0,0,1,65,179.11Z" class="colorc9cacf svgShape"></path><path fill="#c9c7cd" d="M65,179.23l33.9-19.37c.06,0,1.91-1.07,2-1.07a1.3,1.3,0,0,1,1.21.06l50.18,27.71,2.65,1.46,47.51,26.23c.12.07,3.61,2.09,3.61,2.22s1.4.89,1.38.94a1.25,1.25,0,0,1-.17,2.07l-36.42,20.36s-2,1.11-2.07,1.11a1.29,1.29,0,0,1-1.19,0l-48.9-28.18-2.62-1.51L69.82,184.56c-.11-.07-3.58-2.15-3.58-2.29s-1.39-.91-1.37-1A1.26,1.26,0,0,1,65,179.23Z" class="colorc7c8cd svgShape"></path><path fill="#c8c5cb" d="M65.09,179.35,98.91,160s1.93-1.09,2-1.09a1.22,1.22,0,0,1,1.17,0l50.07,27.64,2.64,1.46,47.41,26.17c.05,0,3.68,2.08,3.68,2.15s1.47.87,1.46.9a1.22,1.22,0,0,1-.09,2.07l-36.33,20.31s-2,1.14-2.08,1.14a1.23,1.23,0,0,1-1.15,0l-48.78-28.11-2.62-1.51L70.11,184.57s-3.65-2.14-3.65-2.21-1.46-.9-1.45-.93A1.23,1.23,0,0,1,65.09,179.35Z" class="colorc5c6cb svgShape"></path><path fill="#c5c3c9" d="M100.85,159.08a1.12,1.12,0,0,1,1.13,0l52.59,29,52.59,29a1.21,1.21,0,0,1,0,2.09l-38.31,21.41a1.1,1.1,0,0,1-1.11,0l-51.29-29.55L65.15,181.56a1.21,1.21,0,0,1,0-2.09Z" class="colorc3c4c9 svgShape"></path></g><path fill="#383838" d="M207.82,215.31l-1.22-.09-.13-.1L104.54,156.25a2.69,2.69,0,0,0-2.7,0l-36.43,21c-.07,0-.12.1-.19.15l-1.16.09v2.1h0v0h0a2.68,2.68,0,0,0,1.35,2.3l101.93,58.87a2.66,2.66,0,0,0,2.7,0l36.43-21a2.68,2.68,0,0,0,1.35-2.34h0Z" class="color383838 svgShape"></path><path fill="#c6c1cc" d="M65.41,175.06l36.43-21a2.71,2.71,0,0,1,2.7,0l101.93,58.87a2.7,2.7,0,0,1,0,4.68l-36.43,21a2.71,2.71,0,0,1-2.7,0L65.41,179.74A2.7,2.7,0,0,1,65.41,175.06Z" class="colorc1c8cc svgShape"></path><path fill="#383838" d="M168.69,239.17a2.87,2.87,0,0,1-1.45-.39L65.31,179.91a2.91,2.91,0,0,1,0-5l.1.18-.1-.18,36.43-21a2.89,2.89,0,0,1,2.9,0l101.93,58.87a2.91,2.91,0,0,1,0,5l-36.43,21A2.9,2.9,0,0,1,168.69,239.17Zm-65.5-85.31a2.54,2.54,0,0,0-1.25.33l-36.43,21a2.51,2.51,0,0,0,0,4.34l101.93,58.87a2.53,2.53,0,0,0,2.5,0l36.43-21a2.5,2.5,0,0,0,0-4.33L104.44,154.19A2.51,2.51,0,0,0,103.19,153.86Z" class="color383838 svgShape"></path><path fill="#383838" d="M194.13 212.6l3.26 1.88a1.74 1.74 0 001.74 0l.93-.56a.7.7 0 000-1.21l-3.25-1.88a1.74 1.74 0 00-1.74 0l-.94.56A.7.7 0 00194.13 212.6zM183 206.15l3.26 1.87a1.74 1.74 0 001.74 0l.93-.55a.7.7 0 000-1.21l-3.25-1.88a1.74 1.74 0 00-1.74 0l-.94.55A.71.71 0 00183 206.15zM177.37 202.92l3.25 1.88a1.74 1.74 0 001.74 0l.93-.56a.7.7 0 000-1.21L180 201.15a1.74 1.74 0 00-1.74 0l-.93.56A.7.7 0 00177.37 202.92zM171.78 199.69l3.25 1.88a1.74 1.74 0 001.74 0l.93-.55a.7.7 0 000-1.22l-3.25-1.88a1.74 1.74 0 00-1.74 0l-.93.56A.7.7 0 00171.78 199.69zM160.6 193.24l3.25 1.88a1.74 1.74 0 001.74 0l.93-.56a.7.7 0 000-1.21l-3.25-1.88a1.74 1.74 0 00-1.74 0l-.93.55A.7.7 0 00160.6 193.24zM155 190l3.25 1.88a1.74 1.74 0 001.74 0l.93-.56a.7.7 0 000-1.21l-3.25-1.88a1.74 1.74 0 00-1.74 0l-.93.56A.7.7 0 00155 190zM149.42 186.78l3.25 1.88a1.74 1.74 0 001.74 0l.93-.55a.7.7 0 000-1.22L152.09 185a1.74 1.74 0 00-1.74 0l-.93.55A.7.7 0 00149.42 186.78zM138.24 180.33l3.25 1.88a1.74 1.74 0 001.74 0l.94-.56a.7.7 0 000-1.21l-3.26-1.88a1.74 1.74 0 00-1.74 0l-.93.56A.7.7 0 00138.24 180.33zM132.65 177.1L135.9 179a1.74 1.74 0 001.74 0l.94-.55a.71.71 0 000-1.22l-3.26-1.88a1.74 1.74 0 00-1.74 0l-.93.56A.7.7 0 00132.65 177.1zM127.06 173.87l3.25 1.88a1.74 1.74 0 001.74 0l.94-.55a.7.7 0 000-1.21l-3.26-1.88a1.74 1.74 0 00-1.74 0l-.93.55A.7.7 0 00127.06 173.87zM121.47 170.65l3.25 1.88a1.74 1.74 0 001.74 0l.94-.56a.7.7 0 000-1.21l-3.26-1.88a1.74 1.74 0 00-1.74 0l-.93.55A.7.7 0 00121.47 170.65zM187.22 216.58l3.25 1.88a1.76 1.76 0 001.75 0l3.25-1.88a.7.7 0 000-1.21l-3.25-1.88a1.76 1.76 0 00-1.75 0l-3.25 1.88A.7.7 0 00187.22 216.58zM181.63 213.36l3.25 1.88a1.76 1.76 0 001.75 0l3.25-1.88a.7.7 0 000-1.22l-3.25-1.87a1.72 1.72 0 00-1.75 0l-3.25 1.87A.7.7 0 00181.63 213.36zM176 210.13l3.25 1.88a1.76 1.76 0 001.75 0l3.25-1.88a.7.7 0 000-1.21L181 207a1.76 1.76 0 00-1.75 0L176 208.92A.7.7 0 00176 210.13zM170.45 206.9l3.26 1.88a1.74 1.74 0 001.74 0l3.25-1.88a.7.7 0 000-1.21l-3.25-1.88a1.74 1.74 0 00-1.74 0l-3.26 1.88A.7.7 0 00170.45 206.9zM164.86 203.68l3.26 1.87a1.7 1.7 0 001.74 0l3.25-1.87a.7.7 0 000-1.22l-3.25-1.87a1.7 1.7 0 00-1.74 0l-3.26 1.87A.71.71 0 00164.86 203.68zM159.27 200.45l3.26 1.88a1.74 1.74 0 001.74 0l3.25-1.88a.7.7 0 000-1.22l-3.25-1.87a1.74 1.74 0 00-1.74 0l-3.26 1.87A.71.71 0 00159.27 200.45zM153.68 197.22l3.26 1.88a1.74 1.74 0 001.74 0l3.25-1.88a.7.7 0 000-1.21l-3.25-1.88a1.74 1.74 0 00-1.74 0L153.68 196A.7.7 0 00153.68 197.22zM148.09 194l3.26 1.88a1.74 1.74 0 001.74 0l3.25-1.88a.7.7 0 000-1.21l-3.25-1.88a1.74 1.74 0 00-1.74 0l-3.26 1.88A.7.7 0 00148.09 194zM142.5 190.77l3.26 1.88a1.74 1.74 0 001.74 0l3.25-1.88a.7.7 0 000-1.22l-3.25-1.87a1.74 1.74 0 00-1.74 0l-3.26 1.87A.71.71 0 00142.5 190.77zM136.91 187.54l3.26 1.88a1.74 1.74 0 001.74 0l3.25-1.88a.7.7 0 000-1.21l-3.25-1.88a1.74 1.74 0 00-1.74 0l-3.26 1.88A.7.7 0 00136.91 187.54zM131.32 184.31l3.26 1.88a1.74 1.74 0 001.74 0l3.25-1.88a.7.7 0 000-1.21l-3.25-1.88a1.74 1.74 0 00-1.74 0l-3.26 1.88A.7.7 0 00131.32 184.31zM125.74 181.09L129 183a1.7 1.7 0 001.74 0l3.25-1.87a.7.7 0 000-1.22L130.73 178a1.74 1.74 0 00-1.74 0l-3.25 1.88A.7.7 0 00125.74 181.09zM114.56 173.42l3.25-1.88a1.74 1.74 0 011.74 0l8.84 5.1a.71.71 0 010 1.22l-3.25 1.88a1.74 1.74 0 01-1.74 0l-3.25-1.88h0l-5.58-3.22A.7.7 0 01114.56 173.42zM115 167l3.25 1.88a1.76 1.76 0 001.75 0l.93-.56a.7.7 0 000-1.21l-3.25-1.88a1.76 1.76 0 00-1.75 0l-.93.55A.7.7 0 00115 167zM109.37 163.72l3.25 1.88a1.76 1.76 0 001.75 0l.93-.55a.7.7 0 000-1.22L112.05 162a1.76 1.76 0 00-1.75 0l-.93.56A.7.7 0 00109.37 163.72zM103.78 160.49l3.25 1.88a1.76 1.76 0 001.75 0l.93-.55a.7.7 0 000-1.22l-3.25-1.87a1.76 1.76 0 00-1.75 0l-.93.55A.7.7 0 00103.78 160.49zM108.05 170.93l3.25 1.88a1.74 1.74 0 001.74 0l3.26-1.88a.7.7 0 000-1.21L113 167.84a1.74 1.74 0 00-1.74 0l-3.25 1.88A.7.7 0 00108.05 170.93zM102.46 167.7l3.25 1.88a1.74 1.74 0 001.74 0l3.26-1.88a.7.7 0 000-1.21l-3.26-1.88a1.74 1.74 0 00-1.74 0l-3.25 1.88A.7.7 0 00102.46 167.7zM96.87 164.48l3.25 1.88a1.74 1.74 0 001.74 0l3.26-1.88a.71.71 0 000-1.22l-3.26-1.87a1.74 1.74 0 00-1.74 0l-3.25 1.87A.7.7 0 0096.87 164.48zM102.28 174.27l3.26 1.88a1.74 1.74 0 001.74 0l3.25-1.88a.7.7 0 000-1.22l-3.25-1.87a1.74 1.74 0 00-1.74 0l-3.26 1.87A.71.71 0 00102.28 174.27zM96.69 171l3.26 1.88a1.74 1.74 0 001.74 0l3.25-1.88a.7.7 0 000-1.21L101.69 168a1.74 1.74 0 00-1.74 0l-3.26 1.88A.7.7 0 0096.69 171zM91.1 167.81l3.26 1.88a1.74 1.74 0 001.74 0l3.25-1.88a.7.7 0 000-1.21l-3.25-1.88a1.74 1.74 0 00-1.74 0L91.1 166.6A.7.7 0 0091.1 167.81zM175.87 215.47l3.25-1.88a1.74 1.74 0 011.74 0l3.25 1.88h0l5.58 3.22a.7.7 0 010 1.21l-3.25 1.88a1.74 1.74 0 01-1.74 0l-8.84-5.1a.71.71 0 010-1.22zM170.28 213.46l3.25 1.88a1.74 1.74 0 001.74 0l3.25-1.88a.7.7 0 000-1.22l-3.25-1.87a1.74 1.74 0 00-1.74 0l-3.25 1.87A.7.7 0 00170.28 213.46zM164.69 210.23l3.25 1.88a1.74 1.74 0 001.74 0l3.26-1.88a.7.7 0 000-1.21l-3.26-1.88a1.74 1.74 0 00-1.74 0L164.69 209A.7.7 0 00164.69 210.23zM159.1 207l3.25 1.88a1.74 1.74 0 001.74 0l3.25-1.88a.7.7 0 000-1.21l-3.25-1.88a1.74 1.74 0 00-1.74 0l-3.25 1.88A.7.7 0 00159.1 207zM153.51 203.78l3.25 1.87a1.7 1.7 0 001.74 0l3.26-1.87a.71.71 0 000-1.22l-3.26-1.87a1.7 1.7 0 00-1.74 0l-3.25 1.87A.7.7 0 00153.51 203.78zM147.92 200.55l3.25 1.88a1.74 1.74 0 001.74 0l3.26-1.88a.7.7 0 000-1.21l-3.26-1.88a1.74 1.74 0 00-1.74 0l-3.25 1.88A.7.7 0 00147.92 200.55zM142.33 197.32l3.25 1.88a1.74 1.74 0 001.74 0l3.26-1.88a.7.7 0 000-1.21l-3.26-1.88a1.74 1.74 0 00-1.74 0l-3.25 1.88A.7.7 0 00142.33 197.32zM136.74 194.1L140 196a1.74 1.74 0 001.74 0L145 194.1a.71.71 0 000-1.22L141.73 191a1.74 1.74 0 00-1.74 0l-3.25 1.88A.7.7 0 00136.74 194.1zM131.15 190.87l3.25 1.88a1.74 1.74 0 001.74 0l3.26-1.88a.7.7 0 000-1.21l-3.26-1.88a1.74 1.74 0 00-1.74 0l-3.25 1.88A.7.7 0 00131.15 190.87zM125.56 187.64l3.25 1.88a1.74 1.74 0 001.74 0l3.26-1.88a.7.7 0 000-1.21l-3.26-1.88a1.74 1.74 0 00-1.74 0l-3.25 1.88A.7.7 0 00125.56 187.64zM120 184.41l3.25 1.88a1.76 1.76 0 001.75 0l3.25-1.88a.7.7 0 000-1.21L125 181.32a1.76 1.76 0 00-1.75 0L120 183.2A.7.7 0 00120 184.41zM114.38 181.19l3.25 1.87a1.72 1.72 0 001.75 0l3.25-1.87a.7.7 0 000-1.22l-3.25-1.87a1.72 1.72 0 00-1.75 0L114.38 180A.7.7 0 00114.38 181.19zM170.1 218.8l3.25-1.88a1.76 1.76 0 011.75 0l3.25 1.88h0l5.59 3.23a.7.7 0 010 1.21l-3.25 1.88a1.76 1.76 0 01-1.75 0L170.1 220a.72.72 0 01-.35-.61A.71.71 0 01170.1 218.8zM164.51 216.79l3.25 1.87a1.72 1.72 0 001.75 0l3.25-1.87a.7.7 0 000-1.22l-3.25-1.87a1.72 1.72 0 00-1.75 0l-3.25 1.87A.7.7 0 00164.51 216.79zM158.92 213.56l3.25 1.88a1.76 1.76 0 001.75 0l3.25-1.88a.7.7 0 000-1.21l-3.25-1.88a1.76 1.76 0 00-1.75 0l-3.25 1.88A.7.7 0 00158.92 213.56zM153.33 210.33l3.26 1.88a1.74 1.74 0 001.74 0l3.25-1.88a.7.7 0 000-1.21l-3.25-1.88a1.74 1.74 0 00-1.74 0l-3.26 1.88A.7.7 0 00153.33 210.33zM147.74 207.11L151 209a1.74 1.74 0 001.74 0l3.25-1.87a.7.7 0 000-1.22L152.74 204a1.74 1.74 0 00-1.74 0l-3.26 1.88A.71.71 0 00147.74 207.11zM142.15 203.88l3.26 1.88a1.74 1.74 0 001.74 0l3.25-1.88a.7.7 0 000-1.22l-3.25-1.87a1.74 1.74 0 00-1.74 0l-3.26 1.87A.71.71 0 00142.15 203.88zM136.56 200.65l3.26 1.88a1.74 1.74 0 001.74 0l3.25-1.88a.7.7 0 000-1.21l-3.25-1.88a1.74 1.74 0 00-1.74 0l-3.26 1.88A.7.7 0 00136.56 200.65zM131 197.42l3.26 1.88a1.74 1.74 0 001.74 0l3.25-1.88a.7.7 0 000-1.21L136 194.33a1.74 1.74 0 00-1.74 0L131 196.21A.7.7 0 00131 197.42zM125.38 194.2l3.26 1.87a1.7 1.7 0 001.74 0l3.25-1.87a.7.7 0 000-1.22l-3.25-1.88a1.74 1.74 0 00-1.74 0L125.38 193A.71.71 0 00125.38 194.2zM119.79 191l3.26 1.88a1.74 1.74 0 001.74 0L128 191a.7.7 0 000-1.21l-3.25-1.88a1.74 1.74 0 00-1.74 0l-3.26 1.88A.7.7 0 00119.79 191zM114.21 187.74l3.25 1.88a1.74 1.74 0 001.74 0l3.25-1.88a.7.7 0 000-1.21l-3.25-1.88a1.74 1.74 0 00-1.74 0l-3.25 1.88A.7.7 0 00114.21 187.74z" class="color383838 svgShape"></path><path fill="#383838" d="M103 180.07l3.25-1.87h0l5.76-3.33a1.76 1.76 0 011.75 0l3.25 1.88a.7.7 0 010 1.21l-4.72 2.72 4.54 2.62a.7.7 0 010 1.22l-3.25 1.87a1.74 1.74 0 01-1.74 0l-8.84-5.1a.68.68 0 01-.35-.61A.7.7 0 01103 180.07zM158.44 219.34a.47.47 0 010-.17l.05 0a.77.77 0 01.22-.22L162 217a1.76 1.76 0 011.74 0L167 218.9h0l5.59 3.23h0l5.58 3.23a.7.7 0 010 1.21l-3.25 1.88a1.74 1.74 0 01-1.74 0l-14.43-8.33a.67.67 0 01-.35-.61h0A.53.53 0 01158.44 219.34zM153.16 216.89l3.25 1.88a1.74 1.74 0 001.74 0l3.25-1.88a.7.7 0 000-1.22l-3.25-1.87a1.7 1.7 0 00-1.74 0l-3.25 1.87A.7.7 0 00153.16 216.89zM147.57 213.66l3.25 1.88a1.74 1.74 0 001.74 0l3.25-1.88a.7.7 0 000-1.21l-3.25-1.88a1.74 1.74 0 00-1.74 0l-3.25 1.88A.7.7 0 00147.57 213.66zM142 210.43l3.25 1.88a1.74 1.74 0 001.74 0l3.26-1.88a.7.7 0 000-1.21L147 207.34a1.74 1.74 0 00-1.74 0L142 209.22A.7.7 0 00142 210.43zM136.39 207.21l3.25 1.88a1.74 1.74 0 001.74 0l3.26-1.88a.71.71 0 000-1.22l-3.26-1.88a1.74 1.74 0 00-1.74 0L136.39 206A.7.7 0 00136.39 207.21zM130.8 204l3.25 1.88a1.74 1.74 0 001.74 0l3.26-1.88a.7.7 0 000-1.21l-3.26-1.88a1.74 1.74 0 00-1.74 0l-3.25 1.88A.7.7 0 00130.8 204zM125.21 200.75l3.25 1.88a1.74 1.74 0 001.74 0l3.26-1.88a.7.7 0 000-1.21l-3.26-1.88a1.74 1.74 0 00-1.74 0l-3.25 1.88A.7.7 0 00125.21 200.75zM119.62 197.53l3.25 1.87a1.74 1.74 0 001.74 0l3.26-1.87a.71.71 0 000-1.22l-3.26-1.88a1.74 1.74 0 00-1.74 0l-3.25 1.88A.7.7 0 00119.62 197.53zM114 194.3l3.25 1.88a1.74 1.74 0 001.74 0l3.26-1.88a.71.71 0 000-1.22L119 191.21a1.7 1.7 0 00-1.74 0L114 193.08A.7.7 0 00114 194.3zM158.57 225.44l3.25-1.88a1.76 1.76 0 011.75 0l8.84 5.12a.7.7 0 010 1.22l-3.25 1.88a1.76 1.76 0 01-1.75 0l-5.52-3.2s0 0-.07 0l-3.25-1.88a.7.7 0 01-.35-.62A.68.68 0 01158.57 225.44zM153 223.44l3.25 1.88a1.76 1.76 0 001.75 0l3.25-1.88a.7.7 0 000-1.21L158 220.35a1.76 1.76 0 00-1.75 0L153 222.23A.7.7 0 00153 223.44zM147.39 220.22l3.25 1.87a1.76 1.76 0 001.75 0l3.25-1.87a.7.7 0 000-1.22l-3.25-1.88a1.76 1.76 0 00-1.75 0L147.39 219A.7.7 0 00147.39 220.22zM113.85 200.85l3.26 1.88a1.74 1.74 0 001.74 0l3.25-1.88a.7.7 0 000-1.21l-3.25-1.88a1.74 1.74 0 00-1.74 0l-3.26 1.88A.7.7 0 00113.85 200.85zM108.27 197.63l3.25 1.87a1.74 1.74 0 001.74 0l3.25-1.87a.7.7 0 000-1.22l-3.25-1.88a1.74 1.74 0 00-1.74 0l-3.25 1.88A.7.7 0 00108.27 197.63zM102.67 194.4l3.26 1.88a1.74 1.74 0 001.74 0l3.25-1.88a.7.7 0 000-1.22l-3.25-1.87a1.74 1.74 0 00-1.74 0l-3.26 1.87A.71.71 0 00102.67 194.4zM91.5 186.73l3.25-1.88a1.74 1.74 0 011.74 0l8.84 5.11a.7.7 0 010 1.21l-3.25 1.88a1.74 1.74 0 01-1.74 0l-8.84-5.11A.7.7 0 0191.5 186.73zM85.26 177.67l3.25 1.88a1.76 1.76 0 001.75 0l3.25-1.88a.7.7 0 000-1.21l-3.25-1.88a1.76 1.76 0 00-1.75 0l-3.25 1.88A.7.7 0 0085.26 177.67zM85.09 184.23l3.25 1.87a1.74 1.74 0 001.74 0l3.25-1.87a.7.7 0 000-1.22l-3.25-1.88a1.74 1.74 0 00-1.74 0L85.09 183A.7.7 0 0085.09 184.23zM79.5 181l3.25 1.88a1.74 1.74 0 001.74 0L87.74 181a.7.7 0 000-1.22l-3.25-1.87a1.74 1.74 0 00-1.74 0l-3.25 1.87A.7.7 0 0079.5 181zM73.91 177.77l3.25 1.88a1.74 1.74 0 001.74 0l3.25-1.88a.7.7 0 000-1.21l-3.25-1.88a1.74 1.74 0 00-1.74 0l-3.25 1.88A.7.7 0 0073.91 177.77zM119.44 202.87L122.7 201a1.74 1.74 0 011.74 0l25.61 14.79a.7.7 0 010 1.21l-3.25 1.88a1.76 1.76 0 01-1.75 0L122.7 206h0l-3.26-1.88A.7.7 0 01119.44 202.87zM97.26 184.62L111.69 193a1.76 1.76 0 001.75 0l3.25-1.88a.7.7 0 000-1.22l-14.43-8.33a1.76 1.76 0 00-1.75 0l-3.25 1.88A.7.7 0 0097.26 184.62z" class="color383838 svgShape"></path><path fill="#6929c2" d="M113,167l3.26,1.87a.71.71,0,0,1,0,1.22L113,171.92a1.74,1.74,0,0,1-1.74,0L108.05,170a.7.7,0,0,1,0-1.22L111.3,167A1.74,1.74,0,0,1,113,167Z" class="color969a9f svgShape"></path><path fill="#383838" d="M112.17,172.35a2,2,0,0,1-1-.26L108,170.21a.89.89,0,0,1-.45-.78.91.91,0,0,1,.45-.78l3.25-1.88a2,2,0,0,1,1.94,0l3.25,1.88a.89.89,0,0,1,.45.78.87.87,0,0,1-.45.78l-3.25,1.88A2,2,0,0,1,112.17,172.35Zm0-5.44a1.51,1.51,0,0,0-.77.21L108.15,169a.48.48,0,0,0-.25.43.5.5,0,0,0,.25.44l3.25,1.87a1.52,1.52,0,0,0,1.54,0l3.26-1.87a.52.52,0,0,0,.25-.44.5.5,0,0,0-.25-.43l-3.26-1.88A1.49,1.49,0,0,0,112.17,166.91Z" class="color383838 svgShape"></path><path fill="#6929c2" d="M158.68,193.24l3.25,1.87a.7.7,0,0,1,0,1.22l-3.25,1.88a1.74,1.74,0,0,1-1.74,0l-3.26-1.88a.71.71,0,0,1,0-1.22l3.26-1.87A1.7,1.7,0,0,1,158.68,193.24Z" class="color969a9f svgShape"></path><path fill="#383838" d="M157.81,198.64a2,2,0,0,1-1-.26l-3.26-1.88a.89.89,0,0,1-.45-.78.91.91,0,0,1,.45-.78l3.26-1.88a2,2,0,0,1,1.94,0l3.25,1.88a.91.91,0,0,1,.45.78.89.89,0,0,1-.45.78l-3.25,1.88A2,2,0,0,1,157.81,198.64Zm0-5.44a1.49,1.49,0,0,0-.77.21l-3.26,1.88a.48.48,0,0,0-.25.43.5.5,0,0,0,.25.44L157,198a1.52,1.52,0,0,0,1.54,0l3.25-1.87a.5.5,0,0,0,.25-.44.51.51,0,0,0-.25-.44l-3.25-1.87A1.54,1.54,0,0,0,157.81,193.2Z" class="color383838 svgShape"></path><path fill="#6929c2" d="M151.35,190a1.74,1.74,0,0,1,1.74,0l3.25,1.88a.7.7,0,0,1,0,1.21L153.09,195a1.74,1.74,0,0,1-1.74,0l-3.26-1.88a.7.7,0,0,1,0-1.21Z" class="color969a9f svgShape"></path><path fill="#383838" d="M152.22,195.41a2,2,0,0,1-1-.26L148,193.27a.9.9,0,0,1,0-1.55l3.26-1.88a1.92,1.92,0,0,1,1.94,0l3.25,1.88a.89.89,0,0,1,0,1.55l-3.25,1.88A2,2,0,0,1,152.22,195.41Zm-.77-5.23-3.26,1.88a.5.5,0,0,0,0,.87l3.26,1.88a1.57,1.57,0,0,0,1.54,0l3.25-1.88a.5.5,0,0,0,0-.87L153,190.18A1.57,1.57,0,0,0,151.45,190.18Z" class="color383838 svgShape"></path><path fill="#6929c2" d="M169.68,206.24l3.26,1.88a.71.71,0,0,1,0,1.22l-3.26,1.87a1.7,1.7,0,0,1-1.74,0l-3.25-1.87a.7.7,0,0,1,0-1.22l3.25-1.88A1.74,1.74,0,0,1,169.68,206.24Z" class="color969a9f svgShape"></path><path fill="#383838" d="M168.81,211.65a2,2,0,0,1-1-.26l-3.25-1.88a.89.89,0,0,1-.45-.78.91.91,0,0,1,.45-.78l3.25-1.88a2,2,0,0,1,1.94,0L173,208a.9.9,0,0,1,0,1.56l-3.25,1.88A2,2,0,0,1,168.81,211.65Zm0-5.44a1.51,1.51,0,0,0-.77.21l-3.25,1.88a.49.49,0,0,0-.26.43.51.51,0,0,0,.26.44L168,211a1.52,1.52,0,0,0,1.54,0l3.26-1.87a.52.52,0,0,0,.25-.44.53.53,0,0,0-.25-.44l-3.26-1.87A1.51,1.51,0,0,0,168.81,206.21Z" class="color383838 svgShape"></path><path fill="#6929c2" d="M164.09,203l3.25,1.88a.7.7,0,0,1,0,1.21L164.09,208a1.74,1.74,0,0,1-1.74,0l-3.25-1.88a.7.7,0,0,1,0-1.21l3.25-1.88A1.74,1.74,0,0,1,164.09,203Z" class="color969a9f svgShape"></path><path fill="#383838" d="M163.22,208.42a2,2,0,0,1-1-.26L159,206.28a.89.89,0,0,1-.45-.78.91.91,0,0,1,.45-.78l3.25-1.87a1.92,1.92,0,0,1,1.94,0l3.25,1.87a.89.89,0,0,1,.45.78.87.87,0,0,1-.45.78l-3.25,1.88A2,2,0,0,1,163.22,208.42Zm0-5.44a1.51,1.51,0,0,0-.77.21l-3.25,1.88a.48.48,0,0,0-.25.43.5.5,0,0,0,.25.44l3.25,1.88a1.57,1.57,0,0,0,1.54,0l3.26-1.88a.52.52,0,0,0,.25-.44.5.5,0,0,0-.25-.43L164,203.19A1.51,1.51,0,0,0,163.22,203Z" class="color383838 svgShape"></path><path fill="#6929c2" d="M119.55,170.65l8.84,5.1a.7.7,0,0,1,0,1.21l-3.25,1.88a1.74,1.74,0,0,1-1.74,0L120.15,177h0l-5.58-3.22a.7.7,0,0,1,0-1.22l3.25-1.87A1.7,1.7,0,0,1,119.55,170.65Z" class="color969a9f svgShape"></path><path fill="#383838" d="M124.27,179.27a1.86,1.86,0,0,1-1-.26l-8.84-5.1a.89.89,0,0,1-.45-.78.91.91,0,0,1,.45-.78l3.25-1.88a2,2,0,0,1,1.94,0l8.84,5.11a.89.89,0,0,1,.45.78.91.91,0,0,1-.45.78L125.24,179A1.86,1.86,0,0,1,124.27,179.27Zm-4-2.45,3.2,1.85a1.52,1.52,0,0,0,1.54,0l3.25-1.88a.47.47,0,0,0,.25-.43.47.47,0,0,0-.25-.44l-8.84-5.1a1.52,1.52,0,0,0-1.54,0l-3.25,1.88a.49.49,0,0,0-.26.43.51.51,0,0,0,.26.44Z" class="color383838 svgShape"></path><path fill="#6929c2" d="M136.32,180.33l3.25,1.88a.7.7,0,0,1,0,1.21l-3.25,1.88a1.74,1.74,0,0,1-1.74,0l-3.26-1.88a.7.7,0,0,1,0-1.21l3.26-1.88A1.74,1.74,0,0,1,136.32,180.33Z" class="color969a9f svgShape"></path><path fill="#383838" d="M135.45,185.73a2,2,0,0,1-1-.26l-3.25-1.88a.87.87,0,0,1-.45-.78.89.89,0,0,1,.45-.78l3.25-1.87a1.92,1.92,0,0,1,1.94,0l3.25,1.87a.91.91,0,0,1,.45.78.89.89,0,0,1-.45.78l-3.25,1.88A2,2,0,0,1,135.45,185.73Zm0-5.44a1.49,1.49,0,0,0-.77.21l-3.26,1.88a.5.5,0,0,0-.25.43.52.52,0,0,0,.25.44l3.26,1.87a1.52,1.52,0,0,0,1.54,0l3.25-1.87a.51.51,0,0,0,.26-.44.49.49,0,0,0-.26-.43l-3.25-1.88A1.51,1.51,0,0,0,135.45,180.29Z" class="color383838 svgShape"></path><path fill="#6929c2" d="M147.32,193.34l3.26,1.88a.7.7,0,0,1,0,1.21l-3.26,1.88a1.74,1.74,0,0,1-1.74,0l-3.25-1.88a.7.7,0,0,1,0-1.21l3.25-1.88A1.74,1.74,0,0,1,147.32,193.34Z" class="color969a9f svgShape"></path><path fill="#383838" d="M146.45,198.74a2,2,0,0,1-1-.26l-3.25-1.88a.89.89,0,0,1-.45-.78.91.91,0,0,1,.45-.78l3.25-1.88a2,2,0,0,1,1.94,0l3.26,1.87a.9.9,0,0,1,.44.78.86.86,0,0,1-.44.78l-3.26,1.88A2,2,0,0,1,146.45,198.74Zm0-5.44a1.54,1.54,0,0,0-.77.21l-3.25,1.88a.48.48,0,0,0-.25.43.5.5,0,0,0,.25.44l3.25,1.87a1.52,1.52,0,0,0,1.54,0l3.26-1.87a.5.5,0,0,0,0-.87l-3.26-1.88A1.49,1.49,0,0,0,146.45,193.3Z" class="color383838 svgShape"></path><path fill="#6929c2" d="M173.71,202.92a1.74,1.74,0,0,1,1.74,0l3.25,1.88a.7.7,0,0,1,0,1.21l-3.25,1.88a1.74,1.74,0,0,1-1.74,0L170.45,206a.7.7,0,0,1,0-1.21Z" class="color969a9f svgShape"></path><path fill="#383838" d="M174.58,208.32a2,2,0,0,1-1-.26l-3.26-1.88a.89.89,0,0,1-.45-.78.91.91,0,0,1,.45-.78l3.26-1.87a1.92,1.92,0,0,1,1.94,0l3.25,1.87a.91.91,0,0,1,.45.78.89.89,0,0,1-.45.78l-3.25,1.88A2,2,0,0,1,174.58,208.32Zm-.78-5.23L170.55,205a.48.48,0,0,0-.25.43.5.5,0,0,0,.25.44l3.25,1.88a1.58,1.58,0,0,0,1.55,0l3.25-1.88a.5.5,0,0,0,.25-.44.48.48,0,0,0-.25-.43l-3.25-1.88a1.54,1.54,0,0,0-1.55,0Z" class="color383838 svgShape"></path><path fill="#6929c2" d="M130.73,177.1,134,179a.7.7,0,0,1,0,1.21l-3.25,1.88a1.74,1.74,0,0,1-1.74,0l-3.25-1.88a.7.7,0,0,1,0-1.21L129,177.1A1.74,1.74,0,0,1,130.73,177.1Z" class="color969a9f svgShape"></path><path fill="#383838" d="M129.86,182.5a2,2,0,0,1-1-.26l-3.25-1.88a.89.89,0,0,1,0-1.55l3.25-1.88a1.92,1.92,0,0,1,1.94,0l3.25,1.88a.89.89,0,0,1,0,1.55l-3.25,1.88A2,2,0,0,1,129.86,182.5Zm0-5.43a1.5,1.5,0,0,0-.77.2l-3.25,1.88a.49.49,0,0,0,0,.87l3.25,1.88a1.57,1.57,0,0,0,1.54,0l3.25-1.88a.49.49,0,0,0,0-.87l-3.25-1.88A1.5,1.5,0,0,0,129.86,177.07Z" class="color383838 svgShape"></path><path fill="#6929c2" d="M141.73,190.11,145,192a.7.7,0,0,1,0,1.21l-3.26,1.88a1.74,1.74,0,0,1-1.74,0l-3.25-1.88a.7.7,0,0,1,0-1.21l3.25-1.88A1.74,1.74,0,0,1,141.73,190.11Z" class="color969a9f svgShape"></path><path fill="#383838" d="M140.86,195.51a2,2,0,0,1-1-.26l-3.25-1.88a.89.89,0,0,1,0-1.55l3.25-1.88a1.92,1.92,0,0,1,1.94,0l3.26,1.88a.9.9,0,0,1,0,1.55l-3.26,1.88A2,2,0,0,1,140.86,195.51Zm0-5.43a1.53,1.53,0,0,0-.77.2l-3.25,1.88a.5.5,0,0,0,0,.87l3.25,1.88a1.57,1.57,0,0,0,1.54,0l3.26-1.88a.5.5,0,0,0,0-.87l-3.26-1.88A1.48,1.48,0,0,0,140.86,190.08Z" class="color383838 svgShape"></path><path fill="#6929c2" d="M139.4,190l-3.26,1.88a1.74,1.74,0,0,1-1.74,0L131.15,190a.7.7,0,0,1,0-1.21l3.25-1.88a1.74,1.74,0,0,1,1.74,0l3.26,1.88A.7.7,0,0,1,139.4,190Z" class="color969a9f svgShape"></path><path fill="#383838" d="M135.27,192.28a1.88,1.88,0,0,1-1-.26l-3.25-1.87a.91.91,0,0,1-.45-.78.89.89,0,0,1,.45-.78l3.25-1.88a2,2,0,0,1,1.94,0l3.26,1.88a.89.89,0,0,1,.45.78.91.91,0,0,1-.45.78L136.24,192A1.86,1.86,0,0,1,135.27,192.28Zm0-5.43a1.64,1.64,0,0,0-.77.2l-3.25,1.88a.5.5,0,0,0-.25.44.48.48,0,0,0,.25.43l3.25,1.88a1.54,1.54,0,0,0,1.55,0l3.25-1.88a.48.48,0,0,0,.25-.43.5.5,0,0,0-.25-.44l-3.25-1.88A1.65,1.65,0,0,0,135.27,186.85Z" class="color383838 svgShape"></path><path fill="#6929c2" d="M161.76,202.88l-3.26,1.88a1.74,1.74,0,0,1-1.74,0l-3.25-1.88a.7.7,0,0,1,0-1.21l3.25-1.88a1.74,1.74,0,0,1,1.74,0l3.26,1.88A.7.7,0,0,1,161.76,202.88Z" class="color969a9f svgShape"></path><path fill="#383838" d="M157.63,205.19a1.88,1.88,0,0,1-1-.26l-3.25-1.87a.91.91,0,0,1-.45-.79.88.88,0,0,1,.45-.77l3.25-1.88a1.92,1.92,0,0,1,1.94,0l3.25,1.88a.89.89,0,0,1,0,1.55h0l-3.25,1.87A1.86,1.86,0,0,1,157.63,205.19Zm0-5.43a1.5,1.5,0,0,0-.77.2l-3.25,1.88a.5.5,0,0,0,0,.87l3.25,1.88a1.54,1.54,0,0,0,1.54,0l3.26-1.88a.5.5,0,0,0,0-.87L158.4,200A1.48,1.48,0,0,0,157.63,199.76Z" class="color383838 svgShape"></path><path fill="#6929c2" d="M134.05,205l-3.25-1.88a.7.7,0,0,1,0-1.21l3.25-1.88a1.74,1.74,0,0,1,1.74,0l3.26,1.88a.7.7,0,0,1,0,1.21L135.79,205A1.74,1.74,0,0,1,134.05,205Z" class="color969a9f svgShape"></path><path fill="#383838" d="M134.92,205.39a2,2,0,0,1-1-.25l-3.25-1.88a.91.91,0,0,1-.45-.78.89.89,0,0,1,.45-.78l3.25-1.88a2,2,0,0,1,1.94,0l3.26,1.88a.88.88,0,0,1,.44.78.9.9,0,0,1-.44.78l-3.26,1.88A2,2,0,0,1,134.92,205.39Zm-.77-.6a1.52,1.52,0,0,0,1.54,0l3.26-1.88a.5.5,0,0,0,.25-.43A.52.52,0,0,0,139,202l-3.26-1.87a1.52,1.52,0,0,0-1.54,0L130.9,202a.5.5,0,0,0-.25.44.48.48,0,0,0,.25.43Z" class="color383838 svgShape"></path><path fill="#6929c2" d="M139.64,208.19l-3.25-1.88a.7.7,0,0,1,0-1.21l3.25-1.88a1.74,1.74,0,0,1,1.74,0l3.26,1.88a.7.7,0,0,1,0,1.21l-3.26,1.88A1.74,1.74,0,0,1,139.64,208.19Z" class="color969a9f svgShape"></path><path fill="#383838" d="M140.51,208.62a2,2,0,0,1-1-.26l-3.25-1.88a.89.89,0,0,1,0-1.55l3.25-1.88a1.92,1.92,0,0,1,1.94,0l3.25,1.88a.89.89,0,0,1,0,1.55l-3.25,1.88A2,2,0,0,1,140.51,208.62Zm-.77-.6a1.57,1.57,0,0,0,1.54,0l3.26-1.88a.5.5,0,0,0,0-.87l-3.26-1.88a1.54,1.54,0,0,0-1.54,0l-3.25,1.88a.5.5,0,0,0,0,.87Z" class="color383838 svgShape"></path><path fill="#6929c2" d="M145.23,211.42,142,209.54a.7.7,0,0,1,0-1.21l3.25-1.88a1.74,1.74,0,0,1,1.74,0l3.26,1.88a.7.7,0,0,1,0,1.21L147,211.42A1.74,1.74,0,0,1,145.23,211.42Z" class="color969a9f svgShape"></path><path fill="#383838" d="M146.1,211.85a2,2,0,0,1-1-.26l-3.25-1.88a.89.89,0,0,1-.45-.78.91.91,0,0,1,.45-.78l3.25-1.87a1.92,1.92,0,0,1,1.94,0l3.25,1.87a.89.89,0,0,1,.45.78.87.87,0,0,1-.45.78l-3.25,1.88A2,2,0,0,1,146.1,211.85Zm0-5.44a1.51,1.51,0,0,0-.77.21l-3.25,1.88a.49.49,0,0,0-.26.43.51.51,0,0,0,.26.44l3.25,1.88a1.57,1.57,0,0,0,1.54,0l3.26-1.88a.52.52,0,0,0,.25-.44.5.5,0,0,0-.25-.43l-3.26-1.88A1.51,1.51,0,0,0,146.1,206.41Z" class="color383838 svgShape"></path><path fill="#6929c2" d="M122.87,198.51l-3.25-1.88a.7.7,0,0,1,0-1.21l3.25-1.88a1.74,1.74,0,0,1,1.74,0l3.26,1.88a.7.7,0,0,1,0,1.21l-3.26,1.88A1.74,1.74,0,0,1,122.87,198.51Z" class="color969a9f svgShape"></path><path fill="#383838" d="M123.74,198.94a2,2,0,0,1-1-.26l-3.25-1.88a.89.89,0,0,1-.45-.78.91.91,0,0,1,.45-.78l3.25-1.87a1.92,1.92,0,0,1,1.94,0l3.26,1.87a.91.91,0,0,1,.45.78.89.89,0,0,1-.45.78l-3.26,1.88A2,2,0,0,1,123.74,198.94Zm0-5.44a1.54,1.54,0,0,0-.77.21l-3.25,1.88a.5.5,0,0,0,0,.87l3.25,1.88a1.57,1.57,0,0,0,1.54,0l3.26-1.88a.5.5,0,0,0,0-.87l-3.26-1.88A1.49,1.49,0,0,0,123.74,193.5Z" class="color383838 svgShape"></path><path fill="#6929c2" d="M128.46,201.74l-3.25-1.88a.7.7,0,0,1,0-1.22l3.25-1.87a1.7,1.7,0,0,1,1.74,0l3.26,1.87a.71.71,0,0,1,0,1.22l-3.26,1.88A1.74,1.74,0,0,1,128.46,201.74Z" class="color969a9f svgShape"></path><path fill="#383838" d="M129.33,202.17a2,2,0,0,1-1-.26L125.11,200a.89.89,0,0,1-.45-.78.91.91,0,0,1,.45-.78l3.25-1.88a2,2,0,0,1,1.94,0l3.26,1.87a.9.9,0,0,1,.44.78.88.88,0,0,1-.44.78l-3.26,1.88A2,2,0,0,1,129.33,202.17Zm0-5.44a1.54,1.54,0,0,0-.77.21l-3.25,1.88a.48.48,0,0,0-.25.43.5.5,0,0,0,.25.44l3.25,1.87a1.52,1.52,0,0,0,1.54,0l3.26-1.87a.52.52,0,0,0,.25-.44.53.53,0,0,0-.25-.44l-3.26-1.87A1.49,1.49,0,0,0,129.33,196.73Z" class="color383838 svgShape"></path><path fill="#6929c2" d="M175.27,214.44a1.74,1.74,0,0,1-1.74,0l-3.25-1.87a.7.7,0,0,1,0-1.22l3.25-1.88a1.74,1.74,0,0,1,1.74,0l3.25,1.88a.7.7,0,0,1,0,1.22Z" class="color969a9f svgShape"></path><path fill="#383838" d="M174.4,214.87a1.88,1.88,0,0,1-1-.26l-3.25-1.87a.91.91,0,0,1-.45-.78.89.89,0,0,1,.45-.78l3.25-1.88a2,2,0,0,1,1.94,0l3.25,1.88a.9.9,0,0,1,0,1.56l-3.25,1.87A1.86,1.86,0,0,1,174.4,214.87Zm0-5.43a1.61,1.61,0,0,0-.77.2l-3.25,1.88a.51.51,0,0,0-.26.44.49.49,0,0,0,.26.43l3.25,1.88a1.52,1.52,0,0,0,1.54,0l3.26-1.88a.5.5,0,0,0,.25-.43.52.52,0,0,0-.25-.44l-3.26-1.88A1.61,1.61,0,0,0,174.4,209.44Z" class="color383838 svgShape"></path><path fill="#6929c2" d="M169.51,217.77a1.76,1.76,0,0,1-1.75,0l-3.25-1.88a.7.7,0,0,1,0-1.21l3.25-1.88a1.76,1.76,0,0,1,1.75,0l3.25,1.88a.7.7,0,0,1,0,1.21Z" class="color969a9f svgShape"></path><path fill="#383838" d="M168.64,218.2a2,2,0,0,1-1-.26l-3.25-1.88a.89.89,0,0,1,0-1.55l3.25-1.88a1.94,1.94,0,0,1,2,0l3.25,1.88a.89.89,0,0,1,0,1.55l-3.25,1.88A2,2,0,0,1,168.64,218.2Zm0-5.43a1.53,1.53,0,0,0-.77.2l-3.25,1.88a.5.5,0,0,0,0,.87l3.25,1.88a1.58,1.58,0,0,0,1.55,0h0l3.25-1.88a.5.5,0,0,0,0-.87L169.41,213A1.54,1.54,0,0,0,168.63,212.77Z" class="color383838 svgShape"></path><path fill="#6929c2" d="M181,206.14l3.25,1.88a.7.7,0,0,1,0,1.22L181,211.11a1.72,1.72,0,0,1-1.75,0L176,209.24a.7.7,0,0,1,0-1.22l3.25-1.88A1.76,1.76,0,0,1,181,206.14Z" class="color969a9f svgShape"></path><path fill="#383838" d="M180.17,211.54a2,2,0,0,1-1-.25l-3.25-1.88a.91.91,0,0,1-.45-.78.9.9,0,0,1,.45-.78l3.25-1.88a2,2,0,0,1,1.95,0l3.25,1.88a.9.9,0,0,1,.45.78.91.91,0,0,1-.45.78l-3.25,1.88A2,2,0,0,1,180.17,211.54Zm0-5.43a1.55,1.55,0,0,0-.78.21l-3.25,1.87a.51.51,0,0,0,0,.88l3.25,1.87a1.54,1.54,0,0,0,1.55,0l3.25-1.88a.48.48,0,0,0,.25-.43.51.51,0,0,0-.25-.44l-3.25-1.87A1.54,1.54,0,0,0,180.17,206.11Z" class="color383838 svgShape"></path><path fill="#6929c2" d="M158.15,217.87a1.74,1.74,0,0,1-1.74,0L153.16,216a.7.7,0,0,1,0-1.21l3.25-1.88a1.74,1.74,0,0,1,1.74,0l3.25,1.88a.7.7,0,0,1,0,1.21Z" class="color969a9f svgShape"></path><path fill="#383838" d="M157.28,218.3a1.88,1.88,0,0,1-1-.26l-3.25-1.88a.89.89,0,0,1,0-1.55l3.25-1.88a1.92,1.92,0,0,1,1.94,0l3.25,1.88a.89.89,0,0,1,0,1.55L158.25,218h0A1.86,1.86,0,0,1,157.28,218.3Zm0-5.43a1.61,1.61,0,0,0-.77.2L153.26,215a.49.49,0,0,0,0,.87l3.25,1.88a1.54,1.54,0,0,0,1.54,0h0l3.26-1.88a.5.5,0,0,0,0-.87l-3.26-1.88A1.61,1.61,0,0,0,157.28,212.87Z" class="color383838 svgShape"></path><path fill="#6929c2" d="M162.17,214.54l-3.25-1.87a.7.7,0,0,1,0-1.22l3.25-1.88a1.76,1.76,0,0,1,1.75,0l3.25,1.88a.7.7,0,0,1,0,1.22l-3.25,1.87A1.76,1.76,0,0,1,162.17,214.54Z" class="color969a9f svgShape"></path><path fill="#383838" d="M163.05,215a1.92,1.92,0,0,1-1-.25l-3.26-1.88a.91.91,0,0,1-.45-.78.89.89,0,0,1,.45-.78l3.26-1.88a2,2,0,0,1,1.94,0l3.25,1.88a.89.89,0,0,1,.45.78.91.91,0,0,1-.45.78L164,214.72A2,2,0,0,1,163.05,215Zm-.78-.6a1.54,1.54,0,0,0,1.55,0l3.25-1.88a.48.48,0,0,0,.25-.43.5.5,0,0,0-.25-.44l-3.25-1.88a1.58,1.58,0,0,0-1.55,0L159,211.62a.5.5,0,0,0-.25.44.48.48,0,0,0,.25.43Z" class="color383838 svgShape"></path><path fill="#6929c2" d="M150.82,214.64l-3.25-1.87a.7.7,0,0,1,0-1.22l3.25-1.88a1.74,1.74,0,0,1,1.74,0l3.25,1.88a.7.7,0,0,1,0,1.22l-3.25,1.87A1.7,1.7,0,0,1,150.82,214.64Z" class="color969a9f svgShape"></path><path fill="#383838" d="M151.69,215.07a2,2,0,0,1-1-.25l-3.25-1.88a.91.91,0,0,1-.45-.78.89.89,0,0,1,.45-.78l3.25-1.88a2,2,0,0,1,1.94,0l3.25,1.88a.89.89,0,0,1,.45.78.91.91,0,0,1-.45.78l-3.25,1.88A2,2,0,0,1,151.69,215.07Zm-.77-.6a1.52,1.52,0,0,0,1.54,0l3.25-1.88a.49.49,0,0,0,.26-.43.51.51,0,0,0-.26-.44l-3.25-1.87a1.52,1.52,0,0,0-1.54,0l-3.25,1.87a.5.5,0,0,0,0,.87Z" class="color383838 svgShape"></path><path fill="#6929c2" d="M151,208.09l-3.26-1.88a.7.7,0,0,1,0-1.21l3.26-1.88a1.74,1.74,0,0,1,1.74,0L156,205a.7.7,0,0,1,0,1.21l-3.25,1.88A1.74,1.74,0,0,1,151,208.09Z" class="color969a9f svgShape"></path><path fill="#383838" d="M151.87,208.52a2,2,0,0,1-1-.26l-3.26-1.88a.89.89,0,0,1,0-1.55L150.9,203a1.92,1.92,0,0,1,1.94,0l3.25,1.88a.89.89,0,0,1,0,1.55l-3.25,1.88A2,2,0,0,1,151.87,208.52Zm-.77-.6a1.57,1.57,0,0,0,1.54,0l3.25-1.88a.5.5,0,0,0,0-.87l-3.25-1.88a1.57,1.57,0,0,0-1.54,0l-3.26,1.88a.5.5,0,0,0,0,.87l3.26,1.88Z" class="color383838 svgShape"></path><path fill="#6929c2" d="M117.28,195.28,114,193.4a.7.7,0,0,1,0-1.21l3.25-1.88a1.74,1.74,0,0,1,1.74,0l3.26,1.88a.7.7,0,0,1,0,1.21L119,195.28A1.74,1.74,0,0,1,117.28,195.28Z" class="color969a9f svgShape"></path><path fill="#383838" d="M118.15,195.71a1.88,1.88,0,0,1-1-.26l-3.25-1.88a.89.89,0,0,1,0-1.55l3.25-1.88a2,2,0,0,1,1.94,0l3.26,1.88a.89.89,0,0,1,0,1.55l-3.26,1.88A1.86,1.86,0,0,1,118.15,195.71Zm0-5.43a1.64,1.64,0,0,0-.77.2l-3.25,1.88a.5.5,0,0,0-.25.44.48.48,0,0,0,.25.43l3.25,1.88a1.57,1.57,0,0,0,1.54,0l3.26-1.88a.48.48,0,0,0,.25-.43.5.5,0,0,0-.25-.44l-3.26-1.88A1.58,1.58,0,0,0,118.15,190.28Z" class="color383838 svgShape"></path><path fill="#6929c2" d="M101.86,160.49l3.26,1.88a.7.7,0,0,1,0,1.21l-3.26,1.88a1.74,1.74,0,0,1-1.74,0l-3.25-1.88a.7.7,0,0,1,0-1.21l3.25-1.88A1.74,1.74,0,0,1,101.86,160.49Z" class="color969a9f svgShape"></path><path fill="#383838" d="M101,165.89a1.88,1.88,0,0,1-1-.26l-3.25-1.87a.91.91,0,0,1-.45-.78.89.89,0,0,1,.45-.78l3.25-1.88a2,2,0,0,1,1.94,0h0l3.26,1.88a.88.88,0,0,1,.44.78.85.85,0,0,1-.44.77L102,165.63A1.86,1.86,0,0,1,101,165.89Zm0-5.43a1.64,1.64,0,0,0-.77.2L97,162.54a.5.5,0,0,0-.25.44.48.48,0,0,0,.25.43l3.25,1.88a1.52,1.52,0,0,0,1.54,0l3.26-1.88a.48.48,0,0,0,.25-.43.52.52,0,0,0-.25-.44l-3.26-1.88A1.58,1.58,0,0,0,101,160.46Z" class="color383838 svgShape"></path><path fill="#6929c2" d="M107.45,163.72l3.26,1.88a.7.7,0,0,1,0,1.21l-3.26,1.88a1.74,1.74,0,0,1-1.74,0l-3.25-1.88a.7.7,0,0,1,0-1.21l3.25-1.88A1.74,1.74,0,0,1,107.45,163.72Z" class="color969a9f svgShape"></path><path fill="#383838" d="M106.58,169.12a2,2,0,0,1-1-.26L102.36,167a.89.89,0,0,1-.45-.78.91.91,0,0,1,.45-.78l3.25-1.87a1.92,1.92,0,0,1,1.94,0l3.25,1.87a.89.89,0,0,1,.45.78.87.87,0,0,1-.45.78l-3.25,1.88A2,2,0,0,1,106.58,169.12Zm0-5.44a1.54,1.54,0,0,0-.77.21l-3.25,1.88a.5.5,0,0,0,0,.87l3.25,1.88a1.57,1.57,0,0,0,1.54,0l3.26-1.88a.5.5,0,0,0,0-.87l-3.26-1.88A1.49,1.49,0,0,0,106.58,163.68Z" class="color383838 svgShape"></path><path fill="#6929c2" d="M130.55,183.65l3.26,1.88a.7.7,0,0,1,0,1.22l-3.26,1.88a1.74,1.74,0,0,1-1.74,0l-3.25-1.88a.7.7,0,0,1,0-1.22l3.25-1.88A1.74,1.74,0,0,1,130.55,183.65Z" class="color969a9f svgShape"></path><path fill="#383838" d="M129.68,189.06a2,2,0,0,1-1-.26l-3.25-1.88a.89.89,0,0,1-.45-.78.9.9,0,0,1,.45-.78l3.25-1.88a2,2,0,0,1,1.94,0l3.26,1.88a.9.9,0,0,1,.45.78.89.89,0,0,1-.45.78l-3.26,1.88A2,2,0,0,1,129.68,189.06Zm0-5.44a1.54,1.54,0,0,0-.77.21l-3.25,1.88a.48.48,0,0,0-.25.43.5.5,0,0,0,.25.44l3.25,1.87a1.54,1.54,0,0,0,1.55,0l3.25-1.87a.5.5,0,0,0,.25-.44.51.51,0,0,0-.25-.44l-3.25-1.87A1.55,1.55,0,0,0,129.68,183.62Z" class="color383838 svgShape"></path><path fill="#6929c2" d="M102.28,172.16l3.26-1.88a1.74,1.74,0,0,1,1.74,0l3.25,1.88a.7.7,0,0,1,0,1.21l-3.25,1.88a1.74,1.74,0,0,1-1.74,0l-3.26-1.88A.7.7,0,0,1,102.28,172.16Z" class="color969a9f svgShape"></path><path fill="#383838" d="M106.41,175.68a1.86,1.86,0,0,1-1-.26l-3.26-1.87a.91.91,0,0,1-.45-.78.89.89,0,0,1,.45-.78l3.26-1.88a2,2,0,0,1,1.94,0l3.25,1.88a.89.89,0,0,1,.45.78.91.91,0,0,1-.45.78l-3.25,1.87A1.88,1.88,0,0,1,106.41,175.68Zm0-5.43a1.58,1.58,0,0,0-.77.2l-3.26,1.88a.5.5,0,0,0-.25.44.48.48,0,0,0,.25.43l3.26,1.88a1.57,1.57,0,0,0,1.54,0l3.25-1.88a.48.48,0,0,0,.25-.43.5.5,0,0,0-.25-.44l-3.25-1.88A1.64,1.64,0,0,0,106.41,170.25Z" class="color383838 svgShape"></path><path fill="#6929c2" d="M123.05,192l-3.26-1.87a.71.71,0,0,1,0-1.22l3.26-1.88a1.74,1.74,0,0,1,1.74,0l3.25,1.88a.7.7,0,0,1,0,1.22L124.79,192A1.74,1.74,0,0,1,123.05,192Z" class="color969a9f svgShape"></path><path fill="#383838" d="M123.92,192.38a2,2,0,0,1-1-.25l-3.25-1.88a.89.89,0,0,1-.45-.78.87.87,0,0,1,.45-.78l3.25-1.88a2,2,0,0,1,1.94,0l3.25,1.88a.89.89,0,0,1,.45.78.91.91,0,0,1-.45.78l-3.25,1.88A2,2,0,0,1,123.92,192.38Zm0-5.43a1.49,1.49,0,0,0-.77.21L119.89,189a.52.52,0,0,0-.25.44.5.5,0,0,0,.25.43l3.26,1.88a1.52,1.52,0,0,0,1.54,0l3.25-1.88a.48.48,0,0,0,.25-.43.5.5,0,0,0-.25-.44l-3.25-1.87A1.54,1.54,0,0,0,123.92,187Z" class="color383838 svgShape"></path><path fill="#6929c2" d="M117.63,182.17l-3.25-1.88a.7.7,0,0,1,0-1.21l3.25-1.88a1.76,1.76,0,0,1,1.75,0l3.25,1.88a.7.7,0,0,1,0,1.21l-3.25,1.88A1.76,1.76,0,0,1,117.63,182.17Z" class="color969a9f svgShape"></path><path fill="#383838" d="M118.5,182.6a1.88,1.88,0,0,1-1-.26h0l-3.25-1.88a.89.89,0,0,1,0-1.55l3.25-1.88a2,2,0,0,1,1.94,0l3.26,1.88a.89.89,0,0,1,0,1.55l-3.26,1.88A1.83,1.83,0,0,1,118.5,182.6Zm-.77-.6a1.56,1.56,0,0,0,1.55,0l3.25-1.88a.5.5,0,0,0,0-.87l-3.25-1.88a1.58,1.58,0,0,0-1.55,0l-3.25,1.88a.5.5,0,0,0,0,.87Z" class="color383838 svgShape"></path><path fill="#6929c2" d="M117.46,188.73l-3.25-1.88a.7.7,0,0,1,0-1.22l3.25-1.87a1.74,1.74,0,0,1,1.74,0l3.25,1.87a.7.7,0,0,1,0,1.22l-3.25,1.88A1.74,1.74,0,0,1,117.46,188.73Z" class="color969a9f svgShape"></path><path fill="#383838" d="M118.33,189.16a2,2,0,0,1-1-.26h0L114.11,187a.9.9,0,0,1,0-1.56l3.25-1.88a2,2,0,0,1,1.94,0l3.25,1.88a.91.91,0,0,1,.45.78.89.89,0,0,1-.45.78l-3.25,1.88A2,2,0,0,1,118.33,189.16Zm-.77-.6a1.57,1.57,0,0,0,1.54,0l3.25-1.88a.5.5,0,0,0,.25-.44.48.48,0,0,0-.25-.43l-3.25-1.88a1.52,1.52,0,0,0-1.54,0l-3.26,1.88a.5.5,0,0,0-.25.43.52.52,0,0,0,.25.44Z" class="color383838 svgShape"></path><path fill="#6929c2" d="M125,180.43l3.25,1.88a.7.7,0,0,1,0,1.21L125,185.4a1.76,1.76,0,0,1-1.75,0L120,183.52a.7.7,0,0,1,0-1.21l3.25-1.88A1.76,1.76,0,0,1,125,180.43Z" class="color969a9f svgShape"></path><path fill="#383838" d="M124.09,185.83a2,2,0,0,1-1-.26l-3.25-1.88a.89.89,0,0,1-.45-.78.91.91,0,0,1,.45-.78l3.25-1.87a1.92,1.92,0,0,1,1.94,0l3.26,1.87a.91.91,0,0,1,.45.78.89.89,0,0,1-.45.78l-3.26,1.88A1.93,1.93,0,0,1,124.09,185.83Zm0-5.44a1.54,1.54,0,0,0-.77.21l-3.25,1.88a.48.48,0,0,0-.25.43.5.5,0,0,0,.25.44l3.25,1.88a1.58,1.58,0,0,0,1.55,0l3.25-1.88a.5.5,0,0,0,.25-.44.48.48,0,0,0-.25-.43l-3.25-1.88A1.55,1.55,0,0,0,124.09,180.39Z" class="color383838 svgShape"></path><path fill="#6929c2" d="M111.87,185.5,103,180.4a.7.7,0,0,1-.35-.61.69.69,0,0,1,.35-.61l3.25-1.88h0L112,174a1.76,1.76,0,0,1,1.75,0l3.25,1.88a.7.7,0,0,1,0,1.22l-4.72,2.72,4.54,2.62a.7.7,0,0,1,0,1.21l-3.25,1.88A1.74,1.74,0,0,1,111.87,185.5Z" class="color969a9f svgShape"></path><path fill="#383838" d="M112.74,185.93a2,2,0,0,1-1-.26l-8.84-5.1a.91.91,0,0,1-.45-.78.89.89,0,0,1,.45-.78l9-5.21a2,2,0,0,1,2,0l3.25,1.88a.89.89,0,0,1,.45.78.91.91,0,0,1-.45.78l-4.42,2.55,4.24,2.45a.89.89,0,0,1,0,1.55l-3.25,1.88A2,2,0,0,1,112.74,185.93Zm-.77-.6a1.57,1.57,0,0,0,1.54,0l3.25-1.88a.49.49,0,0,0,0-.87l-4.83-2.79,5-2.9a.48.48,0,0,0,.25-.43.5.5,0,0,0-.25-.44l-3.25-1.87a1.54,1.54,0,0,0-1.55,0l-9,5.2a.51.51,0,0,0-.26.44.52.52,0,0,0,.26.44Z" class="color383838 svgShape"></path><path fill="#6929c2" d="M151.17,201.53l-3.25-1.87a.7.7,0,0,1,0-1.22l3.25-1.88a1.74,1.74,0,0,1,1.74,0l3.26,1.88a.71.71,0,0,1,0,1.22l-3.26,1.87A1.7,1.7,0,0,1,151.17,201.53Z" class="color969a9f svgShape"></path><path fill="#383838" d="M152,202a1.88,1.88,0,0,1-1-.26l-3.25-1.87a.91.91,0,0,1-.45-.78.89.89,0,0,1,.45-.78l3.25-1.88a2,2,0,0,1,1.94,0l3.26,1.88a.88.88,0,0,1,.44.78.9.9,0,0,1-.44.78L153,201.71A2,2,0,0,1,152,202Zm0-5.43a1.64,1.64,0,0,0-.77.2L148,198.61a.5.5,0,0,0-.25.44.48.48,0,0,0,.25.43l3.25,1.88a1.52,1.52,0,0,0,1.54,0l3.26-1.88a.5.5,0,0,0,.25-.43.52.52,0,0,0-.25-.44l-3.26-1.87A1.49,1.49,0,0,0,152,196.53Z" class="color383838 svgShape"></path><path fill="#6929c2" d="M158.33,206.35l3.25,1.87a.7.7,0,0,1,0,1.22l-3.25,1.88a1.74,1.74,0,0,1-1.74,0l-3.26-1.88a.71.71,0,0,1,0-1.22l3.26-1.87A1.74,1.74,0,0,1,158.33,206.35Z" class="color969a9f svgShape"></path><path fill="#383838" d="M157.46,211.75a2,2,0,0,1-1-.26l-3.26-1.88a.89.89,0,0,1-.45-.78.91.91,0,0,1,.45-.78l3.26-1.88a2,2,0,0,1,1.94,0l3.25,1.88a.91.91,0,0,1,.45.78.89.89,0,0,1-.45.78l-3.25,1.88A2,2,0,0,1,157.46,211.75Zm0-5.44a1.55,1.55,0,0,0-.78.21l-3.25,1.88a.48.48,0,0,0-.25.43.5.5,0,0,0,.25.44l3.25,1.87a1.54,1.54,0,0,0,1.55,0l3.25-1.87a.5.5,0,0,0,.25-.44.48.48,0,0,0-.25-.43l-3.25-1.88A1.54,1.54,0,0,0,157.46,206.31Z" class="color383838 svgShape"></path><path fill="#6929c2" d="M128.64,195.18l-3.26-1.88a.7.7,0,0,1,0-1.21l3.26-1.88a1.74,1.74,0,0,1,1.74,0l3.25,1.88a.7.7,0,0,1,0,1.21l-3.25,1.88A1.74,1.74,0,0,1,128.64,195.18Z" class="color969a9f svgShape"></path><path fill="#383838" d="M129.51,195.61a1.86,1.86,0,0,1-1-.26l-3.25-1.88a.89.89,0,0,1,0-1.55l3.25-1.88a1.92,1.92,0,0,1,1.94,0l3.25,1.88a.89.89,0,0,1,0,1.55l-3.25,1.88A1.88,1.88,0,0,1,129.51,195.61Zm-.77-.6a1.57,1.57,0,0,0,1.54,0l3.25-1.88a.5.5,0,0,0,0-.87l-3.25-1.88a1.57,1.57,0,0,0-1.54,0l-3.26,1.88a.5.5,0,0,0,0,.87Z" class="color383838 svgShape"></path><path fill="#6929c2" d="M145.41,204.86,142.15,203a.7.7,0,0,1,0-1.21l3.26-1.88a1.74,1.74,0,0,1,1.74,0l3.25,1.88a.7.7,0,0,1,0,1.21l-3.25,1.88A1.74,1.74,0,0,1,145.41,204.86Z" class="color969a9f svgShape"></path><path fill="#383838" d="M146.28,205.29a1.86,1.86,0,0,1-1-.26l-3.26-1.87a.91.91,0,0,1,0-1.56l3.26-1.88a2,2,0,0,1,1.94,0l3.25,1.88a.89.89,0,0,1,.45.78.91.91,0,0,1-.45.78L147.25,205A1.88,1.88,0,0,1,146.28,205.29Zm0-5.43a1.65,1.65,0,0,0-.78.2l-3.25,1.88a.51.51,0,0,0-.25.44.48.48,0,0,0,.25.43l3.25,1.88a1.58,1.58,0,0,0,1.55,0l3.25-1.88a.5.5,0,0,0,0-.87l-3.25-1.88A1.64,1.64,0,0,0,146.28,199.86Z" class="color383838 svgShape"></path><path fill="#6929c2" d="M134.23,198.41,131,196.53a.7.7,0,0,1,0-1.21l3.26-1.88a1.74,1.74,0,0,1,1.74,0l3.25,1.88a.7.7,0,0,1,0,1.21L136,198.41A1.74,1.74,0,0,1,134.23,198.41Z" class="color969a9f svgShape"></path><path fill="#383838" d="M135.1,198.84a2,2,0,0,1-1-.26l-3.25-1.88a.87.87,0,0,1-.45-.78.89.89,0,0,1,.45-.78l3.25-1.87a1.92,1.92,0,0,1,1.94,0l3.25,1.87a.91.91,0,0,1,.45.78.89.89,0,0,1-.45.78l-3.25,1.88A2,2,0,0,1,135.1,198.84Zm0-5.44a1.49,1.49,0,0,0-.77.21l-3.26,1.88a.5.5,0,0,0-.25.43.52.52,0,0,0,.25.44l3.26,1.88a1.57,1.57,0,0,0,1.54,0l3.25-1.88a.5.5,0,0,0,.25-.44.48.48,0,0,0-.25-.43l-3.25-1.88A1.51,1.51,0,0,0,135.1,193.4Z" class="color383838 svgShape"></path><path fill="#6929c2" d="M139.82,201.64l-3.26-1.88a.71.71,0,0,1,0-1.22l3.26-1.88a1.74,1.74,0,0,1,1.74,0l3.25,1.88a.7.7,0,0,1,0,1.22l-3.25,1.88A1.74,1.74,0,0,1,139.82,201.64Z" class="color969a9f svgShape"></path><path fill="#383838" d="M140.69,202.07a2,2,0,0,1-1-.26h0l-3.26-1.88a.89.89,0,0,1-.45-.78.9.9,0,0,1,.45-.78l3.26-1.88a2,2,0,0,1,1.94,0l3.25,1.88a.9.9,0,0,1,.45.78.89.89,0,0,1-.45.78l-3.25,1.88A2,2,0,0,1,140.69,202.07Zm-.77-.61a1.52,1.52,0,0,0,1.54,0l3.25-1.87a.51.51,0,0,0,.25-.44.5.5,0,0,0-.25-.44l-3.25-1.87a1.52,1.52,0,0,0-1.54,0l-3.26,1.87a.5.5,0,0,0-.25.44.48.48,0,0,0,.25.43Z" class="color383838 svgShape"></path><path fill="#6929c2" d="M169.75,218.51a.69.69,0,0,1,.35-.6l3.25-1.88a1.76,1.76,0,0,1,1.75,0l3.25,1.88h0l5.59,3.22a.71.71,0,0,1,0,1.22l-3.25,1.87a1.72,1.72,0,0,1-1.75,0l-8.84-5.1A.7.7,0,0,1,169.75,218.51Z" class="color969a9f svgShape"></path><path fill="#383838" d="M179.81,224.66a2,2,0,0,1-1-.26L170,219.29a.89.89,0,0,1-.45-.78.91.91,0,0,1,.45-.78l3.25-1.87a2,2,0,0,1,1.94,0L184,221a.9.9,0,0,1,.45.78.89.89,0,0,1-.45.78l-3.26,1.88A1.93,1.93,0,0,1,179.81,224.66ZM174.23,216a1.55,1.55,0,0,0-.78.21l-3.25,1.88a.48.48,0,0,0-.25.43h0a.48.48,0,0,0,.25.43l8.84,5.1a1.54,1.54,0,0,0,1.55,0l3.25-1.88a.48.48,0,0,0,.25-.43.51.51,0,0,0-.25-.44L175,216.2A1.54,1.54,0,0,0,174.23,216Z" class="color383838 svgShape"></path><path fill="#6929c2" d="M158.4,218.62h0a6484876671522,6484876671522,0,0,1,.08-.34s0,0,.05-.05a.63.63,0,0,1,.22-.21l3.25-1.88a1.76,1.76,0,0,1,1.74,0L167,218h0l5.59,3.22h0l5.58,3.22a.7.7,0,0,1,0,1.21l-3.25,1.88a1.74,1.74,0,0,1-1.74,0l-14.43-8.33A.65.65,0,0,1,158.4,218.62Z" class="color969a9f svgShape"></path><path fill="#383838" d="M174.05,228a2,2,0,0,1-1-.25l-14.43-8.33a.89.89,0,0,1-.45-.79.48.48,0,0,1,0-.18v-.07a.48.48,0,0,1,.06-.18l.07-.09a1,1,0,0,1,.27-.26L161.9,216a2,2,0,0,1,1.94,0l14.43,8.33a.89.89,0,0,1,.45.78.91.91,0,0,1-.45.78L175,227.73A2,2,0,0,1,174.05,228Zm-15.65-9.37h.19a.49.49,0,0,0,.26.43l14.43,8.33a1.52,1.52,0,0,0,1.54,0l3.25-1.88a.49.49,0,0,0,.26-.43.51.51,0,0,0-.26-.44l-14.43-8.33a1.57,1.57,0,0,0-1.54,0l-3.25,1.88a.39.39,0,0,0-.15.16l-.06,0h0s0,0,0,0,0,.05,0,.07a.14.14,0,0,1,0,.07.21.21,0,0,0,0,.06Z" class="color383838 svgShape"></path><path fill="#6929c2" d="M111.69,192.05l-14.43-8.33a.7.7,0,0,1,0-1.21l3.24-1.87.1,0a1.75,1.75,0,0,1,1.66,0L116.69,189a.7.7,0,0,1,0,1.21l-3.25,1.88A1.76,1.76,0,0,1,111.69,192.05Z" class="color969a9f svgShape"></path><path fill="#383838" d="M112.56,192.48a1.88,1.88,0,0,1-1-.26l-14.43-8.33a.89.89,0,0,1,0-1.55l3.24-1.87.1-.05a2,2,0,0,1,1.86,0l14.43,8.33a.89.89,0,0,1,.45.78.91.91,0,0,1-.45.78l-3.26,1.87A1.83,1.83,0,0,1,112.56,192.48Zm-.77-.6a1.54,1.54,0,0,0,1.55,0l3.25-1.88a.5.5,0,0,0,0-.87l-14.43-8.33a1.53,1.53,0,0,0-1.47,0l-.12,0-3.21,1.86a.5.5,0,0,0,0,.87Z" class="color383838 svgShape"></path><path fill="#6929c2" d="M156.23,219.46a1.76,1.76,0,0,1,1.75,0l3.25,1.87a.7.7,0,0,1,0,1.22L158,224.43a1.76,1.76,0,0,1-1.75,0L153,222.55a.7.7,0,0,1,0-1.22Z" class="color969a9f svgShape"></path><path fill="#383838" d="M157.1,224.86a2,2,0,0,1-1-.26l-3.25-1.88a.89.89,0,0,1-.45-.78.91.91,0,0,1,.45-.78l3.25-1.87a1.92,1.92,0,0,1,1.94,0l3.26,1.87a.91.91,0,0,1,.45.78.89.89,0,0,1-.45.78l-3.26,1.88A1.93,1.93,0,0,1,157.1,224.86Zm0-5.44a1.54,1.54,0,0,0-.77.21h0l-3.25,1.88a.48.48,0,0,0-.25.43.5.5,0,0,0,.25.44l3.25,1.87a1.56,1.56,0,0,0,1.55,0l3.25-1.88a.5.5,0,0,0,.25-.44.48.48,0,0,0-.25-.43l-3.25-1.88A1.55,1.55,0,0,0,157.1,219.42Z" class="color383838 svgShape"></path><path fill="#6929c2" d="M187.22,214.48l3.25-1.88a1.76,1.76,0,0,1,1.75,0l3.25,1.88a.7.7,0,0,1,0,1.21l-3.25,1.88a1.76,1.76,0,0,1-1.75,0l-3.25-1.88A.7.7,0,0,1,187.22,214.48Z" class="color969a9f svgShape"></path><path fill="#383838" d="M191.35,218a1.93,1.93,0,0,1-1-.26l-3.26-1.88a.89.89,0,0,1,0-1.55h0l3.26-1.87a1.92,1.92,0,0,1,1.94,0l3.25,1.87a.91.91,0,0,1,.45.78.89.89,0,0,1-.45.78l-3.25,1.88A2,2,0,0,1,191.35,218Zm-4-3.35a.5.5,0,0,0,0,.87l3.25,1.88a1.58,1.58,0,0,0,1.55,0l3.25-1.88a.5.5,0,0,0,0-.87l-3.25-1.88a1.54,1.54,0,0,0-1.55,0Z" class="color383838 svgShape"></path><path fill="#6929c2" d="M161.82,222.67a1.72,1.72,0,0,1,1.75,0l8.84,5.12a.7.7,0,0,1,0,1.21l-3.25,1.88a1.76,1.76,0,0,1-1.75,0l-8.84-5.1a.72.72,0,0,1,0-1.24Z" class="color969a9f svgShape"></path><path fill="#383838" d="M168.28,231.31a1.88,1.88,0,0,1-1-.26l-8.84-5.1a.92.92,0,0,1,0-1.58l3.26-1.88a2,2,0,0,1,1.93,0l8.85,5.13a.89.89,0,0,1,0,1.55l-3.26,1.88A1.83,1.83,0,0,1,168.28,231.31Zm-6.36-8.47-3.25,1.88a.51.51,0,0,0,0,.88l8.84,5.11a1.56,1.56,0,0,0,1.55,0l3.25-1.88a.5.5,0,0,0,0-.87l-8.84-5.12a1.54,1.54,0,0,0-1.55,0Z" class="color383838 svgShape"></path><path fill="#6929c2" d="M176.77,200.68a1.74,1.74,0,0,1-1.74,0l-3.25-1.88a.7.7,0,0,1,0-1.22l.93-.55a1.74,1.74,0,0,1,1.74,0l3.25,1.88a.7.7,0,0,1,0,1.21Z" class="color969a9f svgShape"></path><path fill="#383838" d="M175.9,201.11a2,2,0,0,1-1-.26L171.68,199a.9.9,0,0,1,0-1.56l.93-.55a1.92,1.92,0,0,1,1.94,0l3.25,1.88a.89.89,0,0,1,0,1.55l-.93.56A2,2,0,0,1,175.9,201.11ZM173.58,197a1.48,1.48,0,0,0-.77.2l-.93.55a.52.52,0,0,0-.26.44.53.53,0,0,0,.25.44l3.26,1.87a1.52,1.52,0,0,0,1.54,0l.93-.55a.49.49,0,0,0,0-.87l-3.25-1.88A1.5,1.5,0,0,0,173.58,197Z" class="color383838 svgShape"></path><path fill="#6929c2" d="M150.64,216.23a1.76,1.76,0,0,1,1.75,0l3.25,1.88a.7.7,0,0,1,0,1.21l-3.25,1.88a1.76,1.76,0,0,1-1.75,0l-3.25-1.88a.7.7,0,0,1,0-1.21Z" class="color969a9f svgShape"></path><path fill="#383838" d="M151.52,221.63a2,2,0,0,1-1-.26l-3.25-1.88a.89.89,0,0,1,0-1.55l3.25-1.88a1.94,1.94,0,0,1,2,0l3.25,1.88a.89.89,0,0,1,0,1.55l-3.25,1.88A2,2,0,0,1,151.52,221.63Zm-.78-5.23-3.25,1.88a.5.5,0,0,0,0,.87l3.25,1.88a1.58,1.58,0,0,0,1.55,0l3.25-1.88a.5.5,0,0,0,0-.87l-3.25-1.88a1.58,1.58,0,0,0-1.55,0Z" class="color383838 svgShape"></path><path fill="#6929c2" d="M182.36,203.9a1.74,1.74,0,0,1-1.74,0L177.37,202a.7.7,0,0,1,0-1.21l.93-.55a1.74,1.74,0,0,1,1.74,0l3.25,1.88a.7.7,0,0,1,0,1.21Z" class="color969a9f svgShape"></path><path fill="#383838" d="M181.49,204.33a1.86,1.86,0,0,1-1-.26l-3.25-1.87a.9.9,0,0,1,0-1.56l.93-.55a2,2,0,0,1,1.94,0l3.25,1.88a.91.91,0,0,1,.45.78.89.89,0,0,1-.45.78l-.93.55A1.88,1.88,0,0,1,181.49,204.33Zm-2.32-4.11a1.51,1.51,0,0,0-.77.21l-.93.55a.5.5,0,0,0,0,.87l3.26,1.88a1.52,1.52,0,0,0,1.54,0l.93-.55a.5.5,0,0,0,.25-.44.48.48,0,0,0-.25-.43l-3.25-1.88A1.51,1.51,0,0,0,179.17,200.22Z" class="color383838 svgShape"></path><path fill="#6929c2" d="M186.63,214.34a1.76,1.76,0,0,1-1.75,0l-3.25-1.88a.7.7,0,0,1,0-1.21l3.25-1.88a1.76,1.76,0,0,1,1.75,0l3.25,1.88a.7.7,0,0,1,0,1.21Z" class="color969a9f svgShape"></path><path fill="#383838" d="M185.75,214.77a1.92,1.92,0,0,1-1-.26l-3.26-1.87a.91.91,0,0,1-.45-.78.89.89,0,0,1,.45-.78l3.26-1.88a1.91,1.91,0,0,1,1.93,0l3.26,1.88a.89.89,0,0,1,0,1.55l-3.26,1.88A1.93,1.93,0,0,1,185.75,214.77Zm0-5.43a1.64,1.64,0,0,0-.77.2l-3.25,1.88a.5.5,0,0,0,0,.87l3.25,1.88a1.58,1.58,0,0,0,1.55,0l3.25-1.88a.5.5,0,0,0,0-.87l-3.25-1.88A1.65,1.65,0,0,0,185.75,209.34Z" class="color383838 svgShape"></path><path fill="#6929c2" d="M194.13,210.49l.94-.55a1.74,1.74,0,0,1,1.74,0l3.25,1.88a.7.7,0,0,1,0,1.21l-.93.55a1.74,1.74,0,0,1-1.74,0l-3.26-1.87A.71.71,0,0,1,194.13,210.49Z" class="color969a9f svgShape"></path><path fill="#383838" d="M198.26,214a2,2,0,0,1-1-.25L194,211.88a.9.9,0,0,1-.44-.78.87.87,0,0,1,.44-.78l.94-.55a1.92,1.92,0,0,1,1.94,0l3.25,1.87a.91.91,0,0,1,.45.78.89.89,0,0,1-.45.78l-.93.55A1.88,1.88,0,0,1,198.26,214Zm-2.32-4.11a1.49,1.49,0,0,0-.77.21l-.94.55a.5.5,0,0,0,0,.87l3.26,1.88a1.52,1.52,0,0,0,1.54,0l.93-.55a.5.5,0,0,0,0-.87l-3.25-1.88A1.54,1.54,0,0,0,195.94,209.9Z" class="color383838 svgShape"></path><path fill="#6929c2" d="M188,207.13a1.74,1.74,0,0,1-1.74,0L183,205.25a.7.7,0,0,1,0-1.21l.94-.56a1.74,1.74,0,0,1,1.74,0l3.25,1.88a.7.7,0,0,1,0,1.22Z" class="color969a9f svgShape"></path><path fill="#383838" d="M187.08,207.56a2,2,0,0,1-1-.26l-3.26-1.88a.9.9,0,0,1,0-1.55l.94-.56a2,2,0,0,1,1.94,0l3.25,1.88a.9.9,0,0,1,0,1.56l-.93.55A2,2,0,0,1,187.08,207.56Zm-2.32-4.11a1.49,1.49,0,0,0-.77.21l-.93.55a.5.5,0,0,0-.26.44.5.5,0,0,0,.25.43l3.26,1.88a1.57,1.57,0,0,0,1.54,0l.93-.55a.51.51,0,0,0,0-.88l-3.25-1.87A1.51,1.51,0,0,0,184.76,203.45Z" class="color383838 svgShape"></path><path fill="#6929c2" d="M77.16,173.79a1.7,1.7,0,0,1,1.74,0l3.25,1.87a.7.7,0,0,1,0,1.22l-3.25,1.88a1.74,1.74,0,0,1-1.74,0l-3.25-1.88a.7.7,0,0,1,0-1.22Z" class="color969a9f svgShape"></path><path fill="#383838" d="M78,179.19a2,2,0,0,1-1-.26l-3.25-1.88a.89.89,0,0,1-.45-.78.91.91,0,0,1,.45-.78l3.25-1.88a2,2,0,0,1,1.94,0l3.25,1.88a.89.89,0,0,1,.45.78.87.87,0,0,1-.45.78L79,178.93A2,2,0,0,1,78,179.19ZM77.26,174,74,175.84a.49.49,0,0,0,0,.86l3.25,1.88a1.52,1.52,0,0,0,1.54,0l3.26-1.87a.51.51,0,0,0,0-.88L78.8,174a1.52,1.52,0,0,0-1.54,0Z" class="color383838 svgShape"></path><path fill="#6929c2" d="M173.11,202.78l-3.25,1.88a1.74,1.74,0,0,1-1.74,0l-3.26-1.88a.7.7,0,0,1,0-1.21l3.26-1.88a1.74,1.74,0,0,1,1.74,0l3.25,1.88A.7.7,0,0,1,173.11,202.78Z" class="color969a9f svgShape"></path><path fill="#383838" d="M169,205.09a2,2,0,0,1-1-.26L164.76,203a.89.89,0,0,1,0-1.55l3.26-1.88a1.92,1.92,0,0,1,1.94,0l3.25,1.88a.89.89,0,0,1,0,1.55L170,204.83A2,2,0,0,1,169,205.09Zm0-5.43a1.54,1.54,0,0,0-.78.2L165,201.74a.5.5,0,0,0,0,.87l3.25,1.88a1.58,1.58,0,0,0,1.55,0l3.25-1.88a.5.5,0,0,0,0-.87l-3.25-1.88A1.53,1.53,0,0,0,169,199.66Z" class="color383838 svgShape"></path><path fill="#6929c2" d="M82.75,177a1.74,1.74,0,0,1,1.74,0l3.25,1.88a.7.7,0,0,1,0,1.21L84.49,182a1.74,1.74,0,0,1-1.74,0L79.5,180.1a.7.7,0,0,1,0-1.21Z" class="color969a9f svgShape"></path><path fill="#383838" d="M83.62,182.41a1.88,1.88,0,0,1-1-.26l-3.25-1.87a.91.91,0,0,1-.45-.78.89.89,0,0,1,.45-.78l3.25-1.88a2,2,0,0,1,1.94,0l3.25,1.88a.9.9,0,0,1,0,1.56l-3.25,1.87A1.86,1.86,0,0,1,83.62,182.41Zm0-5.43a1.61,1.61,0,0,0-.77.2h0l-3.25,1.87a.51.51,0,0,0-.26.44.49.49,0,0,0,.26.43l3.25,1.88a1.52,1.52,0,0,0,1.54,0l3.26-1.88a.5.5,0,0,0,.25-.43.52.52,0,0,0-.25-.44l-3.26-1.87A1.51,1.51,0,0,0,83.62,177Z" class="color383838 svgShape"></path><path fill="#6929c2" d="M117.11,196.87a1.74,1.74,0,0,1,1.74,0l3.25,1.87a.7.7,0,0,1,0,1.22l-3.25,1.88a1.74,1.74,0,0,1-1.74,0L113.85,200a.71.71,0,0,1,0-1.22Z" class="color969a9f svgShape"></path><path fill="#383838" d="M118,202.27a2,2,0,0,1-1-.26l-3.25-1.88a.87.87,0,0,1-.45-.78.89.89,0,0,1,.45-.78L117,196.7a1.92,1.92,0,0,1,1.94,0l3.25,1.87a.91.91,0,0,1,.45.78.89.89,0,0,1-.45.78L119,202A2,2,0,0,1,118,202.27Zm-.77-5.23L114,198.92a.5.5,0,0,0-.25.43.52.52,0,0,0,.25.44l3.26,1.87a1.54,1.54,0,0,0,1.54,0l3.25-1.88a.5.5,0,0,0,.25-.44.48.48,0,0,0-.25-.43L118.75,197a1.52,1.52,0,0,0-1.54,0Z" class="color383838 svgShape"></path><path fill="#6929c2" d="M122.7,200.09a1.74,1.74,0,0,1,1.74,0l25.61,14.79a.7.7,0,0,1,0,1.21L146.8,218a1.76,1.76,0,0,1-1.75,0l-25.61-14.78a.71.71,0,0,1,0-1.22Z" class="color969a9f svgShape"></path><path fill="#383838" d="M145.93,218.4a1.83,1.83,0,0,1-1-.26l-25.62-14.78a.9.9,0,0,1-.44-.78.88.88,0,0,1,.44-.78l3.26-1.88a2,2,0,0,1,1.94,0l25.61,14.79a.89.89,0,0,1,.45.78.91.91,0,0,1-.45.78l-3.25,1.87A1.88,1.88,0,0,1,145.93,218.4ZM122.8,200.27l-3.26,1.87a.52.52,0,0,0-.25.44.53.53,0,0,0,.25.44l25.61,14.78a1.54,1.54,0,0,0,1.55,0l3.25-1.88a.48.48,0,0,0,.25-.43.5.5,0,0,0-.25-.44l-25.61-14.78a1.52,1.52,0,0,0-1.54,0Z" class="color383838 svgShape"></path><path fill="#6929c2" d="M111.52,193.64a1.74,1.74,0,0,1,1.74,0l3.25,1.88a.7.7,0,0,1,0,1.21l-3.25,1.88a1.74,1.74,0,0,1-1.74,0l-3.25-1.88a.7.7,0,0,1,0-1.21Z" class="color969a9f svgShape"></path><path fill="#383838" d="M112.39,199a2,2,0,0,1-1-.26l-3.25-1.88a.87.87,0,0,1-.45-.78.88.88,0,0,1,.45-.77l3.25-1.88a1.92,1.92,0,0,1,1.94,0l3.25,1.88a.89.89,0,0,1,0,1.55l-3.25,1.88A2,2,0,0,1,112.39,199Zm-.77-5.23-3.26,1.88a.5.5,0,0,0,0,.87l3.26,1.88a1.57,1.57,0,0,0,1.54,0l3.25-1.88a.5.5,0,0,0,0-.87l-3.25-1.88a1.57,1.57,0,0,0-1.54,0Z" class="color383838 svgShape"></path><path fill="#6929c2" d="M88.34,180.24a1.74,1.74,0,0,1,1.74,0l3.25,1.88a.7.7,0,0,1,0,1.21l-3.25,1.88a1.74,1.74,0,0,1-1.74,0l-3.25-1.88a.7.7,0,0,1,0-1.21Z" class="color969a9f svgShape"></path><path fill="#383838" d="M89.21,185.64a2,2,0,0,1-1-.26L85,183.5A.89.89,0,0,1,85,182l3.25-1.88a1.92,1.92,0,0,1,1.94,0L93.43,182a.89.89,0,0,1,0,1.55l-3.25,1.88A2,2,0,0,1,89.21,185.64Zm-.77-5.23-3.25,1.88a.49.49,0,0,0,0,.87L88.44,185A1.57,1.57,0,0,0,90,185l3.25-1.88a.49.49,0,0,0,0-.87L90,180.41a1.57,1.57,0,0,0-1.54,0Z" class="color383838 svgShape"></path><path fill="#6929c2" d="M94.75,184a1.74,1.74,0,0,1,1.74,0l8.84,5.1a.7.7,0,0,1,0,1.22l-3.25,1.87a1.7,1.7,0,0,1-1.74,0l-8.84-5.1a.7.7,0,0,1,0-1.21Z" class="color969a9f svgShape"></path><path fill="#383838" d="M101.21,192.58a2,2,0,0,1-1-.25l-8.84-5.11a.89.89,0,0,1,0-1.55l3.25-1.88a1.92,1.92,0,0,1,1.94,0l8.84,5.1a.89.89,0,0,1,.45.78.9.9,0,0,1-.45.78l-3.25,1.88A2,2,0,0,1,101.21,192.58Zm-6.36-8.45L91.6,186a.49.49,0,0,0,0,.87l8.84,5.1a1.52,1.52,0,0,0,1.54,0l3.25-1.87a.52.52,0,0,0,.26-.44.49.49,0,0,0-.26-.43l-8.84-5.11a1.52,1.52,0,0,0-1.54,0Z" class="color383838 svgShape"></path><path fill="#6929c2" d="M105.93,190.41a1.74,1.74,0,0,1,1.74,0l3.25,1.88a.7.7,0,0,1,0,1.21l-3.25,1.88a1.74,1.74,0,0,1-1.74,0l-3.26-1.88a.7.7,0,0,1,0-1.21Z" class="color969a9f svgShape"></path><path fill="#383838" d="M106.8,195.81a1.86,1.86,0,0,1-1-.26l-3.25-1.87a.89.89,0,0,1-.45-.78.87.87,0,0,1,.45-.78l3.25-1.88a2,2,0,0,1,1.94,0l3.25,1.88a.89.89,0,0,1,.45.78.91.91,0,0,1-.45.78l-3.25,1.87A1.88,1.88,0,0,1,106.8,195.81Zm-.77-5.23-3.26,1.88a.52.52,0,0,0-.25.44.5.5,0,0,0,.25.43l3.26,1.88a1.52,1.52,0,0,0,1.54,0l3.25-1.88a.49.49,0,0,0,.26-.43.51.51,0,0,0-.26-.44l-3.25-1.88a1.57,1.57,0,0,0-1.54,0Z" class="color383838 svgShape"></path><path fill="#6929c2" d="M175.52,215.19a.68.68,0,0,1,.35-.61l3.25-1.88a1.74,1.74,0,0,1,1.74,0l3.25,1.88h0l5.58,3.23a.7.7,0,0,1,0,1.21l-3.25,1.88a1.74,1.74,0,0,1-1.74,0l-8.84-5.11A.67.67,0,0,1,175.52,215.19Z" class="color969a9f svgShape"></path><path fill="#383838" d="M185.58,221.33a2,2,0,0,1-1-.26l-8.84-5.1a.91.91,0,0,1-.45-.78.89.89,0,0,1,.45-.78l3.25-1.88a1.92,1.92,0,0,1,1.94,0l8.84,5.1a.91.91,0,0,1,.45.78.89.89,0,0,1-.45.78l-3.25,1.88A2,2,0,0,1,185.58,221.33ZM180,212.67a1.5,1.5,0,0,0-.77.2L176,214.75a.49.49,0,0,0-.26.43h0a.49.49,0,0,0,.26.43l8.84,5.1a1.52,1.52,0,0,0,1.54,0l3.25-1.87a.51.51,0,0,0,.26-.44.49.49,0,0,0-.26-.43l-8.84-5.11A1.5,1.5,0,0,0,180,212.67Z" class="color383838 svgShape"></path><path fill="#6929c2" d="M94.36,168.8l-3.26-1.88a.7.7,0,0,1,0-1.21l3.26-1.88a1.74,1.74,0,0,1,1.74,0l3.25,1.88a.7.7,0,0,1,0,1.21L96.1,168.8A1.74,1.74,0,0,1,94.36,168.8Z" class="color969a9f svgShape"></path><path fill="#383838" d="M95.23,169.23a2,2,0,0,1-1-.26L91,167.09a.9.9,0,0,1,0-1.55l3.26-1.88a1.92,1.92,0,0,1,1.94,0l3.25,1.88a.89.89,0,0,1,0,1.55L96.2,169A2,2,0,0,1,95.23,169.23Zm-.78-.6a1.58,1.58,0,0,0,1.55,0l3.25-1.88a.5.5,0,0,0,.25-.44.48.48,0,0,0-.25-.43L96,164a1.56,1.56,0,0,0-1.55,0l-3.25,1.88a.5.5,0,0,0-.25.43.52.52,0,0,0,.25.44Z" class="color383838 svgShape"></path><path fill="#6929c2" d="M96.69,168.93l3.26-1.87a1.7,1.7,0,0,1,1.74,0l3.25,1.87a.7.7,0,0,1,0,1.22L101.69,172a1.74,1.74,0,0,1-1.74,0l-3.26-1.88A.71.71,0,0,1,96.69,168.93Z" class="color969a9f svgShape"></path><path fill="#383838" d="M100.82,172.46a2,2,0,0,1-1-.26l-3.26-1.88a.89.89,0,0,1-.45-.78.9.9,0,0,1,.45-.78h0l3.26-1.88a2,2,0,0,1,1.94,0l3.25,1.88a.9.9,0,0,1,.45.78.89.89,0,0,1-.45.78l-3.25,1.88A2,2,0,0,1,100.82,172.46Zm-4-3.36a.51.51,0,0,0-.25.44.48.48,0,0,0,.25.43l3.26,1.88a1.52,1.52,0,0,0,1.54,0l3.25-1.88a.48.48,0,0,0,.25-.43.51.51,0,0,0-.25-.44l-3.25-1.87a1.52,1.52,0,0,0-1.54,0l-3.26,1.87Z" class="color383838 svgShape"></path><path fill="#6929c2" d="M164.27,201.43a1.74,1.74,0,0,1-1.74,0l-3.26-1.87a.71.71,0,0,1,0-1.22l3.26-1.88a1.74,1.74,0,0,1,1.74,0l3.25,1.88a.7.7,0,0,1,0,1.22Z" class="color969a9f svgShape"></path><path fill="#383838" d="M163.4,201.86a1.86,1.86,0,0,1-1-.26l-3.26-1.87a.9.9,0,0,1,0-1.56l3.26-1.88a2,2,0,0,1,1.94,0l3.25,1.88a.89.89,0,0,1,.45.78.91.91,0,0,1-.45.78l-3.25,1.87A1.88,1.88,0,0,1,163.4,201.86Zm0-5.43a1.58,1.58,0,0,0-.77.2l-3.26,1.88a.5.5,0,0,0-.25.44.48.48,0,0,0,.25.43l3.26,1.88a1.52,1.52,0,0,0,1.54,0l3.25-1.88a.48.48,0,0,0,.25-.43.5.5,0,0,0-.25-.44l-3.25-1.88A1.64,1.64,0,0,0,163.4,196.43Z" class="color383838 svgShape"></path><path fill="#6929c2" d="M90.26,178.66a1.76,1.76,0,0,1-1.75,0l-3.25-1.88a.7.7,0,0,1,0-1.22l3.25-1.88a1.76,1.76,0,0,1,1.75,0l3.25,1.88a.7.7,0,0,1,0,1.22Z" class="color969a9f svgShape"></path><path fill="#383838" d="M89.39,179.08a1.92,1.92,0,0,1-1-.25L85.16,177a.9.9,0,0,1-.45-.78.89.89,0,0,1,.45-.78l3.26-1.88a2,2,0,0,1,1.94,0l3.25,1.88a.89.89,0,0,1,.45.78.9.9,0,0,1-.45.78l-3.25,1.88A2,2,0,0,1,89.39,179.08Zm0-5.43a1.55,1.55,0,0,0-.78.21l-3.25,1.87a.5.5,0,0,0-.25.44.51.51,0,0,0,.25.44l3.25,1.87a1.54,1.54,0,0,0,1.55,0l3.25-1.88a.48.48,0,0,0,.25-.43.5.5,0,0,0-.25-.44l-3.25-1.87A1.54,1.54,0,0,0,89.39,173.65Z" class="color383838 svgShape"></path><path fill="#6929c2" d="M108.78,161.48a1.76,1.76,0,0,1-1.75,0l-3.25-1.88a.7.7,0,0,1,0-1.22l.93-.55a1.76,1.76,0,0,1,1.75,0l3.25,1.88a.7.7,0,0,1,0,1.21Z" class="color969a9f svgShape"></path><path fill="#383838" d="M107.91,161.91a2,2,0,0,1-1-.26l-3.25-1.88a.89.89,0,0,1-.45-.78.91.91,0,0,1,.45-.78l.93-.55a2,2,0,0,1,1.94,0l3.26,1.88a.89.89,0,0,1,.45.78.91.91,0,0,1-.45.78l-.93.55A2,2,0,0,1,107.91,161.91Zm-2.32-4.11a1.65,1.65,0,0,0-.78.2l-.93.56a.48.48,0,0,0-.25.43.5.5,0,0,0,.25.44l3.25,1.88a1.58,1.58,0,0,0,1.55,0l.93-.56a.48.48,0,0,0,.25-.43.5.5,0,0,0-.25-.44L106.36,158A1.64,1.64,0,0,0,105.59,157.8Z" class="color383838 svgShape"></path><path fill="#6929c2" d="M141.91,188.52a1.7,1.7,0,0,1-1.74,0l-3.26-1.87a.71.71,0,0,1,0-1.22l3.26-1.88a1.74,1.74,0,0,1,1.74,0l3.25,1.88a.7.7,0,0,1,0,1.22Z" class="color969a9f svgShape"></path><path fill="#383838" d="M141,189a2,2,0,0,1-1-.26l-3.25-1.88a.9.9,0,0,1,0-1.56l3.25-1.88a2,2,0,0,1,1.94,0l3.25,1.88a.9.9,0,0,1,.45.78.89.89,0,0,1-.45.78L142,188.7A2,2,0,0,1,141,189Zm0-5.44a1.51,1.51,0,0,0-.77.21L137,185.6a.52.52,0,0,0-.25.44.5.5,0,0,0,.25.43l3.26,1.88a1.52,1.52,0,0,0,1.54,0l3.25-1.88a.48.48,0,0,0,.25-.43.5.5,0,0,0-.25-.44l-3.25-1.87A1.51,1.51,0,0,0,141,183.52Z" class="color383838 svgShape"></path><path fill="#6929c2" d="M154.41,187.77a1.74,1.74,0,0,1-1.74,0l-3.25-1.88a.7.7,0,0,1,0-1.22l.93-.55a1.74,1.74,0,0,1,1.74,0l3.25,1.88a.7.7,0,0,1,0,1.21Z" class="color969a9f svgShape"></path><path fill="#383838" d="M153.54,188.2a2,2,0,0,1-1-.26l-3.25-1.88a.89.89,0,0,1-.45-.78.91.91,0,0,1,.45-.78l.93-.55a1.92,1.92,0,0,1,1.94,0l3.25,1.88a.87.87,0,0,1,.45.78.91.91,0,0,1-.45.78l-.93.55A2,2,0,0,1,153.54,188.2Zm-2.32-4.11a1.61,1.61,0,0,0-.77.2l-.93.55a.52.52,0,0,0-.26.44.51.51,0,0,0,.26.44l3.25,1.87a1.54,1.54,0,0,0,1.54,0l.93-.56a.49.49,0,0,0,.26-.43.52.52,0,0,0-.25-.44L152,184.29A1.61,1.61,0,0,0,151.22,184.09Z" class="color383838 svgShape"></path><path fill="#6929c2" d="M150.75,189.87l-3.25,1.88a1.74,1.74,0,0,1-1.74,0l-3.26-1.88a.7.7,0,0,1,0-1.21l3.26-1.88a1.74,1.74,0,0,1,1.74,0l3.25,1.88A.7.7,0,0,1,150.75,189.87Z" class="color969a9f svgShape"></path><path fill="#383838" d="M146.63,192.18a1.86,1.86,0,0,1-1-.26l-3.25-1.87a.89.89,0,0,1-.45-.78.87.87,0,0,1,.45-.78l3.25-1.88a2,2,0,0,1,1.94,0l3.25,1.88a.89.89,0,0,1,.45.78.91.91,0,0,1-.45.78l-3.25,1.87A1.88,1.88,0,0,1,146.63,192.18Zm0-5.43a1.58,1.58,0,0,0-.77.2l-3.26,1.88a.5.5,0,0,0,0,.87l3.26,1.88a1.52,1.52,0,0,0,1.54,0l3.25-1.88a.5.5,0,0,0,0-.87L147.4,187A1.61,1.61,0,0,0,146.63,186.75Z" class="color383838 svgShape"></path><path fill="#6929c2" d="M160,191a1.74,1.74,0,0,1-1.74,0L155,189.12a.7.7,0,0,1,0-1.22l.93-.55a1.74,1.74,0,0,1,1.74,0l3.25,1.88a.7.7,0,0,1,0,1.21Z" class="color969a9f svgShape"></path><path fill="#383838" d="M159.13,191.42a1.86,1.86,0,0,1-1-.26l-3.25-1.87a.91.91,0,0,1-.45-.78.89.89,0,0,1,.45-.78l.93-.55a1.92,1.92,0,0,1,1.94,0l3.25,1.88a.89.89,0,0,1,0,1.55l-.93.55A1.86,1.86,0,0,1,159.13,191.42Zm-2.32-4.11a1.51,1.51,0,0,0-.77.21l-.93.55a.51.51,0,0,0-.26.44.52.52,0,0,0,.26.44l3.25,1.87a1.52,1.52,0,0,0,1.54,0l.93-.55a.49.49,0,0,0,0-.87l-3.25-1.88A1.49,1.49,0,0,0,156.81,187.31Z" class="color383838 svgShape"></path><path fill="#6929c2" d="M165.59,194.22a1.74,1.74,0,0,1-1.74,0l-3.25-1.88a.7.7,0,0,1,0-1.21l.93-.55a1.74,1.74,0,0,1,1.74,0l3.25,1.87a.7.7,0,0,1,0,1.22Z" class="color969a9f svgShape"></path><path fill="#383838" d="M164.72,194.65a2,2,0,0,1-1-.26l-3.25-1.87a.9.9,0,0,1,0-1.56l.93-.55a2,2,0,0,1,1.94,0l3.25,1.88a.91.91,0,0,1,.45.78.89.89,0,0,1-.45.78l-.93.55A2,2,0,0,1,164.72,194.65Zm-2.32-4.11a1.51,1.51,0,0,0-.77.21l-.93.55a.5.5,0,0,0-.26.44.5.5,0,0,0,.25.43l3.26,1.88a1.54,1.54,0,0,0,1.54,0l.93-.55a.51.51,0,0,0,.26-.44.49.49,0,0,0-.26-.43l-3.25-1.88A1.51,1.51,0,0,0,162.4,190.54Z" class="color383838 svgShape"></path><path fill="#6929c2" d="M137.64,178.09a1.74,1.74,0,0,1-1.74,0l-3.25-1.88a.7.7,0,0,1,0-1.22l.93-.55a1.74,1.74,0,0,1,1.74,0l3.26,1.88a.7.7,0,0,1,0,1.21Z" class="color969a9f svgShape"></path><path fill="#383838" d="M136.77,178.52a2,2,0,0,1-1-.26l-3.25-1.88a.9.9,0,0,1-.45-.78.89.89,0,0,1,.45-.78l.93-.55a1.92,1.92,0,0,1,1.94,0l3.26,1.88a.9.9,0,0,1,0,1.55l-.94.56A2,2,0,0,1,136.77,178.52Zm-2.32-4.11a1.53,1.53,0,0,0-.77.2l-.93.55a.51.51,0,0,0,0,.88l3.25,1.87a1.52,1.52,0,0,0,1.54,0l.94-.55a.5.5,0,0,0,0-.87l-3.26-1.88A1.48,1.48,0,0,0,134.45,174.41Z" class="color383838 svgShape"></path><path fill="#6929c2" d="M126.46,171.63a1.74,1.74,0,0,1-1.74,0l-3.25-1.88a.7.7,0,0,1,0-1.21l.93-.55a1.7,1.7,0,0,1,1.74,0l3.26,1.87a.71.71,0,0,1,0,1.22Z" class="color969a9f svgShape"></path><path fill="#383838" d="M125.59,172.06a1.88,1.88,0,0,1-1-.26l-3.25-1.87a.91.91,0,0,1-.45-.78.89.89,0,0,1,.45-.78l.93-.55a2,2,0,0,1,1.94,0l3.26,1.88a.91.91,0,0,1,.45.78.89.89,0,0,1-.45.78l-.94.55A1.86,1.86,0,0,1,125.59,172.06ZM123.27,168a1.54,1.54,0,0,0-.77.21l-.93.55a.5.5,0,0,0,0,.87l3.25,1.88a1.52,1.52,0,0,0,1.54,0l.94-.55a.52.52,0,0,0,.25-.44.5.5,0,0,0-.25-.43l-3.25-1.88A1.55,1.55,0,0,0,123.27,168Z" class="color383838 svgShape"></path><path fill="#6929c2" d="M120,167.93a1.76,1.76,0,0,1-1.75,0L115,166.05a.7.7,0,0,1,0-1.21l.93-.55a1.76,1.76,0,0,1,1.75,0l3.25,1.87a.71.71,0,0,1,0,1.22Z" class="color969a9f svgShape"></path><path fill="#383838" d="M119.08,168.36a1.88,1.88,0,0,1-1-.26l-3.25-1.87a.91.91,0,0,1-.45-.78.89.89,0,0,1,.45-.78l.93-.55a2,2,0,0,1,1.94,0L121,166a.91.91,0,0,1,.45.78.89.89,0,0,1-.45.78l-.94.55A1.86,1.86,0,0,1,119.08,168.36Zm-2.32-4.11a1.54,1.54,0,0,0-.77.21l-.93.55a.5.5,0,0,0,0,.87l3.25,1.88a1.58,1.58,0,0,0,1.55,0l.93-.55a.5.5,0,0,0,.25-.44.48.48,0,0,0-.25-.43l-3.25-1.88A1.55,1.55,0,0,0,116.76,164.25Z" class="color383838 svgShape"></path><path fill="#6929c2" d="M132.05,174.86a1.74,1.74,0,0,1-1.74,0L127.06,173a.7.7,0,0,1,0-1.21l.93-.56a1.74,1.74,0,0,1,1.74,0l3.26,1.88a.71.71,0,0,1,0,1.22Z" class="color969a9f svgShape"></path><path fill="#383838" d="M131.18,175.29a2,2,0,0,1-1-.26L127,173.15a.89.89,0,0,1,0-1.55l.93-.56a2,2,0,0,1,1.94,0l3.26,1.88a.88.88,0,0,1,.44.78.9.9,0,0,1-.44.78l-.94.55A2,2,0,0,1,131.18,175.29Zm-2.32-4.11a1.64,1.64,0,0,0-.77.2l-.93.56a.5.5,0,0,0,0,.87l3.25,1.88a1.57,1.57,0,0,0,1.54,0l.94-.56a.5.5,0,0,0,.25-.43.52.52,0,0,0-.25-.44l-3.26-1.88A1.58,1.58,0,0,0,128.86,171.18Z" class="color383838 svgShape"></path><path fill="#6929c2" d="M114.37,164.71a1.81,1.81,0,0,1-1.75,0l-3.25-1.88a.7.7,0,0,1,0-1.22l.93-.55a1.76,1.76,0,0,1,1.75,0l3.25,1.88a.7.7,0,0,1,0,1.21Z" class="color969a9f svgShape"></path><path fill="#383838" d="M113.49,165.13a2,2,0,0,1-1-.25L109.27,163a.91.91,0,0,1-.45-.78.89.89,0,0,1,.45-.78l.93-.55a1.92,1.92,0,0,1,1.94,0l3.26,1.88a.89.89,0,0,1,0,1.55l-.94.56A1.92,1.92,0,0,1,113.49,165.13Zm-2.32-4.1a1.53,1.53,0,0,0-.77.2l-.93.55a.5.5,0,0,0-.25.44.48.48,0,0,0,.25.43l3.25,1.88a1.54,1.54,0,0,0,1.55,0l.93-.55a.5.5,0,0,0,0-.87L112,161.23A1.54,1.54,0,0,0,111.17,161Z" class="color383838 svgShape"></path><path fill="#6929c2" d="M143.23,181.31a1.74,1.74,0,0,1-1.74,0l-3.25-1.88a.7.7,0,0,1,0-1.21l.93-.55a1.74,1.74,0,0,1,1.74,0l3.26,1.88a.7.7,0,0,1,0,1.21Z" class="color969a9f svgShape"></path><path fill="#383838" d="M142.36,181.74a1.88,1.88,0,0,1-1-.26l-3.25-1.87a.91.91,0,0,1-.45-.78.89.89,0,0,1,.45-.78l.93-.55a1.92,1.92,0,0,1,1.94,0l3.25,1.87a.89.89,0,0,1,.45.78.87.87,0,0,1-.45.78l-.93.55A1.86,1.86,0,0,1,142.36,181.74ZM140,177.63a1.51,1.51,0,0,0-.77.21l-.93.55a.5.5,0,0,0-.25.44.48.48,0,0,0,.25.43l3.25,1.88a1.52,1.52,0,0,0,1.54,0l.93-.55a.5.5,0,0,0,0-.87l-3.26-1.88A1.49,1.49,0,0,0,140,177.63Z" class="color383838 svgShape"></path><path fill="#c6c1cc" d="M255.61,219.36c.17,3.56-5.94,5.22-9.56,6.84-3,1.19-6.26,6.28-11.1,6.37-32.75.58-1-32.61,14.29-19.21C249.41,213.51,255,215.3,255.61,219.36Z" class="colorc1c8cc svgShape"></path><path fill="#383838" d="M234.09,232.77c-9.62,0-12.59-3-13.37-5.56-1.2-4,2.29-9.64,8.3-13.52,5.81-3.75,14.21-5.86,20.35-.48l.25.1c3.74,1.57,5.82,3.59,6.19,6v0c.15,3.07-4,4.71-7.58,6.16-.75.3-1.46.58-2.1.87a14.24,14.24,0,0,0-3.4,2.41c-2.17,1.83-4.63,3.92-7.77,4Zm6.44-22.41a21.58,21.58,0,0,0-11.3,3.66c-5.86,3.79-9.28,9.29-8.13,13.07.74,2.44,3.61,5.29,13,5.29H235c3-.05,5.4-2.09,7.52-3.89A14.64,14.64,0,0,1,246,226c.63-.28,1.35-.56,2.1-.87,3.5-1.39,7.46-3,7.33-5.76-.34-2.28-2.35-4.2-5.95-5.7a1.45,1.45,0,0,1-.35-.17A12.7,12.7,0,0,0,240.53,210.36Z" class="color383838 svgShape"></path><path fill="#383838" d="M255.6,219.54c-.68,4.62-9,5.69-12.38,9-9.36,10-33.6,2.31-17.83-11.79-11.43,11,2.31,15.77,9.48,12.46,5.27-2.75,8.51-11.49,20.36-11.41A3.49,3.49,0,0,1,255.6,219.54Z" class="color383838 svgShape"></path><path fill="#6929c2" d="M241.4,213.48l1.19.76a4.92,4.92,0,0,0,.7-.27c1-.73,3.82-1.17,5.64-1.41-.29-2.22-5.12-4-7.29.45C241.5,213.3,241.4,213.48,241.4,213.48Z" class="color969a9f svgShape"></path><path fill="#383838" d="M242.56,214.45l-1.42-.9.08-.16s.1-.18.24-.47a4.5,4.5,0,0,1,4.79-2.8,3.28,3.28,0,0,1,2.88,2.41l0,.2-.19,0c-1.1.14-4.44.59-5.55,1.37a4.86,4.86,0,0,1-.77.3Zm-.9-1,1,.61a4.92,4.92,0,0,0,.59-.23c.75-.54,2.56-1,5.49-1.4a3.09,3.09,0,0,0-2.52-1.88,4.11,4.11,0,0,0-4.36,2.59Z" class="color383838 svgShape"></path><path fill="#383838" d="M249.4,213.49a2.73,2.73,0,0,0-2.79-2.34c-2.63-.19-4,3.09-4,3.09A17,17,0,0,1,249.4,213.49Z" class="color383838 svgShape"></path><g opacity=".5" fill="#000000" class="color000000 svgShape"><path fill="#8b39fe" d="M281.14,72.84,164.66,6.43c-1.14-.65-4.53-.13-4.53,2.62V9.3a1.7,1.7,0,0,1,2.55-1.45L279.17,74.26a4.55,4.55,0,0,1,2.29,3.94V184.27a4.53,4.53,0,0,1-4.13,4.51,6.33,6.33,0,0,0,6.1-5.94V76.78A4.54,4.54,0,0,0,281.14,72.84Z" class="colorfeda39 svgShape"></path><path fill="#383838" d="M277.34,188.9l0-.23a4.41,4.41,0,0,0,4-4.4V78.2a4.42,4.42,0,0,0-2.23-3.84L162.63,8a1.6,1.6,0,0,0-2.38,1.35H160V9.06a2.73,2.73,0,0,1,1.42-2.47,3.72,3.72,0,0,1,3.27-.26l116.48,66.4a4.68,4.68,0,0,1,2.35,4V182.84A6.47,6.47,0,0,1,277.34,188.9ZM161.84,7.51a1.81,1.81,0,0,1,.9.24L279.22,74.16a4.65,4.65,0,0,1,2.35,4V184.27a4.6,4.6,0,0,1-2.36,4,6.23,6.23,0,0,0,4.1-5.47V76.78a4.44,4.44,0,0,0-2.23-3.85L164.6,6.53a3.49,3.49,0,0,0-3,.26,2.55,2.55,0,0,0-1.21,1.49,1.77,1.77,0,0,1,.59-.53A1.81,1.81,0,0,1,161.84,7.51Z" class="color383838 svgShape"></path></g><g opacity=".5" fill="#000000" class="color000000 svgShape"><path fill="#8b39fe" d="M274.8,188.27l.11.07.06,0Z" class="colorfeda39 svgShape"></path><path fill="#383838" d="M274.93,188.46l-.06,0-.13-.07.12-.2.11.06,0,0Z" class="color383838 svgShape"></path></g><g opacity=".5" fill="#000000" class="color000000 svgShape"><path fill="#8b39fe" d="M279.17,74.26,162.69,7.85a1.71,1.71,0,0,0-2.56,1.48V121.92a1.72,1.72,0,0,0,.86,1.49l113.68,64.8a4.54,4.54,0,0,0,6.79-3.94V78.2A4.55,4.55,0,0,0,279.17,74.26Z" class="colorfeda39 svgShape"></path><path fill="#383838" d="M276.92,188.93a4.71,4.71,0,0,1-2.31-.62l-113.67-64.8a1.83,1.83,0,0,1-.92-1.59V9.33a1.8,1.8,0,0,1,.91-1.57,1.76,1.76,0,0,1,1.81,0L279.22,74.16a4.65,4.65,0,0,1,2.35,4V184.27a4.67,4.67,0,0,1-4.65,4.66ZM161.84,7.74A1.65,1.65,0,0,0,161,8a1.58,1.58,0,0,0-.79,1.38V121.92a1.63,1.63,0,0,0,.8,1.39l113.68,64.8a4.42,4.42,0,0,0,6.61-3.84V78.2a4.42,4.42,0,0,0-2.23-3.84L162.63,8A1.61,1.61,0,0,0,161.84,7.74Z" class="color383838 svgShape"></path></g><path fill="#383838" fill-rule="evenodd" d="M249.16,157l.37-21.45a2.63,2.63,0,0,0-1.25-2.3L234.75,125a2.71,2.71,0,0,0-4.06,2.32l-.38,21.39a2.65,2.65,0,0,0,1.25,2.3l13.53,8.28A2.7,2.7,0,0,0,249.16,157Z" class="color383838 svgShape"></path><path fill="#8b39fe" fill-rule="evenodd" d="M229.22,142.2c.55,4.14,2.36,7.08,4.6,8h0l12.27,7.31a.49.49,0,0,0,.48,0A.58.58,0,0,0,247,157l.38-21.5a.36.36,0,0,0-.05-.21.45.45,0,0,0-.23-.32l-12.72-7.55a.6.6,0,0,0-.67,0C230.42,130.06,228.44,136.34,229.22,142.2Z" class="colorfeda39 svgShape"></path><path fill="#383838" d="M246.4,157.89a.89.89,0,0,1-.43-.13l-12.25-7.3c-2.42-1-4.19-4.11-4.74-8.23h0c-.78-5.87,1.2-12.29,4.6-14.94a.86.86,0,0,1,.94-.05l12.72,7.56a.65.65,0,0,1,.34.43.59.59,0,0,1,.06.3l-.38,21.5a.8.8,0,0,1-.62.8A.48.48,0,0,1,246.4,157.89ZM233.87,150h0l.08,0,12.26,7.32a.28.28,0,0,0,.26,0,.36.36,0,0,0,.3-.35l.38-21.51a.24.24,0,0,0,0-.07l0-.09a.21.21,0,0,0-.1-.14l-12.73-7.57a.4.4,0,0,0-.41,0c-3.27,2.56-5.17,8.79-4.42,14.5C230,146,231.66,149,233.87,150Z" class="color383838 svgShape"></path><path fill="#383838" d="M234.92,146.31c.25.12.46-.16.37-.46a23.05,23.05,0,0,1-.55-2.51,25,25,0,0,0,2.34,2.91,10.45,10.45,0,0,1,.44-1,.38.38,0,0,0-.08-.44,23.13,23.13,0,0,1-2.19-2.23l1.68.18a.33.33,0,0,0,.33-.46c-.17-.4-.33-.8-.47-1.22a.32.32,0,0,0-.34-.21l-1.33.19a.33.33,0,0,1-.35-.41,16,16,0,0,1,.41-1.85.39.39,0,0,0-.1-.36c-.27-.24-.53-.49-.79-.74a.33.33,0,0,0-.55.24,22.75,22.75,0,0,0-.09,2.35,26.65,26.65,0,0,1-1.53-3.53c-.28.26-.54.54-.81.82a.5.5,0,0,0-.06.54c.41.76.86,1.48,1.32,2.17.19.28,0,.7-.28.66l-.89-.15c-.24,0-.42.27-.33.57q.27.83.57,1.62a.32.32,0,0,0,.38.23l1.21-.43c.2-.06.4.14.4.41a21,21,0,0,0,.11,2.22.45.45,0,0,0,.21.36C234.27,146,234.6,146.16,234.92,146.31Z" class="color383838 svgShape"></path><path fill="#8b39fe" d="M246,157.23a6.48,6.48,0,0,0,.55.37A.58.58,0,0,0,247,157l.38-21.5a.36.36,0,0,0-.05-.21,5.73,5.73,0,0,0-1,.88c-2.73,3-4.31,8.54-3.66,13.78C243.11,153.33,244.37,155.87,246,157.23Z" class="colorfeda39 svgShape"></path><path fill="#383838" d="M246.54,157.86l-.08-.05a5.77,5.77,0,0,1-.58-.39h0c-1.76-1.43-3-4.13-3.44-7.4-.64-5.15.89-10.9,3.72-14a6.86,6.86,0,0,1,1.07-.93l.2-.13.13.2a.57.57,0,0,1,.09.35l-.38,21.5a.8.8,0,0,1-.62.8Zm-.36-.82a3.53,3.53,0,0,0,.43.29.33.33,0,0,0,.17-.3l.38-21.27a7.22,7.22,0,0,0-.66.6c-2.73,3-4.21,8.57-3.59,13.59C243.32,153.09,244.51,155.68,246.18,157Z" class="color383838 svgShape"></path><path fill="#383838" d="M247.24,144.28l-.09,5a.15.15,0,0,1-.25.12,2.75,2.75,0,0,1-.84-1.8,4.55,4.55,0,0,1,.91-3.43A.16.16,0,0,1,247.24,144.28Z" class="color383838 svgShape"></path><path fill="#383838" fill-rule="evenodd" d="M270.28,169.65l.37-21.45a2.63,2.63,0,0,0-1.25-2.3l-13.53-8.23a2.71,2.71,0,0,0-4.06,2.32l-.38,21.39a2.65,2.65,0,0,0,1.25,2.3L266.21,172A2.7,2.7,0,0,0,270.28,169.65Z" class="color383838 svgShape"></path><path fill="#8b39fe" fill-rule="evenodd" d="M250.34,154.84c.55,4.14,2.36,7.08,4.6,8h0l12.27,7.31a.49.49,0,0,0,.48.05.58.58,0,0,0,.44-.57l.38-21.5a.4.4,0,0,0,0-.22.41.41,0,0,0-.23-.3c-1.75-1.05-10.85-6.46-12.72-7.56a.6.6,0,0,0-.67,0C251.54,142.7,249.56,149,250.34,154.84Z" class="colorfeda39 svgShape"></path><path fill="#383838" d="M267.52,170.53a.89.89,0,0,1-.43-.13l-12.25-7.3c-2.42-1-4.19-4.11-4.74-8.23h0c-.78-5.86,1.2-12.29,4.6-14.94a.89.89,0,0,1,.94-.06c1.87,1.12,11,6.52,12.72,7.57a.65.65,0,0,1,.34.43.59.59,0,0,1,.06.3l-.38,21.5a.8.8,0,0,1-.61.8A.54.54,0,0,1,267.52,170.53ZM255,162.64h0l.08,0L267.34,170a.31.31,0,0,0,.26,0,.36.36,0,0,0,.3-.35l.38-21.51a.24.24,0,0,0,0-.07l0-.09a.21.21,0,0,0-.1-.14l-12.73-7.57a.4.4,0,0,0-.41,0c-3.27,2.56-5.17,8.79-4.41,14.49h0C251.09,158.67,252.78,161.66,255,162.64Z" class="color383838 svgShape"></path><path fill="#383838" d="M256,159c.25.12.46-.16.37-.46a25.67,25.67,0,0,1-.55-2.51,25,25,0,0,0,2.34,2.91,10.45,10.45,0,0,1,.44-1,.38.38,0,0,0-.08-.44,23.13,23.13,0,0,1-2.19-2.23q.84.11,1.68.18a.33.33,0,0,0,.33-.46c-.17-.4-.33-.8-.47-1.22a.32.32,0,0,0-.34-.21l-1.33.19a.33.33,0,0,1-.35-.41,16,16,0,0,1,.41-1.85.39.39,0,0,0-.1-.36c-.27-.24-.53-.49-.79-.74a.33.33,0,0,0-.55.24,22.75,22.75,0,0,0-.09,2.35,26.65,26.65,0,0,1-1.53-3.53c-.27.26-.54.54-.81.82a.5.5,0,0,0-.06.54c.41.76.86,1.48,1.32,2.17.19.28,0,.7-.28.66l-.89-.15c-.24,0-.42.27-.33.57q.27.82.57,1.62a.32.32,0,0,0,.38.23l1.21-.43c.2-.06.41.14.4.41a21,21,0,0,0,.11,2.22.45.45,0,0,0,.21.36C255.39,158.63,255.72,158.8,256,159Z" class="color383838 svgShape"></path><path fill="#8b39fe" d="M267.15,169.87a6.48,6.48,0,0,0,.55.37.58.58,0,0,0,.44-.57l.38-21.5a.4.4,0,0,0,0-.22,6.19,6.19,0,0,0-1,.89c-2.73,3-4.31,8.54-3.66,13.78C264.23,166,265.49,168.51,267.15,169.87Z" class="colorfeda39 svgShape"></path><path fill="#383838" d="M267.66,170.5l-.08-.05a5.77,5.77,0,0,1-.58-.39h0c-1.76-1.44-3-4.13-3.44-7.4-.64-5.15.89-10.9,3.72-14a7.34,7.34,0,0,1,1.07-.92l.2-.13.13.2a.57.57,0,0,1,.09.35l-.38,21.5a.8.8,0,0,1-.61.8Zm-.36-.82a3.53,3.53,0,0,0,.43.29.33.33,0,0,0,.17-.3l.38-21.27a7.22,7.22,0,0,0-.66.6c-2.73,3-4.21,8.57-3.59,13.59C264.44,165.73,265.63,168.32,267.3,169.68Z" class="color383838 svgShape"></path><path fill="#383838" d="M268.36,156.92l-.09,5a.15.15,0,0,1-.25.12,2.68,2.68,0,0,1-.83-1.8,4.51,4.51,0,0,1,.9-3.43A.16.16,0,0,1,268.36,156.92Z" class="color383838 svgShape"></path><path fill="#383838" fill-rule="evenodd" d="M228,144.37l.38-21.45a2.63,2.63,0,0,0-1.25-2.3l-13.53-8.23a2.71,2.71,0,0,0-4.06,2.32l-.38,21.39a2.65,2.65,0,0,0,1.25,2.3L224,146.68A2.69,2.69,0,0,0,228,144.37Z" class="color383838 svgShape"></path><path fill="#8b39fe" fill-rule="evenodd" d="M208.1,129.56c.55,4.14,2.36,7.08,4.6,8h0L225,144.91a.49.49,0,0,0,.48.05.58.58,0,0,0,.44-.57l.38-21.5a.42.42,0,0,0-.05-.22.41.41,0,0,0-.23-.3l-12.72-7.56a.6.6,0,0,0-.67,0C209.3,117.42,207.32,123.7,208.1,129.56Z" class="colorfeda39 svgShape"></path><path fill="#383838" d="M225.28,145.25a.89.89,0,0,1-.43-.13l-12.25-7.3c-2.42-1-4.19-4.11-4.74-8.23h0c-.78-5.86,1.2-12.29,4.6-14.94a.86.86,0,0,1,.94-.05l12.72,7.56a.67.67,0,0,1,.34.43.59.59,0,0,1,.06.3l-.38,21.5a.8.8,0,0,1-.62.8A.48.48,0,0,1,225.28,145.25Zm-12.53-7.89h0l.08,0,12.26,7.32a.25.25,0,0,0,.26,0,.36.36,0,0,0,.3-.35l.38-21.51a.24.24,0,0,0,0-.07l0-.09a.21.21,0,0,0-.1-.14L213.16,115a.4.4,0,0,0-.41,0c-3.27,2.56-5.17,8.79-4.42,14.5C208.85,133.39,210.54,136.38,212.75,137.36Z" class="color383838 svgShape"></path><path fill="#383838" d="M213.8,133.67c.24.12.46-.16.37-.46a23.05,23.05,0,0,1-.55-2.51,25,25,0,0,0,2.34,2.91,10.45,10.45,0,0,1,.44-1,.38.38,0,0,0-.08-.44,23.13,23.13,0,0,1-2.19-2.23l1.68.19a.34.34,0,0,0,.33-.46c-.17-.41-.33-.81-.47-1.23a.32.32,0,0,0-.34-.21l-1.33.19a.33.33,0,0,1-.35-.41,16,16,0,0,1,.41-1.85.39.39,0,0,0-.1-.36c-.27-.24-.53-.49-.79-.74a.33.33,0,0,0-.55.24,22.75,22.75,0,0,0-.09,2.35,26.09,26.09,0,0,1-1.53-3.53c-.28.26-.54.54-.81.82a.5.5,0,0,0-.06.54,24.55,24.55,0,0,0,1.32,2.17c.19.28,0,.7-.28.66l-.89-.15c-.24,0-.42.27-.33.57q.27.82.57,1.62a.31.31,0,0,0,.38.23l1.21-.43c.2-.06.4.14.4.41a21,21,0,0,0,.11,2.22.45.45,0,0,0,.21.36C213.15,133.35,213.48,133.52,213.8,133.67Z" class="color383838 svgShape"></path><path fill="#8b39fe" d="M224.91,144.59a6.48,6.48,0,0,0,.55.37.58.58,0,0,0,.44-.57l.38-21.5a.42.42,0,0,0-.05-.22,6.19,6.19,0,0,0-1,.89c-2.73,3-4.31,8.54-3.66,13.78C222,140.69,223.25,143.23,224.91,144.59Z" class="colorfeda39 svgShape"></path><path fill="#383838" d="M225.42,145.22l-.09-.05a6.87,6.87,0,0,1-.57-.39h0c-1.76-1.43-3-4.13-3.44-7.4-.64-5.15.89-10.9,3.72-14a6.86,6.86,0,0,1,1.07-.93l.2-.13.13.2a.65.65,0,0,1,.09.35l-.38,21.5a.8.8,0,0,1-.62.8Zm-.36-.82a3.53,3.53,0,0,0,.43.29.33.33,0,0,0,.17-.3l.38-21.27c-.26.21-.52.46-.66.6-2.73,3-4.21,8.57-3.59,13.59C222.2,140.45,223.39,143,225.06,144.4Z" class="color383838 svgShape"></path><path fill="#383838" d="M226.12,131.64l-.09,5a.15.15,0,0,1-.25.12,2.73,2.73,0,0,1-.84-1.8,4.55,4.55,0,0,1,.91-3.43A.16.16,0,0,1,226.12,131.64Z" class="color383838 svgShape"></path><path fill="#383838" fill-rule="evenodd" d="M206.91,131.73l.38-21.45A2.63,2.63,0,0,0,206,108l-13.53-8.23a2.71,2.71,0,0,0-4.06,2.32l-.38,21.39a2.64,2.64,0,0,0,1.25,2.3L202.85,134A2.69,2.69,0,0,0,206.91,131.73Z" class="color383838 svgShape"></path><path fill="#8b39fe" fill-rule="evenodd" d="M187,116.92c.55,4.14,2.36,7.08,4.6,8h0l12.27,7.31a.49.49,0,0,0,.48,0,.58.58,0,0,0,.44-.57l.38-21.5a.36.36,0,0,0,0-.21.41.41,0,0,0-.23-.31c-1.75-1-10.85-6.46-12.72-7.56a.6.6,0,0,0-.67,0C188.18,104.79,186.2,111.06,187,116.92Z" class="colorfeda39 svgShape"></path><path fill="#383838" d="M204.16,132.61a.89.89,0,0,1-.43-.13l-12.25-7.3c-2.42-1-4.19-4.11-4.74-8.23h0c-.78-5.86,1.2-12.29,4.6-14.94a.86.86,0,0,1,.94-.05L205,109.52a.67.67,0,0,1,.34.43.59.59,0,0,1,.06.3l-.38,21.5a.82.82,0,0,1-.62.81A.6.6,0,0,1,204.16,132.61Zm-12.53-7.89h0l.08,0L204,132.07a.28.28,0,0,0,.26,0,.36.36,0,0,0,.3-.35l.38-21.51a.24.24,0,0,0,0-.07l0-.09a.21.21,0,0,0-.1-.14L192,102.37a.4.4,0,0,0-.41,0c-3.27,2.56-5.17,8.79-4.41,14.5C187.73,120.75,189.42,123.74,191.63,124.72Z" class="color383838 svgShape"></path><path fill="#383838" d="M192.68,121c.24.12.46-.16.37-.46a22.55,22.55,0,0,1-.55-2.51,25,25,0,0,0,2.34,2.91,10.45,10.45,0,0,1,.44-1,.38.38,0,0,0-.08-.44,23.13,23.13,0,0,1-2.19-2.23l1.68.19a.34.34,0,0,0,.33-.46c-.17-.41-.33-.81-.47-1.23a.32.32,0,0,0-.34-.21l-1.33.19a.33.33,0,0,1-.35-.41,16,16,0,0,1,.41-1.85.39.39,0,0,0-.1-.36c-.27-.24-.53-.48-.79-.74a.33.33,0,0,0-.55.25,22.45,22.45,0,0,0-.09,2.34,26.09,26.09,0,0,1-1.53-3.53c-.28.26-.55.54-.81.82a.5.5,0,0,0-.06.54c.41.76.85,1.48,1.32,2.18.19.27,0,.69-.28.65l-.89-.15c-.24,0-.42.27-.33.57q.27.83.57,1.62a.31.31,0,0,0,.38.23l1.21-.43c.2-.06.4.14.4.41a21,21,0,0,0,.11,2.22.45.45,0,0,0,.21.36C192,120.71,192.36,120.88,192.68,121Z" class="color383838 svgShape"></path><path fill="#8b39fe" d="M203.79,132a6.48,6.48,0,0,0,.55.37.58.58,0,0,0,.44-.57l.38-21.5a.36.36,0,0,0,0-.21,5.73,5.73,0,0,0-1,.88c-2.73,3-4.31,8.54-3.66,13.78C200.87,128.05,202.13,130.6,203.79,132Z" class="colorfeda39 svgShape"></path><path fill="#383838" d="M204.3,132.58l-.08-.05a5.77,5.77,0,0,1-.58-.39h0c-1.76-1.43-3-4.13-3.44-7.4-.64-5.15.89-10.89,3.72-14a6.8,6.8,0,0,1,1.07-.93l.2-.13.13.2a.65.65,0,0,1,.09.35l-.38,21.5a.82.82,0,0,1-.62.81Zm-.36-.82a3.53,3.53,0,0,0,.43.29.33.33,0,0,0,.17-.3l.38-21.27c-.26.21-.52.46-.66.6-2.73,3-4.21,8.57-3.59,13.59C201.08,127.81,202.27,130.4,203.94,131.76Z" class="color383838 svgShape"></path><path fill="#383838" d="M205,119l-.09,5a.15.15,0,0,1-.25.12,2.73,2.73,0,0,1-.84-1.8,4.55,4.55,0,0,1,.91-3.43A.16.16,0,0,1,205,119Z" class="color383838 svgShape"></path><path fill="#383838" fill-rule="evenodd" d="M185.79,119.1l.38-21.45a2.63,2.63,0,0,0-1.25-2.31l-13.53-8.23a2.71,2.71,0,0,0-4.06,2.32L167,110.82a2.64,2.64,0,0,0,1.25,2.3l13.53,8.28A2.69,2.69,0,0,0,185.79,119.1Z" class="color383838 svgShape"></path><path fill="#8b39fe" fill-rule="evenodd" d="M165.86,104.28c.55,4.14,2.36,7.08,4.6,8h0l12.27,7.31a.49.49,0,0,0,.48.05.58.58,0,0,0,.44-.57l.38-21.5a.36.36,0,0,0,0-.21.43.43,0,0,0-.23-.31L171,89.53a.6.6,0,0,0-.67,0C167.06,92.15,165.08,98.42,165.86,104.28Z" class="colorfeda39 svgShape"></path><path fill="#383838" d="M183,120a.89.89,0,0,1-.43-.13l-12.25-7.3c-2.42-1-4.19-4.11-4.74-8.23h0c-.78-5.86,1.2-12.28,4.6-14.94a.86.86,0,0,1,.94-.05l12.72,7.56a.67.67,0,0,1,.34.43.59.59,0,0,1,.06.3l-.38,21.5a.82.82,0,0,1-.62.81A.6.6,0,0,1,183,120Zm-12.53-7.89h0l.08,0,12.26,7.32a.28.28,0,0,0,.26,0,.36.36,0,0,0,.3-.35l.38-21.51a.24.24,0,0,0,0-.07l0-.09a.21.21,0,0,0-.1-.14c-1.76-1-10.86-6.46-12.73-7.56a.38.38,0,0,0-.41,0c-3.27,2.55-5.17,8.78-4.41,14.49C166.61,108.11,168.3,111.1,170.51,112.08Z" class="color383838 svgShape"></path><path fill="#383838" d="M171.56,108.4c.24.11.46-.17.37-.47a23.05,23.05,0,0,1-.55-2.51,25,25,0,0,0,2.34,2.91,10.45,10.45,0,0,1,.44-1,.38.38,0,0,0-.08-.44,23.13,23.13,0,0,1-2.19-2.23l1.68.19a.34.34,0,0,0,.33-.46c-.17-.4-.33-.81-.47-1.22a.33.33,0,0,0-.34-.22l-1.33.19a.33.33,0,0,1-.35-.41,16,16,0,0,1,.41-1.85.39.39,0,0,0-.1-.36c-.27-.24-.53-.48-.79-.74a.33.33,0,0,0-.55.25,22.45,22.45,0,0,0-.09,2.34,24.89,24.89,0,0,1-1.53-3.53c-.28.26-.55.54-.81.82a.5.5,0,0,0-.06.54c.41.76.85,1.48,1.32,2.18.19.27,0,.69-.28.65l-.89-.15c-.24,0-.42.27-.33.57q.27.83.57,1.62a.31.31,0,0,0,.38.23l1.21-.43c.2-.06.4.14.4.41a21,21,0,0,0,.11,2.22.45.45,0,0,0,.21.36C170.91,108.08,171.24,108.24,171.56,108.4Z" class="color383838 svgShape"></path><path fill="#8b39fe" d="M182.67,119.31a6.48,6.48,0,0,0,.55.37.58.58,0,0,0,.44-.57l.38-21.5a.36.36,0,0,0,0-.21,5.73,5.73,0,0,0-1,.88c-2.73,3-4.31,8.54-3.66,13.78C179.75,115.41,181,118,182.67,119.31Z" class="colorfeda39 svgShape"></path><path fill="#383838" d="M183.18,119.94l-.08,0a5.77,5.77,0,0,1-.58-.39h0c-1.76-1.44-3-4.14-3.44-7.41-.64-5.15.89-10.89,3.72-14a6.24,6.24,0,0,1,1.07-.93l.2-.13.13.2a.65.65,0,0,1,.09.35l-.38,21.5a.82.82,0,0,1-.62.81Zm-.36-.82a3.53,3.53,0,0,0,.43.29.33.33,0,0,0,.17-.3l.37-21.27a8.33,8.33,0,0,0-.65.6c-2.73,3-4.21,8.57-3.59,13.59C180,115.17,181.15,117.76,182.82,119.12Z" class="color383838 svgShape"></path><path fill="#383838" d="M183.88,106.36l-.09,5a.15.15,0,0,1-.25.12,2.73,2.73,0,0,1-.84-1.8,4.57,4.57,0,0,1,.91-3.43A.16.16,0,0,1,183.88,106.36Z" class="color383838 svgShape"></path><path fill="#6929c2" d="M244.62,77.47c0,5.46-.69,20.59-8,26.42L233.05,107l-.32-1.16a12.87,12.87,0,0,1-6.14,0l-.32-.08a60.94,60.94,0,0,1-13.63-18.67A107.26,107.26,0,0,1,204,60.16l-.13-.12-5.67-4.76v0l4.54-3.94c10.94,4.23,16.9,1.37,19.14-.25h0a7.62,7.62,0,0,0,1-.86l0,0a80,80,0,0,0,17,21.45c1.44,1.31,3,2.6,4.64,3.86C244.58,75.47,244.62,76.21,244.62,77.47Z" class="color969a9f svgShape"></path><path fill="#383838" d="M232.91,107.5l-.37-1.32a13.32,13.32,0,0,1-6-.11l-.39-.08,0,0a60.91,60.91,0,0,1-13.68-18.76,107.32,107.32,0,0,1-8.66-26.89l-.07-.06-5.75-4.83v-.24l.09-.1,4.66-4,.15.06c10.93,4.22,16.85,1.25,18.89-.22a8.49,8.49,0,0,0,1-.84l.25-.28.21.3a80.64,80.64,0,0,0,17,21.38c1.46,1.31,3,2.6,4.63,3.84l.1.07v.13s0,.76,0,2c0,6.06-.79,20.8-8.06,26.62Zm0-2,.29,1,3.28-2.86c7.11-5.69,7.87-20.23,7.87-26.22,0-1,0-1.61,0-1.87-1.59-1.22-3.13-2.5-4.56-3.79a81.67,81.67,0,0,1-16.9-21.21,8.79,8.79,0,0,1-.82.67c-2.11,1.53-8.18,4.58-19.26.36l-4.19,3.64L204.23,60l0,.09A107.06,107.06,0,0,0,212.88,87a60.66,60.66,0,0,0,13.51,18.55l.26.06a12.61,12.61,0,0,0,6,0Z" class="color383838 svgShape"></path><path fill="#6929c2" d="M244.58,75.47l-4.54,4-2.94.51-9.84,1.73-.93-1.33-5.09-7.25-2.09-13.85-.76-5.13,3.48-3h0l1-.86,0,0a80,80,0,0,0,17,21.45C241.38,72.92,242.94,74.21,244.58,75.47Z" class="color969a9f svgShape"></path><path fill="#383838" d="M227.14,82,221,73.11,218.11,54,223,49.78l.19.26a80.64,80.64,0,0,0,17,21.38c1.46,1.31,3,2.6,4.63,3.84l.26.2-4.84,4.21Zm-5.65-9,5.89,8.4,12.55-2.2,4.24-3.69c-1.54-1.19-3-2.42-4.41-3.67a81.67,81.67,0,0,1-16.91-21.23l-.79.68-3.39,3Z" class="color383838 svgShape"></path><path fill="#c6c1cc" d="M233.05,107c-2.65,2.61-6.31,3.91-11.31,2.69a62.36,62.36,0,0,1-14.29-20.08,111.83,111.83,0,0,1-9.26-34.35v0c14.44,5.58,20.2-1.16,20.2-1.16a79.38,79.38,0,0,0,17.22,21.64C237,77,238.48,78.22,240,79.42,240,79.42,241,99.2,233.05,107Z" class="colorc1c8cc svgShape"></path><path fill="#383838" d="M225.36,110.43a15.16,15.16,0,0,1-3.68-.47l-.12-.06a62.25,62.25,0,0,1-14.35-20.16,112.38,112.38,0,0,1-9.28-34.44l0-.42.39.14c14.07,5.43,19.84-1,19.9-1.09l.26-.3.18.35a79.55,79.55,0,0,0,17.16,21.57c1.37,1.24,2.86,2.47,4.41,3.66l.1.07v.13c0,.81.87,20-7.07,27.8h0A10.91,10.91,0,0,1,225.36,110.43Zm-3.49-1c4.43,1.06,8.14.18,11-2.63,7.45-7.34,7-25.62,6.92-27.29-1.54-1.17-3-2.38-4.35-3.61a81.33,81.33,0,0,1-17.12-21.4c-1.3,1.2-7.34,5.8-19.83,1.12a112.06,112.06,0,0,0,9.2,33.86A62,62,0,0,0,221.87,109.47Z" class="color383838 svgShape"></path><path fill="#8b39fe" d="M218.63,58.22s-4.91,5.75-17.23,1c0,0,2.36,30.49,20.08,46.4,17.07,4.16,15.61-25.81,15.61-25.81A68.43,68.43,0,0,1,218.63,58.22Z" class="colorfeda39 svgShape"></path><path fill="#383838" d="M224.57,106.34a13.39,13.39,0,0,1-3.17-.41l-.13-.07C203.66,90,201.11,59.55,201.09,59.24l0-.51.47.19c11.93,4.6,16.82-.85,16.87-.91l.31-.36.22.43a68.85,68.85,0,0,0,18.36,21.47l.12.09v.15c0,.74.8,18.17-6.75,24.4A9.29,9.29,0,0,1,224.57,106.34Zm-2.94-1c3.42.81,6.32.26,8.62-1.64,6.94-5.73,6.59-22,6.53-23.72a70,70,0,0,1-18.23-21.21c-1.28,1.17-6.32,4.81-16.78.94C202.18,63.73,205.51,90.79,221.63,105.33Z" class="color383838 svgShape"></path><path fill="#c6c1cc" d="M222.09,82.91a1.21,1.21,0,0,0,.68-1.23,4.7,4.7,0,0,0-2.28-3.59c-1.26-.73-2.28-.3-2.28,1a4.08,4.08,0,0,0,.9,2.32.34.34,0,0,1,.06.26L218.28,87a.37.37,0,0,0,.17.36l3.66,2.18a.35.35,0,0,0,.53-.35l-.81-5.86A.38.38,0,0,1,222.09,82.91Z" class="colorc1c8cc svgShape"></path><path fill="#383838" d="M222.29,89.81a.61.61,0,0,1-.31-.09l-3.66-2.17a.62.62,0,0,1-.3-.63l.89-5.34a4.53,4.53,0,0,1-1-2.53,1.51,1.51,0,0,1,.69-1.4,2,2,0,0,1,2,.21A4.94,4.94,0,0,1,223,81.68a1.47,1.47,0,0,1-.85,1.47s-.1.06-.09.11l.8,5.85a.59.59,0,0,1-.27.59A.6.6,0,0,1,222.29,89.81ZM219.36,78a.85.85,0,0,0-.46.11,1,1,0,0,0-.42.94,3.86,3.86,0,0,0,.84,2.16.59.59,0,0,1,.11.46L218.54,87a.1.1,0,0,0,0,.09l3.67,2.18a.09.09,0,0,0,.09,0,.08.08,0,0,0,0-.09l-.81-5.85a.63.63,0,0,1,.42-.66h0a1,1,0,0,0,.52-1,4.45,4.45,0,0,0-2.15-3.37A2,2,0,0,0,219.36,78Z" class="color383838 svgShape"></path><path fill="#6929c2" d="M220,87.63a.34.34,0,0,1-.16-.36l.88-5.33a.31.31,0,0,0-.06-.26,4.14,4.14,0,0,1-.89-2.32,1.18,1.18,0,0,1,.76-1.25l0,0c-1.26-.73-2.28-.3-2.28,1a4.08,4.08,0,0,0,.9,2.32.34.34,0,0,1,.06.26L218.28,87a.37.37,0,0,0,.17.36l3.66,2.18a.36.36,0,0,0,.53-.31Z" class="color969a9f svgShape"></path><path fill="#383838" d="M222.29,89.81a.59.59,0,0,1-.31-.09l-3.66-2.17a.62.62,0,0,1-.3-.63l.89-5.34a4.53,4.53,0,0,1-1-2.53,1.51,1.51,0,0,1,.69-1.4,2,2,0,0,1,2,.21l.5.3-.51.2a1,1,0,0,0-.58,1,3.86,3.86,0,0,0,.84,2.16A.59.59,0,0,1,221,82l-.88,5.33a.08.08,0,0,0,0,.09h0L222.9,89v.15a.63.63,0,0,1-.31.54A.67.67,0,0,1,222.29,89.81ZM221,88.51l1.28.76h0ZM219.35,78a.84.84,0,0,0-.45.11,1,1,0,0,0-.42.94,3.86,3.86,0,0,0,.84,2.16.59.59,0,0,1,.11.46L218.54,87a.1.1,0,0,0,0,.09l1.27.76a.64.64,0,0,1-.27-.62l.88-5.33a4.66,4.66,0,0,1-1-2.54,1.63,1.63,0,0,1,.47-1.23A1.64,1.64,0,0,0,219.35,78Z" class="color383838 svgShape"></path></g></g></svg>