<?xml version="1.0" encoding="UTF-8"?>
<!DOCTYPE svg PUBLIC "-//W3C//DTD SVG 1.1//EN" "http://www.w3.org/Graphics/SVG/1.1/DTD/svg11.dtd">
<!-- Creator: CorelDRAW -->
<svg xmlns="http://www.w3.org/2000/svg" xml:space="preserve" width="148.193mm" height="60.1357mm" version="1.1" style="shape-rendering:geometricPrecision; text-rendering:geometricPrecision; image-rendering:optimizeQuality; fill-rule:evenodd; clip-rule:evenodd"
viewBox="0 0 14821.52 6014.47"
 xmlns:xlink="http://www.w3.org/1999/xlink"
 xmlns:xodm="http://www.corel.com/coreldraw/odm/2003">
 <defs>
  <style type="text/css">
   <![CDATA[
    .fil0 {fill:#2A96F8}
    .fil1 {fill:#57AEFE}
   ]]>
  </style>
 </defs>
 <g id="Layer_x0020_1">
  <metadata id="CorelCorpID_0Corel-Layer"/>
  <path class="fil0" d="M7421.54 2922.2l0 -339.46 -610.44 0.26 0 3428.89 610.44 2.49 0.13 -1356.22c124.82,139.47 278.23,281.7 525.76,343.07 258.94,64.19 528.22,31.07 742.58,-75.19 853.22,-422.97 826.71,-1889.17 7.61,-2274.22 -328.09,-154.23 -723.24,-156.78 -1039.24,54.56 -127.74,85.44 -84.97,63.85 -178.56,150.81 -21.83,20.29 -10.51,9.64 -27.98,30.48l-30.29 34.53zm523.42 169.56c-352.96,74.71 -572.69,381.75 -516.98,815.94 83.61,651.78 840.02,780.61 1148.28,304.89 317.23,-489.54 -15.52,-1251.18 -631.3,-1120.83z"/>
  <path class="fil0" d="M10222.32 2919.88l-0.12 -337.12 -610.54 0.39 0 3426.79 610.46 4.53 0.15 -1355.53c146.31,158.5 299.8,284.6 524.72,342.26 746.91,191.45 1368.78,-390.26 1372.86,-1214.31 5.57,-1122.82 -1083.7,-1583.52 -1789.29,-983.65 -43.35,36.87 -77.98,95.11 -108.25,116.64zm521.74 171.87c-835.45,176.48 -610.84,1561.49 234.75,1394.18 338.88,-67.06 564.72,-408.53 510.2,-828.2 -44.21,-340.25 -343.1,-650.87 -744.94,-565.97z"/>
  <path class="fil0" d="M5887.15 4650.01l4.84 344.13 607.92 0.07 4.36 -2411.45 -613.46 -0.03 -0.2 334.98c-24.3,-20.86 -26.44,-32.32 -50.25,-54.97 -145.01,-137.95 -265.57,-237.11 -476.08,-288.58 -703.61,-172.04 -1369.12,322.26 -1371.92,1212.72 -2.75,873.66 677.49,1396.69 1372.82,1214.09 155.59,-40.87 315.85,-127.5 419.12,-240.31l102.85 -110.66zm-728.78 -1564.21c-355.69,53.43 -581.35,370.88 -538.69,787.26 37.08,361.94 318.49,679.34 730.72,616.93 357.37,-54.11 573,-378.75 536.35,-791.13 -32.74,-368.62 -317.66,-674.75 -728.38,-613.06z"/>
  <path class="fil0" d="M3002.96 6008.32l2.3 -1001.36c-875.32,-8.38 -1343.17,-1043.32 -712.1,-1702.55 221.43,-231.31 415.77,-263.98 709.3,-302.33l2.84 -995.71c-237.45,-30.52 -629.94,88.45 -816.55,169.91 -437.85,191.14 -812.32,558.93 -1005.64,994.01 -607.88,1368.12 387.16,2839.61 1819.85,2838.03z"/>
  <path class="fil0" d="M13664.85 2422.61l-2.71 159.42 -283.81 0.7 0 500.19 285.16 0.3c15.98,368.08 -48.74,1196.25 47.31,1482.66 65.12,194.23 192.04,316.49 384.17,380.35 209.6,69.67 488.92,48.28 719.99,47.89 11.45,-96.07 4.48,-397.22 4.27,-513.44 -587.56,-0.02 -539.46,22.33 -539.46,-552.67 0,-272.28 -12.47,-575.19 1.43,-843.69l538 -1.4 0 -500.2 -535.76 -0.51 -3.86 -596.52 -614.73 0.06 0.01 436.86z"/>
  <path class="fil0" d="M1392.86 9.2c-463.73,69.4 -750.1,482.94 -682.4,915.59 61.82,395 438.85,744.72 918.11,667.66 394.79,-63.48 739.34,-438.27 666.42,-910.94 -61.85,-400.91 -433.38,-742.46 -902.12,-672.31z"/>
  <path class="fil0" d="M12459.29 4991.11l604.04 3.27c18.96,-106.78 8.92,-2374.46 -3.12,-2411.86l-596.59 0.19 -4.33 2408.4z"/>
  <path class="fil1" d="M-0 5006.94l0.2 1001.56c415.32,-1 794.47,-123.78 1116.38,-340.53 82.96,-55.85 216.86,-154.66 268.03,-220.87 -475.95,-575.91 -433.7,-862.78 -502.31,-961.79 -28.98,33.78 -41.78,65.28 -68.42,103.48 -80.18,114.95 -164.56,186.14 -271.66,257.81 -147.28,98.58 -331.85,158 -542.21,160.35z"/>
  <path class="fil1" d="M0.4 3005.1c289.76,1.18 560.15,127.9 732.67,319.5 60.35,67.04 89.57,115.97 149.22,201.13 27.7,-40.53 64.49,-210.82 88.01,-274.36 34.6,-93.45 72.29,-167.85 113.62,-250.4 83.49,-166.78 191.76,-313.39 297.66,-437.23 -44.2,-65.06 -200.05,-177.23 -266.18,-221.36 -96.01,-64.1 -194.2,-122 -310.41,-171.64 -268.25,-114.56 -478.52,-154.66 -802.16,-168.93l-2.44 1003.28z"/>
  <path class="fil0" d="M12727.04 1583.26c-495.65,55.25 -417.71,764.74 92.51,708.88 196.16,-21.47 350.75,-184.42 319.03,-410.52 -25.54,-182.05 -199.89,-321.95 -411.54,-298.35z"/>
 </g>
</svg>
