<?xml version="1.0" encoding="UTF-8"?>
<!DOCTYPE svg PUBLIC "-//W3C//DTD SVG 1.1//EN" "http://www.w3.org/Graphics/SVG/1.1/DTD/svg11.dtd">
<!-- Creator: CorelDRAW X6 -->
<svg xmlns="http://www.w3.org/2000/svg" xml:space="preserve" width="1195px" height="197px" version="1.1" style="shape-rendering:geometricPrecision; text-rendering:geometricPrecision; image-rendering:optimizeQuality; fill-rule:evenodd; clip-rule:evenodd"
viewBox="0 0 7553 1245"
 xmlns:xlink="http://www.w3.org/1999/xlink">
 <defs>
  <style type="text/css">
   <![CDATA[
    .fil1 {fill:#FEFEFE}
    .fil2 {fill:#0C395C}
    .fil0 {fill:#54C3FF}
   ]]>
  </style>
 </defs>
 <g id="Layer_x0020_1">
  <metadata id="CorelCorpID_0Corel-Layer"/>
  <path class="fil0" d="M6393 864l147 0c47,0 67,-22 67,-69l0 -362c0,-47 -21,-69 -67,-69l-147 0c-46,0 -66,23 -66,69l0 362c0,46 20,69 66,69zm-664 0l147 0c47,0 67,-22 67,-69l0 -362c0,-47 -21,-69 -67,-69l-147 0c-47,0 -66,23 -66,69l0 362c0,46 20,69 66,69zm-709 -499l0 230 190 0c47,0 69,-20 69,-68l0 -93c0,-47 -21,-69 -69,-69l-190 0zm2398 94l-123 345c-6,17 -19,27 -37,27l-96 0c-18,0 -30,-10 -36,-27l-126 -347 0 497c0,9 -1,18 -8,25 -6,6 -16,8 -25,8l-68 0c-20,0 -33,-12 -33,-33l0 -678c0,-20 12,-33 33,-33l125 0c14,0 25,8 31,21l154 401 156 -400c3,-15 15,-22 30,-22l125 0c20,0 33,12 33,33l0 678c0,20 -12,33 -33,33l-69 0c-20,0 -33,-12 -33,-33l0 -495zm-862 528l-179 0c-51,0 -101,-13 -137,-50 -36,-37 -49,-86 -49,-137l0 -371c0,-51 12,-101 49,-137 37,-37 86,-49 137,-49l179 0c51,0 101,13 138,49 37,37 50,87 50,137l0 371c0,51 -13,100 -50,137 -37,37 -87,50 -138,50zm-664 0l-179 0c-51,0 -101,-13 -137,-50 -36,-37 -49,-86 -49,-137l0 -371c0,-51 12,-100 49,-137 37,-37 86,-49 137,-49l179 0c51,0 101,13 138,49 37,37 50,87 50,137l0 371c0,51 -13,100 -50,137 -37,37 -87,50 -138,50zm-579 -292l119 250c14,25 1,42 -27,42l-69 0c-21,0 -39,-7 -47,-27l-115 -248 -153 0 0 242c0,20 -12,33 -33,33l-70 0c-20,0 -33,-12 -33,-33l0 -678c0,-20 12,-33 33,-33l311 0c51,0 100,13 137,50 37,37 50,86 50,137l0 94c0,79 -29,141 -102,170z"/>
  <path class="fil1" d="M3218 864l147 0c47,0 67,-22 67,-69l0 -362c0,-47 -21,-69 -67,-69l-147 0c-47,0 -66,23 -66,69l0 362c0,46 20,69 66,69zm-664 0l147 0c47,0 68,-22 68,-69l0 -362c0,-47 -21,-69 -68,-69l-147 0c-47,0 -66,23 -66,69l0 362c0,46 20,69 66,69zm-720 -200l0 202 204 0c46,0 70,-19 70,-66l0 -69c0,-49 -27,-66 -74,-66l-200 0zm0 -302l0 185 193 0c47,0 71,-19 71,-68l0 -51c0,-47 -22,-66 -69,-66l-196 0zm1548 623l-179 0c-51,0 -101,-13 -137,-50 -36,-37 -49,-86 -49,-137l0 -371c0,-51 12,-100 49,-137 37,-37 86,-49 137,-49l179 0c51,0 101,12 138,49 37,37 50,86 50,137l0 371c0,51 -13,100 -50,137 -37,37 -87,50 -138,50zm-664 0l-179 0c-51,0 -101,-13 -137,-50 -36,-37 -49,-86 -49,-137l0 -371c0,-51 12,-100 49,-137 37,-37 86,-49 137,-49l179 0c51,0 101,12 138,49 37,37 50,86 50,137l0 371c0,51 -13,100 -50,137 -37,37 -87,50 -138,50zm-549 -383c16,7 29,18 41,31 24,27 32,61 32,96l0 71c0,51 -13,99 -50,136 -37,36 -86,48 -137,48l-324 0c-20,0 -33,-12 -33,-33l0 -678c0,-20 12,-33 33,-33l314 0c51,0 100,12 138,48 37,36 50,85 50,136l0 55c0,56 -21,97 -64,122z"/>
  <path class="fil1" d="M4482 365l-163 0c-20,0 -34,-12 -34,-33l0 -57c0,-21 13,-33 34,-33l463 0c20,0 34,12 34,33l0 57c0,21 -13,33 -34,33l-164 0 0 588c0,20 -12,33 -33,33l-70 0c-20,0 -34,-12 -34,-33l0 -588z"/>
  <path class="fil1" d="M3678 798l0 -29c0,-20 12,-33 33,-33l71 0c20,0 33,13 33,33l0 20c0,18 3,44 17,58 14,14 40,17 59,17l127 0c19,0 45,-3 59,-18 14,-15 17,-41 17,-61l0 -26c0,-19 -7,-34 -22,-45 -18,-13 -39,-21 -61,-24 -30,-4 -110,-11 -139,-17 -30,-7 -60,-16 -90,-26 -31,-11 -56,-33 -74,-60 -22,-32 -30,-71 -30,-110l0 -47c0,-51 13,-100 50,-137 37,-37 86,-50 137,-50l168 0c52,0 101,13 138,50 37,37 50,86 50,137l0 24c0,20 -13,33 -33,33l-71 0c-20,0 -33,-12 -33,-33l0 -14c0,-19 -3,-45 -17,-59 -14,-14 -40,-17 -59,-17l-120 0c-19,0 -45,3 -58,17 -14,15 -17,45 -17,65l0 35c0,34 34,48 62,55 23,6 96,10 119,13 27,4 53,10 79,17 26,7 51,18 74,31 25,14 44,36 58,61 16,30 22,64 22,97l0 43c0,51 -13,100 -50,137 -37,37 -86,50 -137,50l-175 0c-51,0 -100,-13 -138,-50 -37,-37 -51,-86 -51,-137z"/>
  <rect class="fil2" width="1245" height="1245" rx="352" ry="352"/>
  <path class="fil1" d="M514 496c67,0 130,26 177,73 47,47 73,110 73,177 0,67 -26,130 -73,177 -47,47 -110,73 -177,73 -67,0 -130,-26 -177,-73 -47,-47 -73,-110 -73,-177 0,-4 0,-7 0,-11l0 -482 133 0 0 493c0,31 12,60 34,82 22,22 51,34 82,34 31,0 60,-12 82,-34 22,-22 34,-51 34,-82 0,-31 -12,-60 -34,-82 -22,-22 -51,-34 -82,-34l-1 0 0 -133 1 0z"/>
  <path class="fil0" d="M514 251c132,0 257,52 350,145 93,93 145,218 145,350l0 250 -133 0 0 -250c0,-96 -38,-188 -106,-256 -68,-68 -159,-106 -256,-106l-1 0 0 -133 1 0z"/>
 </g>
</svg>
